<?xml version="1.0" encoding="UTF-8"?>
<svg width="40px" height="40px" viewBox="0 0 40 40" version="1.1" xmlns="http://www.w3.org/2000/svg" xmlns:xlink="http://www.w3.org/1999/xlink">
    <!-- Generator: Sketch 49.1 (51147) - http://www.bohemiancoding.com/sketch -->
    <title>ic_boy</title>
    <desc>Created with Sketch.</desc>
    <defs></defs>
    <g id="Page-1" stroke="none" stroke-width="1" fill="none" fill-rule="evenodd">
        <g id="01-04-MainScreen-TableView" transform="translate(-450.000000, -266.000000)">
            <g id="ic_boy" transform="translate(450.000000, 266.000000)">
                <g id="Group-7">
                    <circle id="Oval" fill="#FFFFFF" fill-rule="nonzero" cx="20" cy="20" r="20"></circle>
                    <path d="M27.8593156,28.1 C26.9695817,29.6 26.0798479,30.8 24.7946768,31.5 C22.1254753,32.9 19.9505703,33.9 19.9505703,33.9 L15.3041825,31.5 C14.0190114,30.8 12.8326996,29.5 11.9429658,28 C9.76806084,28.9 8.08745247,30.4 7,32.2 C10.2623574,35.8 14.9087452,38 20.0494297,38 C25.1901141,38 29.8365019,35.8 33,32.3 C31.8136882,30.6 30.0342205,29 27.8593156,28.1 Z" id="Shape" fill="#29486B" fill-rule="nonzero"></path>
                    <path d="M16.871366,17.0772358 C16.3647616,17.2804878 15.8581572,17.3821138 15.4528736,17.5853659 C15.0475901,17.7886179 14.6423066,17.9918699 14.2370231,18.195122 C14.0343813,18.296748 13.9330604,18.398374 13.7304187,18.5 C13.6290978,18.601626 13.426456,18.703252 13.3251351,18.804878 C13.0211725,19.0081301 12.8185307,19.2113821 12.7172098,19.4146341 C12.4132472,19.8211382 12.2106054,20.0243902 12.2106054,20.0243902 C12.2106054,20.0243902 12.4132472,19.9227642 12.9198516,19.7195122 C13.1224934,19.6178862 13.426456,19.5162602 13.6290978,19.3130081 C13.9330604,19.2113821 14.2370231,19.0081301 14.6423066,18.9065041 C15.0475901,18.804878 15.4528736,18.601626 15.8581572,18.5 C16.2634407,18.398374 16.7700451,18.296748 17.1753286,18.195122 C17.681933,18.0934959 18.1885374,18.0934959 18.593821,17.9918699 C19.1004254,17.8902439 19.6070298,17.9918699 20.1136342,17.9918699 C20.6202386,17.9918699 21.126843,17.9918699 21.6334474,18.0934959 C22.1400518,18.0934959 22.6466562,18.195122 23.0519397,18.296748 C23.4572233,18.398374 23.9638277,18.5 24.3691112,18.601626 C24.7743947,18.703252 25.1796783,18.9065041 25.5849618,19.0081301 C25.9902453,19.1097561 26.294208,19.3130081 26.5981706,19.4146341 C26.9021332,19.5162602 27.2060959,19.6178862 27.3074168,19.8211382 C27.7127003,20.0243902 28.0166629,20.1260163 28.0166629,20.1260163 C28.0166629,20.1260163 27.8140212,19.9227642 27.5100585,19.5162602 C27.4087376,19.3130081 27.2060959,19.1097561 26.9021332,18.9065041 C26.8008124,18.804878 26.5981706,18.703252 26.4968497,18.601626 C26.3955288,18.5 26.1928871,18.398374 25.9902453,18.296748 C25.7876035,18.195122 25.6862827,18.0934959 25.4836409,17.8902439 C25.2809991,17.7886179 25.0783574,17.6869919 24.8757156,17.5853659 C24.4704321,17.3821138 23.9638277,17.1788618 23.4572233,16.9756098 C22.9506189,16.8739837 22.4440145,16.6707317 21.8360892,16.5691057 C21.3294848,16.4674797 20.7215595,16.4674797 20.1136342,16.3658537 C19.5057089,16.3658537 18.9991045,16.3658537 18.3911792,16.4674797 C17.8845748,16.7723577 17.3779704,16.9756098 16.871366,17.0772358 Z M18.6951418,7.52439024 C18.6951418,7.62601626 18.6951418,7.72764228 18.6951418,7.82926829 C14.8449483,8.43902439 12.0079637,11.4878049 11.0960757,15.9593496 C11.0960757,15.9593496 10.9947549,15.9593496 10.9947549,15.9593496 C10.3868296,16.0609756 9.88022516,16.4674797 9.47494163,17.0772358 C8.96833722,17.8902439 8.86701634,19.0081301 9.17097899,20.1260163 C9.47494163,21.4471545 10.3868296,22.5650407 11.4000384,22.8699187 C12.615889,26.8333333 15.7568363,31 20.0123133,31 C24.2677903,31 27.4087376,26.8333333 28.6245882,22.8699187 C29.637797,22.4634146 30.549685,21.4471545 30.8536476,20.1260163 C31.1576103,19.0081301 30.9549685,17.8902439 30.549685,17.0772358 C30.2457223,16.4674797 29.637797,16.0609756 29.0298717,15.9593496 C29.0298717,15.9593496 28.9285509,15.9593496 28.9285509,15.9593496 C28.1179838,11.5894309 25.1796783,8.43902439 21.3294848,7.82926829 C21.3294848,7.72764228 21.3294848,7.62601626 21.3294848,7.52439024 C21.3294848,6.71138211 20.6202386,6 19.8096715,6 C19.404388,6.10162602 18.6951418,6.71138211 18.6951418,7.52439024 Z M28.0166629,17.3821138 L28.6245882,17.2804878 C28.7259091,17.2804878 28.82723,17.2804878 28.9285509,17.2804878 C29.2325135,17.3821138 29.4351553,17.5853659 29.5364762,17.7886179 C29.8404388,18.296748 29.9417597,19.0081301 29.7391179,19.7195122 C29.4351553,20.8373984 28.7259091,21.4471545 28.2193047,21.5487805 L27.7127003,21.6504065 L27.6113794,22.0569106 C26.5981706,25.8170732 23.7611859,29.5772358 20.2149551,29.5772358 C16.6687242,29.5772358 13.8317395,25.8170732 12.8185307,22.0569106 L12.7172098,21.6504065 L12.2106054,21.5487805 C11.6026801,21.4471545 10.893434,20.8373984 10.6907922,19.7195122 C10.4881504,19.0081301 10.5894713,18.296748 10.893434,17.7886179 C10.9947549,17.5853659 11.1973966,17.3821138 11.5013593,17.2804878 C11.5013593,17.2804878 11.6026801,17.2804878 11.704001,17.2804878 C11.704001,17.2804878 11.8053219,17.2804878 11.8053219,17.2804878 L12.1092845,17.2804878 L12.5145681,16.9756098 C19.7083507,12.300813 27.104775,16.8739837 28.0166629,17.3821138 Z" id="Shape" fill="#29486B" fill-rule="nonzero"></path>
                </g>
            </g>
        </g>
    </g>
</svg>