<?xml version="1.0" encoding="UTF-8"?>
<svg width="40px" height="40px" viewBox="0 0 40 40" version="1.1" xmlns="http://www.w3.org/2000/svg" xmlns:xlink="http://www.w3.org/1999/xlink">
    <!-- Generator: Sketch 49.1 (51147) - http://www.bohemiancoding.com/sketch -->
    <title>ic_girl</title>
    <desc>Created with Sketch.</desc>
    <defs></defs>
    <g id="Page-1" stroke="none" stroke-width="1" fill="none" fill-rule="evenodd">
        <g id="01-04-MainScreen-TableView" transform="translate(-519.000000, -272.000000)">
            <g id="ic_girl" transform="translate(519.000000, 272.000000)">
                <g id="Group-3">
                    <circle id="Oval" fill="#FFFFFF" fill-rule="nonzero" cx="20" cy="20" r="20"></circle>
                    <path d="M10.536792,15.0410959 C10.0406389,15.7442922 9.84217765,16.8493151 10.1398695,17.9543379 C10.2391002,18.3561644 10.4375614,18.7579909 10.6360227,19.1598174 C11.1321758,23.5799087 12.8190965,25.086758 15.1014009,25.6894977 C16.3913991,27.0958904 18.0783198,28 20.0629323,28 C21.9483143,28 23.6352349,26.9954338 25.0244637,25.5890411 C25.6198475,25.3881279 26.2152313,25.1872146 26.7113844,24.7853881 C26.7113844,24.7853881 26.810615,24.6849315 26.810615,24.6849315 C27.9021519,23.7808219 28.5967663,22.2739726 28.9936888,19.7625571 C29.3906114,19.260274 29.7875339,18.6575342 29.8867645,17.9543379 C30.1844564,16.5479452 29.8867645,15.2420091 29.0929195,14.5388128 C28.3983051,9.71689498 24.5283106,6 19.8644711,6 C14.9029397,6 10.9337146,10.0182648 10.536792,15.0410959 Z M11.297506,17.7014401 C11.0856174,16.6757991 11.297506,15.6501581 11.7919127,15.3424658 C11.7919127,16.6757991 11.9331718,18.0091324 12.2156899,19.3424658 C11.7919127,19.1373375 11.4387651,18.624517 11.297506,17.7014401 Z M28.0021519,15.4429224 C28.6021519,15.6714938 28.9021519,16.8143509 28.6021519,17.9572081 C28.5021519,18.6429224 28.2021519,19.1000652 27.9021519,19.4429224 C28.2021519,18.4143509 28.2021519,16.9286367 28.0021519,15.4429224 Z M27.1090947,19.7871734 C26.3868724,22.1330381 24.8392534,24.4789027 22.8789359,25.6518351 C22.0535391,26.1405569 21.1249677,26.43379 20.1963962,26.43379 C19.2678248,26.43379 18.3392534,26.1405569 17.5138566,25.6518351 C16.1725867,24.8698802 14.9344915,23.5014591 14.1090947,21.9375494 C14.2122693,21.6443163 14.2122693,21.2533388 14.3154439,20.6668727 C14.6249677,17.8322862 15.2440153,15.5841659 16.0694121,13.8247674 C16.5852851,13.727023 17.2043327,13.6292787 17.7202058,13.43379 C17.926555,13.6292787 18.1329042,13.727023 18.3392534,13.9225118 C19.474174,14.7044666 20.7122693,15.1931885 21.9503645,15.3886772 C23.3948089,15.4864215 25.7678248,19.1029629 27.1090947,19.7871734 Z" id="Shape" fill="#29486B" fill-rule="nonzero"></path>
                    <path d="M27.1450382,26 C26.351145,27.3 25.4580153,28.4 24.2671756,29 C21.8854962,30.3 20,31.3 20,31.3 C20,31.3 18.2137405,30.3 15.7328244,29 C14.5419847,28.4 13.648855,27.3 12.8549618,26 C9.8778626,27.2 7.59541985,29.8 7,32.3 C10.2748092,35.8 14.8396947,38 20,38 C25.1603053,38 29.7251908,35.8 33,32.3 C32.3053435,29.7 30.1221374,27.2 27.1450382,26 Z" id="Shape" fill="#29486B" fill-rule="nonzero"></path>
                </g>
            </g>
        </g>
    </g>
</svg>