<?xml version="1.0" encoding="UTF-8"?>
<svg width="40px" height="40px" viewBox="0 0 40 40" version="1.1" xmlns="http://www.w3.org/2000/svg" xmlns:xlink="http://www.w3.org/1999/xlink">
    <!-- Generator: Sketch 49.1 (51147) - http://www.bohemiancoding.com/sketch -->
    <title>ic_man</title>
    <desc>Created with Sketch.</desc>
    <defs></defs>
    <g id="Page-1" stroke="none" stroke-width="1" fill="none" fill-rule="evenodd">
        <g id="01-04-MainScreen-TableView" transform="translate(-393.000000, -190.000000)">
            <g id="ic_man" transform="translate(393.000000, 190.000000)">
                <g id="Group-4">
                    <circle id="Oval" fill="#FFFFFF" fill-rule="nonzero" cx="20" cy="20" r="20"></circle>
                    <path d="M10.033557,10.8551136 C10.033557,11.4517045 10.1342282,12.0482955 10.3355705,12.6448864 C9.32885906,13.3409091 8.9261745,14.8323864 9.32885906,16.4232955 C9.63087248,17.7159091 10.5369128,18.8096591 11.5436242,19.1079545 C12.7516779,23.0852273 15.8724832,27.1619318 20.1006711,27.1619318 C24.3288591,27.1619318 27.4496644,23.0852273 28.6577181,19.1079545 C29.6644295,18.7102273 30.5704698,17.7159091 30.8724832,16.4232955 C31.3758389,14.6335227 30.6711409,12.9431818 29.3624161,12.3465909 C29.4630872,11.8494318 29.5637584,11.3522727 29.5637584,10.8551136 C29.5637584,6.48011364 25.2348993,3 19.7986577,3 C14.3624161,3 10.033557,6.48011364 10.033557,10.8551136 Z M26.1409396,8.76704545 C26.9463087,9.96022727 27.4496644,11.3522727 27.7516779,12.9431818 L27.852349,13.6392045 L28.557047,13.5397727 C28.6577181,13.5397727 28.7583893,13.5397727 28.8590604,13.5397727 C28.8590604,13.5397727 28.9597315,13.5397727 28.9597315,13.6392045 C29.5637584,13.9375 29.8657718,14.9318182 29.6644295,16.0255682 C29.3624161,17.1193182 28.6577181,17.7159091 28.1543624,17.8153409 L27.6510067,17.9147727 L27.5503356,18.3125 C26.5436242,21.9914773 23.7248322,25.7698864 20.2013423,25.7698864 C16.6778523,25.7698864 13.8590604,22.0909091 12.852349,18.3125 L12.7516779,17.9147727 L12.2483221,17.8153409 C11.6442953,17.7159091 10.9395973,17.1193182 10.738255,16.0255682 C10.5369128,15.2301136 10.6375839,14.5340909 10.9395973,14.0369318 C11.0402685,13.8380682 11.2416107,13.6392045 11.5436242,13.5397727 C11.5436242,13.5397727 11.6442953,13.5397727 11.6442953,13.5397727 C11.6442953,13.5397727 11.7449664,13.5397727 11.7449664,13.5397727 L12.4496644,13.6392045 L12.5503356,12.9431818 C12.7516779,11.5511364 13.1543624,10.3579545 13.7583893,9.26420455 C14.8657718,10.5568182 17.1812081,11.3522727 19.7986577,11.3522727 C22.7181208,11.4517045 25.2348993,10.3579545 26.1409396,8.76704545 Z M28.3557047,23.8806818 C31.4765101,25.1732955 33.8926174,27.5596591 35,30.0454545 C31.7785235,34.8181818 26.2416107,38 20,38 C13.7583893,38 8.22147651,34.9176136 5,30.2443182 C6.10738255,27.6590909 8.52348993,25.1732955 11.6442953,23.8806818 C12.5503356,25.3721591 13.557047,26.6647727 14.966443,27.3607955 C17.885906,28.7528409 20,29.9460227 20,29.9460227 C20,29.9460227 22.2147651,28.8522727 25.033557,27.3607955 C26.442953,26.6647727 27.4496644,25.3721591 28.3557047,23.8806818 Z" id="Combined-Shape" fill="#29486B" fill-rule="nonzero"></path>
                </g>
            </g>
        </g>
    </g>
</svg>