<?xml version="1.0" encoding="UTF-8"?>
<svg width="40px" height="40px" viewBox="0 0 40 40" version="1.1" xmlns="http://www.w3.org/2000/svg" xmlns:xlink="http://www.w3.org/1999/xlink">
    <!-- Generator: Sketch 49.1 (51147) - http://www.bohemiancoding.com/sketch -->
    <title>ic_old_man</title>
    <desc>Created with Sketch.</desc>
    <defs></defs>
    <g id="Page-1" stroke="none" stroke-width="1" fill="none" fill-rule="evenodd">
        <g id="01-04-MainScreen-TableView" transform="translate(-596.000000, -272.000000)">
            <g id="ic_old_man" transform="translate(596.000000, 272.000000)">
                <circle id="Oval" fill="#FFFFFF" fill-rule="nonzero" cx="20" cy="20" r="20"></circle>
                <g id="Group" stroke-width="1" fill-rule="evenodd" transform="translate(6.000000, 4.000000)" fill="#29486B">
                    <path d="M12.3009963,0.0155844156 C11.902585,0.0155844156 11.5041737,0.501098901 11.1057624,0.598201798 C10.7073511,0.695304695 10.2093369,0.403996004 9.8109256,0.501098901 C9.41251428,0.598201798 9.11370579,1.18081918 8.8148973,1.37502498 C8.41648598,1.56923077 7.818869,1.37502498 7.52006051,1.66633367 C7.12164919,1.86053946 7.02204636,2.44315684 6.72323787,2.73446553 C6.42442938,3.02577423 5.8268124,3.02577423 5.52800391,3.31708292 C5.22919542,3.60839161 5.32879825,4.19100899 5.12959259,4.57942058 C4.93038693,4.96783217 4.33276995,5.06493506 4.23316712,5.45334665 C4.03396146,5.84175824 4.33276995,6.32727273 4.23316712,6.71568432 C4.13356429,7.1040959 3.73515297,7.49250749 3.73515297,7.88091908 C3.73515297,8.26933067 4.23316712,8.65774226 4.23316712,9.04615385 C4.23316712,9.24035964 4.23316712,9.43456543 4.23316712,9.62877123 C3.23713882,10.3084915 2.73912467,11.765035 3.13753599,13.3186813 C3.43634448,14.6781219 4.33276995,15.6491508 5.42840108,16.0375624 C6.62363504,19.9216783 9.8109256,24 13.9942445,24 C18.2771661,24 21.3648539,19.9216783 22.5600878,16.0375624 C23.5561161,15.6491508 24.4525416,14.6781219 24.8509529,13.3186813 C25.3489671,11.4737263 24.5521444,9.72587413 23.1577048,9.24035964 C23.1577048,9.14325674 23.1577048,9.04615385 23.1577048,9.04615385 C23.2573076,8.65774226 23.655719,8.26933067 23.655719,7.88091908 C23.655719,7.49250749 23.1577048,7.1040959 23.1577048,6.71568432 C23.058102,6.32727273 23.3569105,5.84175824 23.1577048,5.45334665 C22.9584992,5.06493506 22.460485,4.87072927 22.2612793,4.57942058 C22.0620737,4.19100899 22.1616765,3.70549451 21.862868,3.31708292 C21.5640595,3.02577423 20.9664426,3.02577423 20.6676341,2.73446553 C20.3688256,2.44315684 20.2692227,1.86053946 19.8708114,1.66633367 C19.4724001,1.47212787 18.974386,1.56923077 18.5759746,1.37502498 C18.1775633,1.18081918 17.9783577,0.695304695 17.5799463,0.501098901 C17.181535,0.403996004 16.6835209,0.598201798 16.2851095,0.598201798 C15.8866982,0.501098901 15.4882869,0.0155844156 15.0898756,0.0155844156 C14.6914643,0.0155844156 14.1934501,0.306893107 13.7950388,0.306893107 C13.1974218,0.306893107 12.6994077,-0.0815184815 12.3009963,0.0155844156 Z M21.5640595,10.0171828 L21.6636624,10.6969031 L22.3608822,10.5998002 C22.460485,10.5998002 22.5600878,10.5998002 22.6596907,10.5998002 C22.7592935,10.5998002 22.7592935,10.6969031 22.8588963,10.6969031 C23.4565133,10.9882118 23.655719,12.0563437 23.4565133,13.0273726 C23.1577048,14.0955045 22.460485,14.6781219 21.9624709,14.7752248 L21.4644567,14.8723277 L21.3648539,15.3578422 C20.3688256,19.0477522 17.4803435,22.7376623 13.9942445,22.7376623 C10.5081454,22.7376623 7.71926617,19.0477522 6.62363504,15.3578422 L6.52403221,14.8723277 L6.02601806,14.7752248 C5.42840108,14.6781219 4.73118127,14.0955045 4.53197561,13.0273726 C4.33276995,12.2505495 4.43237278,11.4737263 4.8307841,10.9882118 C4.93038693,10.794006 5.12959259,10.6969031 5.32879825,10.5998002 C5.32879825,10.5998002 5.42840108,10.5998002 5.52800391,10.5998002 C5.52800391,10.5998002 5.62760674,10.5998002 5.62760674,10.5998002 L6.32482655,10.6969031 L6.42442938,10.0171828 C7.12164919,5.55044955 10.2093369,2.63736264 14.0938473,2.63736264 C17.779152,2.63736264 20.8668397,5.55044955 21.5640595,10.0171828 Z" id="Shape" fill-rule="nonzero"></path>
                    <path d="M12.9,18.4 C14,17.3 13.9,15.3 13.9,15.3 C13.9,15.3 11.9,15.2 10.8,16.3 C9.7,17.4 9.8,19.4 9.8,19.4 C9.8,19.4 11.8,19.6 12.9,18.4 Z" id="Shape" fill-rule="nonzero"></path>
                    <path d="M18,19.4 C18,19.4 18.1,17.4 17,16.3 C15.9,15.2 13.9,15.3 13.9,15.3 C13.9,15.3 13.8,17.3 14.9,18.4 C16.1,19.6 18,19.4 18,19.4 Z" id="Shape" fill-rule="nonzero"></path>
                    <path d="M21.8630137,21 C21,22.4552239 20.0410959,23.7164179 18.6986301,24.3955224 C16.0136986,25.7537313 14,26.9179104 14,26.9179104 C14,26.9179104 11.9863014,25.7537313 9.30136986,24.3955224 C7.95890411,23.7164179 7,22.4552239 6.1369863,21 C3.35616438,22.1641791 1.15068493,24.3955224 0,26.7238806 C3.16438356,31.0895522 8.24657534,34 14,34 C19.7534247,34 24.9315068,31.0895522 28,26.7238806 C26.8493151,24.2985075 24.6438356,22.1641791 21.8630137,21 Z" id="Shape" fill-rule="nonzero"></path>
                </g>
            </g>
        </g>
    </g>
</svg>