<?xml version="1.0" encoding="UTF-8"?>
<svg width="40px" height="40px" viewBox="0 0 40 40" version="1.1" xmlns="http://www.w3.org/2000/svg" xmlns:xlink="http://www.w3.org/1999/xlink">
    <!-- Generator: Sketch 49.1 (51147) - http://www.bohemiancoding.com/sketch -->
    <title>ic_old_woman</title>
    <desc>Created with Sketch.</desc>
    <defs></defs>
    <g id="Page-1" stroke="none" stroke-width="1" fill="none" fill-rule="evenodd">
        <g id="01-04-MainScreen-TableView" transform="translate(-658.000000, -277.000000)">
            <g id="ic_old_woman" transform="translate(658.000000, 277.000000)">
                <g id="Group-3">
                    <circle id="Oval" fill="#FFFFFF" fill-rule="nonzero" cx="20" cy="20" r="20"></circle>
                    <g id="Group" transform="translate(7.000000, 4.000000)" fill="#29486B" fill-rule="nonzero">
                        <path d="M8.92810694,3.85863562 C8.92810694,4.43685661 9.02642722,5.01507759 9.32138807,5.49692841 C7.55162301,6.65337039 6.27345936,8.67714384 5.78185796,11.1827681 C5.78185796,11.1827681 5.78185796,11.1827681 5.68353768,11.1827681 C4.40537403,11.4718786 3.71713206,13.1101714 4.11041319,14.7484642 C4.40537403,15.9049062 5.19193627,16.7722377 6.0768188,17.0613482 C7.15834189,20.4343039 9.81298947,24 13.4508399,24 C17.0886902,24 19.8416581,20.4343039 20.9231812,17.0613482 C21.8080637,16.7722377 22.594626,15.9049062 22.8895868,14.7484642 C23.2828679,13.1101714 22.594626,11.5682488 21.3164623,11.1827681 C21.3164623,11.1827681 21.3164623,11.1827681 21.218142,11.1827681 C21.1198218,10.508177 20.9231812,9.92995598 20.6282204,9.351735 C20.5299001,8.29166319 19.7433378,7.03885105 18.5634945,6.0751494 C18.3668539,5.97877924 18.1702133,5.88240907 18.0718931,5.78603891 C17.6786119,5.49692841 17.2853308,5.20781792 16.7937294,5.01507759 C16.8920497,4.7259671 16.99037,4.34048644 16.99037,3.95500578 C16.99037,1.738492 15.2206049,0.00382903792 12.9592385,0.00382903792 C10.7961923,-0.0925411266 8.92810694,1.64212183 8.92810694,3.85863562 Z M15.3189252,10.4118068 C16.99037,11.6646189 18.9567756,11.8573593 20.0382987,10.9900278 C20.136619,11.2791383 20.136619,11.4718786 20.2349392,11.7609891 L20.3332595,12.3392101 L20.9231812,12.2428399 C21.0215015,12.2428399 21.1198218,12.2428399 21.1198218,12.2428399 C21.7097434,12.4355803 22.0047043,13.3992819 21.8080637,14.3629835 C21.6114232,15.230315 20.9231812,15.808536 20.4315798,15.9049062 L20.0382987,16.0012763 L19.9399784,16.386757 C19.0550959,19.5669724 16.5970888,22.7471879 13.5491601,22.7471879 C10.5995517,22.7471879 8.04322442,19.5669724 7.15834189,16.386757 L7.06002161,16.0012763 L6.66674049,15.9049062 C6.17513908,15.808536 5.5852174,15.3266852 5.29025655,14.3629835 C5.09361599,13.3992819 5.38857684,12.4355803 5.97849852,12.2428399 C5.97849852,12.2428399 6.0768188,12.2428399 6.0768188,12.2428399 C6.0768188,12.2428399 6.17513908,12.2428399 6.17513908,12.2428399 L6.27345936,12.2428399 C6.37177964,13.1101714 6.76506077,13.8811327 7.35498245,14.4593537 C9.22306779,16.2903868 8.53482582,12.2428399 10.8945126,9.92995598 C11.6810748,9.15899467 12.5659573,8.77351401 13.4508399,8.38803335 C13.9424413,9.15899467 14.5323629,9.83358582 15.3189252,10.4118068 Z" id="Shape"></path>
                        <path d="M20.1573034,22 C19.3782772,23.3658537 18.5018727,24.4390244 17.3333333,25.0243902 C14.8988764,26.2926829 13.0486891,27.2682927 13.0486891,27.2682927 C13.0486891,27.2682927 11.1985019,26.2926829 8.76404494,25.0243902 C7.59550562,24.4390244 6.71910112,23.2682927 5.94007491,22 C2.92134831,23.1707317 0.779026217,25.7073171 0,28.2439024 C3.21348315,31.7560976 7.79026217,34 12.9513109,34 C18.2097378,34 22.8838951,31.6585366 26,28.0487805 C25.3183521,25.7073171 23.17603,23.2682927 20.1573034,22 Z" id="Shape"></path>
                    </g>
                </g>
            </g>
        </g>
    </g>
</svg>