<?xml version="1.0" encoding="UTF-8"?>
<svg width="40px" height="40px" viewBox="0 0 40 40" version="1.1" xmlns="http://www.w3.org/2000/svg" xmlns:xlink="http://www.w3.org/1999/xlink">
    <!-- Generator: Sketch 49.1 (51147) - http://www.bohemiancoding.com/sketch -->
    <title>ic_woman</title>
    <desc>Created with Sketch.</desc>
    <defs></defs>
    <g id="Page-1" stroke="none" stroke-width="1" fill="none" fill-rule="evenodd">
        <g id="01-04-MainScreen-TableView" transform="translate(-383.000000, -277.000000)">
            <g id="ic_woman" transform="translate(383.000000, 277.000000)">
                <g id="Group-3">
                    <circle id="Oval" fill="#FFFFFF" fill-rule="nonzero" cx="20" cy="20" r="20"></circle>
                    <path d="M29.6218182,26.4322034 C29.7236364,26.2344633 29.7236364,26.0367232 29.8254545,25.740113 C29.8254545,25.5423729 29.9272727,25.3446328 29.9272727,25.0480226 C30.2327273,23.1694915 30.4363636,20.2033898 30.4363636,15.6553672 C30.4363636,8.63559322 25.7527273,3 19.9490909,3 C17.8109091,3 15.8763636,3.79096045 14.2472727,5.07627119 C13.9418182,5.2740113 13.7381818,5.47175141 13.5345455,5.76836158 C11.0909091,8.04237288 9.56363636,11.700565 9.56363636,15.7542373 C9.56363636,20.5 9.76727273,23.5649718 10.0727273,25.4435028 C10.0727273,25.6412429 10.1745455,25.9378531 10.1745455,26.1355932 C10.2763636,26.3333333 10.2763636,26.6299435 10.3781818,26.8276836 C8.34181818,28.1129944 6.71272727,29.8926554 6,31.6723164 C9.36,35.5282486 14.3490909,38 19.9490909,38 C25.5490909,38 30.64,35.5282486 34,31.6723164 C33.2872727,29.5960452 31.6581818,27.7175141 29.6218182,26.4322034 Z M24.4290909,28.7062147 C21.9854545,29.9915254 20.2545455,30.980226 20.0509091,30.980226 C19.2363636,30.8813559 15.4690909,28.7062147 15.4690909,28.7062147 C14.5527273,28.2118644 13.9418182,27.9152542 12.8218182,26.9265537 C12.9236364,26.7288136 13.4327273,26.0367232 13.6363636,25.8389831 C13.7381818,25.6412429 13.9418182,25.5423729 14.0436364,25.3446328 C14.6545455,24.5536723 15.3672727,23.6638418 15.9781818,22.9717514 C17.0981818,23.8615819 18.4218182,24.4548023 19.8472727,24.4548023 C21.2727273,24.4548023 22.4945455,23.8615819 23.7163636,22.9717514 C24.6327273,23.960452 25.4472727,25.0480226 26.16,25.9378531 C26.2618182,26.1355932 26.4654545,26.3333333 26.5672727,26.4322034 C26.6690909,26.6299435 26.8727273,26.7288136 26.9745455,26.9265537 C26.4654545,27.7175141 25.1418182,28.3107345 24.4290909,28.7062147 Z M28.6036364,13.9745763 C28.4,14.9632768 27.6872727,15.4576271 27.1781818,15.5564972 L26.7709091,15.6553672 L26.6690909,16.0508475 C25.9563636,18.4237288 24.6327273,20.7966102 22.8,22.180791 C21.8836364,22.8728814 20.8654545,23.3672316 19.8472727,23.3672316 C18.8290909,23.3672316 17.8109091,22.9717514 16.8945455,22.180791 C15.1636364,20.7966102 13.7381818,18.4237288 13.0254545,16.0508475 L12.9236364,15.6553672 L12.5163636,15.5564972 C12.0072727,15.4576271 11.2945455,14.9632768 11.0909091,13.9745763 C10.8872727,13.3813559 10.9890909,12.6892655 11.2945455,12.1949153 C11.3963636,11.9971751 11.6,11.799435 11.8036364,11.799435 C11.8036364,11.799435 11.9054545,11.799435 11.9054545,11.799435 C11.9054545,11.799435 12.0072727,11.799435 12.0072727,11.799435 L12.6181818,11.8983051 L12.72,11.3050847 C12.8218182,10.8107345 12.9236364,10.3163842 13.0254545,9.92090395 C13.7381818,12.2937853 15.8763636,12.0960452 18.9309091,12.3926554 C19.8472727,12.4915254 21.0690909,12.5903955 21.68,12.5903955 C21.7818182,10.7118644 19.5418182,8.63559322 19.5418182,8.63559322 C19.5418182,8.63559322 19.5418182,8.63559322 19.8472727,8.63559322 C20.1527273,8.63559322 20.8654545,8.93220339 21.0690909,9.03107345 C23.5127273,10.3163842 23.92,12.2937853 24.0218182,12.2937853 C25.2436364,11.9971751 26.16,11.3050847 26.5672727,10.2175141 C26.6690909,10.6129944 26.7709091,10.9096045 26.7709091,11.3050847 L26.8727273,11.8983051 L27.4836364,11.799435 C27.5854545,11.799435 27.6872727,11.799435 27.6872727,11.799435 C27.9927273,11.8983051 28.0945455,12.0960452 28.1963636,12.1949153 C28.7054545,12.6892655 28.8072727,13.2824859 28.6036364,13.9745763 Z" id="Shape" fill="#29486B" fill-rule="nonzero"></path>
                </g>
            </g>
        </g>
    </g>
</svg>