<?xml version="1.0" encoding="utf-8"?>
<!-- Generator: Adobe Illustrator 21.1.0, SVG Export Plug-In . SVG Version: 6.00 Build 0)  -->
<svg version="1.1" id="Слой_1" xmlns="http://www.w3.org/2000/svg" xmlns:xlink="http://www.w3.org/1999/xlink" x="0px" y="0px"
	 viewBox="0 0 933 239" style="enable-background:new 0 0 933 239;" xml:space="preserve">
<style type="text/css">
	.st0{fill:#FFFFFF;}
	.st1{fill:none;stroke:#29486B;stroke-width:2;stroke-linecap:square;}
	.st2{fill:none;stroke:#29486B;stroke-width:2;}
	.st3{filter:url(#filter-1);}
	.st4{fill:#29486B;}
	.st5{filter:url(#filter-2);}
	.st6{fill:#9F9F9F;}
	.st7{enable-background:new    ;}
	.st8{font-family:'ArialMT';}
	.st9{font-size:14px;}
	.st10{fill:#375D88;}
	.st11{fill:none;}
	.st12{filter:url(#filter-3);}
</style>
<filter  filterUnits="objectBoundingBox" height="170.0%" id="filter-3" width="170.0%" x="-31.0%" y="-31.0%">
	<feOffset  dx="4" dy="4" in="SourceAlpha" result="shadowOffsetOuter1"></feOffset>
	<feGaussianBlur  in="shadowOffsetOuter1" result="shadowBlurOuter1" stdDeviation="11"></feGaussianBlur>
	
		<feColorMatrix  in="shadowBlurOuter1" result="shadowMatrixOuter1" type="matrix" values="0 0 0 0 0.160784314   0 0 0 0 0.282352941   0 0 0 0 0.419607843  0 0 0 0.5 0">
		</feColorMatrix>
	<feMerge>
		<feMergeNode  in="shadowMatrixOuter1"></feMergeNode>
		<feMergeNode  in="SourceGraphic"></feMergeNode>
	</feMerge>
</filter>
<filter  filterUnits="objectBoundingBox" height="170.0%" id="filter-2" width="170.0%" x="-31.0%" y="-31.0%">
	<feOffset  dx="4" dy="4" in="SourceAlpha" result="shadowOffsetOuter1"></feOffset>
	<feGaussianBlur  in="shadowOffsetOuter1" result="shadowBlurOuter1" stdDeviation="11"></feGaussianBlur>
	
		<feColorMatrix  in="shadowBlurOuter1" result="shadowMatrixOuter1" type="matrix" values="0 0 0 0 0.160784314   0 0 0 0 0.282352941   0 0 0 0 0.419607843  0 0 0 0.5 0">
		</feColorMatrix>
	<feMerge>
		<feMergeNode  in="shadowMatrixOuter1"></feMergeNode>
		<feMergeNode  in="SourceGraphic"></feMergeNode>
	</feMerge>
</filter>
<filter  filterUnits="objectBoundingBox" height="130.8%" id="filter-1" width="130.8%" x="-12.3%" y="-12.3%">
	<feOffset  dx="4" dy="4" in="SourceAlpha" result="shadowOffsetOuter1"></feOffset>
	<feGaussianBlur  in="shadowOffsetOuter1" result="shadowBlurOuter1" stdDeviation="6"></feGaussianBlur>
	
		<feColorMatrix  in="shadowBlurOuter1" result="shadowMatrixOuter1" type="matrix" values="0 0 0 0 0.160784314   0 0 0 0 0.282352941   0 0 0 0 0.419607843  0 0 0 0.5 0">
		</feColorMatrix>
	<feMerge>
		<feMergeNode  in="shadowMatrixOuter1"></feMergeNode>
		<feMergeNode  in="SourceGraphic"></feMergeNode>
	</feMerge>
</filter>
<g>
	<circle id="path-4" class="st0" cx="226" cy="109" r="50"/>
</g>
<title>business</title>
<desc>Created with Sketch.</desc>
<g id="business">
	<g id="Group" transform="translate(-22.000000, 39.000000)">
		<path id="Line-Copy-4" class="st1" d="M299,70h130"/>
		<circle id="Oval-2" class="st2" cx="499" cy="70" r="69"/>
		<g id="ic_man-copy" transform="translate(434.000000, 5.000000)" class="st3">
			<g id="Group-4_1_">
				<circle id="Oval_2_" class="st0" cx="65" cy="65" r="65"/>
				<path id="Combined-Shape_1_" class="st4" d="M32.6,35.3c0,1.9,0.3,3.9,1,5.8c-3.3,2.3-4.6,7.1-3.3,12.3c1,4.2,3.9,7.8,7.2,8.7
					C41.4,75,51.6,88.3,65.3,88.3S89.2,75,93.1,62.1c3.3-1.3,6.2-4.5,7.2-8.7c1.6-5.8-0.7-11.3-4.9-13.2c0.3-1.6,0.7-3.2,0.7-4.8
					C96.1,21.1,82,9.8,64.3,9.8S32.6,21.1,32.6,35.3z M85,28.5c2.6,3.9,4.3,8.4,5.2,13.6l0.3,2.3l2.3-0.3c0.3,0,0.7,0,1,0
					c0,0,0.3,0,0.3,0.3c2,1,2.9,4.2,2.3,7.8c-1,3.6-3.3,5.5-4.9,5.8l-1.6,0.3l-0.3,1.3c-3.3,12-12.4,24.2-23.9,24.2
					S45,71.8,41.8,59.5l-0.3-1.3l-1.6-0.3c-2-0.3-4.3-2.3-4.9-5.8c-0.7-2.6-0.3-4.8,0.7-6.5c0.3-0.6,1-1.3,2-1.6h0.3h0.3l2.3,0.3
					l0.3-2.3c0.7-4.5,2-8.4,3.9-12c3.6,4.2,11.1,6.8,19.6,6.8C73.8,37.2,82,33.7,85,28.5z M92.2,77.6c10.1,4.2,18,12,21.6,20
					c-10.5,15.5-28.5,25.9-48.8,25.9s-38.3-10-48.8-25.2c3.6-8.4,11.5-16.5,21.6-20.7c2.9,4.8,6.2,9,10.8,11.3
					c9.5,4.5,16.4,8.4,16.4,8.4s7.2-3.6,16.4-8.4C85.9,86.7,89.2,82.5,92.2,77.6z"/>
			</g>
		</g>
		<path id="Line-Copy-2" class="st1" d="M568,70h120"/>
		<g id="ic_man-copy-6" transform="translate(689.000000, 20.000000)" class="st5">
			<circle id="Oval_2_" class="st0" cx="50" cy="50" r="50"/>
			<path id="Shape_8_" class="st6" d="M74.1,66.1c0.3-0.5,0.3-1,0.5-1.7c0-0.5,0.3-1,0.3-1.7c0.8-4.7,1.3-12.1,1.3-23.5
				c0-17.5-11.7-31.6-26.2-31.6c-5.3,0-10.2,2-14.3,5.2c-0.8,0.5-1.3,1-1.8,1.7c-6.1,5.7-9.9,14.8-9.9,25c0,11.9,0.5,19.5,1.3,24.2
				c0,0.5,0.3,1.2,0.3,1.7c0.3,0.5,0.3,1.2,0.5,1.7c-5.1,3.2-9.2,7.7-10.9,12.1C23.4,88.8,35.9,95,49.9,95S76.6,88.8,85,79.2
				C83.2,74,79.1,69.3,74.1,66.1z M61.1,71.8C55,75,50.6,77.5,50.1,77.5c-2-0.2-11.5-5.7-11.5-5.7c-2.3-1.2-3.8-2-6.6-4.4
				c0.3-0.5,1.5-2.2,2-2.7c0.3-0.5,0.8-0.7,1-1.2c1.5-2,3.3-4.2,4.8-5.9c2.8,2.2,6.1,3.7,9.7,3.7s6.6-1.5,9.7-3.7
				c2.3,2.5,4.3,5.2,6.1,7.4c0.3,0.5,0.8,1,1,1.2c0.3,0.5,0.8,0.7,1,1.2C66.2,69.3,62.9,70.8,61.1,71.8z M71.5,34.9
				c-0.5,2.5-2.3,3.7-3.6,4l-1,0.2l-0.3,1C64.9,46.1,61.6,52,57,55.5c-2.3,1.7-4.8,3-7.4,3c-2.5,0-5.1-1-7.4-3
				c-4.3-3.5-7.9-9.4-9.7-15.3l-0.3-1l-1-0.2c-1.3-0.2-3.1-1.5-3.6-4c-0.5-1.5-0.3-3.2,0.5-4.4c0.3-0.5,0.8-1,1.3-1h0.3H30l1.5,0.2
				l0.3-1.5c0.3-1.2,0.5-2.5,0.8-3.5c1.8,5.9,7.1,5.4,14.8,6.2c2.3,0.2,5.3,0.5,6.9,0.5c0.3-4.7-5.3-9.9-5.3-9.9s0,0,0.8,0
				c0.8,0,2.5,0.7,3.1,1c6.1,3.2,7.1,8.2,7.4,8.2c3.1-0.7,5.3-2.5,6.4-5.2c0.3,1,0.5,1.7,0.5,2.7l0.3,1.5l1.5-0.2c0.3,0,0.5,0,0.5,0
				c0.8,0.2,1,0.7,1.3,1C71.8,31.7,72,33.2,71.5,34.9z"/>
		</g>
		<g class="st7">
			<path class="st4" d="M817.2,30.5l1.3,0.3c-0.3,1.1-0.8,1.9-1.5,2.5c-0.7,0.6-1.6,0.9-2.6,0.9c-1.1,0-2-0.2-2.6-0.7
				c-0.7-0.4-1.2-1.1-1.5-1.9c-0.4-0.8-0.5-1.7-0.5-2.7c0-1,0.2-2,0.6-2.7c0.4-0.8,1-1.4,1.7-1.8c0.7-0.4,1.5-0.6,2.4-0.6
				c1,0,1.8,0.3,2.5,0.8s1.2,1.2,1.4,2.2l-1.3,0.3c-0.2-0.7-0.6-1.3-1-1.6s-1-0.5-1.7-0.5c-0.8,0-1.4,0.2-1.9,0.6
				c-0.5,0.4-0.9,0.9-1.1,1.5c-0.2,0.6-0.3,1.3-0.3,1.9c0,0.9,0.1,1.6,0.4,2.2c0.2,0.6,0.6,1.1,1.2,1.4s1.1,0.5,1.7,0.5
				c0.7,0,1.4-0.2,1.9-0.6S817,31.3,817.2,30.5z"/>
			<path class="st4" d="M819.4,30.4c0-1.3,0.4-2.3,1.1-3c0.6-0.5,1.4-0.8,2.3-0.8c1,0,1.8,0.3,2.4,1c0.6,0.7,1,1.6,1,2.7
				c0,0.9-0.1,1.7-0.4,2.2c-0.3,0.5-0.7,1-1.2,1.2c-0.5,0.3-1.1,0.4-1.8,0.4c-1,0-1.8-0.3-2.5-1C819.7,32.5,819.4,31.6,819.4,30.4z
				 M820.6,30.4c0,0.9,0.2,1.6,0.6,2.1c0.4,0.5,0.9,0.7,1.5,0.7c0.6,0,1.1-0.2,1.5-0.7s0.6-1.2,0.6-2.1c0-0.9-0.2-1.6-0.6-2
				c-0.4-0.5-0.9-0.7-1.5-0.7c-0.6,0-1.1,0.2-1.5,0.7S820.6,29.4,820.6,30.4z"/>
			<path class="st4" d="M827.2,36.8l-0.1-1.2c0.3,0.1,0.5,0.1,0.7,0.1c0.3,0,0.5,0,0.7-0.1s0.3-0.2,0.4-0.4c0.1-0.1,0.2-0.4,0.4-0.9
				c0-0.1,0.1-0.2,0.1-0.3l-2.8-7.3h1.3l1.5,4.2c0.2,0.5,0.4,1.1,0.5,1.7c0.1-0.6,0.3-1.1,0.5-1.7l1.6-4.2h1.2l-2.8,7.4
				c-0.3,0.8-0.5,1.3-0.7,1.6c-0.2,0.4-0.5,0.7-0.8,0.9c-0.3,0.2-0.6,0.3-1,0.3C827.7,36.9,827.5,36.9,827.2,36.8z"/>
			<path class="st4" d="M833.6,26.7h1.2v1.4c0,0.6,0,1,0.1,1.3c0.1,0.3,0.2,0.5,0.5,0.7c0.3,0.2,0.6,0.3,1,0.3
				c0.5,0,1.1-0.1,1.8-0.4v-3.3h1.2V34h-1.2v-2.9c-0.8,0.2-1.5,0.4-2.1,0.4c-0.6,0-1-0.1-1.5-0.4c-0.4-0.3-0.7-0.6-0.9-1
				s-0.2-0.9-0.2-1.3V26.7z"/>
			<path class="st4" d="M841.1,36.8v-10h1.1v0.9c0.3-0.4,0.6-0.6,0.9-0.8c0.3-0.2,0.7-0.3,1.2-0.3c0.6,0,1.2,0.2,1.6,0.5
				s0.8,0.8,1.1,1.3c0.2,0.6,0.4,1.2,0.4,1.9c0,0.7-0.1,1.4-0.4,2c-0.3,0.6-0.7,1-1.2,1.4c-0.5,0.3-1,0.5-1.6,0.5
				c-0.4,0-0.8-0.1-1.1-0.3c-0.3-0.2-0.6-0.4-0.8-0.7v3.5H841.1z M842.2,30.4c0,0.9,0.2,1.6,0.6,2.1s0.8,0.7,1.4,0.7
				c0.5,0,1-0.2,1.4-0.7c0.4-0.5,0.6-1.2,0.6-2.2c0-0.9-0.2-1.6-0.6-2.1c-0.4-0.5-0.8-0.7-1.4-0.7c-0.5,0-1,0.2-1.4,0.7
				C842.4,28.8,842.2,29.5,842.2,30.4z"/>
			<path class="st4" d="M853.7,31.7l1.3,0.2c-0.2,0.7-0.6,1.3-1.1,1.7s-1.2,0.6-2.1,0.6c-1.1,0-1.9-0.3-2.5-1
				c-0.6-0.7-0.9-1.6-0.9-2.8c0-1.2,0.3-2.2,0.9-2.8s1.4-1,2.4-1c1,0,1.8,0.3,2.4,1s0.9,1.6,0.9,2.8c0,0.1,0,0.2,0,0.3h-5.4
				c0,0.8,0.3,1.4,0.7,1.8s0.9,0.6,1.5,0.6c0.5,0,0.8-0.1,1.2-0.4S853.5,32.2,853.7,31.7z M849.6,29.7h4.1c-0.1-0.6-0.2-1.1-0.5-1.4
				c-0.4-0.5-0.9-0.7-1.5-0.7c-0.6,0-1,0.2-1.4,0.6C849.9,28.5,849.7,29,849.6,29.7z"/>
			<path class="st4" d="M856.9,26.7h5.1V33h0.8v3.1h-1V34H856v2.1h-1V33h0.6C856.6,31.8,857,29.7,856.9,26.7z M858,27.8
				c-0.1,2.4-0.5,4.1-1.1,5.2h3.9v-5.2H858z"/>
			<path class="st4" d="M863.9,26.7h1.2v5.5l3.4-5.5h1.3V34h-1.2v-5.5l-3.4,5.5h-1.3V26.7z"/>
			<path class="st4" d="M870.9,26.7h5.9v1h-2.3V34h-1.2v-6.2h-2.3V26.7z"/>
			<path class="st4" d="M882.5,31.7l1.3,0.2c-0.2,0.7-0.6,1.3-1.1,1.7c-0.5,0.4-1.2,0.6-2.1,0.6c-1.1,0-1.9-0.3-2.5-1
				c-0.6-0.7-0.9-1.6-0.9-2.8c0-1.2,0.3-2.2,0.9-2.8s1.4-1,2.4-1c1,0,1.8,0.3,2.4,1s0.9,1.6,0.9,2.8c0,0.1,0,0.2,0,0.3h-5.4
				c0,0.8,0.3,1.4,0.7,1.8c0.4,0.4,0.9,0.6,1.5,0.6c0.5,0,0.8-0.1,1.2-0.4C882.1,32.6,882.4,32.2,882.5,31.7z M878.5,29.7h4.1
				c-0.1-0.6-0.2-1.1-0.5-1.4c-0.4-0.5-0.9-0.7-1.5-0.7c-0.6,0-1,0.2-1.4,0.6S878.5,29,878.5,29.7z"/>
			<path class="st4" d="M885.3,26.7h5.7V34h-1.2v-6.2h-3.3v3.6c0,0.8,0,1.4-0.1,1.7s-0.2,0.5-0.5,0.7s-0.6,0.3-1.1,0.3
				c-0.3,0-0.6,0-1-0.1v-1h0.5c0.3,0,0.4,0,0.5-0.1c0.1-0.1,0.2-0.1,0.2-0.2c0-0.1,0.1-0.5,0.1-1.1V26.7z"/>
			<path class="st4" d="M892.6,26.7h1.2v2.8h1.6c1,0,1.8,0.2,2.3,0.6c0.5,0.4,0.8,0.9,0.8,1.6c0,0.6-0.2,1.1-0.7,1.6
				c-0.5,0.4-1.2,0.6-2.2,0.6h-3.1V26.7z M893.9,33h1.3c0.8,0,1.3-0.1,1.7-0.3c0.3-0.2,0.5-0.5,0.5-0.9c0-0.3-0.1-0.6-0.4-0.8
				s-0.8-0.4-1.6-0.4h-1.5V33z"/>
		</g>
		<g class="st7">
			<path d="M817.2,47.5l1.3,0.3c-0.3,1.1-0.8,1.9-1.5,2.5c-0.7,0.6-1.6,0.9-2.6,0.9c-1.1,0-2-0.2-2.6-0.7c-0.7-0.4-1.2-1.1-1.5-1.9
				c-0.4-0.8-0.5-1.7-0.5-2.7c0-1,0.2-2,0.6-2.7c0.4-0.8,1-1.4,1.7-1.8c0.7-0.4,1.5-0.6,2.4-0.6c1,0,1.8,0.3,2.5,0.8
				s1.2,1.2,1.4,2.2l-1.3,0.3c-0.2-0.7-0.6-1.3-1-1.6s-1-0.5-1.7-0.5c-0.8,0-1.4,0.2-1.9,0.6c-0.5,0.4-0.9,0.9-1.1,1.5
				c-0.2,0.6-0.3,1.3-0.3,1.9c0,0.9,0.1,1.6,0.4,2.2c0.2,0.6,0.6,1.1,1.2,1.4s1.1,0.5,1.7,0.5c0.7,0,1.4-0.2,1.9-0.6
				S817,48.3,817.2,47.5z"/>
			<path d="M824.7,50.1c-0.5,0.4-0.9,0.7-1.3,0.8c-0.4,0.2-0.9,0.2-1.4,0.2c-0.8,0-1.4-0.2-1.8-0.6c-0.4-0.4-0.6-0.9-0.6-1.5
				c0-0.4,0.1-0.7,0.2-1c0.2-0.3,0.4-0.5,0.6-0.7c0.3-0.2,0.6-0.3,0.9-0.4c0.2-0.1,0.6-0.1,1.1-0.2c1-0.1,1.7-0.3,2.2-0.4
				c0-0.2,0-0.3,0-0.3c0-0.5-0.1-0.9-0.3-1.1c-0.3-0.3-0.8-0.4-1.4-0.4c-0.6,0-1,0.1-1.3,0.3c-0.3,0.2-0.5,0.6-0.6,1.1l-1.2-0.2
				c0.1-0.5,0.3-0.9,0.5-1.2c0.3-0.3,0.6-0.6,1.1-0.7c0.5-0.2,1-0.3,1.6-0.3c0.6,0,1.1,0.1,1.5,0.2s0.7,0.3,0.9,0.6
				c0.2,0.2,0.3,0.5,0.4,0.8c0,0.2,0.1,0.6,0.1,1.1V48c0,1.1,0,1.9,0.1,2.2c0.1,0.3,0.2,0.6,0.3,0.9H825
				C824.8,50.7,824.8,50.4,824.7,50.1z M824.6,47.4c-0.4,0.2-1.1,0.3-2,0.5c-0.5,0.1-0.9,0.2-1.1,0.2s-0.4,0.2-0.5,0.4
				c-0.1,0.2-0.2,0.4-0.2,0.6c0,0.3,0.1,0.6,0.4,0.8c0.2,0.2,0.6,0.3,1.1,0.3c0.5,0,0.9-0.1,1.3-0.3c0.4-0.2,0.6-0.5,0.8-0.9
				c0.1-0.3,0.2-0.7,0.2-1.2V47.4z"/>
			<path d="M828.2,43.7h5.7V51h-1.2v-6.2h-3.3v3.6c0,0.8,0,1.4-0.1,1.7s-0.2,0.5-0.5,0.7s-0.6,0.3-1.1,0.3c-0.3,0-0.6,0-1-0.1v-1
				h0.5c0.3,0,0.4,0,0.5-0.1c0.1-0.1,0.2-0.1,0.2-0.2s0.1-0.5,0.1-1.1V43.7z"/>
			<path d="M834.9,43.7h5.9v1h-2.3V51h-1.2v-6.2h-2.3V43.7z"/>
			<path d="M841.7,43.7h1.2v2.8h1.6c1,0,1.8,0.2,2.3,0.6c0.5,0.4,0.8,0.9,0.8,1.6c0,0.6-0.2,1.1-0.7,1.6c-0.5,0.4-1.2,0.6-2.2,0.6
				h-3.1V43.7z M843,50h1.3c0.8,0,1.3-0.1,1.7-0.3s0.5-0.5,0.5-0.9c0-0.3-0.1-0.6-0.4-0.8s-0.8-0.4-1.6-0.4H843V50z M848.6,43.7h1.2
				V51h-1.2V43.7z"/>
			<path d="M851.6,43.7h1.2v3.1c0.4,0,0.7-0.1,0.8-0.2c0.2-0.2,0.4-0.6,0.7-1.3c0.2-0.6,0.4-1,0.6-1.1s0.3-0.3,0.5-0.4
				s0.5-0.1,0.9-0.1h0.2v1l-0.3,0c-0.3,0-0.5,0-0.6,0.1c-0.1,0.1-0.2,0.4-0.4,0.9c-0.2,0.5-0.4,0.8-0.5,1s-0.4,0.3-0.7,0.5
				c0.5,0.1,1,0.6,1.6,1.5l1.3,2.2h-1.4l-1.3-2.2c-0.3-0.5-0.5-0.7-0.7-0.9c-0.2-0.1-0.4-0.2-0.7-0.2V51h-1.2V43.7z"/>
			<path d="M857.2,47.4c0-1.3,0.4-2.3,1.1-3c0.6-0.5,1.4-0.8,2.3-0.8c1,0,1.8,0.3,2.4,1c0.6,0.7,1,1.6,1,2.7c0,0.9-0.1,1.7-0.4,2.2
				c-0.3,0.5-0.7,1-1.2,1.2c-0.5,0.3-1.1,0.4-1.8,0.4c-1,0-1.8-0.3-2.5-1C857.5,49.5,857.2,48.6,857.2,47.4z M858.4,47.4
				c0,0.9,0.2,1.6,0.6,2.1c0.4,0.5,0.9,0.7,1.5,0.7c0.6,0,1.1-0.2,1.5-0.7s0.6-1.2,0.6-2.1c0-0.9-0.2-1.6-0.6-2
				c-0.4-0.5-0.9-0.7-1.5-0.7c-0.6,0-1.1,0.2-1.5,0.7S858.4,46.4,858.4,47.4z"/>
			<path d="M865.2,43.7h2.8c0.7,0,1.2,0.1,1.6,0.2c0.3,0.1,0.6,0.3,0.9,0.6s0.4,0.7,0.4,1.1c0,0.3-0.1,0.6-0.2,0.9
				c-0.1,0.3-0.4,0.5-0.6,0.6c0.3,0.1,0.6,0.3,0.9,0.6c0.2,0.3,0.3,0.7,0.3,1.1c0,0.7-0.3,1.2-0.7,1.5c-0.4,0.3-1.1,0.5-1.9,0.5
				h-3.3V43.7z M866.5,46.8h1.3c0.5,0,0.9,0,1.1-0.1c0.2-0.1,0.4-0.2,0.5-0.3c0.2-0.2,0.2-0.4,0.2-0.6c0-0.4-0.1-0.6-0.4-0.8
				s-0.7-0.2-1.4-0.2h-1.4V46.8z M866.5,50h1.6c0.7,0,1.2-0.1,1.4-0.2c0.3-0.2,0.4-0.4,0.4-0.8c0-0.2-0.1-0.4-0.2-0.6
				c-0.2-0.2-0.3-0.3-0.6-0.4c-0.2-0.1-0.6-0.1-1.2-0.1h-1.5V50z"/>
			<path d="M877,50.1c-0.5,0.4-0.9,0.7-1.3,0.8s-0.9,0.2-1.4,0.2c-0.8,0-1.4-0.2-1.8-0.6c-0.4-0.4-0.6-0.9-0.6-1.5
				c0-0.4,0.1-0.7,0.2-1c0.2-0.3,0.4-0.5,0.6-0.7s0.6-0.3,0.9-0.4c0.2-0.1,0.6-0.1,1.1-0.2c1-0.1,1.7-0.3,2.2-0.4c0-0.2,0-0.3,0-0.3
				c0-0.5-0.1-0.9-0.3-1.1c-0.3-0.3-0.8-0.4-1.4-0.4c-0.6,0-1,0.1-1.3,0.3c-0.3,0.2-0.5,0.6-0.6,1.1l-1.2-0.2
				c0.1-0.5,0.3-0.9,0.5-1.2c0.3-0.3,0.6-0.6,1.1-0.7c0.5-0.2,1-0.3,1.6-0.3c0.6,0,1.1,0.1,1.5,0.2c0.4,0.1,0.7,0.3,0.9,0.6
				c0.2,0.2,0.3,0.5,0.4,0.8c0,0.2,0.1,0.6,0.1,1.1V48c0,1.1,0,1.9,0.1,2.2c0.1,0.3,0.2,0.6,0.3,0.9h-1.3
				C877.1,50.7,877.1,50.4,877,50.1z M876.9,47.4c-0.4,0.2-1.1,0.3-2,0.5c-0.5,0.1-0.9,0.2-1.1,0.2c-0.2,0.1-0.4,0.2-0.5,0.4
				c-0.1,0.2-0.2,0.4-0.2,0.6c0,0.3,0.1,0.6,0.4,0.8s0.6,0.3,1.1,0.3c0.5,0,0.9-0.1,1.3-0.3c0.4-0.2,0.6-0.5,0.8-0.9
				c0.1-0.3,0.2-0.7,0.2-1.2V47.4z"/>
			<path d="M879.4,48v-1.2h3.8V48H879.4z"/>
			<path d="M884.5,41h1.3v8.8h3.3V41h1.3v8.8h3.3V41h1.3v8.8h0.9v4h-1.2V51h-10.4V41z"/>
			<path d="M902.2,48.7l1.3,0.2c-0.2,0.7-0.6,1.3-1.1,1.7c-0.5,0.4-1.2,0.6-2.1,0.6c-1.1,0-1.9-0.3-2.5-1c-0.6-0.7-0.9-1.6-0.9-2.8
				c0-1.2,0.3-2.2,0.9-2.8s1.4-1,2.4-1c1,0,1.8,0.3,2.4,1s0.9,1.6,0.9,2.8c0,0.1,0,0.2,0,0.3h-5.4c0,0.8,0.3,1.4,0.7,1.8
				c0.4,0.4,0.9,0.6,1.5,0.6c0.5,0,0.8-0.1,1.2-0.4C901.8,49.6,902,49.2,902.2,48.7z M898.2,46.7h4.1c-0.1-0.6-0.2-1.1-0.5-1.4
				c-0.4-0.5-0.9-0.7-1.5-0.7c-0.6,0-1,0.2-1.4,0.6S898.2,46,898.2,46.7z"/>
			<path d="M905.5,43.7h5.1V50h0.8v3.1h-1V51h-5.7v2.1h-1V50h0.6C905.1,48.8,905.5,46.7,905.5,43.7z M906.5,44.8
				c-0.1,2.4-0.5,4.1-1.1,5.2h3.9v-5.2H906.5z"/>
			<path d="M912.5,53.8v-10h1.1v0.9c0.3-0.4,0.6-0.6,0.9-0.8c0.3-0.2,0.7-0.3,1.2-0.3c0.6,0,1.2,0.2,1.6,0.5
				c0.5,0.3,0.8,0.8,1.1,1.3c0.2,0.6,0.4,1.2,0.4,1.9c0,0.7-0.1,1.4-0.4,2c-0.3,0.6-0.7,1-1.2,1.4c-0.5,0.3-1,0.5-1.6,0.5
				c-0.4,0-0.8-0.1-1.1-0.3s-0.6-0.4-0.8-0.7v3.5H912.5z M913.6,47.4c0,0.9,0.2,1.6,0.6,2.1c0.4,0.4,0.8,0.7,1.4,0.7
				c0.5,0,1-0.2,1.4-0.7c0.4-0.5,0.6-1.2,0.6-2.2c0-0.9-0.2-1.6-0.6-2.1s-0.8-0.7-1.4-0.7c-0.5,0-1,0.2-1.4,0.7
				C913.8,45.8,913.6,46.5,913.6,47.4z"/>
			<path d="M920,43.7h1.2v5.5l3.4-5.5h1.3V51h-1.2v-5.5l-3.4,5.5H920V43.7z"/>
			<path d="M927.7,43.7h1.2v3h3.4v-3h1.2V51h-1.2v-3.2h-3.4V51h-1.2V43.7z"/>
			<path d="M939.9,50.1c-0.5,0.4-0.9,0.7-1.3,0.8s-0.9,0.2-1.4,0.2c-0.8,0-1.4-0.2-1.8-0.6c-0.4-0.4-0.6-0.9-0.6-1.5
				c0-0.4,0.1-0.7,0.2-1c0.2-0.3,0.4-0.5,0.6-0.7s0.6-0.3,0.9-0.4c0.2-0.1,0.6-0.1,1.1-0.2c1-0.1,1.7-0.3,2.2-0.4c0-0.2,0-0.3,0-0.3
				c0-0.5-0.1-0.9-0.3-1.1c-0.3-0.3-0.8-0.4-1.4-0.4c-0.6,0-1,0.1-1.3,0.3c-0.3,0.2-0.5,0.6-0.6,1.1l-1.2-0.2
				c0.1-0.5,0.3-0.9,0.5-1.2c0.3-0.3,0.6-0.6,1.1-0.7c0.5-0.2,1-0.3,1.6-0.3c0.6,0,1.1,0.1,1.5,0.2c0.4,0.1,0.7,0.3,0.9,0.6
				c0.2,0.2,0.3,0.5,0.4,0.8c0,0.2,0.1,0.6,0.1,1.1V48c0,1.1,0,1.9,0.1,2.2c0.1,0.3,0.2,0.6,0.3,0.9h-1.3
				C940,50.7,939.9,50.4,939.9,50.1z M939.8,47.4c-0.4,0.2-1.1,0.3-2,0.5c-0.5,0.1-0.9,0.2-1.1,0.2c-0.2,0.1-0.4,0.2-0.5,0.4
				c-0.1,0.2-0.2,0.4-0.2,0.6c0,0.3,0.1,0.6,0.4,0.8s0.6,0.3,1.1,0.3c0.5,0,0.9-0.1,1.3-0.3c0.4-0.2,0.6-0.5,0.8-0.9
				c0.1-0.3,0.2-0.7,0.2-1.2V47.4z"/>
		</g>
		<g class="st7">
			<path d="M809,68l3.8-10h1.4l4.1,10h-1.5l-1.2-3h-4.2l-1.1,3H809z M811.9,63.9h3.4l-1-2.8c-0.3-0.8-0.6-1.5-0.7-2.1
				c-0.1,0.6-0.3,1.3-0.5,1.9L811.9,63.9z"/>
			<path d="M819.1,60.7h1.2v3h3.4v-3h1.2V68h-1.2v-3.2h-3.4V68h-1.2V60.7z"/>
			<path d="M826.6,60.7h1.2v3h3.4v-3h1.2V68h-1.2v-3.2h-3.4V68h-1.2V60.7z"/>
			<path d="M838.8,67.1c-0.5,0.4-0.9,0.7-1.3,0.8c-0.4,0.2-0.9,0.2-1.4,0.2c-0.8,0-1.4-0.2-1.8-0.6c-0.4-0.4-0.6-0.9-0.6-1.5
				c0-0.4,0.1-0.7,0.2-1c0.2-0.3,0.4-0.5,0.6-0.7c0.3-0.2,0.6-0.3,0.9-0.4c0.2-0.1,0.6-0.1,1.1-0.2c1-0.1,1.7-0.3,2.2-0.4
				c0-0.2,0-0.3,0-0.3c0-0.5-0.1-0.9-0.3-1.1c-0.3-0.3-0.8-0.4-1.4-0.4c-0.6,0-1,0.1-1.3,0.3c-0.3,0.2-0.5,0.6-0.6,1.1l-1.2-0.2
				c0.1-0.5,0.3-0.9,0.5-1.2c0.3-0.3,0.6-0.6,1.1-0.7c0.5-0.2,1-0.3,1.6-0.3c0.6,0,1.1,0.1,1.5,0.2s0.7,0.3,0.9,0.6
				c0.2,0.2,0.3,0.5,0.4,0.8c0,0.2,0.1,0.6,0.1,1.1V65c0,1.1,0,1.9,0.1,2.2c0.1,0.3,0.2,0.6,0.3,0.9h-1.3
				C838.9,67.7,838.9,67.4,838.8,67.1z M838.7,64.4c-0.4,0.2-1.1,0.3-2,0.5c-0.5,0.1-0.9,0.2-1.1,0.2s-0.4,0.2-0.5,0.4
				c-0.1,0.2-0.2,0.4-0.2,0.6c0,0.3,0.1,0.6,0.4,0.8c0.2,0.2,0.6,0.3,1.1,0.3c0.5,0,0.9-0.1,1.3-0.3c0.4-0.2,0.6-0.5,0.8-0.9
				c0.1-0.3,0.2-0.7,0.2-1.2V64.4z"/>
			<path d="M845.5,58h1.3v4.4c0.6,0,1-0.1,1.3-0.4c0.2-0.2,0.6-0.8,0.9-1.7c0.3-0.7,0.5-1.1,0.7-1.4c0.2-0.3,0.4-0.5,0.8-0.7
				c0.3-0.2,0.7-0.3,1.1-0.3c0.5,0,0.8,0,0.8,0v1.1c0,0-0.1,0-0.3,0c-0.1,0-0.2,0-0.3,0c-0.4,0-0.7,0.1-0.9,0.3
				c-0.2,0.2-0.4,0.6-0.7,1.3c-0.3,0.8-0.6,1.4-0.9,1.6c-0.2,0.2-0.5,0.4-0.8,0.5c0.6,0.2,1.3,0.8,1.9,1.8l2.1,3.3h-1.6l-1.7-2.7
				c-0.5-0.8-0.8-1.3-1.2-1.5c-0.3-0.3-0.7-0.4-1.2-0.4V68h-1.3V58z"/>
			<path d="M858,67.1c-0.5,0.4-0.9,0.7-1.3,0.8c-0.4,0.2-0.9,0.2-1.4,0.2c-0.8,0-1.4-0.2-1.8-0.6c-0.4-0.4-0.6-0.9-0.6-1.5
				c0-0.4,0.1-0.7,0.2-1c0.2-0.3,0.4-0.5,0.6-0.7c0.3-0.2,0.6-0.3,0.9-0.4c0.2-0.1,0.6-0.1,1.1-0.2c1-0.1,1.7-0.3,2.2-0.4
				c0-0.2,0-0.3,0-0.3c0-0.5-0.1-0.9-0.3-1.1c-0.3-0.3-0.8-0.4-1.4-0.4c-0.6,0-1,0.1-1.3,0.3c-0.3,0.2-0.5,0.6-0.6,1.1l-1.2-0.2
				c0.1-0.5,0.3-0.9,0.5-1.2c0.3-0.3,0.6-0.6,1.1-0.7c0.5-0.2,1-0.3,1.6-0.3c0.6,0,1.1,0.1,1.5,0.2s0.7,0.3,0.9,0.6
				c0.2,0.2,0.3,0.5,0.4,0.8c0,0.2,0.1,0.6,0.1,1.1V65c0,1.1,0,1.9,0.1,2.2c0.1,0.3,0.2,0.6,0.3,0.9h-1.3
				C858.2,67.7,858.1,67.4,858,67.1z M857.9,64.4c-0.4,0.2-1.1,0.3-2,0.5c-0.5,0.1-0.9,0.2-1.1,0.2s-0.4,0.2-0.5,0.4
				c-0.1,0.2-0.2,0.4-0.2,0.6c0,0.3,0.1,0.6,0.4,0.8c0.2,0.2,0.6,0.3,1.1,0.3c0.5,0,0.9-0.1,1.3-0.3c0.4-0.2,0.6-0.5,0.8-0.9
				c0.1-0.3,0.2-0.7,0.2-1.2V64.4z"/>
			<path d="M860.9,70.8v-10h1.1v0.9c0.3-0.4,0.6-0.6,0.9-0.8c0.3-0.2,0.7-0.3,1.2-0.3c0.6,0,1.2,0.2,1.6,0.5
				c0.5,0.3,0.8,0.8,1.1,1.3c0.2,0.6,0.4,1.2,0.4,1.9c0,0.7-0.1,1.4-0.4,2c-0.3,0.6-0.7,1-1.2,1.4c-0.5,0.3-1,0.5-1.6,0.5
				c-0.4,0-0.8-0.1-1.1-0.3s-0.6-0.4-0.8-0.7v3.5H860.9z M862,64.4c0,0.9,0.2,1.6,0.6,2.1c0.4,0.4,0.8,0.7,1.4,0.7
				c0.5,0,1-0.2,1.4-0.7c0.4-0.5,0.6-1.2,0.6-2.2c0-0.9-0.2-1.6-0.6-2.1s-0.8-0.7-1.4-0.7c-0.5,0-1,0.2-1.4,0.7
				C862.2,62.8,862,63.5,862,64.4z"/>
			<path d="M873.4,65.7l1.3,0.2c-0.2,0.7-0.6,1.3-1.1,1.7c-0.5,0.4-1.2,0.6-2.1,0.6c-1.1,0-1.9-0.3-2.5-1c-0.6-0.7-0.9-1.6-0.9-2.8
				c0-1.2,0.3-2.2,0.9-2.8s1.4-1,2.4-1c1,0,1.8,0.3,2.4,1s0.9,1.6,0.9,2.8c0,0.1,0,0.2,0,0.3h-5.4c0,0.8,0.3,1.4,0.7,1.8
				c0.4,0.4,0.9,0.6,1.5,0.6c0.5,0,0.8-0.1,1.2-0.4C873,66.6,873.2,66.2,873.4,65.7z M869.4,63.7h4.1c-0.1-0.6-0.2-1.1-0.5-1.4
				c-0.4-0.5-0.9-0.7-1.5-0.7c-0.6,0-1,0.2-1.4,0.6S869.4,63,869.4,63.7z"/>
			<path d="M876,60.7h1.2v3h3.4v-3h1.2V68h-1.2v-3.2h-3.4V68H876V60.7z"/>
			<path d="M883.1,64.4c0-1.3,0.4-2.3,1.1-3c0.6-0.5,1.4-0.8,2.3-0.8c1,0,1.8,0.3,2.4,1c0.6,0.7,1,1.6,1,2.7c0,0.9-0.1,1.7-0.4,2.2
				c-0.3,0.5-0.7,1-1.2,1.2s-1.1,0.4-1.8,0.4c-1,0-1.8-0.3-2.5-1S883.1,65.6,883.1,64.4z M884.4,64.4c0,0.9,0.2,1.6,0.6,2.1
				c0.4,0.5,0.9,0.7,1.5,0.7c0.6,0,1.1-0.2,1.5-0.7c0.4-0.5,0.6-1.2,0.6-2.1c0-0.9-0.2-1.6-0.6-2c-0.4-0.5-0.9-0.7-1.5-0.7
				c-0.6,0-1.1,0.2-1.5,0.7C884.6,62.7,884.4,63.4,884.4,64.4z"/>
			<path d="M891.1,60.7h2.8c0.7,0,1.2,0.1,1.6,0.2c0.3,0.1,0.6,0.3,0.9,0.6s0.4,0.7,0.4,1.1c0,0.3-0.1,0.6-0.2,0.9
				c-0.1,0.3-0.4,0.5-0.6,0.6c0.3,0.1,0.6,0.3,0.9,0.6c0.2,0.3,0.3,0.7,0.3,1.1c0,0.7-0.3,1.2-0.7,1.5c-0.4,0.3-1.1,0.5-1.9,0.5
				h-3.3V60.7z M892.4,63.8h1.3c0.5,0,0.9,0,1.1-0.1c0.2-0.1,0.4-0.2,0.5-0.3c0.2-0.2,0.2-0.4,0.2-0.6c0-0.4-0.1-0.6-0.4-0.8
				s-0.7-0.2-1.4-0.2h-1.4V63.8z M892.4,67h1.6c0.7,0,1.2-0.1,1.4-0.2c0.3-0.2,0.4-0.4,0.4-0.8c0-0.2-0.1-0.4-0.2-0.6
				c-0.2-0.2-0.3-0.3-0.6-0.4c-0.2-0.1-0.6-0.1-1.2-0.1h-1.5V67z"/>
			<path d="M898.4,60.7h1.2v3h3.4v-3h1.2V68H903v-3.2h-3.4V68h-1.2V60.7z"/>
			<path d="M910.6,67.1c-0.5,0.4-0.9,0.7-1.3,0.8s-0.9,0.2-1.4,0.2c-0.8,0-1.4-0.2-1.8-0.6c-0.4-0.4-0.6-0.9-0.6-1.5
				c0-0.4,0.1-0.7,0.2-1c0.2-0.3,0.4-0.5,0.6-0.7s0.6-0.3,0.9-0.4c0.2-0.1,0.6-0.1,1.1-0.2c1-0.1,1.7-0.3,2.2-0.4c0-0.2,0-0.3,0-0.3
				c0-0.5-0.1-0.9-0.3-1.1c-0.3-0.3-0.8-0.4-1.4-0.4c-0.6,0-1,0.1-1.3,0.3c-0.3,0.2-0.5,0.6-0.6,1.1l-1.2-0.2
				c0.1-0.5,0.3-0.9,0.5-1.2c0.2-0.3,0.6-0.6,1.1-0.7c0.5-0.2,1-0.3,1.6-0.3c0.6,0,1.1,0.1,1.5,0.2c0.4,0.1,0.7,0.3,0.9,0.6
				c0.2,0.2,0.3,0.5,0.4,0.8c0,0.2,0.1,0.6,0.1,1.1V65c0,1.1,0,1.9,0.1,2.2c0.1,0.3,0.2,0.6,0.3,0.9h-1.3
				C910.7,67.7,910.6,67.4,910.6,67.1z M910.5,64.4c-0.4,0.2-1.1,0.3-2,0.5c-0.5,0.1-0.9,0.2-1.1,0.2c-0.2,0.1-0.4,0.2-0.5,0.4
				c-0.1,0.2-0.2,0.4-0.2,0.6c0,0.3,0.1,0.6,0.4,0.8s0.6,0.3,1.1,0.3c0.5,0,0.9-0.1,1.3-0.3c0.4-0.2,0.6-0.5,0.8-0.9
				c0.1-0.3,0.2-0.7,0.2-1.2V64.4z"/>
		</g>
		<g class="st7">
			<path d="M816,83.8V85h-6.6c0-0.3,0-0.6,0.1-0.9c0.2-0.5,0.4-0.9,0.8-1.3c0.4-0.4,0.9-0.9,1.6-1.5c1.1-0.9,1.8-1.6,2.2-2.1
				c0.4-0.5,0.6-1,0.6-1.5c0-0.5-0.2-0.9-0.5-1.2c-0.3-0.3-0.8-0.5-1.4-0.5c-0.6,0-1.1,0.2-1.4,0.5s-0.5,0.8-0.5,1.5l-1.3-0.1
				c0.1-0.9,0.4-1.7,1-2.2c0.6-0.5,1.3-0.7,2.3-0.7c1,0,1.7,0.3,2.3,0.8s0.8,1.2,0.8,2c0,0.4-0.1,0.8-0.2,1.2s-0.4,0.8-0.8,1.2
				c-0.4,0.4-1,1-1.9,1.8c-0.7,0.6-1.2,1-1.4,1.3c-0.2,0.2-0.4,0.4-0.5,0.7H816z"/>
			<path d="M817.2,82.4l1.3-0.1c0.1,0.6,0.3,1.1,0.7,1.4c0.3,0.3,0.8,0.5,1.3,0.5c0.6,0,1.1-0.2,1.5-0.7s0.6-1,0.6-1.8
				c0-0.7-0.2-1.3-0.6-1.7c-0.4-0.4-0.9-0.6-1.5-0.6c-0.4,0-0.8,0.1-1.1,0.3c-0.3,0.2-0.6,0.4-0.8,0.7l-1.2-0.2l1-5.1h5v1.2h-4
				l-0.5,2.7c0.6-0.4,1.2-0.6,1.9-0.6c0.9,0,1.6,0.3,2.2,0.9s0.9,1.4,0.9,2.3c0,0.9-0.3,1.7-0.8,2.4c-0.6,0.8-1.5,1.2-2.6,1.2
				c-0.9,0-1.7-0.3-2.2-0.8C817.6,83.9,817.2,83.2,817.2,82.4z"/>
			<path d="M825.4,85v-1.4h1.4V85H825.4z"/>
			<path d="M833,85h-1.2v-7.8c-0.3,0.3-0.7,0.6-1.2,0.8c-0.5,0.3-0.9,0.5-1.3,0.6v-1.2c0.7-0.3,1.3-0.7,1.8-1.2s0.9-0.9,1.1-1.3h0.8
				V85z"/>
			<path d="M839.6,85h-1.2v-7.8c-0.3,0.3-0.7,0.6-1.2,0.8c-0.5,0.3-0.9,0.5-1.3,0.6v-1.2c0.7-0.3,1.3-0.7,1.8-1.2s0.9-0.9,1.1-1.3
				h0.8V85z"/>
			<path d="M843.2,85v-1.4h1.4V85H843.2z"/>
			<path d="M850.8,85h-1.2v-7.8c-0.3,0.3-0.7,0.6-1.2,0.8c-0.5,0.3-0.9,0.5-1.3,0.6v-1.2c0.7-0.3,1.3-0.7,1.8-1.2s0.9-0.9,1.1-1.3
				h0.8V85z"/>
			<path d="M854,82.7l1.2-0.1c0.1,0.6,0.3,1,0.6,1.2c0.3,0.3,0.6,0.4,1.1,0.4c0.4,0,0.7-0.1,1-0.3s0.5-0.4,0.7-0.7
				c0.2-0.3,0.3-0.7,0.5-1.2s0.2-1,0.2-1.5c0-0.1,0-0.1,0-0.2c-0.2,0.4-0.6,0.7-1,1c-0.4,0.2-0.9,0.4-1.4,0.4
				c-0.8,0-1.5-0.3-2.1-0.9s-0.9-1.4-0.9-2.4c0-1,0.3-1.8,0.9-2.5s1.4-0.9,2.3-0.9c0.7,0,1.2,0.2,1.8,0.5s1,0.9,1.2,1.5
				c0.3,0.6,0.4,1.6,0.4,2.8c0,1.3-0.1,2.3-0.4,3.1c-0.3,0.8-0.7,1.3-1.2,1.7s-1.2,0.6-1.9,0.6c-0.8,0-1.4-0.2-1.9-0.7
				C854.4,84.1,854.1,83.5,854,82.7z M859,78.3c0-0.7-0.2-1.3-0.6-1.7s-0.8-0.6-1.4-0.6c-0.5,0-1,0.2-1.4,0.7
				c-0.4,0.4-0.6,1-0.6,1.7c0,0.6,0.2,1.2,0.6,1.6c0.4,0.4,0.9,0.6,1.4,0.6c0.6,0,1-0.2,1.4-0.6C858.8,79.5,859,79,859,78.3z"/>
			<path d="M861.4,82.4l1.2-0.2c0.1,0.7,0.4,1.2,0.7,1.5c0.3,0.3,0.8,0.5,1.2,0.5c0.6,0,1.1-0.2,1.5-0.6s0.6-0.9,0.6-1.5
				c0-0.6-0.2-1-0.6-1.4c-0.4-0.4-0.8-0.6-1.4-0.6c-0.2,0-0.5,0-0.9,0.1l0.1-1.1c0.1,0,0.1,0,0.2,0c0.5,0,1-0.1,1.4-0.4
				c0.4-0.3,0.6-0.7,0.6-1.3c0-0.5-0.2-0.8-0.5-1.1c-0.3-0.3-0.7-0.4-1.2-0.4c-0.5,0-0.9,0.2-1.2,0.5c-0.3,0.3-0.5,0.8-0.6,1.4
				l-1.2-0.2c0.2-0.8,0.5-1.5,1-1.9c0.5-0.5,1.2-0.7,2-0.7c0.5,0,1.1,0.1,1.5,0.4c0.5,0.2,0.8,0.6,1.1,1s0.4,0.8,0.4,1.3
				c0,0.4-0.1,0.8-0.3,1.2s-0.6,0.6-1,0.8c0.6,0.1,1.1,0.4,1.4,0.9c0.3,0.4,0.5,1,0.5,1.6c0,0.9-0.3,1.6-1,2.2
				c-0.6,0.6-1.4,0.9-2.4,0.9c-0.9,0-1.6-0.3-2.2-0.8S861.4,83.2,861.4,82.4z"/>
			<path d="M875.3,77.4l-1.2,0.1c-0.1-0.5-0.3-0.8-0.5-1.1c-0.3-0.4-0.7-0.5-1.2-0.5c-0.4,0-0.7,0.1-1,0.3c-0.4,0.3-0.7,0.7-0.9,1.2
				c-0.2,0.5-0.3,1.3-0.3,2.3c0.3-0.5,0.7-0.8,1.1-1c0.4-0.2,0.9-0.3,1.3-0.3c0.8,0,1.5,0.3,2.1,0.9c0.6,0.6,0.9,1.4,0.9,2.3
				c0,0.6-0.1,1.2-0.4,1.8c-0.3,0.5-0.6,1-1.1,1.2c-0.5,0.3-1,0.4-1.6,0.4c-1,0-1.9-0.4-2.5-1.1c-0.6-0.8-1-2-1-3.7
				c0-1.9,0.4-3.3,1.1-4.2c0.6-0.8,1.5-1.1,2.5-1.1c0.8,0,1.4,0.2,1.9,0.7S875.2,76.7,875.3,77.4z M870.3,81.8
				c0,0.4,0.1,0.8,0.3,1.2s0.4,0.7,0.8,0.9c0.3,0.2,0.7,0.3,1,0.3c0.5,0,1-0.2,1.3-0.6c0.4-0.4,0.6-1,0.6-1.7c0-0.7-0.2-1.2-0.6-1.6
				c-0.4-0.4-0.8-0.6-1.4-0.6c-0.6,0-1,0.2-1.4,0.6C870.5,80.6,870.3,81.1,870.3,81.8z"/>
		</g>
		<text transform="matrix(1 0 0 1 86.7254 34)" class="st4 st8 st9">Соучредитель</text>
		<text transform="matrix(1 0 0 1 121.2509 51)" class="st8 st9">Булгаков</text>
		<text transform="matrix(1 0 0 1 38.9123 68)" class="st8 st9">Михаил Афанасьевич</text>
		<text transform="matrix(1 0 0 1 113.808 85)" class="st8 st9">25.11.1936</text>
		<g id="Group-7-Copy-5" transform="translate(449.000000, 140.000000)">
			<g class="st7">
				<path class="st10" d="M34.2,14H33V6.2c-0.3,0.3-0.7,0.6-1.2,0.8s-0.9,0.5-1.3,0.6V6.5c0.7-0.3,1.3-0.7,1.8-1.2s0.9-0.9,1.1-1.3
					h0.8V14z"/>
				<path class="st10" d="M43.8,12.8V14h-6.6c0-0.3,0-0.6,0.1-0.9c0.2-0.5,0.4-0.9,0.8-1.3s0.9-0.9,1.6-1.5c1.1-0.9,1.8-1.6,2.2-2.1
					c0.4-0.5,0.6-1,0.6-1.5c0-0.5-0.2-0.9-0.5-1.2C41.7,5.1,41.2,5,40.7,5c-0.6,0-1.1,0.2-1.4,0.5S38.7,6.3,38.7,7l-1.3-0.1
					c0.1-0.9,0.4-1.7,1-2.2c0.6-0.5,1.3-0.7,2.3-0.7c1,0,1.7,0.3,2.3,0.8s0.8,1.2,0.8,2c0,0.4-0.1,0.8-0.2,1.2s-0.4,0.8-0.8,1.2
					c-0.4,0.4-1,1-1.9,1.8c-0.7,0.6-1.2,1-1.4,1.3c-0.2,0.2-0.4,0.4-0.5,0.7H43.8z"/>
				<path class="st10" d="M45.2,9.1c0-1.2,0.1-2.1,0.4-2.9c0.2-0.7,0.6-1.3,1.1-1.7c0.5-0.4,1.1-0.6,1.8-0.6c0.5,0,1,0.1,1.4,0.3
					c0.4,0.2,0.7,0.5,1,0.9c0.3,0.4,0.5,0.9,0.6,1.5c0.2,0.6,0.2,1.4,0.2,2.4c0,1.2-0.1,2.1-0.4,2.8c-0.2,0.7-0.6,1.3-1.1,1.7
					c-0.5,0.4-1.1,0.6-1.8,0.6c-1,0-1.7-0.3-2.3-1C45.5,12.3,45.2,10.9,45.2,9.1z M46.4,9.1c0,1.6,0.2,2.7,0.6,3.3
					c0.4,0.5,0.9,0.8,1.4,0.8s1-0.3,1.4-0.8c0.4-0.5,0.6-1.6,0.6-3.3c0-1.6-0.2-2.7-0.6-3.3C49.5,5.2,49,5,48.4,5
					c-0.6,0-1,0.2-1.4,0.7C46.6,6.3,46.4,7.4,46.4,9.1z"/>
				<path class="st10" d="M56.9,5.3V4.1h6.5v1c-0.6,0.7-1.3,1.6-1.9,2.7c-0.6,1.1-1.1,2.3-1.5,3.5c-0.2,0.8-0.4,1.8-0.5,2.8h-1.3
					c0-0.8,0.2-1.7,0.5-2.9s0.7-2.2,1.3-3.2c0.6-1,1.1-1.9,1.8-2.6H56.9z"/>
				<path class="st10" d="M71,6.4l-1.2,0.1c-0.1-0.5-0.3-0.8-0.5-1.1c-0.3-0.4-0.7-0.5-1.2-0.5c-0.4,0-0.7,0.1-1,0.3
					c-0.4,0.3-0.7,0.7-0.9,1.2s-0.3,1.3-0.3,2.3c0.3-0.5,0.7-0.8,1.1-1s0.9-0.3,1.3-0.3c0.8,0,1.5,0.3,2.1,0.9
					c0.6,0.6,0.9,1.4,0.9,2.3c0,0.6-0.1,1.2-0.4,1.8c-0.3,0.5-0.6,1-1.1,1.2s-1,0.4-1.6,0.4c-1,0-1.9-0.4-2.5-1.1
					c-0.6-0.8-1-2-1-3.7c0-1.9,0.4-3.3,1.1-4.2c0.6-0.8,1.5-1.1,2.5-1.1c0.8,0,1.4,0.2,1.9,0.7C70.6,5,70.9,5.7,71,6.4z M66,10.8
					c0,0.4,0.1,0.8,0.3,1.2c0.2,0.4,0.4,0.7,0.8,0.9c0.3,0.2,0.7,0.3,1,0.3c0.5,0,1-0.2,1.3-0.6s0.6-1,0.6-1.7
					c0-0.7-0.2-1.2-0.6-1.6C69,8.8,68.5,8.6,68,8.6c-0.6,0-1,0.2-1.4,0.6C66.2,9.6,66,10.1,66,10.8z"/>
				<path class="st10" d="M72.5,5.3V4.1H79v1c-0.6,0.7-1.3,1.6-1.9,2.7c-0.6,1.1-1.1,2.3-1.5,3.5c-0.2,0.8-0.4,1.8-0.5,2.8h-1.3
					c0-0.8,0.2-1.7,0.5-2.9s0.7-2.2,1.3-3.2c0.6-1,1.1-1.9,1.8-2.6H72.5z"/>
			</g>
			<g id="ic_check_box_black_24px">
				<g id="Shape_1_">
					<polygon class="st11" points="0,0 24,0 24,24 0,24 					"/>
					<path class="st10" d="M19,3H5C3.9,3,3,3.9,3,5v14c0,1.1,0.9,2,2,2h14c1.1,0,2-0.9,2-2V5C21,3.9,20.1,3,19,3z M10,17l-5-5
						l1.4-1.4l3.6,3.6l7.6-7.6L19,8L10,17z"/>
				</g>
			</g>
		</g>
		<g id="Group-7-Copy-8" transform="translate(689.000000, 130.000000)">
			<g class="st7">
				<path class="st10" d="M36,12.8V14h-6.6c0-0.3,0-0.6,0.1-0.9c0.2-0.5,0.4-0.9,0.8-1.3c0.4-0.4,0.9-0.9,1.6-1.5
					c1.1-0.9,1.8-1.6,2.2-2.1c0.4-0.5,0.6-1,0.6-1.5c0-0.5-0.2-0.9-0.5-1.2C33.9,5.1,33.4,5,32.9,5c-0.6,0-1.1,0.2-1.4,0.5
					S30.9,6.3,30.9,7l-1.3-0.1c0.1-0.9,0.4-1.7,1-2.2c0.6-0.5,1.3-0.7,2.3-0.7c1,0,1.7,0.3,2.3,0.8s0.8,1.2,0.8,2
					c0,0.4-0.1,0.8-0.2,1.2S35.4,8.7,35,9.1c-0.4,0.4-1,1-1.9,1.8c-0.7,0.6-1.2,1-1.4,1.3c-0.2,0.2-0.4,0.4-0.5,0.7H36z"/>
				<path class="st10" d="M37.4,11.4l1.2-0.2c0.1,0.7,0.4,1.2,0.7,1.5c0.3,0.3,0.8,0.5,1.2,0.5c0.6,0,1.1-0.2,1.5-0.6
					c0.4-0.4,0.6-0.9,0.6-1.5c0-0.6-0.2-1-0.6-1.4c-0.4-0.4-0.8-0.6-1.4-0.6c-0.2,0-0.5,0-0.9,0.1l0.1-1.1c0.1,0,0.1,0,0.2,0
					c0.5,0,1-0.1,1.4-0.4s0.6-0.7,0.6-1.3c0-0.5-0.2-0.8-0.5-1.1S41,4.9,40.5,4.9c-0.5,0-0.9,0.2-1.2,0.5s-0.5,0.8-0.6,1.4l-1.2-0.2
					c0.2-0.8,0.5-1.5,1-1.9c0.5-0.5,1.2-0.7,2-0.7c0.5,0,1.1,0.1,1.5,0.4c0.5,0.2,0.8,0.6,1.1,1c0.2,0.4,0.4,0.8,0.4,1.3
					c0,0.4-0.1,0.8-0.3,1.2s-0.6,0.6-1,0.8c0.6,0.1,1.1,0.4,1.4,0.9c0.3,0.4,0.5,1,0.5,1.6c0,0.9-0.3,1.6-1,2.2
					c-0.6,0.6-1.4,0.9-2.4,0.9c-0.9,0-1.6-0.3-2.2-0.8C37.8,12.9,37.5,12.2,37.4,11.4z"/>
				<path class="st10" d="M49.1,5.3V4.1h6.5v1c-0.6,0.7-1.3,1.6-1.9,2.7c-0.6,1.1-1.1,2.3-1.5,3.5C52,12.1,51.9,13,51.8,14h-1.3
					c0-0.8,0.2-1.7,0.5-2.9s0.7-2.2,1.3-3.2c0.6-1,1.1-1.9,1.8-2.6H49.1z"/>
				<path class="st10" d="M58.7,8.6c-0.5-0.2-0.9-0.5-1.1-0.8S57.2,7,57.2,6.5c0-0.7,0.3-1.3,0.8-1.8s1.2-0.7,2.1-0.7
					c0.9,0,1.6,0.3,2.1,0.8C62.7,5.2,63,5.8,63,6.6c0,0.5-0.1,0.9-0.4,1.2c-0.2,0.3-0.6,0.6-1.1,0.8c0.6,0.2,1.1,0.5,1.4,1
					c0.3,0.4,0.5,1,0.5,1.6c0,0.9-0.3,1.6-0.9,2.2s-1.4,0.9-2.4,0.9s-1.8-0.3-2.4-0.9c-0.6-0.6-0.9-1.3-0.9-2.2
					c0-0.7,0.2-1.2,0.5-1.6C57.6,9,58.1,8.7,58.7,8.6z M58.1,11.1c0,0.4,0.1,0.7,0.2,1c0.2,0.3,0.4,0.6,0.7,0.8
					c0.3,0.2,0.7,0.3,1.1,0.3c0.6,0,1.1-0.2,1.5-0.6s0.6-0.9,0.6-1.4c0-0.6-0.2-1.1-0.6-1.5c-0.4-0.4-0.9-0.6-1.5-0.6
					c-0.6,0-1.1,0.2-1.4,0.6C58.3,10.1,58.1,10.5,58.1,11.1z M58.5,6.5c0,0.5,0.2,0.9,0.5,1.2s0.7,0.5,1.2,0.5
					c0.5,0,0.9-0.1,1.2-0.4c0.3-0.3,0.5-0.7,0.5-1.1c0-0.5-0.2-0.8-0.5-1.1c-0.3-0.3-0.7-0.5-1.2-0.5c-0.5,0-0.9,0.2-1.2,0.5
					S58.5,6.1,58.5,6.5z"/>
				<path class="st10" d="M71,6.4l-1.2,0.1c-0.1-0.5-0.3-0.8-0.5-1.1c-0.3-0.4-0.7-0.5-1.2-0.5c-0.4,0-0.7,0.1-1,0.3
					c-0.4,0.3-0.7,0.7-0.9,1.2s-0.3,1.3-0.3,2.3c0.3-0.5,0.7-0.8,1.1-1s0.9-0.3,1.3-0.3c0.8,0,1.5,0.3,2.1,0.9
					c0.6,0.6,0.9,1.4,0.9,2.3c0,0.6-0.1,1.2-0.4,1.8c-0.3,0.5-0.6,1-1.1,1.2s-1,0.4-1.6,0.4c-1,0-1.9-0.4-2.5-1.1
					c-0.6-0.8-1-2-1-3.7c0-1.9,0.4-3.3,1.1-4.2c0.6-0.8,1.5-1.1,2.5-1.1c0.8,0,1.4,0.2,1.9,0.7C70.6,5,70.9,5.7,71,6.4z M66,10.8
					c0,0.4,0.1,0.8,0.3,1.2c0.2,0.4,0.4,0.7,0.8,0.9c0.3,0.2,0.7,0.3,1,0.3c0.5,0,1-0.2,1.3-0.6s0.6-1,0.6-1.7
					c0-0.7-0.2-1.2-0.6-1.6C69,8.8,68.5,8.6,68,8.6c-0.6,0-1,0.2-1.4,0.6C66.2,9.6,66,10.1,66,10.8z"/>
			</g>
			<g id="ic_check_box_black_24px_1_">
				<g id="Shape_2_">
					<polygon class="st11" points="0,0 24,0 24,24 0,24 					"/>
					<path class="st10" d="M19,3H5C3.9,3,3,3.9,3,5v14c0,1.1,0.9,2,2,2h14c1.1,0,2-0.9,2-2V5C21,3.9,20.1,3,19,3z M10,17l-5-5
						l1.4-1.4l3.6,3.6l7.6-7.6L19,8L10,17z"/>
				</g>
			</g>
		</g>
		<g id="Group-7-Copy-3" transform="translate(199.000000, 130.000000)">
			<g class="st7">
				<path class="st10" d="M36,12.8V14h-6.6c0-0.3,0-0.6,0.1-0.9c0.2-0.5,0.4-0.9,0.8-1.3s0.9-0.9,1.6-1.5c1.1-0.9,1.8-1.6,2.2-2.1
					c0.4-0.5,0.6-1,0.6-1.5c0-0.5-0.2-0.9-0.5-1.2C33.9,5.1,33.4,5,32.9,5c-0.6,0-1.1,0.2-1.4,0.5S30.9,6.3,30.9,7l-1.3-0.1
					c0.1-0.9,0.4-1.7,1-2.2c0.6-0.5,1.3-0.7,2.3-0.7c1,0,1.7,0.3,2.3,0.8s0.8,1.2,0.8,2c0,0.4-0.1,0.8-0.2,1.2S35.4,8.7,35,9.1
					s-1,1-1.9,1.8c-0.7,0.6-1.2,1-1.4,1.3c-0.2,0.2-0.4,0.4-0.5,0.7H36z"/>
				<path class="st10" d="M37.4,11.4l1.2-0.2c0.1,0.7,0.4,1.2,0.7,1.5c0.3,0.3,0.8,0.5,1.2,0.5c0.6,0,1.1-0.2,1.5-0.6
					s0.6-0.9,0.6-1.5c0-0.6-0.2-1-0.6-1.4c-0.4-0.4-0.8-0.6-1.4-0.6c-0.2,0-0.5,0-0.9,0.1l0.1-1.1c0.1,0,0.1,0,0.2,0
					c0.5,0,1-0.1,1.4-0.4s0.6-0.7,0.6-1.3c0-0.5-0.2-0.8-0.5-1.1S41,4.9,40.5,4.9c-0.5,0-0.9,0.2-1.2,0.5s-0.5,0.8-0.6,1.4l-1.2-0.2
					c0.2-0.8,0.5-1.5,1-1.9c0.5-0.5,1.2-0.7,2-0.7c0.5,0,1.1,0.1,1.5,0.4c0.5,0.2,0.8,0.6,1.1,1s0.4,0.8,0.4,1.3
					c0,0.4-0.1,0.8-0.3,1.2s-0.6,0.6-1,0.8c0.6,0.1,1.1,0.4,1.4,0.9c0.3,0.4,0.5,1,0.5,1.6c0,0.9-0.3,1.6-1,2.2
					c-0.6,0.6-1.4,0.9-2.4,0.9c-0.9,0-1.6-0.3-2.2-0.8S37.5,12.2,37.4,11.4z"/>
				<path class="st10" d="M49.1,5.3V4.1h6.5v1c-0.6,0.7-1.3,1.6-1.9,2.7s-1.1,2.3-1.5,3.5C52,12.1,51.9,13,51.8,14h-1.3
					c0-0.8,0.2-1.7,0.5-2.9s0.7-2.2,1.3-3.2c0.6-1,1.1-1.9,1.8-2.6H49.1z"/>
				<path class="st10" d="M58.7,8.6c-0.5-0.2-0.9-0.5-1.1-0.8S57.2,7,57.2,6.5c0-0.7,0.3-1.3,0.8-1.8s1.2-0.7,2.1-0.7
					c0.9,0,1.6,0.3,2.1,0.8C62.7,5.2,63,5.8,63,6.6c0,0.5-0.1,0.9-0.4,1.2c-0.2,0.3-0.6,0.6-1.1,0.8c0.6,0.2,1.1,0.5,1.4,1
					s0.5,1,0.5,1.6c0,0.9-0.3,1.6-0.9,2.2s-1.4,0.9-2.4,0.9s-1.8-0.3-2.4-0.9c-0.6-0.6-0.9-1.3-0.9-2.2c0-0.7,0.2-1.2,0.5-1.6
					C57.6,9,58.1,8.7,58.7,8.6z M58.1,11.1c0,0.4,0.1,0.7,0.2,1s0.4,0.6,0.7,0.8c0.3,0.2,0.7,0.3,1.1,0.3c0.6,0,1.1-0.2,1.5-0.6
					s0.6-0.9,0.6-1.4c0-0.6-0.2-1.1-0.6-1.5s-0.9-0.6-1.5-0.6c-0.6,0-1.1,0.2-1.4,0.6S58.1,10.5,58.1,11.1z M58.5,6.5
					c0,0.5,0.2,0.9,0.5,1.2s0.7,0.5,1.2,0.5c0.5,0,0.9-0.1,1.2-0.4c0.3-0.3,0.5-0.7,0.5-1.1c0-0.5-0.2-0.8-0.5-1.1
					c-0.3-0.3-0.7-0.5-1.2-0.5c-0.5,0-0.9,0.2-1.2,0.5S58.5,6.1,58.5,6.5z"/>
				<path class="st10" d="M71,6.4l-1.2,0.1c-0.1-0.5-0.3-0.8-0.5-1.1c-0.3-0.4-0.7-0.5-1.2-0.5c-0.4,0-0.7,0.1-1,0.3
					c-0.4,0.3-0.7,0.7-0.9,1.2s-0.3,1.3-0.3,2.3c0.3-0.5,0.7-0.8,1.1-1s0.9-0.3,1.3-0.3c0.8,0,1.5,0.3,2.1,0.9
					c0.6,0.6,0.9,1.4,0.9,2.3c0,0.6-0.1,1.2-0.4,1.8c-0.3,0.5-0.6,1-1.1,1.2s-1,0.4-1.6,0.4c-1,0-1.9-0.4-2.5-1.1
					c-0.6-0.8-1-2-1-3.7c0-1.9,0.4-3.3,1.1-4.2c0.6-0.8,1.5-1.1,2.5-1.1c0.8,0,1.4,0.2,1.9,0.7S70.9,5.7,71,6.4z M66,10.8
					c0,0.4,0.1,0.8,0.3,1.2s0.4,0.7,0.8,0.9c0.3,0.2,0.7,0.3,1,0.3c0.5,0,1-0.2,1.3-0.6s0.6-1,0.6-1.7c0-0.7-0.2-1.2-0.6-1.6
					C69,8.8,68.5,8.6,68,8.6c-0.6,0-1,0.2-1.4,0.6C66.2,9.6,66,10.1,66,10.8z"/>
			</g>
			<g id="ic_check_box_black_24px_2_">
				<g id="Shape_3_">
					<polygon class="st11" points="0,0 24,0 24,24 0,24 					"/>
					<path class="st10" d="M19,3H5C3.9,3,3,3.9,3,5v14c0,1.1,0.9,2,2,2h14c1.1,0,2-0.9,2-2V5C21,3.9,20.1,3,19,3z M10,17l-5-5
						l1.4-1.4l3.6,3.6l7.6-7.6L19,8L10,17z"/>
				</g>
			</g>
		</g>
		<g id="Group-10-Copy" transform="translate(198.000000, 20.000000)" class="st12">
			<g id="Rectangle-7-Copy-2_1_">
				<g id="Mask_1_">
					<circle id="path-4_2_" class="st0" cx="50" cy="50" r="50"/>
				</g>
			</g>
			<g id="Group-6_1_" transform="translate(15.000000, 10.000000)">
				<path id="Shape_11_" class="st6" d="M30.8,0c-1,0-2,1.2-3,1.5S25.5,1,24.5,1.3c-1,0.2-1.7,1.7-2.5,2.2c-1,0.5-2.5,0-3.2,0.7
					c-1,0.5-1.2,1.9-2,2.7c-0.7,0.7-2.2,0.7-3,1.5c-0.7,0.7-0.5,2.2-1,3.2s-2,1.2-2.2,2.2c-0.5,1,0.2,2.2,0,3.2
					c-0.2,1-1.2,1.9-1.2,2.9s1.2,1.9,1.2,2.9c0,0.5,0,1,0,1.5c-2.5,1.7-3.7,5.3-2.7,9.2c0.7,3.4,3,5.8,5.7,6.8
					c3,9.7,11,19.9,21.4,19.9c10.7,0,18.4-10.2,21.4-19.9c2.5-1,4.7-3.4,5.7-6.8c1.2-4.6-0.7-9-4.2-10.2c0-0.2,0-0.5,0-0.5
					c0.2-1,1.2-1.9,1.2-2.9s-1.2-1.9-1.2-2.9c-0.2-1,0.5-2.2,0-3.2c-0.5-1-1.7-1.5-2.2-2.2c-0.5-1-0.2-2.2-1-3.2
					c-0.7-0.7-2.2-0.7-3-1.5s-1-2.2-2-2.7s-2.2-0.2-3.2-0.7s-1.5-1.7-2.5-2.2c-1-0.2-2.2,0.2-3.2,0.2c-1-0.2-2-1.5-3-1.5
					s-2.2,0.7-3.2,0.7C33,0.8,31.7-0.2,30.8,0z M53.9,25l0.2,1.7l1.7-0.2c0.2,0,0.5,0,0.7,0s0.2,0.2,0.5,0.2c1.5,0.7,2,3.4,1.5,5.8
					c-0.7,2.7-2.5,4.1-3.7,4.4l-1.2,0.2l-0.2,1.2c-2.5,9.2-9.7,18.4-18.4,18.4s-15.7-9.2-18.4-18.4l-0.2-1.2l-1.2-0.2
					c-1.5-0.2-3.2-1.7-3.7-4.4c-0.5-1.9-0.2-3.9,0.7-5.1c0.2-0.5,0.7-0.7,1.2-1c0,0,0.2,0,0.5,0h0.2l1.7,0.2l0.2-1.7
					c1.7-11.2,9.5-18.4,19.2-18.4C44.4,6.6,52.2,13.9,53.9,25z"/>
				<path id="Shape_10_" class="st6" d="M32.2,46c2.8-2.8,2.5-7.8,2.5-7.8s-5-0.2-7.8,2.5s-2.5,7.8-2.5,7.8S29.5,49,32.2,46z"/>
				<path id="Shape_9_" class="st6" d="M45,48.5c0,0,0.2-5-2.5-7.8s-7.8-2.5-7.8-2.5s-0.2,5,2.5,7.8C40.2,49,45,48.5,45,48.5z"/>
				<path id="Shape_8_" class="st6" d="M54.7,52.5c-2.2,3.6-4.6,6.8-7.9,8.5C40,64.4,35,67.3,35,67.3s-5-2.9-11.7-6.3
					c-3.4-1.7-5.8-4.9-7.9-8.5C8.4,55.4,2.9,61,0,66.8C7.9,77.7,20.6,85,35,85s27.3-7.3,35-18.2C67.1,60.7,61.6,55.4,54.7,52.5z"/>
			</g>
		</g>
	</g>
</g>
</svg>
