<svg xmlns="http://www.w3.org/2000/svg" xmlns:xlink="http://www.w3.org/1999/xlink" width="382" height="379" viewBox="0 0 382 379">
    <defs>
        <filter id="a" width="153.8%" height="153.8%" x="-23.8%" y="-23.8%" filterUnits="objectBoundingBox">
            <feOffset dx="4" dy="4" in="SourceAlpha" result="shadowOffsetOuter1"/>
            <feGaussianBlur in="shadowOffsetOuter1" result="shadowBlurOuter1" stdDeviation="11"/>
            <feColorMatrix in="shadowBlurOuter1" result="shadowMatrixOuter1" values="0 0 0 0 0.160784314 0 0 0 0 0.282352941 0 0 0 0 0.419607843 0 0 0 0.5 0"/>
            <feMerge>
                <feMergeNode in="shadowMatrixOuter1"/>
                <feMergeNode in="SourceGraphic"/>
            </feMerge>
        </filter>
        <circle id="b" cx="65" cy="65" r="65"/>
        <filter id="c" width="170%" height="170%" x="-31%" y="-31%" filterUnits="objectBoundingBox">
            <feOffset dx="4" dy="4" in="SourceAlpha" result="shadowOffsetOuter1"/>
            <feGaussianBlur in="shadowOffsetOuter1" result="shadowBlurOuter1" stdDeviation="11"/>
            <feColorMatrix in="shadowBlurOuter1" result="shadowMatrixOuter1" values="0 0 0 0 0.160784314 0 0 0 0 0.282352941 0 0 0 0 0.419607843 0 0 0 0.5 0"/>
            <feMerge>
                <feMergeNode in="shadowMatrixOuter1"/>
                <feMergeNode in="SourceGraphic"/>
            </feMerge>
        </filter>
        <circle id="d" cx="50" cy="50" r="50"/>
        <filter id="e" width="170%" height="170%" x="-31%" y="-31%" filterUnits="objectBoundingBox">
            <feOffset dx="4" dy="4" in="SourceAlpha" result="shadowOffsetOuter1"/>
            <feGaussianBlur in="shadowOffsetOuter1" result="shadowBlurOuter1" stdDeviation="11"/>
            <feColorMatrix in="shadowBlurOuter1" result="shadowMatrixOuter1" values="0 0 0 0 0.160784314 0 0 0 0 0.282352941 0 0 0 0 0.419607843 0 0 0 0.5 0"/>
            <feMerge>
                <feMergeNode in="shadowMatrixOuter1"/>
                <feMergeNode in="SourceGraphic"/>
            </feMerge>
        </filter>
    </defs>
    <g fill="none" fill-rule="evenodd">
        <g transform="translate(117 13)">
            <circle cx="70" cy="70" r="69" stroke="#29486B" stroke-width="2"/>
            <g filter="url(#a)" transform="translate(5 5)">
                <use fill="#FFF" fill-rule="nonzero" xlink:href="#b"/>
                <g fill="#29486B" fill-rule="nonzero">
                    <path d="M59.478 13.05c-1.295 0-2.59 1.579-3.884 1.894-1.295.316-2.914-.631-4.208-.315-1.295.315-2.266 2.209-3.238 2.84-1.294.631-3.237 0-4.208.947-1.295.63-1.618 2.524-2.59 3.471-.97.947-2.913.947-3.884 1.894-.971.946-.647 2.84-1.295 4.102-.647 1.262-2.59 1.578-2.913 2.84-.648 1.263.324 2.84 0 4.103-.324 1.262-1.619 2.525-1.619 3.787s1.619 2.525 1.619 3.787v1.894c-3.237 2.209-4.856 6.942-3.561 11.992.971 4.418 3.885 7.574 7.445 8.836C41.027 77.745 51.386 91 64.982 91 78.9 91 88.935 77.745 92.82 65.122c3.237-1.262 6.15-4.418 7.446-8.836 1.618-5.996-.972-11.677-5.503-13.255V42.4c.323-1.262 1.618-2.525 1.618-3.787s-1.618-2.525-1.618-3.787c-.324-1.262.647-2.84 0-4.103-.648-1.262-2.266-1.893-2.914-2.84-.647-1.262-.324-2.84-1.295-4.102-.97-.947-2.913-.947-3.884-1.894-.971-.947-1.295-2.84-2.59-3.471-1.295-.632-2.913-.316-4.208-.947-1.295-.631-1.942-2.21-3.237-2.84-1.295-.316-2.914.315-4.208.315-1.295-.315-2.59-1.893-3.885-1.893s-2.913.946-4.208.946c-1.942 0-3.56-1.262-4.856-.946zm30.105 32.506l.324 2.209 2.266-.316h.971c.324 0 .324.316.647.316 1.943.947 2.59 4.418 1.943 7.574-.971 3.471-3.237 5.365-4.856 5.68l-1.619.316-.323 1.578C85.699 74.905 76.31 86.897 64.98 86.897c-11.33 0-20.393-11.992-23.954-23.984l-.324-1.578-1.618-.316c-1.943-.315-4.209-2.209-4.856-5.68-.647-2.525-.324-5.05.971-6.627.324-.631.971-.947 1.619-1.263H37.79l2.266.316.323-2.21C42.645 31.04 52.68 21.572 65.305 21.572c11.977 0 22.012 9.468 24.278 23.985z"/>
                    <path d="M61.425 72.8c3.575-3.575 3.25-10.075 3.25-10.075s-6.5-.325-10.075 3.25c-3.575 3.575-3.25 10.075-3.25 10.075s6.5.65 10.075-3.25z"/>
                    <path d="M78 76.05s.325-6.5-3.25-10.075c-3.575-3.575-10.075-3.25-10.075-3.25s-.325 6.5 3.25 10.075C71.825 76.7 78 76.05 78 76.05zM90.555 81.25c-2.805 4.73-5.921 8.828-10.284 11.035C71.545 96.7 65 100.483 65 100.483s-6.545-3.783-15.27-8.198c-4.364-2.207-7.48-6.306-10.285-11.035C30.408 85.034 23.24 92.285 19.5 99.853 29.784 114.04 46.301 123.5 65 123.5s35.527-9.459 45.5-23.647c-3.74-7.883-10.908-14.82-19.945-18.603z"/>
                </g>
            </g>
        </g>
        <g filter="url(#c)" transform="translate(257 253)">
            <use fill="#FFF" fill-rule="nonzero" xlink:href="#d"/>
            <g fill="#9F9F9F" fill-rule="nonzero">
                <path d="M45.752 10.039c-.996 0-1.992 1.214-2.988 1.457-.996.242-2.24-.486-3.237-.243-.996.243-1.743 1.699-2.49 2.185-.996.485-2.49 0-3.237.728-.996.485-1.245 1.942-1.992 2.67-.747.728-2.241.728-2.988 1.457-.747.728-.498 2.185-.996 3.156-.498.97-1.992 1.213-2.241 2.184-.498.971.249 2.185 0 3.156-.25.971-1.245 1.942-1.245 2.913 0 .971 1.245 1.942 1.245 2.913v1.457c-2.49 1.7-3.735 5.34-2.74 9.225.748 3.398 2.989 5.826 5.728 6.797C31.559 59.804 39.527 70 49.986 70 60.693 70 68.412 59.804 71.4 50.094c2.49-.971 4.731-3.399 5.727-6.797 1.245-4.613-.747-8.982-4.233-10.196v-.486c.25-.97 1.245-1.942 1.245-2.913 0-.97-1.245-1.942-1.245-2.913-.249-.97.498-2.185 0-3.156-.498-.97-1.743-1.456-2.24-2.184-.499-.971-.25-2.185-.997-3.156-.747-.729-2.24-.729-2.988-1.457-.747-.728-.996-2.185-1.992-2.67-.996-.486-2.241-.243-3.237-.728-.996-.486-1.494-1.7-2.49-2.185-.996-.243-2.241.243-3.237.243-.996-.243-1.992-1.457-2.988-1.457s-2.241.728-3.237.728c-1.494 0-2.74-.97-3.736-.728zM68.91 35.043l.25 1.7 1.742-.243h.747c.25 0 .25.242.498.242 1.494.729 1.992 3.399 1.494 5.826-.747 2.67-2.49 4.127-3.735 4.37l-1.245.243-.249 1.214c-2.49 9.224-9.711 18.45-18.426 18.45-8.716 0-15.688-9.226-18.427-18.45l-.249-1.214-1.245-.243c-1.494-.243-3.237-1.7-3.735-4.37-.498-1.942-.25-3.884.747-5.097.249-.486.747-.729 1.245-.971h.747l1.743.242.25-1.699c1.742-11.167 9.461-18.45 19.173-18.45 9.213 0 16.932 7.283 18.675 18.45z"/>
                <path d="M47.25 56c2.75-2.75 2.5-7.75 2.5-7.75s-5-.25-7.75 2.5-2.5 7.75-2.5 7.75 5 .5 7.75-2.5z"/>
                <path d="M60 58.5s.25-5-2.5-7.75-7.75-2.5-7.75-2.5-.25 5 2.5 7.75c3 3 7.75 2.5 7.75 2.5zM69.658 62.5c-2.158 3.638-4.555 6.791-7.911 8.489C55.034 74.384 50 77.295 50 77.295s-5.034-2.91-11.747-6.306c-3.356-1.698-5.753-4.85-7.91-8.489C23.39 65.41 17.876 70.989 15 76.81 22.911 87.724 35.616 95 50 95s27.329-7.276 35-18.19c-2.877-6.064-8.39-11.4-15.342-14.31z"/>
            </g>
        </g>
        <g fill-rule="nonzero" filter="url(#e)" transform="translate(17 253)">
            <circle cx="50" cy="50" r="50" fill="#FFF"/>
            <path fill="#9F9F9F" d="M39.82 19.647c0 1.445.246 2.89.983 4.095-4.424 2.891-7.62 7.95-8.848 14.215h-.246c-3.196.723-4.916 4.818-3.933 8.914.737 2.891 2.704 5.06 4.916 5.782C35.396 61.086 42.032 70 51.127 70c9.095 0 15.977-8.914 18.681-17.347 2.212-.722 4.179-2.89 4.916-5.782.983-4.096-.737-7.95-3.933-8.914h-.246c-.245-1.687-.737-3.132-1.474-4.578-.246-2.65-2.213-5.782-5.162-8.191-.492-.241-.983-.482-1.23-.723-.982-.723-1.966-1.445-3.195-1.927.246-.723.492-1.687.492-2.65 0-5.542-4.424-9.878-10.078-9.878-5.408-.241-10.078 4.095-10.078 9.637zM55.797 36.03c4.179 3.132 9.095 3.613 11.799 1.445.246.723.246 1.205.491 1.927l.246 1.446 1.475-.24h.492c1.474.481 2.212 2.89 1.72 5.3-.491 2.168-2.212 3.613-3.441 3.854l-.983.241-.246.964c-2.212 7.95-8.357 15.901-15.977 15.901-7.374 0-13.765-7.95-15.977-15.901l-.246-.964-.983-.24c-1.23-.242-2.704-1.446-3.441-3.856-.492-2.409.245-4.818 1.72-5.3h.738a9.18 9.18 0 0 0 2.703 5.541c4.67 4.578 2.95-5.54 8.85-11.323 1.966-1.928 4.178-2.891 6.39-3.855 1.23 1.927 2.704 3.614 4.67 5.06z"/>
            <path fill="#9F9F9F" d="M67.893 65c-1.947 3.415-4.138 6.098-7.06 7.561-6.086 3.17-10.711 5.61-10.711 5.61s-4.626-2.44-10.712-5.61c-2.921-1.463-5.112-4.39-7.06-7.561-7.547 2.927-12.902 9.268-14.85 15.61C25.534 89.39 36.976 95 49.878 95 63.024 95 74.71 89.146 82.5 80.122 80.796 74.268 75.44 68.171 67.893 65z"/>
        </g>
    </g>
</svg>
