<svg xmlns="http://www.w3.org/2000/svg" xmlns:xlink="http://www.w3.org/1999/xlink" width="502" height="504" viewBox="0 0 502 504">
    <defs>
        <filter id="a" width="130.8%" height="130.8%" x="-12.3%" y="-12.3%" filterUnits="objectBoundingBox">
            <feOffset dx="4" dy="4" in="SourceAlpha" result="shadowOffsetOuter1"/>
            <feGaussianBlur in="shadowOffsetOuter1" result="shadowBlurOuter1" stdDeviation="6"/>
            <feColorMatrix in="shadowBlurOuter1" result="shadowMatrixOuter1" values="0 0 0 0 0.160784314 0 0 0 0 0.282352941 0 0 0 0 0.419607843 0 0 0 0.5 0"/>
            <feMerge>
                <feMergeNode in="shadowMatrixOuter1"/>
                <feMergeNode in="SourceGraphic"/>
            </feMerge>
        </filter>
        <filter id="b" width="170%" height="170%" x="-31%" y="-31%" filterUnits="objectBoundingBox">
            <feOffset dx="4" dy="4" in="SourceAlpha" result="shadowOffsetOuter1"/>
            <feGaussianBlur in="shadowOffsetOuter1" result="shadowBlurOuter1" stdDeviation="11"/>
            <feColorMatrix in="shadowBlurOuter1" result="shadowMatrixOuter1" values="0 0 0 0 0.160784314 0 0 0 0 0.282352941 0 0 0 0 0.419607843 0 0 0 0.5 0"/>
            <feMerge>
                <feMergeNode in="shadowMatrixOuter1"/>
                <feMergeNode in="SourceGraphic"/>
            </feMerge>
        </filter>
        <circle id="c" cx="50" cy="50" r="50"/>
        <filter id="d" width="170%" height="170%" x="-31%" y="-31%" filterUnits="objectBoundingBox">
            <feOffset dx="4" dy="4" in="SourceAlpha" result="shadowOffsetOuter1"/>
            <feGaussianBlur in="shadowOffsetOuter1" result="shadowBlurOuter1" stdDeviation="11"/>
            <feColorMatrix in="shadowBlurOuter1" result="shadowMatrixOuter1" values="0 0 0 0 0.160784314 0 0 0 0 0.282352941 0 0 0 0 0.419607843 0 0 0 0.5 0"/>
            <feMerge>
                <feMergeNode in="shadowMatrixOuter1"/>
                <feMergeNode in="SourceGraphic"/>
            </feMerge>
        </filter>
        <filter id="e" width="170%" height="170%" x="-31%" y="-31%" filterUnits="objectBoundingBox">
            <feOffset dx="4" dy="4" in="SourceAlpha" result="shadowOffsetOuter1"/>
            <feGaussianBlur in="shadowOffsetOuter1" result="shadowBlurOuter1" stdDeviation="11"/>
            <feColorMatrix in="shadowBlurOuter1" result="shadowMatrixOuter1" values="0 0 0 0 0.160784314 0 0 0 0 0.282352941 0 0 0 0 0.419607843 0 0 0 0.5 0"/>
            <feMerge>
                <feMergeNode in="shadowMatrixOuter1"/>
                <feMergeNode in="SourceGraphic"/>
            </feMerge>
        </filter>
        <filter id="f" width="170%" height="170%" x="-31%" y="-31%" filterUnits="objectBoundingBox">
            <feOffset dx="4" dy="4" in="SourceAlpha" result="shadowOffsetOuter1"/>
            <feGaussianBlur in="shadowOffsetOuter1" result="shadowBlurOuter1" stdDeviation="11"/>
            <feColorMatrix in="shadowBlurOuter1" result="shadowMatrixOuter1" values="0 0 0 0 0.160784314 0 0 0 0 0.282352941 0 0 0 0 0.419607843 0 0 0 0.5 0"/>
            <feMerge>
                <feMergeNode in="shadowMatrixOuter1"/>
                <feMergeNode in="SourceGraphic"/>
            </feMerge>
        </filter>
    </defs>
    <g fill="none" fill-rule="evenodd" transform="translate(17 18)">
        <path stroke="#FFF" stroke-linecap="square" stroke-width="2" d="M90 50h160M170 50v110"/>
        <circle cx="170" cy="230" r="69" stroke="#29486B" stroke-width="2"/>
        <g fill-rule="nonzero" filter="url(#a)" transform="translate(105 165)">
            <circle cx="65" cy="65" r="65" fill="#FFF"/>
            <path fill="#29486B" d="M32.61 35.28c0 1.938.326 3.877.98 5.816-3.271 2.262-4.58 7.11-3.271 12.28.981 4.2 3.926 7.755 7.198 8.725 3.926 12.926 14.069 26.175 27.81 26.175 13.742 0 23.884-13.249 27.81-26.175 3.272-1.293 6.217-4.524 7.199-8.725 1.635-5.817-.655-11.31-4.908-13.25.327-1.615.654-3.231.654-4.847 0-14.219-14.069-25.529-31.736-25.529-17.668 0-31.737 11.31-31.737 25.53zm52.348-6.787c2.618 3.878 4.253 8.402 5.235 13.572l.327 2.262 2.29-.323h.982s.327 0 .327.323c1.963.97 2.945 4.201 2.29 7.756-.981 3.555-3.271 5.494-4.907 5.817l-1.636.323-.327 1.293c-3.272 11.956-12.433 24.236-23.885 24.236-11.451 0-20.612-11.957-23.884-24.236l-.327-1.293-1.636-.323c-1.963-.323-4.253-2.262-4.908-5.817-.654-2.585-.327-4.847.655-6.463.327-.646.981-1.293 1.963-1.616h.654l2.29.323.328-2.262c.654-4.524 1.963-8.402 3.926-11.956 3.599 4.2 11.124 6.786 19.63 6.786 9.489.323 17.668-3.232 20.613-8.402zm7.198 49.12c10.143 4.2 17.995 11.956 21.594 20.035C103.28 113.159 85.285 123.5 65 123.5s-38.28-10.018-48.75-25.206c3.599-8.402 11.451-16.48 21.594-20.682 2.945 4.848 6.216 9.049 10.797 11.31C58.129 93.448 65 97.326 65 97.326s7.198-3.555 16.36-8.402c4.58-2.262 7.851-6.463 10.796-11.31z"/>
        </g>
        <path stroke="#29486B" stroke-linecap="square" stroke-width="2" d="M239 230h120M290 230v130"/>
        <g filter="url(#b)" transform="translate(240)">
            <use fill="#FFF" fill-rule="nonzero" xlink:href="#c"/>
            <g fill="#9F9F9F" fill-rule="nonzero">
                <path d="M46.252 10.039c-.996 0-1.992 1.214-2.988 1.457-.996.242-2.24-.486-3.237-.243-.996.243-1.743 1.699-2.49 2.185-.996.485-2.49 0-3.237.728-.996.485-1.245 1.942-1.992 2.67-.747.728-2.241.728-2.988 1.457-.747.728-.498 2.185-.996 3.156-.498.97-1.992 1.213-2.241 2.184-.498.971.249 2.185 0 3.156-.25.971-1.245 1.942-1.245 2.913 0 .971 1.245 1.942 1.245 2.913v1.457c-2.49 1.7-3.735 5.34-2.74 9.225.748 3.398 2.989 5.826 5.728 6.797C32.059 59.804 40.027 70 50.486 70 61.193 70 68.912 59.804 71.9 50.094c2.49-.971 4.731-3.399 5.727-6.797 1.245-4.613-.747-8.982-4.233-10.196v-.486c.25-.97 1.245-1.942 1.245-2.913 0-.97-1.245-1.942-1.245-2.913-.249-.97.498-2.185 0-3.156-.498-.97-1.743-1.456-2.24-2.184-.499-.971-.25-2.185-.997-3.156-.747-.729-2.24-.729-2.988-1.457-.747-.728-.996-2.185-1.992-2.67-.996-.486-2.241-.243-3.237-.728-.996-.486-1.494-1.7-2.49-2.185-.996-.243-2.241.243-3.237.243-.996-.243-1.992-1.457-2.988-1.457s-2.241.728-3.237.728c-1.494 0-2.74-.97-3.736-.728zM69.41 35.043l.25 1.7 1.742-.243h.747c.25 0 .25.242.498.242 1.494.729 1.992 3.399 1.494 5.826-.747 2.67-2.49 4.127-3.735 4.37l-1.245.243-.249 1.214c-2.49 9.224-9.711 18.45-18.426 18.45-8.716 0-15.688-9.226-18.427-18.45l-.249-1.214-1.245-.243c-1.494-.243-3.237-1.7-3.735-4.37-.498-1.942-.25-3.884.747-5.097.249-.486.747-.729 1.245-.971h.747l1.743.242.25-1.699c1.742-11.167 9.461-18.45 19.173-18.45 9.213 0 16.932 7.283 18.675 18.45z"/>
                <path d="M46.558 55.54c2.68-2.674 2.436-7.534 2.436-7.534s-4.872-.243-7.552 2.43c-2.68 2.673-2.436 7.534-2.436 7.534s4.872.486 7.552-2.43zM59.994 57.97s.244-4.86-2.436-7.534c-2.68-2.673-7.552-2.43-7.552-2.43s-.244 4.86 2.436 7.533c2.923 2.917 7.552 2.43 7.552 2.43zM69.658 63c-2.158 3.694-4.555 6.896-7.911 8.62C55.034 75.066 50 78.021 50 78.021s-5.034-2.955-11.747-6.403c-3.356-1.723-5.753-4.925-7.91-8.619C23.39 65.955 17.876 71.62 15 77.53 22.911 88.612 35.616 96 50 96s27.329-7.388 35-18.47C82.123 71.373 76.61 65.955 69.658 63z"/>
            </g>
        </g>
        <g fill-rule="nonzero" filter="url(#d)">
            <circle cx="50" cy="50" r="50" fill="#FFF"/>
            <path fill="#9F9F9F" d="M39.82 19.647c0 1.445.246 2.89.983 4.095-4.424 2.891-7.62 7.95-8.848 14.215h-.246c-3.196.723-4.916 4.818-3.933 8.914.737 2.891 2.704 5.06 4.916 5.782C35.396 61.086 42.032 70 51.127 70c9.095 0 15.977-8.914 18.681-17.347 2.212-.722 4.179-2.89 4.916-5.782.983-4.096-.737-7.95-3.933-8.914h-.246c-.245-1.687-.737-3.132-1.474-4.578-.246-2.65-2.213-5.782-5.162-8.191-.492-.241-.983-.482-1.23-.723-.982-.723-1.966-1.445-3.195-1.927.246-.723.492-1.687.492-2.65 0-5.542-4.424-9.878-10.078-9.878-5.408-.241-10.078 4.095-10.078 9.637zM55.797 36.03c4.179 3.132 9.095 3.613 11.799 1.445.246.723.246 1.205.491 1.927l.246 1.446 1.475-.24h.492c1.474.481 2.212 2.89 1.72 5.3-.491 2.168-2.212 3.613-3.441 3.854l-.983.241-.246.964c-2.212 7.95-8.357 15.901-15.977 15.901-7.374 0-13.765-7.95-15.977-15.901l-.246-.964-.983-.24c-1.23-.242-2.704-1.446-3.441-3.856-.492-2.409.245-4.818 1.72-5.3h.738a9.18 9.18 0 0 0 2.703 5.541c4.67 4.578 2.95-5.54 8.85-11.323 1.966-1.928 4.178-2.891 6.39-3.855 1.23 1.927 2.704 3.614 4.67 5.06z"/>
            <path fill="#9F9F9F" d="M67.893 65c-1.947 3.415-4.138 6.098-7.06 7.561-6.086 3.17-10.711 5.61-10.711 5.61s-4.626-2.44-10.712-5.61c-2.921-1.463-5.112-4.39-7.06-7.561-7.547 2.927-12.902 9.268-14.85 15.61C25.534 89.39 36.976 95 49.878 95 63.024 95 74.71 89.146 82.5 80.122 80.796 74.268 75.44 68.171 67.893 65z"/>
        </g>
        <g fill-rule="nonzero" filter="url(#e)" transform="translate(360 180)">
            <circle cx="50" cy="50" r="50" fill="#FFF"/>
            <path fill="#9F9F9F" d="M74.055 66.08c.254-.494.254-.988.509-1.73 0-.494.254-.988.254-1.73.764-4.696 1.273-12.112 1.273-23.482C76.09 21.59 64.38 7.5 49.873 7.5c-5.346 0-10.182 1.977-14.255 5.19a5.864 5.864 0 0 0-1.782 1.73c-6.109 5.686-9.927 14.831-9.927 24.966 0 11.864.51 19.526 1.273 24.223 0 .494.254 1.236.254 1.73.255.494.255 1.236.51 1.73-5.091 3.213-9.164 7.663-10.946 12.112C23.4 88.82 35.873 95 49.873 95c14 0 26.727-6.18 35.127-15.82-1.782-5.19-5.855-9.886-10.945-13.1zm-12.982 5.686c-6.11 3.213-10.437 5.685-10.946 5.685-2.036-.248-11.454-5.685-11.454-5.685-2.291-1.236-3.818-1.978-6.618-4.45.254-.494 1.527-2.224 2.036-2.719.254-.494.764-.741 1.018-1.235 1.527-1.978 3.31-4.202 4.836-5.933 2.8 2.225 6.11 3.708 9.673 3.708 3.564 0 6.618-1.483 9.673-3.708 2.29 2.472 4.327 5.191 6.109 7.416.255.494.764.988 1.018 1.236.255.494.764.741 1.018 1.235-1.272 1.978-4.581 3.46-6.363 4.45zm10.436-36.83c-.509 2.472-2.29 3.708-3.564 3.955l-1.018.247-.254.99C64.89 46.058 61.582 51.991 57 55.451c-2.29 1.73-4.836 2.966-7.382 2.966-2.545 0-5.09-.989-7.382-2.966-4.327-3.46-7.89-9.393-9.672-15.325l-.255-.989-1.018-.247c-1.273-.247-3.055-1.483-3.564-3.955-.509-1.483-.254-3.213.51-4.449.254-.494.763-.988 1.272-.988h.509l1.527.247.255-1.483c.255-1.236.51-2.472.764-3.46 1.781 5.931 7.127 5.437 14.763 6.179 2.291.247 5.346.494 6.873.494.255-4.696-5.345-9.887-5.345-9.887h.763c.764 0 2.546.742 3.055.989 6.109 3.213 7.127 8.156 7.382 8.156 3.054-.741 5.345-2.471 6.363-5.19.255.988.51 1.73.51 2.719l.254 1.483 1.527-.247h.51c.763.247 1.017.741 1.272.988 1.273 1.236 1.527 2.72 1.018 4.45z"/>
        </g>
        <g fill-rule="nonzero" filter="url(#f)" transform="translate(240 360)">
            <circle cx="50" cy="50" r="50" fill="#FFF"/>
            <path fill="#9F9F9F" d="M26.342 37.603c-1.24 1.758-1.737 4.52-.992 7.283.248 1.004.744 2.009 1.24 3.014 1.24 11.05 5.458 14.817 11.164 16.324C40.978 67.74 45.196 70 50.157 70c4.714 0 8.931-2.511 12.404-6.027 1.489-.503 2.977-1.005 4.217-2.01l.249-.25c2.728-2.26 4.465-6.028 5.457-12.307.993-1.255 1.985-2.762 2.233-4.52.744-3.516 0-6.781-1.985-8.539C70.996 24.292 61.321 15 49.662 15c-12.405 0-22.328 10.046-23.32 22.603zm1.902 6.65c-.53-2.564 0-5.128 1.236-5.897 0 3.333.353 6.667 1.06 10-1.06-.513-1.943-1.795-2.296-4.102zm41.761-5.646c1.5.572 2.25 3.429 1.5 6.286-.25 1.714-1 2.857-1.75 3.714.75-2.571.75-6.285.25-10zm-2.232 10.86c-1.806 5.866-5.675 11.73-10.576 14.663-2.063 1.221-4.385 1.954-6.706 1.954-2.321 0-4.643-.733-6.706-1.954-3.354-1.955-6.449-5.376-8.512-9.286.258-.733.258-1.71.516-3.177.773-7.086 2.321-12.707 4.385-17.105 1.29-.244 2.837-.489 4.127-.978.515.49 1.031.734 1.547 1.222 2.837 1.955 5.933 3.177 9.028 3.666 3.611.244 9.544 9.285 12.897 10.996z"/>
            <path fill="#9F9F9F" d="M67.863 65c-1.985 3.25-4.218 6-7.195 7.5C54.714 75.75 50 78.25 50 78.25s-4.466-2.5-10.668-5.75c-2.977-1.5-5.21-4.25-7.195-7.5-7.442 3-13.148 9.5-14.637 15.75C25.687 89.5 37.1 95 50 95c12.9 0 24.313-5.5 32.5-14.25C80.763 74.25 75.305 68 67.863 65z"/>
        </g>
    </g>
</svg>
