<?xml version="1.0" encoding="utf-8"?>
<!-- Generator: Adobe Illustrator 21.1.0, SVG Export Plug-In . SVG Version: 6.00 Build 0)  -->
<svg version="1.1" xmlns="http://www.w3.org/2000/svg" xmlns:xlink="http://www.w3.org/1999/xlink" x="0px" y="0px"
	 viewBox="0 0 1171 723" style="enable-background:new 0 0 1171 723;" xml:space="preserve">
<style type="text/css">
	.st0{fill:none;stroke:#FFFFFF;stroke-width:2;stroke-linecap:square;stroke-miterlimit:10;}
	.st1{fill:none;stroke:#FFFFFF;stroke-width:2;stroke-dasharray:2,4;}
	.st2{fill:none;stroke:#FFFFFF;stroke-width:2;stroke-linecap:square;}
	.st3{fill:none;stroke:#29486B;stroke-width:2;stroke-linecap:square;}
	.st4{fill:none;stroke:#29486B;stroke-width:2;}
	.st5{filter:url(#filter-1);}
	.st6{fill:#FFFFFF;}
	.st7{fill:#29486B;}
	.st8{filter:url(#Adobe_OpacityMaskFilter);}
	.st9{mask:url(#mask-3);fill:#9F9F9F;}
	.st10{opacity:0.3;}
	.st11{fill:#9F9F9F;}
	.st12{filter:url(#filter-4);}
	.st13{filter:url(#filter-5);}
	.st14{filter:url(#filter-6);}
	.st15{filter:url(#filter-7);}
	.st16{filter:url(#filter-8);}
	.st17{filter:url(#filter-9);}
	.st18{filter:url(#filter-10);}
	.st19{filter:url(#Adobe_OpacityMaskFilter_1_);}
	.st20{mask:url(#mask-3_2_);fill:#9F9F9F;}
</style>
<filter  filterUnits="objectBoundingBox" height="170.0%" id="filter-9" width="170.0%" x="-31.0%" y="-31.0%">
	<feOffset  dx="4" dy="4" in="SourceAlpha" result="shadowOffsetOuter1"></feOffset>
	<feGaussianBlur  in="shadowOffsetOuter1" result="shadowBlurOuter1" stdDeviation="11"></feGaussianBlur>
	
		<feColorMatrix  in="shadowBlurOuter1" result="shadowMatrixOuter1" type="matrix" values="0 0 0 0 0.160784314   0 0 0 0 0.282352941   0 0 0 0 0.419607843  0 0 0 0.5 0">
		</feColorMatrix>
	<feMerge>
		<feMergeNode  in="shadowMatrixOuter1"></feMergeNode>
		<feMergeNode  in="SourceGraphic"></feMergeNode>
	</feMerge>
</filter>
<filter  filterUnits="objectBoundingBox" height="170.0%" id="filter-8" width="170.0%" x="-31.0%" y="-31.0%">
	<feOffset  dx="4" dy="4" in="SourceAlpha" result="shadowOffsetOuter1"></feOffset>
	<feGaussianBlur  in="shadowOffsetOuter1" result="shadowBlurOuter1" stdDeviation="11"></feGaussianBlur>
	
		<feColorMatrix  in="shadowBlurOuter1" result="shadowMatrixOuter1" type="matrix" values="0 0 0 0 0.160784314   0 0 0 0 0.282352941   0 0 0 0 0.419607843  0 0 0 0.5 0">
		</feColorMatrix>
	<feMerge>
		<feMergeNode  in="shadowMatrixOuter1"></feMergeNode>
		<feMergeNode  in="SourceGraphic"></feMergeNode>
	</feMerge>
</filter>
<filter  filterUnits="objectBoundingBox" height="170.0%" id="filter-7" width="170.0%" x="-31.0%" y="-31.0%">
	<feOffset  dx="4" dy="4" in="SourceAlpha" result="shadowOffsetOuter1"></feOffset>
	<feGaussianBlur  in="shadowOffsetOuter1" result="shadowBlurOuter1" stdDeviation="11"></feGaussianBlur>
	
		<feColorMatrix  in="shadowBlurOuter1" result="shadowMatrixOuter1" type="matrix" values="0 0 0 0 0.160784314   0 0 0 0 0.282352941   0 0 0 0 0.419607843  0 0 0 0.5 0">
		</feColorMatrix>
	<feMerge>
		<feMergeNode  in="shadowMatrixOuter1"></feMergeNode>
		<feMergeNode  in="SourceGraphic"></feMergeNode>
	</feMerge>
</filter>
<filter  filterUnits="objectBoundingBox" height="170.0%" id="filter-6" width="170.0%" x="-31.0%" y="-31.0%">
	<feOffset  dx="4" dy="4" in="SourceAlpha" result="shadowOffsetOuter1"></feOffset>
	<feGaussianBlur  in="shadowOffsetOuter1" result="shadowBlurOuter1" stdDeviation="11"></feGaussianBlur>
	
		<feColorMatrix  in="shadowBlurOuter1" result="shadowMatrixOuter1" type="matrix" values="0 0 0 0 0.160784314   0 0 0 0 0.282352941   0 0 0 0 0.419607843  0 0 0 0.5 0">
		</feColorMatrix>
	<feMerge>
		<feMergeNode  in="shadowMatrixOuter1"></feMergeNode>
		<feMergeNode  in="SourceGraphic"></feMergeNode>
	</feMerge>
</filter>
<filter  filterUnits="objectBoundingBox" height="170.0%" id="filter-5" width="170.0%" x="-31.0%" y="-31.0%">
	<feOffset  dx="4" dy="4" in="SourceAlpha" result="shadowOffsetOuter1"></feOffset>
	<feGaussianBlur  in="shadowOffsetOuter1" result="shadowBlurOuter1" stdDeviation="11"></feGaussianBlur>
	
		<feColorMatrix  in="shadowBlurOuter1" result="shadowMatrixOuter1" type="matrix" values="0 0 0 0 0.160784314   0 0 0 0 0.282352941   0 0 0 0 0.419607843  0 0 0 0.5 0">
		</feColorMatrix>
	<feMerge>
		<feMergeNode  in="shadowMatrixOuter1"></feMergeNode>
		<feMergeNode  in="SourceGraphic"></feMergeNode>
	</feMerge>
</filter>
<filter  filterUnits="objectBoundingBox" height="170.0%" id="filter-4" width="170.0%" x="-31.0%" y="-31.0%">
	<feOffset  dx="4" dy="4" in="SourceAlpha" result="shadowOffsetOuter1"></feOffset>
	<feGaussianBlur  in="shadowOffsetOuter1" result="shadowBlurOuter1" stdDeviation="11"></feGaussianBlur>
	
		<feColorMatrix  in="shadowBlurOuter1" result="shadowMatrixOuter1" type="matrix" values="0 0 0 0 0.160784314   0 0 0 0 0.282352941   0 0 0 0 0.419607843  0 0 0 0.5 0">
		</feColorMatrix>
	<feMerge>
		<feMergeNode  in="shadowMatrixOuter1"></feMergeNode>
		<feMergeNode  in="SourceGraphic"></feMergeNode>
	</feMerge>
</filter>
<filter  filterUnits="objectBoundingBox" height="170.0%" id="filter-10" width="170.0%" x="-31.0%" y="-31.0%">
	<feOffset  dx="4" dy="4" in="SourceAlpha" result="shadowOffsetOuter1"></feOffset>
	<feGaussianBlur  in="shadowOffsetOuter1" result="shadowBlurOuter1" stdDeviation="11"></feGaussianBlur>
	
		<feColorMatrix  in="shadowBlurOuter1" result="shadowMatrixOuter1" type="matrix" values="0 0 0 0 0.160784314   0 0 0 0 0.282352941   0 0 0 0 0.419607843  0 0 0 0.5 0">
		</feColorMatrix>
	<feMerge>
		<feMergeNode  in="shadowMatrixOuter1"></feMergeNode>
		<feMergeNode  in="SourceGraphic"></feMergeNode>
	</feMerge>
</filter>
<filter  filterUnits="objectBoundingBox" height="130.8%" id="filter-1" width="130.8%" x="-12.3%" y="-12.3%">
	<feOffset  dx="4" dy="4" in="SourceAlpha" result="shadowOffsetOuter1"></feOffset>
	<feGaussianBlur  in="shadowOffsetOuter1" result="shadowBlurOuter1" stdDeviation="6"></feGaussianBlur>
	
		<feColorMatrix  in="shadowBlurOuter1" result="shadowMatrixOuter1" type="matrix" values="0 0 0 0 0.160784314   0 0 0 0 0.282352941   0 0 0 0 0.419607843  0 0 0 0.5 0">
		</feColorMatrix>
	<feMerge>
		<feMergeNode  in="shadowMatrixOuter1"></feMergeNode>
		<feMergeNode  in="SourceGraphic"></feMergeNode>
	</feMerge>
</filter>
<g id="Слой_1">
	<title>family-2</title>
	<desc>Created with Sketch.</desc>
	<g id="family-2">
		<line class="st0" x1="506" y1="91.2" x2="666" y2="91.2"/>
		<path id="Line-Copy-5" class="st1" d="M154,451h190"/>
		<path id="Line-Copy" class="st2" d="M344,191h490"/>
		<path id="Line-Copy-4" class="st3" d="M344,451h420"/>
		<path id="Line-2" class="st2" d="M584,91v100"/>
		<path id="Line-2-Copy" class="st2" d="M344,191v30"/>
		<path id="Line-2-Copy-2" class="st2" d="M834,192v190"/>
		<circle id="Oval-2" class="st4" cx="834" cy="451" r="69"/>
		<g id="ic_man-copy" transform="translate(914.000000, 345.000000)" class="st5">
			<g id="Group-4_1_">
				<circle id="Oval_8_" class="st6" cx="-80" cy="106" r="65"/>
				<path id="Combined-Shape_1_" class="st7" d="M-112.4,76.3c0,1.9,0.3,3.9,1,5.8c-3.3,2.3-4.6,7.1-3.3,12.3c1,4.2,3.9,7.8,7.2,8.7
					c3.9,12.9,14.1,26.2,27.8,26.2s23.9-13.2,27.8-26.2c3.3-1.3,6.2-4.5,7.2-8.7c1.6-5.8-0.7-11.3-4.9-13.2c0.3-1.6,0.7-3.2,0.7-4.8
					c0-14.2-14.1-25.5-31.7-25.5S-112.4,62.1-112.4,76.3z M-60,69.5c2.6,3.9,4.3,8.4,5.2,13.6l0.3,2.3l2.3-0.3c0.3,0,0.7,0,1,0
					c0,0,0.3,0,0.3,0.3c2,1,2.9,4.2,2.3,7.8c-1,3.6-3.3,5.5-4.9,5.8l-1.6,0.3l-0.3,1.3c-3.3,12-12.4,24.2-23.9,24.2
					s-20.6-12-23.9-24.2l-0.3-1.3l-1.6-0.3c-2-0.3-4.3-2.3-4.9-5.8c-0.7-2.6-0.3-4.8,0.7-6.5c0.3-0.6,1-1.3,2-1.6h0.3h0.3l2.3,0.3
					l0.3-2.3c0.7-4.5,2-8.4,3.9-12c3.6,4.2,11.1,6.8,19.6,6.8C-71.2,78.2-63,74.7-60,69.5z M-52.8,118.6c10.1,4.2,18,12,21.6,20
					c-10.5,15.5-28.5,25.9-48.8,25.9s-38.3-10-48.8-25.2c3.6-8.4,11.5-16.5,21.6-20.7c2.9,4.8,6.2,9,10.8,11.3
					c9.5,4.5,16.4,8.4,16.4,8.4s7.2-3.6,16.4-8.4C-59.1,127.7-55.8,123.5-52.8,118.6z"/>
			</g>
		</g>
		<path id="Line-Copy-2" class="st3" d="M903,451h120"/>
		<path id="Line-Copy-3" class="st3" d="M834,551h240"/>
		<path id="Line-2-Copy-3" class="st3" d="M954,451v100"/>
		<path id="Line-2-Copy-6" class="st3" d="M344,451v130"/>
		<path id="Line-2-Copy-4" class="st3" d="M834,551v30"/>
		<path id="Line-2-Copy-5" class="st3" d="M1074,551v30"/>
		<g id="Group-10" transform="translate(799.000000, 0.000000)">
			<g id="Rectangle-7-Copy-2">
				<g id="Mask">
					<circle id="path-2_1_" class="st6" cx="-95" cy="91" r="50"/>
				</g>
				<defs>
					<filter id="Adobe_OpacityMaskFilter" filterUnits="userSpaceOnUse" x="-159" y="66" width="83" height="83.5">
						<feColorMatrix  type="matrix" values="1 0 0 0 0  0 1 0 0 0  0 0 1 0 0  0 0 0 1 0"/>
					</filter>
				</defs>
				<mask maskUnits="userSpaceOnUse" x="-159" y="66" width="83" height="83.5" id="mask-3">
					<g class="st8">
						<circle id="path-2" class="st6" cx="-95" cy="91" r="50"/>
					</g>
				</mask>
				<polygon class="st9" points="-155.5,66 -76,146 -79.5,149.5 -159,69.5 				"/>
			</g>
			<g id="Group-6" transform="translate(15.000000, 10.000000)" class="st10">
				<path id="Shape" class="st11" d="M-114.2,41c-1,0-2,1.2-3,1.5c-1,0.2-2.2-0.5-3.2-0.2c-1,0.2-1.7,1.7-2.5,2.2
					c-1,0.5-2.5,0-3.2,0.7c-1,0.5-1.2,1.9-2,2.7s-2.2,0.7-3,1.5c-0.7,0.7-0.5,2.2-1,3.2c-0.5,1-2,1.2-2.2,2.2c-0.5,1,0.2,2.2,0,3.2
					s-1.2,1.9-1.2,2.9s1.2,1.9,1.2,2.9c0,0.5,0,1,0,1.5c-2.5,1.7-3.7,5.3-2.7,9.2c0.7,3.4,3,5.8,5.7,6.8c3,9.7,11,19.9,21.4,19.9
					c10.7,0,18.4-10.2,21.4-19.9c2.5-1,4.7-3.4,5.7-6.8c1.2-4.6-0.7-9-4.2-10.2c0-0.2,0-0.5,0-0.5c0.2-1,1.2-1.9,1.2-2.9
					s-1.2-1.9-1.2-2.9c-0.2-1,0.5-2.2,0-3.2c-0.5-1-1.7-1.5-2.2-2.2c-0.5-1-0.2-2.2-1-3.2c-0.7-0.7-2.2-0.7-3-1.5
					c-0.7-0.7-1-2.2-2-2.7c-1-0.5-2.2-0.2-3.2-0.7c-1-0.5-1.5-1.7-2.5-2.2c-1-0.2-2.2,0.2-3.2,0.2c-1-0.2-2-1.5-3-1.5
					c-1,0-2.2,0.7-3.2,0.7C-112,41.8-113.3,40.8-114.2,41z M-91.1,66l0.2,1.7l1.7-0.2c0.2,0,0.5,0,0.7,0s0.2,0.2,0.5,0.2
					c1.5,0.7,2,3.4,1.5,5.8c-0.7,2.7-2.5,4.1-3.7,4.4l-1.2,0.2l-0.2,1.2c-2.5,9.2-9.7,18.4-18.4,18.4s-15.7-9.2-18.4-18.4l-0.2-1.2
					l-1.2-0.2c-1.5-0.2-3.2-1.7-3.7-4.4c-0.5-1.9-0.2-3.9,0.7-5.1c0.2-0.5,0.7-0.7,1.2-1c0,0,0.2,0,0.5,0h0.2l1.7,0.2l0.2-1.7
					c1.7-11.2,9.5-18.4,19.2-18.4C-100.6,47.6-92.8,54.9-91.1,66z"/>
				<path id="Shape_1_" class="st11" d="M-112.8,87c2.8-2.8,2.5-7.8,2.5-7.8s-5-0.2-7.8,2.5s-2.5,7.8-2.5,7.8S-115.5,90-112.8,87z"
					/>
				<path id="Shape_2_" class="st11" d="M-100,89.5c0,0,0.2-5-2.5-7.8s-7.8-2.5-7.8-2.5s-0.2,5,2.5,7.8C-104.8,90-100,89.5-100,89.5
					z"/>
				<path id="Shape_3_" class="st11" d="M-90.3,93.5c-2.2,3.6-4.6,6.8-7.9,8.5c-6.7,3.4-11.7,6.3-11.7,6.3s-5-2.9-11.7-6.3
					c-3.4-1.7-5.8-4.9-7.9-8.5c-7,2.9-12.5,8.5-15.3,14.3c7.9,10.9,20.6,18.2,35,18.2s27.3-7.3,35-18.2
					C-77.9,101.7-83.4,96.4-90.3,93.5z"/>
			</g>
		</g>
		<g id="ic_man-copy-14" transform="translate(559.000000, 0.000000)" class="st12">
			<circle id="Oval_8_" class="st6" cx="-95" cy="91" r="50"/>
			<path id="Shape_16_" class="st11" d="M-105.2,60.6c0,1.4,0.2,2.9,1,4.1c-4.4,2.9-7.6,8-8.8,14.2c0,0,0,0-0.2,0
				c-3.2,0.7-4.9,4.8-3.9,8.9c0.7,2.9,2.7,5.1,4.9,5.8c2.7,8.4,9.3,17.3,18.4,17.3s16-8.9,18.7-17.3c2.2-0.7,4.2-2.9,4.9-5.8
				c1-4.1-0.7-8-3.9-8.9c0,0,0,0-0.2,0c-0.2-1.7-0.7-3.1-1.5-4.6c-0.2-2.7-2.2-5.8-5.2-8.2c-0.5-0.2-1-0.5-1.2-0.7
				c-1-0.7-2-1.4-3.2-1.9c0.2-0.7,0.5-1.7,0.5-2.7c0-5.5-4.4-9.9-10.1-9.9C-100.5,50.8-105.2,55.1-105.2,60.6z M-89.2,77
				c4.2,3.1,9.1,3.6,11.8,1.4c0.2,0.7,0.2,1.2,0.5,1.9l0.2,1.4l1.5-0.2c0.2,0,0.5,0,0.5,0c1.5,0.5,2.2,2.9,1.7,5.3
				c-0.5,2.2-2.2,3.6-3.4,3.9l-1,0.2l-0.2,1c-2.2,8-8.4,15.9-16,15.9c-7.4,0-13.8-8-16-15.9l-0.2-1l-1-0.2c-1.2-0.2-2.7-1.4-3.4-3.9
				c-0.5-2.4,0.2-4.8,1.7-5.3h0.2h0.2h0.2c0.2,2.2,1.2,4.1,2.7,5.5c4.7,4.6,2.9-5.5,8.8-11.3c2-1.9,4.2-2.9,6.4-3.9
				C-92.6,73.9-91.2,75.6-89.2,77z"/>
			<path id="Shape_15_" class="st11" d="M-77.1,106c-1.9,3.4-4.1,6.1-7.1,7.6c-6.1,3.2-10.7,5.6-10.7,5.6s-4.6-2.4-10.7-5.6
				c-2.9-1.5-5.1-4.4-7.1-7.6c-7.5,2.9-12.9,9.3-14.9,15.6c8,8.8,19.5,14.4,32.4,14.4c13.1,0,24.8-5.9,32.6-14.9
				C-64.2,115.3-69.6,109.2-77.1,106z"/>
		</g>
		<g id="ic_man-copy-16" transform="translate(439.000000, 540.000000)" class="st13">
			<g id="Group-3_1_">
				<circle id="Oval_8_" class="st6" cx="-95" cy="91" r="50"/>
				<path id="Shape_16_" class="st11" d="M-118.7,78.6c-1.2,1.8-1.7,4.5-1,7.3c0.2,1,0.7,2,1.2,3c1.2,11.1,5.5,14.8,11.2,16.3
					c3.2,3.5,7.4,5.8,12.4,5.8c4.7,0,8.9-2.5,12.4-6c1.5-0.5,3-1,4.2-2l0.2-0.3c2.7-2.3,4.5-6,5.5-12.3c1-1.3,2-2.8,2.2-4.5
					c0.7-3.5,0-6.8-2-8.5C-74,65.3-83.7,56-95.3,56C-107.7,56-117.7,66-118.7,78.6z M-116.8,85.3c-0.5-2.6,0-5.1,1.2-5.9
					c0,3.3,0.4,6.7,1.1,10C-115.5,88.8-116.4,87.6-116.8,85.3z M-75,79.6c1.5,0.6,2.2,3.4,1.5,6.3c-0.2,1.7-1,2.9-1.8,3.7
					C-74.5,87-74.5,83.3-75,79.6z M-77.2,90.5c-1.8,5.9-5.7,11.7-10.6,14.7c-2.1,1.2-4.4,2-6.7,2c-2.3,0-4.6-0.7-6.7-2
					c-3.4-2-6.4-5.4-8.5-9.3c0.3-0.7,0.3-1.7,0.5-3.2c0.8-7.1,2.3-12.7,4.4-17.1c1.3-0.2,2.8-0.5,4.1-1c0.5,0.5,1,0.7,1.5,1.2
					c2.8,2,5.9,3.2,9,3.7C-86.5,79.7-80.6,88.8-77.2,90.5z"/>
				<path id="Shape_15_" class="st11" d="M-77.1,106c-2,3.2-4.2,6-7.2,7.5c-6,3.2-10.7,5.8-10.7,5.8s-4.5-2.5-10.7-5.8
					c-3-1.5-5.2-4.2-7.2-7.5c-7.4,3-13.1,9.5-14.6,15.8c8.2,8.8,19.6,14.2,32.5,14.2s24.3-5.5,32.5-14.2
					C-64.2,115.2-69.7,109-77.1,106z"/>
			</g>
		</g>
		<g id="ic_man-copy-6" transform="translate(1169.000000, 360.000000)" class="st14">
			<circle id="Oval_8_" class="st6" cx="-95" cy="91" r="50"/>
			<path id="Shape_15_" class="st11" d="M-70.9,107.1c0.3-0.5,0.3-1,0.5-1.7c0-0.5,0.3-1,0.3-1.7c0.8-4.7,1.3-12.1,1.3-23.5
				c0-17.5-11.7-31.6-26.2-31.6c-5.3,0-10.2,2-14.3,5.2c-0.8,0.5-1.3,1-1.8,1.7c-6.1,5.7-9.9,14.8-9.9,25c0,11.9,0.5,19.5,1.3,24.2
				c0,0.5,0.3,1.2,0.3,1.7c0.3,0.5,0.3,1.2,0.5,1.7c-5.1,3.2-9.2,7.7-10.9,12.1c8.4,9.6,20.9,15.8,34.9,15.8s26.7-6.2,35.1-15.8
				C-61.8,115-65.9,110.3-70.9,107.1z M-83.9,112.8c-6.1,3.2-10.4,5.7-10.9,5.7c-2-0.2-11.5-5.7-11.5-5.7c-2.3-1.2-3.8-2-6.6-4.4
				c0.3-0.5,1.5-2.2,2-2.7c0.3-0.5,0.8-0.7,1-1.2c1.5-2,3.3-4.2,4.8-5.9c2.8,2.2,6.1,3.7,9.7,3.7c3.6,0,6.6-1.5,9.7-3.7
				c2.3,2.5,4.3,5.2,6.1,7.4c0.3,0.5,0.8,1,1,1.2c0.3,0.5,0.8,0.7,1,1.2C-78.8,110.3-82.1,111.8-83.9,112.8z M-73.5,75.9
				c-0.5,2.5-2.3,3.7-3.6,4l-1,0.2l-0.3,1c-1.8,5.9-5.1,11.9-9.7,15.3c-2.3,1.7-4.8,3-7.4,3s-5.1-1-7.4-3c-4.3-3.5-7.9-9.4-9.7-15.3
				l-0.3-1l-1-0.2c-1.3-0.2-3.1-1.5-3.6-4c-0.5-1.5-0.3-3.2,0.5-4.4c0.3-0.5,0.8-1,1.3-1h0.3h0.3l1.5,0.2l0.3-1.5
				c0.3-1.2,0.5-2.5,0.8-3.5c1.8,5.9,7.1,5.4,14.8,6.2c2.3,0.2,5.3,0.5,6.9,0.5c0.3-4.7-5.3-9.9-5.3-9.9s0,0,0.8,0
				c0.8,0,2.5,0.7,3.1,1c6.1,3.2,7.1,8.2,7.4,8.2c3.1-0.7,5.3-2.5,6.4-5.2c0.3,1,0.5,1.7,0.5,2.7l0.3,1.5l1.5-0.2c0.3,0,0.5,0,0.5,0
				c0.8,0.2,1,0.7,1.3,1C-73.2,72.7-73,74.2-73.5,75.9z"/>
		</g>
		<g id="ic_man-copy-7" transform="translate(929.000000, 540.000000)" class="st15">
			<circle id="Oval_8_" class="st6" cx="-95" cy="91" r="50"/>
			<path id="Shape_16_" class="st11" d="M-118.7,78.6c-1.2,1.8-1.7,4.5-1,7.3c0.2,1,0.7,2,1.2,3c1.2,11.1,5.5,14.8,11.2,16.3
				c3.2,3.5,7.4,5.8,12.4,5.8c4.7,0,8.9-2.5,12.4-6c1.5-0.5,3-1,4.2-2l0.2-0.3c2.7-2.3,4.5-6,5.5-12.3c1-1.3,2-2.8,2.2-4.5
				c0.7-3.5,0-6.8-2-8.5C-74,65.3-83.7,56-95.3,56C-107.7,56-117.7,66-118.7,78.6z M-116.8,85.3c-0.5-2.6,0-5.1,1.2-5.9
				c0,3.3,0.4,6.7,1.1,10C-115.5,88.8-116.4,87.6-116.8,85.3z M-75,79.6c1.5,0.6,2.2,3.4,1.5,6.3c-0.2,1.7-1,2.9-1.8,3.7
				C-74.5,87-74.5,83.3-75,79.6z M-77.2,90.5c-1.8,5.9-5.7,11.7-10.6,14.7c-2.1,1.2-4.4,2-6.7,2c-2.3,0-4.6-0.7-6.7-2
				c-3.4-2-6.4-5.4-8.5-9.3c0.3-0.7,0.3-1.7,0.5-3.2c0.8-7.1,2.3-12.7,4.4-17.1c1.3-0.2,2.8-0.5,4.1-1c0.5,0.5,1,0.7,1.5,1.2
				c2.8,2,5.9,3.2,9,3.7C-86.5,79.7-80.6,88.8-77.2,90.5z"/>
			<path id="Shape_15_" class="st11" d="M-77.1,106c-2,3.2-4.2,6-7.2,7.5c-6,3.2-10.7,5.8-10.7,5.8s-4.5-2.5-10.7-5.8
				c-3-1.5-5.2-4.2-7.2-7.5c-7.4,3-13.1,9.5-14.6,15.8c8.2,8.8,19.6,14.2,32.5,14.2s24.3-5.5,32.5-14.2
				C-64.2,115.2-69.7,109-77.1,106z"/>
		</g>
		<g id="ic_man-copy-8" transform="translate(1169.000000, 540.000000)" class="st16">
			<circle id="Oval_8_" class="st6" cx="-95" cy="91" r="50"/>
			<path id="Shape_16_" class="st11" d="M-75.4,111.2c-2.2,3.8-4.4,6.8-7.7,8.5c-6.7,3.5-12.1,6-12.1,6l-11.6-6
				c-3.2-1.8-6.2-5-8.4-8.8c-5.4,2.2-9.6,6-12.4,10.5c8.2,9,19.8,14.5,32.6,14.5s24.5-5.5,32.4-14.2
				C-65.5,117.5-69.9,113.5-75.4,111.2z"/>
			<path id="Shape_15_" class="st11" d="M-102.8,83.7c-1.3,0.5-2.5,0.8-3.5,1.3c-1,0.5-2,1-3,1.5c-0.5,0.3-0.8,0.5-1.3,0.8
				c-0.3,0.3-0.8,0.5-1,0.8c-0.8,0.5-1.3,1-1.5,1.5c-0.8,1-1.3,1.5-1.3,1.5s0.5-0.3,1.8-0.8c0.5-0.3,1.3-0.5,1.8-1
				c0.8-0.3,1.5-0.8,2.5-1c1-0.3,2-0.8,3-1s2.3-0.5,3.3-0.8c1.3-0.3,2.5-0.3,3.5-0.5c1.3-0.3,2.5,0,3.8,0s2.5,0,3.8,0.3
				c1.3,0,2.5,0.3,3.5,0.5c1,0.3,2.3,0.5,3.3,0.8c1,0.3,2,0.8,3,1c1,0.3,1.8,0.8,2.5,1c0.8,0.3,1.5,0.5,1.8,1c1,0.5,1.8,0.8,1.8,0.8
				s-0.5-0.5-1.3-1.5c-0.3-0.5-0.8-1-1.5-1.5c-0.3-0.3-0.8-0.5-1-0.8s-0.8-0.5-1.3-0.8c-0.5-0.3-0.8-0.5-1.3-1
				c-0.5-0.3-1-0.5-1.5-0.8c-1-0.5-2.3-1-3.5-1.5c-1.3-0.3-2.5-0.8-4.1-1c-1.3-0.3-2.8-0.3-4.3-0.5c-1.5,0-2.8,0-4.3,0.3
				C-100.3,82.9-101.6,83.4-102.8,83.7z M-98.3,59.8c0,0.3,0,0.5,0,0.8c-9.6,1.5-16.7,9.1-19,20.3h-0.3c-1.5,0.3-2.8,1.3-3.8,2.8
				c-1.3,2-1.5,4.8-0.8,7.6c0.8,3.3,3,6.1,5.6,6.9c3,9.9,10.9,20.3,21.5,20.3s18.5-10.4,21.5-20.3c2.5-1,4.8-3.6,5.6-6.9
				c0.8-2.8,0.3-5.6-0.8-7.6c-0.8-1.5-2.3-2.5-3.8-2.8h-0.3c-2-10.9-9.4-18.8-19-20.3c0-0.3,0-0.5,0-0.8c0-2-1.8-3.8-3.8-3.8
				C-96.5,56.3-98.3,57.8-98.3,59.8z M-75,84.5l1.5-0.3c0.3,0,0.5,0,0.8,0c0.8,0.3,1.3,0.8,1.5,1.3c0.8,1.3,1,3,0.5,4.8
				c-0.8,2.8-2.5,4.3-3.8,4.6l-1.3,0.3l-0.3,1c-2.5,9.4-9.6,18.8-18.5,18.8c-8.9,0-16-9.4-18.5-18.8l-0.3-1l-1.3-0.3
				c-1.5-0.3-3.3-1.8-3.8-4.6c-0.5-1.8-0.3-3.6,0.5-4.8c0.3-0.5,0.8-1,1.5-1.3c0,0,0.3,0,0.5,0h0.3h0.8l1-0.8
				C-95.7,71.8-77.2,83.2-75,84.5z"/>
		</g>
		<g id="ic_man-copy-6_1_" transform="translate(438.000000, 180.000000)" class="st17">
			<circle id="Oval_8_" class="st6" cx="-95" cy="91" r="50"/>
			<path id="Shape_15_" class="st11" d="M-70.9,107.1c0.3-0.5,0.3-1,0.5-1.7c0-0.5,0.3-1,0.3-1.7c0.8-4.7,1.3-12.1,1.3-23.5
				c0-17.5-11.7-31.6-26.2-31.6c-5.3,0-10.2,2-14.3,5.2c-0.8,0.5-1.3,1-1.8,1.7c-6.1,5.7-9.9,14.8-9.9,25c0,11.9,0.5,19.5,1.3,24.2
				c0,0.5,0.3,1.2,0.3,1.7c0.3,0.5,0.3,1.2,0.5,1.7c-5.1,3.2-9.2,7.7-10.9,12.1c8.4,9.6,20.9,15.8,34.9,15.8s26.7-6.2,35.1-15.8
				C-61.8,115-65.9,110.3-70.9,107.1z M-83.9,112.8c-6.1,3.2-10.4,5.7-10.9,5.7c-2-0.2-11.5-5.7-11.5-5.7c-2.3-1.2-3.8-2-6.6-4.4
				c0.3-0.5,1.5-2.2,2-2.7c0.3-0.5,0.8-0.7,1-1.2c1.5-2,3.3-4.2,4.8-5.9c2.8,2.2,6.1,3.7,9.7,3.7c3.6,0,6.6-1.5,9.7-3.7
				c2.3,2.5,4.3,5.2,6.1,7.4c0.3,0.5,0.8,1,1,1.2c0.3,0.5,0.8,0.7,1,1.2C-78.8,110.3-82.1,111.8-83.9,112.8z M-73.5,75.9
				c-0.5,2.5-2.3,3.7-3.6,4l-1,0.2l-0.3,1c-1.8,5.9-5.1,11.9-9.7,15.3c-2.3,1.7-4.8,3-7.4,3s-5.1-1-7.4-3c-4.3-3.5-7.9-9.4-9.7-15.3
				l-0.3-1l-1-0.2c-1.3-0.2-3.1-1.5-3.6-4c-0.5-1.5-0.3-3.2,0.5-4.4c0.3-0.5,0.8-1,1.3-1h0.3h0.3l1.5,0.2l0.3-1.5
				c0.3-1.2,0.5-2.5,0.8-3.5c1.8,5.9,7.1,5.4,14.8,6.2c2.3,0.2,5.3,0.5,6.9,0.5c0.3-4.7-5.3-9.9-5.3-9.9s0,0,0.8,0
				c0.8,0,2.5,0.7,3.1,1c6.1,3.2,7.1,8.2,7.4,8.2c3.1-0.7,5.3-2.5,6.4-5.2c0.3,1,0.5,1.7,0.5,2.7l0.3,1.5l1.5-0.2c0.3,0,0.5,0,0.5,0
				c0.8,0.2,1,0.7,1.3,1C-73.2,72.7-73,74.2-73.5,75.9z"/>
		</g>
		<g id="ic_man-copy-6_2_" transform="translate(199.000000, 361.000000)" class="st18">
			<circle id="Oval_8_" class="st6" cx="-95" cy="91" r="50"/>
			<path id="Shape_15_" class="st11" d="M-70.9,107.1c0.3-0.5,0.3-1,0.5-1.7c0-0.5,0.3-1,0.3-1.7c0.8-4.7,1.3-12.1,1.3-23.5
				c0-17.5-11.7-31.6-26.2-31.6c-5.3,0-10.2,2-14.3,5.2c-0.8,0.5-1.3,1-1.8,1.7c-6.1,5.7-9.9,14.8-9.9,25c0,11.9,0.5,19.5,1.3,24.2
				c0,0.5,0.3,1.2,0.3,1.7c0.3,0.5,0.3,1.2,0.5,1.7c-5.1,3.2-9.2,7.7-10.9,12.1c8.4,9.6,20.9,15.8,34.9,15.8s26.7-6.2,35.1-15.8
				C-61.8,115-65.9,110.3-70.9,107.1z M-83.9,112.8c-6.1,3.2-10.4,5.7-10.9,5.7c-2-0.2-11.5-5.7-11.5-5.7c-2.3-1.2-3.8-2-6.6-4.4
				c0.3-0.5,1.5-2.2,2-2.7c0.3-0.5,0.8-0.7,1-1.2c1.5-2,3.3-4.2,4.8-5.9c2.8,2.2,6.1,3.7,9.7,3.7c3.6,0,6.6-1.5,9.7-3.7
				c2.3,2.5,4.3,5.2,6.1,7.4c0.3,0.5,0.8,1,1,1.2c0.3,0.5,0.8,0.7,1,1.2C-78.8,110.3-82.1,111.8-83.9,112.8z M-73.5,75.9
				c-0.5,2.5-2.3,3.7-3.6,4l-1,0.2l-0.3,1c-1.8,5.9-5.1,11.9-9.7,15.3c-2.3,1.7-4.8,3-7.4,3s-5.1-1-7.4-3c-4.3-3.5-7.9-9.4-9.7-15.3
				l-0.3-1l-1-0.2c-1.3-0.2-3.1-1.5-3.6-4c-0.5-1.5-0.3-3.2,0.5-4.4c0.3-0.5,0.8-1,1.3-1h0.3h0.3l1.5,0.2l0.3-1.5
				c0.3-1.2,0.5-2.5,0.8-3.5c1.8,5.9,7.1,5.4,14.8,6.2c2.3,0.2,5.3,0.5,6.9,0.5c0.3-4.7-5.3-9.9-5.3-9.9s0,0,0.8,0
				c0.8,0,2.5,0.7,3.1,1c6.1,3.2,7.1,8.2,7.4,8.2c3.1-0.7,5.3-2.5,6.4-5.2c0.3,1,0.5,1.7,0.5,2.7l0.3,1.5l1.5-0.2c0.3,0,0.5,0,0.5,0
				c0.8,0.2,1,0.7,1.3,1C-73.2,72.7-73,74.2-73.5,75.9z"/>
		</g>
	</g>
</g>
<g id="Слой_2">
	<g id="family-2_1_">
		<path id="Line-Copy-5_1_" class="st1" d="M154,451h190"/>
		<path id="Line-Copy_1_" class="st2" d="M344,191h490"/>
		<path id="Line-Copy-4_1_" class="st3" d="M344,451h420"/>
		<path id="Line-2_1_" class="st2" d="M584,91v100"/>
		<path id="Line-2-Copy_1_" class="st2" d="M344,191v30"/>
		<path id="Line-2-Copy-2_1_" class="st2" d="M834,192v190"/>
		<circle id="Oval-2_1_" class="st4" cx="834" cy="451" r="69"/>
		<g id="ic_man-copy_1_" transform="translate(914.000000, 345.000000)" class="st5">
			<g id="Group-4_1_">
				<circle id="Oval_8_" class="st6" cx="-80" cy="106" r="65"/>
				<path id="Combined-Shape_1_" class="st7" d="M-112.4,76.3c0,1.9,0.3,3.9,1,5.8c-3.3,2.3-4.6,7.1-3.3,12.3c1,4.2,3.9,7.8,7.2,8.7
					c3.9,12.9,14.1,26.2,27.8,26.2s23.9-13.2,27.8-26.2c3.3-1.3,6.2-4.5,7.2-8.7c1.6-5.8-0.7-11.3-4.9-13.2c0.3-1.6,0.7-3.2,0.7-4.8
					c0-14.2-14.1-25.5-31.7-25.5S-112.4,62.1-112.4,76.3z M-60,69.5c2.6,3.9,4.3,8.4,5.2,13.6l0.3,2.3l2.3-0.3c0.3,0,0.7,0,1,0
					c0,0,0.3,0,0.3,0.3c2,1,2.9,4.2,2.3,7.8c-1,3.6-3.3,5.5-4.9,5.8l-1.6,0.3l-0.3,1.3c-3.3,12-12.4,24.2-23.9,24.2
					s-20.6-12-23.9-24.2l-0.3-1.3l-1.6-0.3c-2-0.3-4.3-2.3-4.9-5.8c-0.7-2.6-0.3-4.8,0.7-6.5c0.3-0.6,1-1.3,2-1.6h0.3h0.3l2.3,0.3
					l0.3-2.3c0.7-4.5,2-8.4,3.9-12c3.6,4.2,11.1,6.8,19.6,6.8C-71.2,78.2-63,74.7-60,69.5z M-52.8,118.6c10.1,4.2,18,12,21.6,20
					c-10.5,15.5-28.5,25.9-48.8,25.9s-38.3-10-48.8-25.2c3.6-8.4,11.5-16.5,21.6-20.7c2.9,4.8,6.2,9,10.8,11.3
					c9.5,4.5,16.4,8.4,16.4,8.4s7.2-3.6,16.4-8.4C-59.1,127.7-55.8,123.5-52.8,118.6z"/>
			</g>
		</g>
		<path id="Line-Copy-2_1_" class="st3" d="M903,451h120"/>
		<path id="Line-Copy-3_1_" class="st3" d="M834,551h240"/>
		<path id="Line-2-Copy-3_1_" class="st3" d="M954,451v100"/>
		<path id="Line-2-Copy-6_1_" class="st3" d="M344,451v130"/>
		<path id="Line-2-Copy-4_1_" class="st3" d="M834,551v30"/>
		<path id="Line-2-Copy-5_1_" class="st3" d="M1074,551v30"/>
		<g id="Group-10_1_" transform="translate(799.000000, 0.000000)">
			<g id="Rectangle-7-Copy-2_1_">
				<g id="Mask_1_">
					<circle id="path-2_3_" class="st6" cx="-95" cy="91" r="50"/>
				</g>
				<defs>
					<filter id="Adobe_OpacityMaskFilter_1_" filterUnits="userSpaceOnUse" x="-159" y="66" width="83" height="83.5">
						<feColorMatrix  type="matrix" values="1 0 0 0 0  0 1 0 0 0  0 0 1 0 0  0 0 0 1 0"/>
					</filter>
				</defs>
				<mask maskUnits="userSpaceOnUse" x="-159" y="66" width="83" height="83.5" id="mask-3_2_">
					<g class="st19">
						<circle id="path-2_2_" class="st6" cx="-95" cy="91" r="50"/>
					</g>
				</mask>
				<polygon class="st20" points="-155.5,66 -76,146 -79.5,149.5 -159,69.5 				"/>
			</g>
			<g id="Group-6_1_" transform="translate(15.000000, 10.000000)" class="st10">
				<path id="Shape_58_" class="st11" d="M-114.2,41c-1,0-2,1.2-3,1.5c-1,0.2-2.2-0.5-3.2-0.2c-1,0.2-1.7,1.7-2.5,2.2
					c-1,0.5-2.5,0-3.2,0.7c-1,0.5-1.2,1.9-2,2.7s-2.2,0.7-3,1.5c-0.7,0.7-0.5,2.2-1,3.2c-0.5,1-2,1.2-2.2,2.2c-0.5,1,0.2,2.2,0,3.2
					s-1.2,1.9-1.2,2.9s1.2,1.9,1.2,2.9c0,0.5,0,1,0,1.5c-2.5,1.7-3.7,5.3-2.7,9.2c0.7,3.4,3,5.8,5.7,6.8c3,9.7,11,19.9,21.4,19.9
					c10.7,0,18.4-10.2,21.4-19.9c2.5-1,4.7-3.4,5.7-6.8c1.2-4.6-0.7-9-4.2-10.2c0-0.2,0-0.5,0-0.5c0.2-1,1.2-1.9,1.2-2.9
					s-1.2-1.9-1.2-2.9c-0.2-1,0.5-2.2,0-3.2c-0.5-1-1.7-1.5-2.2-2.2c-0.5-1-0.2-2.2-1-3.2c-0.7-0.7-2.2-0.7-3-1.5
					c-0.7-0.7-1-2.2-2-2.7c-1-0.5-2.2-0.2-3.2-0.7c-1-0.5-1.5-1.7-2.5-2.2c-1-0.2-2.2,0.2-3.2,0.2c-1-0.2-2-1.5-3-1.5
					c-1,0-2.2,0.7-3.2,0.7C-112,41.8-113.3,40.8-114.2,41z M-91.1,66l0.2,1.7l1.7-0.2c0.2,0,0.5,0,0.7,0s0.2,0.2,0.5,0.2
					c1.5,0.7,2,3.4,1.5,5.8c-0.7,2.7-2.5,4.1-3.7,4.4l-1.2,0.2l-0.2,1.2c-2.5,9.2-9.7,18.4-18.4,18.4s-15.7-9.2-18.4-18.4l-0.2-1.2
					l-1.2-0.2c-1.5-0.2-3.2-1.7-3.7-4.4c-0.5-1.9-0.2-3.9,0.7-5.1c0.2-0.5,0.7-0.7,1.2-1c0,0,0.2,0,0.5,0h0.2l1.7,0.2l0.2-1.7
					c1.7-11.2,9.5-18.4,19.2-18.4C-100.6,47.6-92.8,54.9-91.1,66z"/>
				<path id="Shape_57_" class="st11" d="M-112.8,87c2.8-2.8,2.5-7.8,2.5-7.8s-5-0.2-7.8,2.5s-2.5,7.8-2.5,7.8S-115.5,90-112.8,87z"
					/>
				<path id="Shape_55_" class="st11" d="M-100,89.5c0,0,0.2-5-2.5-7.8s-7.8-2.5-7.8-2.5s-0.2,5,2.5,7.8
					C-104.8,90-100,89.5-100,89.5z"/>
				<path id="Shape_54_" class="st11" d="M-90.3,93.5c-2.2,3.6-4.6,6.8-7.9,8.5c-6.7,3.4-11.7,6.3-11.7,6.3s-5-2.9-11.7-6.3
					c-3.4-1.7-5.8-4.9-7.9-8.5c-7,2.9-12.5,8.5-15.3,14.3c7.9,10.9,20.6,18.2,35,18.2s27.3-7.3,35-18.2
					C-77.9,101.7-83.4,96.4-90.3,93.5z"/>
			</g>
		</g>
		<g id="ic_man-copy-14_1_" transform="translate(559.000000, 0.000000)" class="st12">
			<circle id="Oval_8_" class="st6" cx="-95" cy="91" r="50"/>
			<path id="Shape_16_" class="st11" d="M-105.2,60.6c0,1.4,0.2,2.9,1,4.1c-4.4,2.9-7.6,8-8.8,14.2c0,0,0,0-0.2,0
				c-3.2,0.7-4.9,4.8-3.9,8.9c0.7,2.9,2.7,5.1,4.9,5.8c2.7,8.4,9.3,17.3,18.4,17.3s16-8.9,18.7-17.3c2.2-0.7,4.2-2.9,4.9-5.8
				c1-4.1-0.7-8-3.9-8.9c0,0,0,0-0.2,0c-0.2-1.7-0.7-3.1-1.5-4.6c-0.2-2.7-2.2-5.8-5.2-8.2c-0.5-0.2-1-0.5-1.2-0.7
				c-1-0.7-2-1.4-3.2-1.9c0.2-0.7,0.5-1.7,0.5-2.7c0-5.5-4.4-9.9-10.1-9.9C-100.5,50.8-105.2,55.1-105.2,60.6z M-89.2,77
				c4.2,3.1,9.1,3.6,11.8,1.4c0.2,0.7,0.2,1.2,0.5,1.9l0.2,1.4l1.5-0.2c0.2,0,0.5,0,0.5,0c1.5,0.5,2.2,2.9,1.7,5.3
				c-0.5,2.2-2.2,3.6-3.4,3.9l-1,0.2l-0.2,1c-2.2,8-8.4,15.9-16,15.9c-7.4,0-13.8-8-16-15.9l-0.2-1l-1-0.2c-1.2-0.2-2.7-1.4-3.4-3.9
				c-0.5-2.4,0.2-4.8,1.7-5.3h0.2h0.2h0.2c0.2,2.2,1.2,4.1,2.7,5.5c4.7,4.6,2.9-5.5,8.8-11.3c2-1.9,4.2-2.9,6.4-3.9
				C-92.6,73.9-91.2,75.6-89.2,77z"/>
			<path id="Shape_15_" class="st11" d="M-77.1,106c-1.9,3.4-4.1,6.1-7.1,7.6c-6.1,3.2-10.7,5.6-10.7,5.6s-4.6-2.4-10.7-5.6
				c-2.9-1.5-5.1-4.4-7.1-7.6c-7.5,2.9-12.9,9.3-14.9,15.6c8,8.8,19.5,14.4,32.4,14.4c13.1,0,24.8-5.9,32.6-14.9
				C-64.2,115.3-69.6,109.2-77.1,106z"/>
		</g>
		<g id="ic_man-copy-16_1_" transform="translate(439.000000, 540.000000)" class="st13">
			<g id="Group-3_1_">
				<circle id="Oval_8_" class="st6" cx="-95" cy="91" r="50"/>
				<path id="Shape_16_" class="st11" d="M-118.7,78.6c-1.2,1.8-1.7,4.5-1,7.3c0.2,1,0.7,2,1.2,3c1.2,11.1,5.5,14.8,11.2,16.3
					c3.2,3.5,7.4,5.8,12.4,5.8c4.7,0,8.9-2.5,12.4-6c1.5-0.5,3-1,4.2-2l0.2-0.3c2.7-2.3,4.5-6,5.5-12.3c1-1.3,2-2.8,2.2-4.5
					c0.7-3.5,0-6.8-2-8.5C-74,65.3-83.7,56-95.3,56C-107.7,56-117.7,66-118.7,78.6z M-116.8,85.3c-0.5-2.6,0-5.1,1.2-5.9
					c0,3.3,0.4,6.7,1.1,10C-115.5,88.8-116.4,87.6-116.8,85.3z M-75,79.6c1.5,0.6,2.2,3.4,1.5,6.3c-0.2,1.7-1,2.9-1.8,3.7
					C-74.5,87-74.5,83.3-75,79.6z M-77.2,90.5c-1.8,5.9-5.7,11.7-10.6,14.7c-2.1,1.2-4.4,2-6.7,2c-2.3,0-4.6-0.7-6.7-2
					c-3.4-2-6.4-5.4-8.5-9.3c0.3-0.7,0.3-1.7,0.5-3.2c0.8-7.1,2.3-12.7,4.4-17.1c1.3-0.2,2.8-0.5,4.1-1c0.5,0.5,1,0.7,1.5,1.2
					c2.8,2,5.9,3.2,9,3.7C-86.5,79.7-80.6,88.8-77.2,90.5z"/>
				<path id="Shape_15_" class="st11" d="M-77.1,106c-2,3.2-4.2,6-7.2,7.5c-6,3.2-10.7,5.8-10.7,5.8s-4.5-2.5-10.7-5.8
					c-3-1.5-5.2-4.2-7.2-7.5c-7.4,3-13.1,9.5-14.6,15.8c8.2,8.8,19.6,14.2,32.5,14.2s24.3-5.5,32.5-14.2
					C-64.2,115.2-69.7,109-77.1,106z"/>
			</g>
		</g>
		<g id="ic_man-copy-6_8_" transform="translate(1169.000000, 360.000000)" class="st14">
			<circle id="Oval_8_" class="st6" cx="-95" cy="91" r="50"/>
			<path id="Shape_15_" class="st11" d="M-70.9,107.1c0.3-0.5,0.3-1,0.5-1.7c0-0.5,0.3-1,0.3-1.7c0.8-4.7,1.3-12.1,1.3-23.5
				c0-17.5-11.7-31.6-26.2-31.6c-5.3,0-10.2,2-14.3,5.2c-0.8,0.5-1.3,1-1.8,1.7c-6.1,5.7-9.9,14.8-9.9,25c0,11.9,0.5,19.5,1.3,24.2
				c0,0.5,0.3,1.2,0.3,1.7c0.3,0.5,0.3,1.2,0.5,1.7c-5.1,3.2-9.2,7.7-10.9,12.1c8.4,9.6,20.9,15.8,34.9,15.8s26.7-6.2,35.1-15.8
				C-61.8,115-65.9,110.3-70.9,107.1z M-83.9,112.8c-6.1,3.2-10.4,5.7-10.9,5.7c-2-0.2-11.5-5.7-11.5-5.7c-2.3-1.2-3.8-2-6.6-4.4
				c0.3-0.5,1.5-2.2,2-2.7c0.3-0.5,0.8-0.7,1-1.2c1.5-2,3.3-4.2,4.8-5.9c2.8,2.2,6.1,3.7,9.7,3.7c3.6,0,6.6-1.5,9.7-3.7
				c2.3,2.5,4.3,5.2,6.1,7.4c0.3,0.5,0.8,1,1,1.2c0.3,0.5,0.8,0.7,1,1.2C-78.8,110.3-82.1,111.8-83.9,112.8z M-73.5,75.9
				c-0.5,2.5-2.3,3.7-3.6,4l-1,0.2l-0.3,1c-1.8,5.9-5.1,11.9-9.7,15.3c-2.3,1.7-4.8,3-7.4,3s-5.1-1-7.4-3c-4.3-3.5-7.9-9.4-9.7-15.3
				l-0.3-1l-1-0.2c-1.3-0.2-3.1-1.5-3.6-4c-0.5-1.5-0.3-3.2,0.5-4.4c0.3-0.5,0.8-1,1.3-1h0.3h0.3l1.5,0.2l0.3-1.5
				c0.3-1.2,0.5-2.5,0.8-3.5c1.8,5.9,7.1,5.4,14.8,6.2c2.3,0.2,5.3,0.5,6.9,0.5c0.3-4.7-5.3-9.9-5.3-9.9s0,0,0.8,0
				c0.8,0,2.5,0.7,3.1,1c6.1,3.2,7.1,8.2,7.4,8.2c3.1-0.7,5.3-2.5,6.4-5.2c0.3,1,0.5,1.7,0.5,2.7l0.3,1.5l1.5-0.2c0.3,0,0.5,0,0.5,0
				c0.8,0.2,1,0.7,1.3,1C-73.2,72.7-73,74.2-73.5,75.9z"/>
		</g>
		<g id="ic_man-copy-7_1_" transform="translate(929.000000, 540.000000)" class="st15">
			<circle id="Oval_8_" class="st6" cx="-95" cy="91" r="50"/>
			<path id="Shape_16_" class="st11" d="M-118.7,78.6c-1.2,1.8-1.7,4.5-1,7.3c0.2,1,0.7,2,1.2,3c1.2,11.1,5.5,14.8,11.2,16.3
				c3.2,3.5,7.4,5.8,12.4,5.8c4.7,0,8.9-2.5,12.4-6c1.5-0.5,3-1,4.2-2l0.2-0.3c2.7-2.3,4.5-6,5.5-12.3c1-1.3,2-2.8,2.2-4.5
				c0.7-3.5,0-6.8-2-8.5C-74,65.3-83.7,56-95.3,56C-107.7,56-117.7,66-118.7,78.6z M-116.8,85.3c-0.5-2.6,0-5.1,1.2-5.9
				c0,3.3,0.4,6.7,1.1,10C-115.5,88.8-116.4,87.6-116.8,85.3z M-75,79.6c1.5,0.6,2.2,3.4,1.5,6.3c-0.2,1.7-1,2.9-1.8,3.7
				C-74.5,87-74.5,83.3-75,79.6z M-77.2,90.5c-1.8,5.9-5.7,11.7-10.6,14.7c-2.1,1.2-4.4,2-6.7,2c-2.3,0-4.6-0.7-6.7-2
				c-3.4-2-6.4-5.4-8.5-9.3c0.3-0.7,0.3-1.7,0.5-3.2c0.8-7.1,2.3-12.7,4.4-17.1c1.3-0.2,2.8-0.5,4.1-1c0.5,0.5,1,0.7,1.5,1.2
				c2.8,2,5.9,3.2,9,3.7C-86.5,79.7-80.6,88.8-77.2,90.5z"/>
			<path id="Shape_15_" class="st11" d="M-77.1,106c-2,3.2-4.2,6-7.2,7.5c-6,3.2-10.7,5.8-10.7,5.8s-4.5-2.5-10.7-5.8
				c-3-1.5-5.2-4.2-7.2-7.5c-7.4,3-13.1,9.5-14.6,15.8c8.2,8.8,19.6,14.2,32.5,14.2s24.3-5.5,32.5-14.2
				C-64.2,115.2-69.7,109-77.1,106z"/>
		</g>
		<g id="ic_man-copy-8_1_" transform="translate(1169.000000, 540.000000)" class="st16">
			<circle id="Oval_8_" class="st6" cx="-95" cy="91" r="50"/>
			<path id="Shape_16_" class="st11" d="M-75.4,111.2c-2.2,3.8-4.4,6.8-7.7,8.5c-6.7,3.5-12.1,6-12.1,6l-11.6-6
				c-3.2-1.8-6.2-5-8.4-8.8c-5.4,2.2-9.6,6-12.4,10.5c8.2,9,19.8,14.5,32.6,14.5s24.5-5.5,32.4-14.2
				C-65.5,117.5-69.9,113.5-75.4,111.2z"/>
			<path id="Shape_15_" class="st11" d="M-102.8,83.7c-1.3,0.5-2.5,0.8-3.5,1.3c-1,0.5-2,1-3,1.5c-0.5,0.3-0.8,0.5-1.3,0.8
				c-0.3,0.3-0.8,0.5-1,0.8c-0.8,0.5-1.3,1-1.5,1.5c-0.8,1-1.3,1.5-1.3,1.5s0.5-0.3,1.8-0.8c0.5-0.3,1.3-0.5,1.8-1
				c0.8-0.3,1.5-0.8,2.5-1c1-0.3,2-0.8,3-1s2.3-0.5,3.3-0.8c1.3-0.3,2.5-0.3,3.5-0.5c1.3-0.3,2.5,0,3.8,0s2.5,0,3.8,0.3
				c1.3,0,2.5,0.3,3.5,0.5c1,0.3,2.3,0.5,3.3,0.8c1,0.3,2,0.8,3,1c1,0.3,1.8,0.8,2.5,1c0.8,0.3,1.5,0.5,1.8,1c1,0.5,1.8,0.8,1.8,0.8
				s-0.5-0.5-1.3-1.5c-0.3-0.5-0.8-1-1.5-1.5c-0.3-0.3-0.8-0.5-1-0.8s-0.8-0.5-1.3-0.8c-0.5-0.3-0.8-0.5-1.3-1
				c-0.5-0.3-1-0.5-1.5-0.8c-1-0.5-2.3-1-3.5-1.5c-1.3-0.3-2.5-0.8-4.1-1c-1.3-0.3-2.8-0.3-4.3-0.5c-1.5,0-2.8,0-4.3,0.3
				C-100.3,82.9-101.6,83.4-102.8,83.7z M-98.3,59.8c0,0.3,0,0.5,0,0.8c-9.6,1.5-16.7,9.1-19,20.3h-0.3c-1.5,0.3-2.8,1.3-3.8,2.8
				c-1.3,2-1.5,4.8-0.8,7.6c0.8,3.3,3,6.1,5.6,6.9c3,9.9,10.9,20.3,21.5,20.3s18.5-10.4,21.5-20.3c2.5-1,4.8-3.6,5.6-6.9
				c0.8-2.8,0.3-5.6-0.8-7.6c-0.8-1.5-2.3-2.5-3.8-2.8h-0.3c-2-10.9-9.4-18.8-19-20.3c0-0.3,0-0.5,0-0.8c0-2-1.8-3.8-3.8-3.8
				C-96.5,56.3-98.3,57.8-98.3,59.8z M-75,84.5l1.5-0.3c0.3,0,0.5,0,0.8,0c0.8,0.3,1.3,0.8,1.5,1.3c0.8,1.3,1,3,0.5,4.8
				c-0.8,2.8-2.5,4.3-3.8,4.6l-1.3,0.3l-0.3,1c-2.5,9.4-9.6,18.8-18.5,18.8c-8.9,0-16-9.4-18.5-18.8l-0.3-1l-1.3-0.3
				c-1.5-0.3-3.3-1.8-3.8-4.6c-0.5-1.8-0.3-3.6,0.5-4.8c0.3-0.5,0.8-1,1.5-1.3c0,0,0.3,0,0.5,0h0.3h0.8l1-0.8
				C-95.7,71.8-77.2,83.2-75,84.5z"/>
		</g>
		<g id="ic_man-copy-6_7_" transform="translate(438.000000, 180.000000)" class="st17">
			<circle id="Oval_8_" class="st6" cx="-95" cy="91" r="50"/>
			<path id="Shape_15_" class="st11" d="M-70.9,107.1c0.3-0.5,0.3-1,0.5-1.7c0-0.5,0.3-1,0.3-1.7c0.8-4.7,1.3-12.1,1.3-23.5
				c0-17.5-11.7-31.6-26.2-31.6c-5.3,0-10.2,2-14.3,5.2c-0.8,0.5-1.3,1-1.8,1.7c-6.1,5.7-9.9,14.8-9.9,25c0,11.9,0.5,19.5,1.3,24.2
				c0,0.5,0.3,1.2,0.3,1.7c0.3,0.5,0.3,1.2,0.5,1.7c-5.1,3.2-9.2,7.7-10.9,12.1c8.4,9.6,20.9,15.8,34.9,15.8s26.7-6.2,35.1-15.8
				C-61.8,115-65.9,110.3-70.9,107.1z M-83.9,112.8c-6.1,3.2-10.4,5.7-10.9,5.7c-2-0.2-11.5-5.7-11.5-5.7c-2.3-1.2-3.8-2-6.6-4.4
				c0.3-0.5,1.5-2.2,2-2.7c0.3-0.5,0.8-0.7,1-1.2c1.5-2,3.3-4.2,4.8-5.9c2.8,2.2,6.1,3.7,9.7,3.7c3.6,0,6.6-1.5,9.7-3.7
				c2.3,2.5,4.3,5.2,6.1,7.4c0.3,0.5,0.8,1,1,1.2c0.3,0.5,0.8,0.7,1,1.2C-78.8,110.3-82.1,111.8-83.9,112.8z M-73.5,75.9
				c-0.5,2.5-2.3,3.7-3.6,4l-1,0.2l-0.3,1c-1.8,5.9-5.1,11.9-9.7,15.3c-2.3,1.7-4.8,3-7.4,3s-5.1-1-7.4-3c-4.3-3.5-7.9-9.4-9.7-15.3
				l-0.3-1l-1-0.2c-1.3-0.2-3.1-1.5-3.6-4c-0.5-1.5-0.3-3.2,0.5-4.4c0.3-0.5,0.8-1,1.3-1h0.3h0.3l1.5,0.2l0.3-1.5
				c0.3-1.2,0.5-2.5,0.8-3.5c1.8,5.9,7.1,5.4,14.8,6.2c2.3,0.2,5.3,0.5,6.9,0.5c0.3-4.7-5.3-9.9-5.3-9.9s0,0,0.8,0
				c0.8,0,2.5,0.7,3.1,1c6.1,3.2,7.1,8.2,7.4,8.2c3.1-0.7,5.3-2.5,6.4-5.2c0.3,1,0.5,1.7,0.5,2.7l0.3,1.5l1.5-0.2c0.3,0,0.5,0,0.5,0
				c0.8,0.2,1,0.7,1.3,1C-73.2,72.7-73,74.2-73.5,75.9z"/>
		</g>
		<g id="ic_man-copy-6_3_" transform="translate(199.000000, 361.000000)" class="st18">
			<circle id="Oval_8_" class="st6" cx="-95" cy="91" r="50"/>
			<path id="Shape_15_" class="st11" d="M-70.9,107.1c0.3-0.5,0.3-1,0.5-1.7c0-0.5,0.3-1,0.3-1.7c0.8-4.7,1.3-12.1,1.3-23.5
				c0-17.5-11.7-31.6-26.2-31.6c-5.3,0-10.2,2-14.3,5.2c-0.8,0.5-1.3,1-1.8,1.7c-6.1,5.7-9.9,14.8-9.9,25c0,11.9,0.5,19.5,1.3,24.2
				c0,0.5,0.3,1.2,0.3,1.7c0.3,0.5,0.3,1.2,0.5,1.7c-5.1,3.2-9.2,7.7-10.9,12.1c8.4,9.6,20.9,15.8,34.9,15.8s26.7-6.2,35.1-15.8
				C-61.8,115-65.9,110.3-70.9,107.1z M-83.9,112.8c-6.1,3.2-10.4,5.7-10.9,5.7c-2-0.2-11.5-5.7-11.5-5.7c-2.3-1.2-3.8-2-6.6-4.4
				c0.3-0.5,1.5-2.2,2-2.7c0.3-0.5,0.8-0.7,1-1.2c1.5-2,3.3-4.2,4.8-5.9c2.8,2.2,6.1,3.7,9.7,3.7c3.6,0,6.6-1.5,9.7-3.7
				c2.3,2.5,4.3,5.2,6.1,7.4c0.3,0.5,0.8,1,1,1.2c0.3,0.5,0.8,0.7,1,1.2C-78.8,110.3-82.1,111.8-83.9,112.8z M-73.5,75.9
				c-0.5,2.5-2.3,3.7-3.6,4l-1,0.2l-0.3,1c-1.8,5.9-5.1,11.9-9.7,15.3c-2.3,1.7-4.8,3-7.4,3s-5.1-1-7.4-3c-4.3-3.5-7.9-9.4-9.7-15.3
				l-0.3-1l-1-0.2c-1.3-0.2-3.1-1.5-3.6-4c-0.5-1.5-0.3-3.2,0.5-4.4c0.3-0.5,0.8-1,1.3-1h0.3h0.3l1.5,0.2l0.3-1.5
				c0.3-1.2,0.5-2.5,0.8-3.5c1.8,5.9,7.1,5.4,14.8,6.2c2.3,0.2,5.3,0.5,6.9,0.5c0.3-4.7-5.3-9.9-5.3-9.9s0,0,0.8,0
				c0.8,0,2.5,0.7,3.1,1c6.1,3.2,7.1,8.2,7.4,8.2c3.1-0.7,5.3-2.5,6.4-5.2c0.3,1,0.5,1.7,0.5,2.7l0.3,1.5l1.5-0.2c0.3,0,0.5,0,0.5,0
				c0.8,0.2,1,0.7,1.3,1C-73.2,72.7-73,74.2-73.5,75.9z"/>
		</g>
	</g>
</g>
</svg>
