<svg xmlns="http://www.w3.org/2000/svg" xmlns:xlink="http://www.w3.org/1999/xlink" width="622" height="504" viewBox="0 0 622 504">
    <defs>
        <filter id="a" width="170%" height="170%" x="-31%" y="-31%" filterUnits="objectBoundingBox">
            <feOffset dx="4" dy="4" in="SourceAlpha" result="shadowOffsetOuter1"/>
            <feGaussianBlur in="shadowOffsetOuter1" result="shadowBlurOuter1" stdDeviation="11"/>
            <feColorMatrix in="shadowBlurOuter1" result="shadowMatrixOuter1" values="0 0 0 0 0.160784314 0 0 0 0 0.282352941 0 0 0 0 0.419607843 0 0 0 0.5 0"/>
            <feMerge>
                <feMergeNode in="shadowMatrixOuter1"/>
                <feMergeNode in="SourceGraphic"/>
            </feMerge>
        </filter>
        <circle id="b" cx="50" cy="50" r="50"/>
        <filter id="c" width="170%" height="170%" x="-31%" y="-31%" filterUnits="objectBoundingBox">
            <feOffset dx="4" dy="4" in="SourceAlpha" result="shadowOffsetOuter1"/>
            <feGaussianBlur in="shadowOffsetOuter1" result="shadowBlurOuter1" stdDeviation="11"/>
            <feColorMatrix in="shadowBlurOuter1" result="shadowMatrixOuter1" values="0 0 0 0 0.160784314 0 0 0 0 0.282352941 0 0 0 0 0.419607843 0 0 0 0.5 0"/>
            <feMerge>
                <feMergeNode in="shadowMatrixOuter1"/>
                <feMergeNode in="SourceGraphic"/>
            </feMerge>
        </filter>
        <filter id="d" width="170%" height="170%" x="-31%" y="-31%" filterUnits="objectBoundingBox">
            <feOffset dx="4" dy="4" in="SourceAlpha" result="shadowOffsetOuter1"/>
            <feGaussianBlur in="shadowOffsetOuter1" result="shadowBlurOuter1" stdDeviation="11"/>
            <feColorMatrix in="shadowBlurOuter1" result="shadowMatrixOuter1" values="0 0 0 0 0.160784314 0 0 0 0 0.282352941 0 0 0 0 0.419607843 0 0 0 0.5 0"/>
            <feMerge>
                <feMergeNode in="shadowMatrixOuter1"/>
                <feMergeNode in="SourceGraphic"/>
            </feMerge>
        </filter>
        <filter id="e" width="170%" height="170%" x="-31%" y="-31%" filterUnits="objectBoundingBox">
            <feOffset dx="4" dy="4" in="SourceAlpha" result="shadowOffsetOuter1"/>
            <feGaussianBlur in="shadowOffsetOuter1" result="shadowBlurOuter1" stdDeviation="11"/>
            <feColorMatrix in="shadowBlurOuter1" result="shadowMatrixOuter1" values="0 0 0 0 0.160784314 0 0 0 0 0.282352941 0 0 0 0 0.419607843 0 0 0 0.5 0"/>
            <feMerge>
                <feMergeNode in="shadowMatrixOuter1"/>
                <feMergeNode in="SourceGraphic"/>
            </feMerge>
        </filter>
        <filter id="f" width="170%" height="170%" x="-31%" y="-31%" filterUnits="objectBoundingBox">
            <feOffset dx="4" dy="4" in="SourceAlpha" result="shadowOffsetOuter1"/>
            <feGaussianBlur in="shadowOffsetOuter1" result="shadowBlurOuter1" stdDeviation="11"/>
            <feColorMatrix in="shadowBlurOuter1" result="shadowMatrixOuter1" values="0 0 0 0 0.160784314 0 0 0 0 0.282352941 0 0 0 0 0.419607843 0 0 0 0.5 0"/>
            <feMerge>
                <feMergeNode in="shadowMatrixOuter1"/>
                <feMergeNode in="SourceGraphic"/>
            </feMerge>
        </filter>
        <filter id="g" width="153.8%" height="153.8%" x="-23.8%" y="-23.8%" filterUnits="objectBoundingBox">
            <feOffset dx="4" dy="4" in="SourceAlpha" result="shadowOffsetOuter1"/>
            <feGaussianBlur in="shadowOffsetOuter1" result="shadowBlurOuter1" stdDeviation="11"/>
            <feColorMatrix in="shadowBlurOuter1" result="shadowMatrixOuter1" values="0 0 0 0 0.160784314 0 0 0 0 0.282352941 0 0 0 0 0.419607843 0 0 0 0.5 0"/>
            <feMerge>
                <feMergeNode in="shadowMatrixOuter1"/>
                <feMergeNode in="SourceGraphic"/>
            </feMerge>
        </filter>
        <filter id="h" width="170%" height="170%" x="-31%" y="-31%" filterUnits="objectBoundingBox">
            <feOffset dx="4" dy="4" in="SourceAlpha" result="shadowOffsetOuter1"/>
            <feGaussianBlur in="shadowOffsetOuter1" result="shadowBlurOuter1" stdDeviation="11"/>
            <feColorMatrix in="shadowBlurOuter1" result="shadowMatrixOuter1" values="0 0 0 0 0.160784314 0 0 0 0 0.282352941 0 0 0 0 0.419607843 0 0 0 0.5 0"/>
            <feMerge>
                <feMergeNode in="shadowMatrixOuter1"/>
                <feMergeNode in="SourceGraphic"/>
            </feMerge>
        </filter>
    </defs>
    <g fill="none" fill-rule="evenodd" transform="translate(17 18)">
        <path stroke="#FFF" stroke-linecap="square" stroke-width="2" d="M90 50h160M170 50v110"/>
        <circle cx="170" cy="230" r="69" stroke="#29486B" stroke-width="2"/>
        <path stroke="#29486B" stroke-linecap="square" stroke-width="2" d="M239 230h120M50 330h480M290 230v100M50 330v30M530 330v30"/>
        <g filter="url(#a)" transform="translate(240)">
            <use fill="#FFF" fill-rule="nonzero" xlink:href="#b"/>
            <g fill="#9F9F9F" fill-rule="nonzero">
                <path d="M46.252 10.039c-.996 0-1.992 1.214-2.988 1.457-.996.242-2.24-.486-3.237-.243-.996.243-1.743 1.699-2.49 2.185-.996.485-2.49 0-3.237.728-.996.485-1.245 1.942-1.992 2.67-.747.728-2.241.728-2.988 1.457-.747.728-.498 2.185-.996 3.156-.498.97-1.992 1.213-2.241 2.184-.498.971.249 2.185 0 3.156-.25.971-1.245 1.942-1.245 2.913 0 .971 1.245 1.942 1.245 2.913v1.457c-2.49 1.7-3.735 5.34-2.74 9.225.748 3.398 2.989 5.826 5.728 6.797C32.059 59.804 40.027 70 50.486 70 61.193 70 68.912 59.804 71.9 50.094c2.49-.971 4.731-3.399 5.727-6.797 1.245-4.613-.747-8.982-4.233-10.196v-.486c.25-.97 1.245-1.942 1.245-2.913 0-.97-1.245-1.942-1.245-2.913-.249-.97.498-2.185 0-3.156-.498-.97-1.743-1.456-2.24-2.184-.499-.971-.25-2.185-.997-3.156-.747-.729-2.24-.729-2.988-1.457-.747-.728-.996-2.185-1.992-2.67-.996-.486-2.241-.243-3.237-.728-.996-.486-1.494-1.7-2.49-2.185-.996-.243-2.241.243-3.237.243-.996-.243-1.992-1.457-2.988-1.457s-2.241.728-3.237.728c-1.494 0-2.74-.97-3.736-.728zM69.41 35.043l.25 1.7 1.742-.243h.747c.25 0 .25.242.498.242 1.494.729 1.992 3.399 1.494 5.826-.747 2.67-2.49 4.127-3.735 4.37l-1.245.243-.249 1.214c-2.49 9.224-9.711 18.45-18.426 18.45-8.716 0-15.688-9.226-18.427-18.45l-.249-1.214-1.245-.243c-1.494-.243-3.237-1.7-3.735-4.37-.498-1.942-.25-3.884.747-5.097.249-.486.747-.729 1.245-.971h.747l1.743.242.25-1.699c1.742-11.167 9.461-18.45 19.173-18.45 9.213 0 16.932 7.283 18.675 18.45z"/>
                <path d="M46.558 55.54c2.68-2.674 2.436-7.534 2.436-7.534s-4.872-.243-7.552 2.43c-2.68 2.673-2.436 7.534-2.436 7.534s4.872.486 7.552-2.43zM59.994 57.97s.244-4.86-2.436-7.534c-2.68-2.673-7.552-2.43-7.552-2.43s-.244 4.86 2.436 7.533c2.923 2.917 7.552 2.43 7.552 2.43zM69.658 63c-2.158 3.694-4.555 6.896-7.911 8.62C55.034 75.066 50 78.021 50 78.021s-5.034-2.955-11.747-6.403c-3.356-1.723-5.753-4.925-7.91-8.619C23.39 65.955 17.876 71.62 15 77.53 22.911 88.612 35.616 96 50 96s27.329-7.388 35-18.47C82.123 71.373 76.61 65.955 69.658 63z"/>
            </g>
        </g>
        <g fill-rule="nonzero" filter="url(#c)">
            <circle cx="50" cy="50" r="50" fill="#FFF"/>
            <path fill="#9F9F9F" d="M39.82 19.647c0 1.445.246 2.89.983 4.095-4.424 2.891-7.62 7.95-8.848 14.215h-.246c-3.196.723-4.916 4.818-3.933 8.914.737 2.891 2.704 5.06 4.916 5.782C35.396 61.086 42.032 70 51.127 70c9.095 0 15.977-8.914 18.681-17.347 2.212-.722 4.179-2.89 4.916-5.782.983-4.096-.737-7.95-3.933-8.914h-.246c-.245-1.687-.737-3.132-1.474-4.578-.246-2.65-2.213-5.782-5.162-8.191-.492-.241-.983-.482-1.23-.723-.982-.723-1.966-1.445-3.195-1.927.246-.723.492-1.687.492-2.65 0-5.542-4.424-9.878-10.078-9.878-5.408-.241-10.078 4.095-10.078 9.637zM55.797 36.03c4.179 3.132 9.095 3.613 11.799 1.445.246.723.246 1.205.491 1.927l.246 1.446 1.475-.24h.492c1.474.481 2.212 2.89 1.72 5.3-.491 2.168-2.212 3.613-3.441 3.854l-.983.241-.246.964c-2.212 7.95-8.357 15.901-15.977 15.901-7.374 0-13.765-7.95-15.977-15.901l-.246-.964-.983-.24c-1.23-.242-2.704-1.446-3.441-3.856-.492-2.409.245-4.818 1.72-5.3h.738a9.18 9.18 0 0 0 2.703 5.541c4.67 4.578 2.95-5.54 8.85-11.323 1.966-1.928 4.178-2.891 6.39-3.855 1.23 1.927 2.704 3.614 4.67 5.06z"/>
            <path fill="#9F9F9F" d="M67.893 65c-1.947 3.415-4.138 6.098-7.06 7.561-6.086 3.17-10.711 5.61-10.711 5.61s-4.626-2.44-10.712-5.61c-2.921-1.463-5.112-4.39-7.06-7.561-7.547 2.927-12.902 9.268-14.85 15.61C25.534 89.39 36.976 95 49.878 95 63.024 95 74.71 89.146 82.5 80.122 80.796 74.268 75.44 68.171 67.893 65z"/>
        </g>
        <g fill-rule="nonzero" filter="url(#d)" transform="translate(240 360)">
            <circle cx="50" cy="50" r="50" fill="#FFF"/>
            <path fill="#9F9F9F" d="M26.342 37.603c-1.24 1.758-1.737 4.52-.992 7.283.248 1.004.744 2.009 1.24 3.014 1.24 11.05 5.458 14.817 11.164 16.324C40.978 67.74 45.196 70 50.157 70c4.714 0 8.931-2.511 12.404-6.027 1.489-.503 2.977-1.005 4.217-2.01l.249-.25c2.728-2.26 4.465-6.028 5.457-12.307.993-1.255 1.985-2.762 2.233-4.52.744-3.516 0-6.781-1.985-8.539C70.996 24.292 61.321 15 49.662 15c-12.405 0-22.328 10.046-23.32 22.603zm1.902 6.65c-.53-2.564 0-5.128 1.236-5.897 0 3.333.353 6.667 1.06 10-1.06-.513-1.943-1.795-2.296-4.102zm41.761-5.646c1.5.572 2.25 3.429 1.5 6.286-.25 1.714-1 2.857-1.75 3.714.75-2.571.75-6.285.25-10zm-2.232 10.86c-1.806 5.866-5.675 11.73-10.576 14.663-2.063 1.221-4.385 1.954-6.706 1.954-2.321 0-4.643-.733-6.706-1.954-3.354-1.955-6.449-5.376-8.512-9.286.258-.733.258-1.71.516-3.177.773-7.086 2.321-12.707 4.385-17.105 1.29-.244 2.837-.489 4.127-.978.515.49 1.031.734 1.547 1.222 2.837 1.955 5.933 3.177 9.028 3.666 3.611.244 9.544 9.285 12.897 10.996z"/>
            <path fill="#9F9F9F" d="M67.863 65c-1.985 3.25-4.218 6-7.195 7.5C54.714 75.75 50 78.25 50 78.25s-4.466-2.5-10.668-5.75c-2.977-1.5-5.21-4.25-7.195-7.5-7.442 3-13.148 9.5-14.637 15.75C25.687 89.5 37.1 95 50 95c12.9 0 24.313-5.5 32.5-14.25C80.763 74.25 75.305 68 67.863 65z"/>
        </g>
        <g fill-rule="nonzero" filter="url(#e)" transform="translate(480 360)">
            <circle cx="50" cy="50" r="50" fill="#FFF"/>
            <path fill="#9F9F9F" d="M69.648 70.25C67.424 74 65.2 77 61.987 78.75c-6.673 3.5-12.11 6-12.11 6l-11.617-6c-3.212-1.75-6.178-5-8.403-8.75-5.437 2.25-9.638 6-12.357 10.5 8.156 9 19.772 14.5 32.624 14.5C62.975 95 74.59 89.5 82.5 80.75c-2.966-4.25-7.414-8.25-12.852-10.5z"/>
            <path fill="#9F9F9F" d="M42.178 42.693c-1.266.508-2.533.762-3.546 1.27l-3.04 1.525c-.506.254-.76.508-1.266.762-.253.254-.76.508-1.013.762-.76.508-1.267 1.016-1.52 1.525-.76 1.016-1.266 1.524-1.266 1.524s.506-.254 1.773-.762c.506-.254 1.266-.508 1.773-1.016.76-.255 1.52-.763 2.533-1.017 1.013-.254 2.026-.762 3.04-1.016 1.013-.254 2.28-.508 3.292-.762 1.267-.254 2.533-.254 3.547-.508 1.266-.254 2.533 0 3.8 0 1.266 0 2.532 0 3.799.254 1.266 0 2.533.254 3.546.508s2.28.508 3.293.762c1.013.254 2.026.762 3.04 1.016 1.013.254 1.773.763 2.532 1.017.76.254 1.52.508 1.774 1.016 1.013.508 1.773.762 1.773.762s-.507-.508-1.267-1.524c-.253-.508-.76-1.017-1.52-1.525-.253-.254-.76-.508-1.013-.762-.253-.254-.76-.508-1.266-.762-.507-.254-.76-.508-1.267-1.016l-1.52-.763c-1.013-.508-2.28-1.016-3.546-1.524-1.266-.254-2.533-.762-4.053-1.016-1.266-.254-2.786-.254-4.306-.508-1.52 0-2.786 0-4.306.254-1.267.762-2.533 1.27-3.8 1.524zm4.56-23.882v.762C37.112 21.098 30.02 28.72 27.74 39.898h-.253c-1.52.254-2.786 1.27-3.8 2.795-1.266 2.033-1.52 4.827-.76 7.622.76 3.303 3.04 6.098 5.573 6.86C31.54 67.083 39.392 77.5 50.03 77.5c10.64 0 18.492-10.417 21.531-20.325 2.533-1.016 4.813-3.557 5.573-6.86.76-2.795.253-5.59-.76-7.622-.76-1.524-2.28-2.54-3.8-2.795h-.253c-2.026-10.924-9.372-18.8-18.997-20.325v-.762c0-2.033-1.773-3.811-3.8-3.811-1.013.254-2.786 1.778-2.786 3.811zm23.304 24.644l1.52-.254h.76c.76.254 1.266.762 1.52 1.27.76 1.27 1.012 3.05.506 4.828-.76 2.794-2.533 4.319-3.8 4.573l-1.266.254-.254 1.016c-2.533 9.4-9.625 18.801-18.49 18.801-8.866 0-15.959-9.4-18.492-18.8l-.253-1.017-1.266-.254c-1.52-.254-3.293-1.779-3.8-4.573-.507-1.779-.253-3.557.507-4.827.253-.509.76-1.017 1.52-1.27H30.272l1.013-.763c17.985-11.687 36.476-.254 38.756 1.016z"/>
        </g>
        <g fill-rule="nonzero" filter="url(#f)" transform="translate(0 360)">
            <circle cx="50" cy="50" r="50" fill="#FFF"/>
            <path fill="#9F9F9F" d="M26.342 37.603c-1.24 1.758-1.737 4.52-.992 7.283.248 1.004.744 2.009 1.24 3.014 1.24 11.05 5.458 14.817 11.164 16.324C40.978 67.74 45.196 70 50.157 70c4.714 0 8.931-2.511 12.404-6.027 1.489-.503 2.977-1.005 4.217-2.01l.249-.25c2.728-2.26 4.465-6.028 5.457-12.307.993-1.255 1.985-2.762 2.233-4.52.744-3.516 0-6.781-1.985-8.539C70.996 24.292 61.321 15 49.662 15c-12.405 0-22.328 10.046-23.32 22.603zm1.902 6.65c-.53-2.564 0-5.128 1.236-5.897 0 3.333.353 6.667 1.06 10-1.06-.513-1.943-1.795-2.296-4.102zm41.761-5.646c1.5.572 2.25 3.429 1.5 6.286-.25 1.714-1 2.857-1.75 3.714.75-2.571.75-6.285.25-10zm-2.232 10.86c-1.806 5.866-5.675 11.73-10.576 14.663-2.063 1.221-4.385 1.954-6.706 1.954-2.321 0-4.643-.733-6.706-1.954-3.354-1.955-6.449-5.376-8.512-9.286.258-.733.258-1.71.516-3.177.773-7.086 2.321-12.707 4.385-17.105 1.29-.244 2.837-.489 4.127-.978.515.49 1.031.734 1.547 1.222 2.837 1.955 5.933 3.177 9.028 3.666 3.611.244 9.544 9.285 12.897 10.996z"/>
            <path fill="#9F9F9F" d="M67.863 65c-1.985 3.25-4.218 6-7.195 7.5C54.714 75.75 50 78.25 50 78.25s-4.466-2.5-10.668-5.75c-2.977-1.5-5.21-4.25-7.195-7.5-7.442 3-13.148 9.5-14.637 15.75C25.687 89.5 37.1 95 50 95c12.9 0 24.313-5.5 32.5-14.25C80.763 74.25 75.305 68 67.863 65z"/>
        </g>
        <g fill-rule="nonzero" filter="url(#g)" transform="translate(105 165)">
            <circle cx="65" cy="65" r="65" fill="#FFF"/>
            <path fill="#29486B" d="M95.663 86.317c.33-.644.33-1.287.66-2.252 0-.644.33-1.287.33-2.252.989-6.112 1.649-15.763 1.649-30.56 0-22.84-15.172-41.175-33.97-41.175-6.927 0-13.193 2.573-18.47 6.755-.99.643-1.65 1.287-2.309 2.252-7.915 7.398-12.862 19.3-12.862 32.49 0 15.44.66 25.413 1.649 31.525 0 .643.33 1.608.33 2.251.33.644.33 1.609.66 2.252-6.597 4.182-11.874 9.972-14.183 15.763 10.884 12.545 27.045 20.587 45.184 20.587 18.14 0 34.63-8.042 45.514-20.587-2.309-6.756-7.586-12.868-14.182-17.05zm-16.82 7.398c-7.916 4.182-13.522 7.399-14.182 7.399-2.638-.322-14.841-7.399-14.841-7.399-2.969-1.608-4.948-2.573-8.575-5.79.33-.643 1.978-2.895 2.638-3.539.33-.643.99-.965 1.32-1.608 1.978-2.573 4.287-5.469 6.266-7.72 3.628 2.895 7.915 4.825 12.532 4.825 4.618 0 8.575-1.93 12.533-4.825 2.968 3.216 5.607 6.755 7.916 9.65.33.643.989 1.287 1.319 1.609.33.643.99.965 1.32 1.608-1.65 2.573-5.937 4.504-8.246 5.79zm13.522-47.93c-.66 3.216-2.968 4.825-4.617 5.146l-1.32.322-.33 1.287c-2.308 7.72-6.596 15.44-12.532 19.944-2.968 2.252-6.266 3.86-9.565 3.86-3.298 0-6.596-1.286-9.564-3.86C48.83 67.981 44.213 60.26 41.904 52.54l-.33-1.287-1.319-.322c-1.649-.321-3.958-1.93-4.617-5.147-.66-1.93-.33-4.181.66-5.79.33-.643.989-1.287 1.648-1.287h.66l1.979.322.33-1.93c.33-1.608.66-3.217.99-4.504 2.308 7.72 9.234 7.077 19.128 8.042 2.968.322 6.926.644 8.905.644.33-6.112-6.926-12.868-6.926-12.868h.99c.989 0 3.298.966 3.957 1.287 7.916 4.182 9.235 10.616 9.565 10.616 3.957-.965 6.926-3.217 8.245-6.756.33 1.287.66 2.252.66 3.539l.33 1.93 1.978-.322h.66c.99.322 1.319.965 1.649 1.287 1.649 1.609 1.979 3.539 1.319 5.79z"/>
        </g>
        <g fill-rule="nonzero" filter="url(#h)" transform="translate(360 180)">
            <circle cx="50" cy="50" r="50" fill="#FFF"/>
            <path fill="#9F9F9F" d="M25.084 27.138c0 1.491.252 2.983.755 4.474-2.517 1.74-3.524 5.469-2.517 9.446.755 3.232 3.02 5.966 5.537 6.712 3.02 9.943 10.822 20.135 21.393 20.135 10.57 0 18.372-10.192 21.392-20.135 2.517-.994 4.782-3.48 5.537-6.712 1.259-4.474-.503-8.7-3.775-10.192.252-1.242.503-2.485.503-3.728C73.91 16.2 63.087 7.5 49.497 7.5c-13.591 0-24.413 8.7-24.413 19.638zm40.268-5.22c2.014 2.983 3.272 6.463 4.027 10.44l.252 1.74 1.762-.249h.755s.251 0 .251.249c1.51.746 2.265 3.232 1.762 5.966-.755 2.734-2.517 4.226-3.775 4.474l-1.258.249-.252.994c-2.517 9.198-9.564 18.644-18.373 18.644-8.808 0-15.855-9.198-18.372-18.644l-.252-.994-1.258-.249c-1.51-.248-3.272-1.74-3.775-4.474-.504-1.989-.252-3.729.503-4.972.252-.497.755-.994 1.51-1.243h.503l1.762.249.252-1.74c.503-3.48 1.51-6.463 3.02-9.197 2.768 3.231 8.557 5.22 15.1 5.22 7.3.248 13.591-2.486 15.856-6.463zm5.537 37.784c7.802 3.231 13.843 9.197 16.611 15.412C79.446 87.045 65.604 95 50 95s-29.446-7.706-37.5-19.39c2.768-6.462 8.809-12.677 16.61-15.908 2.266 3.728 4.783 6.96 8.306 8.7C44.715 71.882 50 74.865 50 74.865s5.537-2.734 12.584-6.463c3.523-1.74 6.04-4.972 8.305-8.7z"/>
        </g>
    </g>
</svg>
