<svg xmlns="http://www.w3.org/2000/svg" width="632" height="329" viewBox="0 0 632 329">
    <defs>
        <filter id="a" width="130.8%" height="130.8%" x="-12.3%" y="-12.3%" filterUnits="objectBoundingBox">
            <feOffset dx="4" dy="4" in="SourceAlpha" result="shadowOffsetOuter1"/>
            <feGaussianBlur in="shadowOffsetOuter1" result="shadowBlurOuter1" stdDeviation="6"/>
            <feColorMatrix in="shadowBlurOuter1" result="shadowMatrixOuter1" values="0 0 0 0 0.160784314 0 0 0 0 0.282352941 0 0 0 0 0.419607843 0 0 0 0.5 0"/>
            <feMerge>
                <feMergeNode in="shadowMatrixOuter1"/>
                <feMergeNode in="SourceGraphic"/>
            </feMerge>
        </filter>
        <filter id="b" width="170%" height="170%" x="-31%" y="-31%" filterUnits="objectBoundingBox">
            <feOffset dx="4" dy="4" in="SourceAlpha" result="shadowOffsetOuter1"/>
            <feGaussianBlur in="shadowOffsetOuter1" result="shadowBlurOuter1" stdDeviation="11"/>
            <feColorMatrix in="shadowBlurOuter1" result="shadowMatrixOuter1" values="0 0 0 0 0.160784314 0 0 0 0 0.282352941 0 0 0 0 0.419607843 0 0 0 0.5 0"/>
            <feMerge>
                <feMergeNode in="shadowMatrixOuter1"/>
                <feMergeNode in="SourceGraphic"/>
            </feMerge>
        </filter>
        <filter id="c" width="170%" height="170%" x="-31%" y="-31%" filterUnits="objectBoundingBox">
            <feOffset dx="4" dy="4" in="SourceAlpha" result="shadowOffsetOuter1"/>
            <feGaussianBlur in="shadowOffsetOuter1" result="shadowBlurOuter1" stdDeviation="11"/>
            <feColorMatrix in="shadowBlurOuter1" result="shadowMatrixOuter1" values="0 0 0 0 0.160784314 0 0 0 0 0.282352941 0 0 0 0 0.419607843 0 0 0 0.5 0"/>
            <feMerge>
                <feMergeNode in="shadowMatrixOuter1"/>
                <feMergeNode in="SourceGraphic"/>
            </feMerge>
        </filter>
        <filter id="d" width="170%" height="170%" x="-31%" y="-31%" filterUnits="objectBoundingBox">
            <feOffset dx="4" dy="4" in="SourceAlpha" result="shadowOffsetOuter1"/>
            <feGaussianBlur in="shadowOffsetOuter1" result="shadowBlurOuter1" stdDeviation="11"/>
            <feColorMatrix in="shadowBlurOuter1" result="shadowMatrixOuter1" values="0 0 0 0 0.160784314 0 0 0 0 0.282352941 0 0 0 0 0.419607843 0 0 0 0.5 0"/>
            <feMerge>
                <feMergeNode in="shadowMatrixOuter1"/>
                <feMergeNode in="SourceGraphic"/>
            </feMerge>
        </filter>
        <filter id="e" width="170%" height="170%" x="-31%" y="-31%" filterUnits="objectBoundingBox">
            <feOffset dx="4" dy="4" in="SourceAlpha" result="shadowOffsetOuter1"/>
            <feGaussianBlur in="shadowOffsetOuter1" result="shadowBlurOuter1" stdDeviation="11"/>
            <feColorMatrix in="shadowBlurOuter1" result="shadowMatrixOuter1" values="0 0 0 0 0.160784314 0 0 0 0 0.282352941 0 0 0 0 0.419607843 0 0 0 0.5 0"/>
            <feMerge>
                <feMergeNode in="shadowMatrixOuter1"/>
                <feMergeNode in="SourceGraphic"/>
            </feMerge>
        </filter>
    </defs>
    <g fill="none" fill-rule="evenodd" transform="translate(17 3)">
        <path stroke="#29486B" stroke-linecap="square" stroke-width="2" d="M50 70h180"/>
        <circle cx="300" cy="70" r="69" stroke="#29486B" stroke-width="2"/>
        <g fill-rule="nonzero" filter="url(#a)" transform="translate(235 5)">
            <circle cx="65" cy="65" r="65" fill="#FFF"/>
            <path fill="#29486B" d="M32.61 35.28c0 1.938.326 3.877.98 5.816-3.271 2.262-4.58 7.11-3.271 12.28.981 4.2 3.926 7.755 7.198 8.725 3.926 12.926 14.069 26.175 27.81 26.175 13.742 0 23.884-13.249 27.81-26.175 3.272-1.293 6.217-4.524 7.199-8.725 1.635-5.817-.655-11.31-4.908-13.25.327-1.615.654-3.231.654-4.847 0-14.219-14.069-25.529-31.736-25.529-17.668 0-31.737 11.31-31.737 25.53zm52.348-6.787c2.618 3.878 4.253 8.402 5.235 13.572l.327 2.262 2.29-.323h.982s.327 0 .327.323c1.963.97 2.945 4.201 2.29 7.756-.981 3.555-3.271 5.494-4.907 5.817l-1.636.323-.327 1.293c-3.272 11.956-12.433 24.236-23.885 24.236-11.451 0-20.612-11.957-23.884-24.236l-.327-1.293-1.636-.323c-1.963-.323-4.253-2.262-4.908-5.817-.654-2.585-.327-4.847.655-6.463.327-.646.981-1.293 1.963-1.616h.654l2.29.323.328-2.262c.654-4.524 1.963-8.402 3.926-11.956 3.599 4.2 11.124 6.786 19.63 6.786 9.489.323 17.668-3.232 20.613-8.402zm7.198 49.12c10.143 4.2 17.995 11.956 21.594 20.035C103.28 113.159 85.285 123.5 65 123.5s-38.28-10.018-48.75-25.206c3.599-8.402 11.451-16.48 21.594-20.682 2.945 4.848 6.216 9.049 10.797 11.31C58.129 93.448 65 97.326 65 97.326s7.198-3.555 16.36-8.402c4.58-2.262 7.851-6.463 10.796-11.31z"/>
        </g>
        <path stroke="#29486B" stroke-linecap="square" stroke-width="2" d="M369 70h120M300 170h240M420 70v100M50 70v130M300 170v30M540 170v30"/>
        <g fill-rule="nonzero" filter="url(#b)" transform="translate(0 200)">
            <circle cx="50" cy="50" r="50" fill="#FFF"/>
            <path fill="#9F9F9F" d="M26.342 37.603c-1.24 1.758-1.737 4.52-.992 7.283.248 1.004.744 2.009 1.24 3.014 1.24 11.05 5.458 14.817 11.164 16.324C40.978 67.74 45.196 70 50.157 70c4.714 0 8.931-2.511 12.404-6.027 1.489-.503 2.977-1.005 4.217-2.01l.249-.25c2.728-2.26 4.465-6.028 5.457-12.307.993-1.255 1.985-2.762 2.233-4.52.744-3.516 0-6.781-1.985-8.539C70.996 24.292 61.321 15 49.662 15c-12.405 0-22.328 10.046-23.32 22.603zm1.902 6.65c-.53-2.564 0-5.128 1.236-5.897 0 3.333.353 6.667 1.06 10-1.06-.513-1.943-1.795-2.296-4.102zm41.761-5.646c1.5.572 2.25 3.429 1.5 6.286-.25 1.714-1 2.857-1.75 3.714.75-2.571.75-6.285.25-10zm-2.232 10.86c-1.806 5.866-5.675 11.73-10.576 14.663-2.063 1.221-4.385 1.954-6.706 1.954-2.321 0-4.643-.733-6.706-1.954-3.354-1.955-6.449-5.376-8.512-9.286.258-.733.258-1.71.516-3.177.773-7.086 2.321-12.707 4.385-17.105 1.29-.244 2.837-.489 4.127-.978.515.49 1.031.734 1.547 1.222 2.837 1.955 5.933 3.177 9.028 3.666 3.611.244 9.544 9.285 12.897 10.996z"/>
            <path fill="#9F9F9F" d="M67.863 65c-1.985 3.25-4.218 6-7.195 7.5C54.714 75.75 50 78.25 50 78.25s-4.466-2.5-10.668-5.75c-2.977-1.5-5.21-4.25-7.195-7.5-7.442 3-13.148 9.5-14.637 15.75C25.687 89.5 37.1 95 50 95c12.9 0 24.313-5.5 32.5-14.25C80.763 74.25 75.305 68 67.863 65z"/>
        </g>
        <g fill-rule="nonzero" filter="url(#c)" transform="translate(490 20)">
            <circle cx="50" cy="50" r="50" fill="#FFF"/>
            <path fill="#9F9F9F" d="M74.055 66.08c.254-.494.254-.988.509-1.73 0-.494.254-.988.254-1.73.764-4.696 1.273-12.112 1.273-23.482C76.09 21.59 64.38 7.5 49.873 7.5c-5.346 0-10.182 1.977-14.255 5.19a5.864 5.864 0 0 0-1.782 1.73c-6.109 5.686-9.927 14.831-9.927 24.966 0 11.864.51 19.526 1.273 24.223 0 .494.254 1.236.254 1.73.255.494.255 1.236.51 1.73-5.091 3.213-9.164 7.663-10.946 12.112C23.4 88.82 35.873 95 49.873 95c14 0 26.727-6.18 35.127-15.82-1.782-5.19-5.855-9.886-10.945-13.1zm-12.982 5.686c-6.11 3.213-10.437 5.685-10.946 5.685-2.036-.248-11.454-5.685-11.454-5.685-2.291-1.236-3.818-1.978-6.618-4.45.254-.494 1.527-2.224 2.036-2.719.254-.494.764-.741 1.018-1.235 1.527-1.978 3.31-4.202 4.836-5.933 2.8 2.225 6.11 3.708 9.673 3.708 3.564 0 6.618-1.483 9.673-3.708 2.29 2.472 4.327 5.191 6.109 7.416.255.494.764.988 1.018 1.236.255.494.764.741 1.018 1.235-1.272 1.978-4.581 3.46-6.363 4.45zm10.436-36.83c-.509 2.472-2.29 3.708-3.564 3.955l-1.018.247-.254.99C64.89 46.058 61.582 51.991 57 55.451c-2.29 1.73-4.836 2.966-7.382 2.966-2.545 0-5.09-.989-7.382-2.966-4.327-3.46-7.89-9.393-9.672-15.325l-.255-.989-1.018-.247c-1.273-.247-3.055-1.483-3.564-3.955-.509-1.483-.254-3.213.51-4.449.254-.494.763-.988 1.272-.988h.509l1.527.247.255-1.483c.255-1.236.51-2.472.764-3.46 1.781 5.931 7.127 5.437 14.763 6.179 2.291.247 5.346.494 6.873.494.255-4.696-5.345-9.887-5.345-9.887h.763c.764 0 2.546.742 3.055.989 6.109 3.213 7.127 8.156 7.382 8.156 3.054-.741 5.345-2.471 6.363-5.19.255.988.51 1.73.51 2.719l.254 1.483 1.527-.247h.51c.763.247 1.017.741 1.272.988 1.273 1.236 1.527 2.72 1.018 4.45z"/>
        </g>
        <g fill-rule="nonzero" filter="url(#d)" transform="translate(250 200)">
            <circle cx="50" cy="50" r="50" fill="#FFF"/>
            <path fill="#9F9F9F" d="M26.342 37.603c-1.24 1.758-1.737 4.52-.992 7.283.248 1.004.744 2.009 1.24 3.014 1.24 11.05 5.458 14.817 11.164 16.324C40.978 67.74 45.196 70 50.157 70c4.714 0 8.931-2.511 12.404-6.027 1.489-.503 2.977-1.005 4.217-2.01l.249-.25c2.728-2.26 4.465-6.028 5.457-12.307.993-1.255 1.985-2.762 2.233-4.52.744-3.516 0-6.781-1.985-8.539C70.996 24.292 61.321 15 49.662 15c-12.405 0-22.328 10.046-23.32 22.603zm1.902 6.65c-.53-2.564 0-5.128 1.236-5.897 0 3.333.353 6.667 1.06 10-1.06-.513-1.943-1.795-2.296-4.102zm41.761-5.646c1.5.572 2.25 3.429 1.5 6.286-.25 1.714-1 2.857-1.75 3.714.75-2.571.75-6.285.25-10zm-2.232 10.86c-1.806 5.866-5.675 11.73-10.576 14.663-2.063 1.221-4.385 1.954-6.706 1.954-2.321 0-4.643-.733-6.706-1.954-3.354-1.955-6.449-5.376-8.512-9.286.258-.733.258-1.71.516-3.177.773-7.086 2.321-12.707 4.385-17.105 1.29-.244 2.837-.489 4.127-.978.515.49 1.031.734 1.547 1.222 2.837 1.955 5.933 3.177 9.028 3.666 3.611.244 9.544 9.285 12.897 10.996z"/>
            <path fill="#9F9F9F" d="M67.863 65c-1.985 3.25-4.218 6-7.195 7.5C54.714 75.75 50 78.25 50 78.25s-4.466-2.5-10.668-5.75c-2.977-1.5-5.21-4.25-7.195-7.5-7.442 3-13.148 9.5-14.637 15.75C25.687 89.5 37.1 95 50 95c12.9 0 24.313-5.5 32.5-14.25C80.763 74.25 75.305 68 67.863 65z"/>
        </g>
        <g fill-rule="nonzero" filter="url(#e)" transform="translate(490 200)">
            <circle cx="50" cy="50" r="50" fill="#FFF"/>
            <path fill="#9F9F9F" d="M69.648 70.25C67.424 74 65.2 77 61.987 78.75c-6.673 3.5-12.11 6-12.11 6l-11.617-6c-3.212-1.75-6.178-5-8.403-8.75-5.437 2.25-9.638 6-12.357 10.5 8.156 9 19.772 14.5 32.624 14.5C62.975 95 74.59 89.5 82.5 80.75c-2.966-4.25-7.414-8.25-12.852-10.5z"/>
            <path fill="#9F9F9F" d="M42.178 42.693c-1.266.508-2.533.762-3.546 1.27l-3.04 1.525c-.506.254-.76.508-1.266.762-.253.254-.76.508-1.013.762-.76.508-1.267 1.016-1.52 1.525-.76 1.016-1.266 1.524-1.266 1.524s.506-.254 1.773-.762c.506-.254 1.266-.508 1.773-1.016.76-.255 1.52-.763 2.533-1.017 1.013-.254 2.026-.762 3.04-1.016 1.013-.254 2.28-.508 3.292-.762 1.267-.254 2.533-.254 3.547-.508 1.266-.254 2.533 0 3.8 0 1.266 0 2.532 0 3.799.254 1.266 0 2.533.254 3.546.508s2.28.508 3.293.762c1.013.254 2.026.762 3.04 1.016 1.013.254 1.773.763 2.532 1.017.76.254 1.52.508 1.774 1.016 1.013.508 1.773.762 1.773.762s-.507-.508-1.267-1.524c-.253-.508-.76-1.017-1.52-1.525-.253-.254-.76-.508-1.013-.762-.253-.254-.76-.508-1.266-.762-.507-.254-.76-.508-1.267-1.016l-1.52-.763c-1.013-.508-2.28-1.016-3.546-1.524-1.266-.254-2.533-.762-4.053-1.016-1.266-.254-2.786-.254-4.306-.508-1.52 0-2.786 0-4.306.254-1.267.762-2.533 1.27-3.8 1.524zm4.56-23.882v.762C37.112 21.098 30.02 28.72 27.74 39.898h-.253c-1.52.254-2.786 1.27-3.8 2.795-1.266 2.033-1.52 4.827-.76 7.622.76 3.303 3.04 6.098 5.573 6.86C31.54 67.083 39.392 77.5 50.03 77.5c10.64 0 18.492-10.417 21.531-20.325 2.533-1.016 4.813-3.557 5.573-6.86.76-2.795.253-5.59-.76-7.622-.76-1.524-2.28-2.54-3.8-2.795h-.253c-2.026-10.924-9.372-18.8-18.997-20.325v-.762c0-2.033-1.773-3.811-3.8-3.811-1.013.254-2.786 1.778-2.786 3.811zm23.304 24.644l1.52-.254h.76c.76.254 1.266.762 1.52 1.27.76 1.27 1.012 3.05.506 4.828-.76 2.794-2.533 4.319-3.8 4.573l-1.266.254-.254 1.016c-2.533 9.4-9.625 18.801-18.49 18.801-8.866 0-15.959-9.4-18.492-18.8l-.253-1.017-1.266-.254c-1.52-.254-3.293-1.779-3.8-4.573-.507-1.779-.253-3.557.507-4.827.253-.509.76-1.017 1.52-1.27H30.272l1.013-.763c17.985-11.687 36.476-.254 38.756 1.016z"/>
        </g>
    </g>
</svg>
