<svg xmlns="http://www.w3.org/2000/svg" width="398" height="339" viewBox="0 0 398 339">
    <defs>
        <filter id="a" width="170%" height="170%" x="-31%" y="-31%" filterUnits="objectBoundingBox">
            <feOffset dx="4" dy="4" in="SourceAlpha" result="shadowOffsetOuter1"/>
            <feGaussianBlur in="shadowOffsetOuter1" result="shadowBlurOuter1" stdDeviation="11"/>
            <feColorMatrix in="shadowBlurOuter1" result="shadowMatrixOuter1" values="0 0 0 0 0.160784314 0 0 0 0 0.282352941 0 0 0 0 0.419607843 0 0 0 0.5 0"/>
            <feMerge>
                <feMergeNode in="shadowMatrixOuter1"/>
                <feMergeNode in="SourceGraphic"/>
            </feMerge>
        </filter>
        <filter id="b" width="170%" height="170%" x="-31%" y="-31%" filterUnits="objectBoundingBox">
            <feOffset dx="4" dy="4" in="SourceAlpha" result="shadowOffsetOuter1"/>
            <feGaussianBlur in="shadowOffsetOuter1" result="shadowBlurOuter1" stdDeviation="11"/>
            <feColorMatrix in="shadowBlurOuter1" result="shadowMatrixOuter1" values="0 0 0 0 0.160784314 0 0 0 0 0.282352941 0 0 0 0 0.419607843 0 0 0 0.5 0"/>
            <feMerge>
                <feMergeNode in="shadowMatrixOuter1"/>
                <feMergeNode in="SourceGraphic"/>
            </feMerge>
        </filter>
        <filter id="c" width="153.8%" height="153.8%" x="-23.8%" y="-23.8%" filterUnits="objectBoundingBox">
            <feOffset dx="4" dy="4" in="SourceAlpha" result="shadowOffsetOuter1"/>
            <feGaussianBlur in="shadowOffsetOuter1" result="shadowBlurOuter1" stdDeviation="11"/>
            <feColorMatrix in="shadowBlurOuter1" result="shadowMatrixOuter1" values="0 0 0 0 0.160784314 0 0 0 0 0.282352941 0 0 0 0 0.419607843 0 0 0 0.5 0"/>
            <feMerge>
                <feMergeNode in="shadowMatrixOuter1"/>
                <feMergeNode in="SourceGraphic"/>
            </feMerge>
        </filter>
        <filter id="d" width="170%" height="170%" x="-31%" y="-31%" filterUnits="objectBoundingBox">
            <feOffset dx="4" dy="4" in="SourceAlpha" result="shadowOffsetOuter1"/>
            <feGaussianBlur in="shadowOffsetOuter1" result="shadowBlurOuter1" stdDeviation="11"/>
            <feColorMatrix in="shadowBlurOuter1" result="shadowMatrixOuter1" values="0 0 0 0 0.160784314 0 0 0 0 0.282352941 0 0 0 0 0.419607843 0 0 0 0.5 0"/>
            <feMerge>
                <feMergeNode in="shadowMatrixOuter1"/>
                <feMergeNode in="SourceGraphic"/>
            </feMerge>
        </filter>
    </defs>
    <g fill="none" fill-rule="evenodd" transform="translate(13 13)">
        <path stroke="#29486B" stroke-linecap="square" stroke-width="2" d="M70 170v30"/>
        <circle cx="70" cy="70" r="69" stroke="#29486B" stroke-width="2"/>
        <path stroke="#29486B" stroke-linecap="square" stroke-width="2" d="M139 70h120M70 170h240M190 70v100M310 170v30"/>
        <g fill-rule="nonzero" filter="url(#a)" transform="translate(20 200)">
            <circle cx="50" cy="50" r="50" fill="#FFF"/>
            <path fill="#9F9F9F" d="M26.342 37.603c-1.24 1.758-1.737 4.52-.992 7.283.248 1.004.744 2.009 1.24 3.014 1.24 11.05 5.458 14.817 11.164 16.324C40.978 67.74 45.196 70 50.157 70c4.714 0 8.931-2.511 12.404-6.027 1.489-.503 2.977-1.005 4.217-2.01l.249-.25c2.728-2.26 4.465-6.028 5.457-12.307.993-1.255 1.985-2.762 2.233-4.52.744-3.516 0-6.781-1.985-8.539C70.996 24.292 61.321 15 49.662 15c-12.405 0-22.328 10.046-23.32 22.603zm1.902 6.65c-.53-2.564 0-5.128 1.236-5.897 0 3.333.353 6.667 1.06 10-1.06-.513-1.943-1.795-2.296-4.102zm41.761-5.646c1.5.572 2.25 3.429 1.5 6.286-.25 1.714-1 2.857-1.75 3.714.75-2.571.75-6.285.25-10zm-2.232 10.86c-1.806 5.866-5.675 11.73-10.576 14.663-2.063 1.221-4.385 1.954-6.706 1.954-2.321 0-4.643-.733-6.706-1.954-3.354-1.955-6.449-5.376-8.512-9.286.258-.733.258-1.71.516-3.177.773-7.086 2.321-12.707 4.385-17.105 1.29-.244 2.837-.489 4.127-.978.515.49 1.031.734 1.547 1.222 2.837 1.955 5.933 3.177 9.028 3.666 3.611.244 9.544 9.285 12.897 10.996z"/>
            <path fill="#9F9F9F" d="M67.863 65c-1.985 3.25-4.218 6-7.195 7.5C54.714 75.75 50 78.25 50 78.25s-4.466-2.5-10.668-5.75c-2.977-1.5-5.21-4.25-7.195-7.5-7.442 3-13.148 9.5-14.637 15.75C25.687 89.5 37.1 95 50 95c12.9 0 24.313-5.5 32.5-14.25C80.763 74.25 75.305 68 67.863 65z"/>
        </g>
        <g fill-rule="nonzero" filter="url(#b)" transform="translate(260 200)">
            <circle cx="50" cy="50" r="50" fill="#FFF"/>
            <path fill="#9F9F9F" d="M69.648 70.25C67.424 74 65.2 77 61.987 78.75c-6.673 3.5-12.11 6-12.11 6l-11.617-6c-3.212-1.75-6.178-5-8.403-8.75-5.437 2.25-9.638 6-12.357 10.5 8.156 9 19.772 14.5 32.624 14.5C62.975 95 74.59 89.5 82.5 80.75c-2.966-4.25-7.414-8.25-12.852-10.5z"/>
            <path fill="#9F9F9F" d="M42.178 42.693c-1.266.508-2.533.762-3.546 1.27l-3.04 1.525c-.506.254-.76.508-1.266.762-.253.254-.76.508-1.013.762-.76.508-1.267 1.016-1.52 1.525-.76 1.016-1.266 1.524-1.266 1.524s.506-.254 1.773-.762c.506-.254 1.266-.508 1.773-1.016.76-.255 1.52-.763 2.533-1.017 1.013-.254 2.026-.762 3.04-1.016 1.013-.254 2.28-.508 3.292-.762 1.267-.254 2.533-.254 3.547-.508 1.266-.254 2.533 0 3.8 0 1.266 0 2.532 0 3.799.254 1.266 0 2.533.254 3.546.508s2.28.508 3.293.762c1.013.254 2.026.762 3.04 1.016 1.013.254 1.773.763 2.532 1.017.76.254 1.52.508 1.774 1.016 1.013.508 1.773.762 1.773.762s-.507-.508-1.267-1.524c-.253-.508-.76-1.017-1.52-1.525-.253-.254-.76-.508-1.013-.762-.253-.254-.76-.508-1.266-.762-.507-.254-.76-.508-1.267-1.016l-1.52-.763c-1.013-.508-2.28-1.016-3.546-1.524-1.266-.254-2.533-.762-4.053-1.016-1.266-.254-2.786-.254-4.306-.508-1.52 0-2.786 0-4.306.254-1.267.762-2.533 1.27-3.8 1.524zm4.56-23.882v.762C37.112 21.098 30.02 28.72 27.74 39.898h-.253c-1.52.254-2.786 1.27-3.8 2.795-1.266 2.033-1.52 4.827-.76 7.622.76 3.303 3.04 6.098 5.573 6.86C31.54 67.083 39.392 77.5 50.03 77.5c10.64 0 18.492-10.417 21.531-20.325 2.533-1.016 4.813-3.557 5.573-6.86.76-2.795.253-5.59-.76-7.622-.76-1.524-2.28-2.54-3.8-2.795h-.253c-2.026-10.924-9.372-18.8-18.997-20.325v-.762c0-2.033-1.773-3.811-3.8-3.811-1.013.254-2.786 1.778-2.786 3.811zm23.304 24.644l1.52-.254h.76c.76.254 1.266.762 1.52 1.27.76 1.27 1.012 3.05.506 4.828-.76 2.794-2.533 4.319-3.8 4.573l-1.266.254-.254 1.016c-2.533 9.4-9.625 18.801-18.49 18.801-8.866 0-15.959-9.4-18.492-18.8l-.253-1.017-1.266-.254c-1.52-.254-3.293-1.779-3.8-4.573-.507-1.779-.253-3.557.507-4.827.253-.509.76-1.017 1.52-1.27H30.272l1.013-.763c17.985-11.687 36.476-.254 38.756 1.016z"/>
        </g>
        <g fill-rule="nonzero" filter="url(#c)" transform="translate(5 5)">
            <circle cx="65" cy="65" r="65" fill="#FFF"/>
            <path fill="#29486B" d="M95.663 86.317c.33-.644.33-1.287.66-2.252 0-.644.33-1.287.33-2.252.989-6.112 1.649-15.763 1.649-30.56 0-22.84-15.172-41.175-33.97-41.175-6.927 0-13.193 2.573-18.47 6.755-.99.643-1.65 1.287-2.309 2.252-7.915 7.398-12.862 19.3-12.862 32.49 0 15.44.66 25.413 1.649 31.525 0 .643.33 1.608.33 2.251.33.644.33 1.609.66 2.252-6.597 4.182-11.874 9.972-14.183 15.763 10.884 12.545 27.045 20.587 45.184 20.587 18.14 0 34.63-8.042 45.514-20.587-2.309-6.756-7.586-12.868-14.182-17.05zm-16.82 7.398c-7.916 4.182-13.522 7.399-14.182 7.399-2.638-.322-14.841-7.399-14.841-7.399-2.969-1.608-4.948-2.573-8.575-5.79.33-.643 1.978-2.895 2.638-3.539.33-.643.99-.965 1.32-1.608 1.978-2.573 4.287-5.469 6.266-7.72 3.628 2.895 7.915 4.825 12.532 4.825 4.618 0 8.575-1.93 12.533-4.825 2.968 3.216 5.607 6.755 7.916 9.65.33.643.989 1.287 1.319 1.609.33.643.99.965 1.32 1.608-1.65 2.573-5.937 4.504-8.246 5.79zm13.522-47.93c-.66 3.216-2.968 4.825-4.617 5.146l-1.32.322-.33 1.287c-2.308 7.72-6.596 15.44-12.532 19.944-2.968 2.252-6.266 3.86-9.565 3.86-3.298 0-6.596-1.286-9.564-3.86C48.83 67.981 44.213 60.26 41.904 52.54l-.33-1.287-1.319-.322c-1.649-.321-3.958-1.93-4.617-5.147-.66-1.93-.33-4.181.66-5.79.33-.643.989-1.287 1.648-1.287h.66l1.979.322.33-1.93c.33-1.608.66-3.217.99-4.504 2.308 7.72 9.234 7.077 19.128 8.042 2.968.322 6.926.644 8.905.644.33-6.112-6.926-12.868-6.926-12.868h.99c.989 0 3.298.966 3.957 1.287 7.916 4.182 9.235 10.616 9.565 10.616 3.957-.965 6.926-3.217 8.245-6.756.33 1.287.66 2.252.66 3.539l.33 1.93 1.978-.322h.66c.99.322 1.319.965 1.649 1.287 1.649 1.609 1.979 3.539 1.319 5.79z"/>
        </g>
        <g fill-rule="nonzero" filter="url(#d)" transform="translate(260 20)">
            <circle cx="50" cy="50" r="50" fill="#FFF"/>
            <path fill="#9F9F9F" d="M25.084 27.138c0 1.491.252 2.983.755 4.474-2.517 1.74-3.524 5.469-2.517 9.446.755 3.232 3.02 5.966 5.537 6.712 3.02 9.943 10.822 20.135 21.393 20.135 10.57 0 18.372-10.192 21.392-20.135 2.517-.994 4.782-3.48 5.537-6.712 1.259-4.474-.503-8.7-3.775-10.192.252-1.242.503-2.485.503-3.728C73.91 16.2 63.087 7.5 49.497 7.5c-13.591 0-24.413 8.7-24.413 19.638zm40.268-5.22c2.014 2.983 3.272 6.463 4.027 10.44l.252 1.74 1.762-.249h.755s.251 0 .251.249c1.51.746 2.265 3.232 1.762 5.966-.755 2.734-2.517 4.226-3.775 4.474l-1.258.249-.252.994c-2.517 9.198-9.564 18.644-18.373 18.644-8.808 0-15.855-9.198-18.372-18.644l-.252-.994-1.258-.249c-1.51-.248-3.272-1.74-3.775-4.474-.504-1.989-.252-3.729.503-4.972.252-.497.755-.994 1.51-1.243h.503l1.762.249.252-1.74c.503-3.48 1.51-6.463 3.02-9.197 2.768 3.231 8.557 5.22 15.1 5.22 7.3.248 13.591-2.486 15.856-6.463zm5.537 37.784c7.802 3.231 13.843 9.197 16.611 15.412C79.446 87.045 65.604 95 50 95s-29.446-7.706-37.5-19.39c2.768-6.462 8.809-12.677 16.61-15.908 2.266 3.728 4.783 6.96 8.306 8.7C44.715 71.882 50 74.865 50 74.865s5.537-2.734 12.584-6.463c3.523-1.74 6.04-4.972 8.305-8.7z"/>
        </g>
    </g>
</svg>
