<?xml version="1.0" encoding="utf-8"?>
<!-- Generator: Adobe Illustrator 21.1.0, SVG Export Plug-In . SVG Version: 6.00 Build 0)  -->
<svg version="1.1" id="Слой_1" xmlns="http://www.w3.org/2000/svg" xmlns:xlink="http://www.w3.org/1999/xlink" x="0px" y="0px"
	 viewBox="0 0 1164 435" style="enable-background:new 0 0 1164 435;" xml:space="preserve">
<style type="text/css">
	.st0{fill:none;stroke:#29486B;stroke-width:2;stroke-linecap:square;}
	.st1{fill:none;stroke:#29486B;stroke-width:2;}
	.st2{filter:url(#filter-1);}
	.st3{fill:#FFFFFF;}
	.st4{fill:#29486B;}
	.st5{filter:url(#filter-2);}
	.st6{fill:#9F9F9F;}
	.st7{filter:url(#filter-3);}
	.st8{filter:url(#filter-4);}
	.st9{filter:url(#filter-5);}
	.st10{enable-background:new    ;}
	.st11{fill:#375D88;}
	.st12{fill:none;}
</style>
<filter  filterUnits="objectBoundingBox" height="170.0%" id="filter-5" width="170.0%" x="-31.0%" y="-31.0%">
	<feOffset  dx="4" dy="4" in="SourceAlpha" result="shadowOffsetOuter1"></feOffset>
	<feGaussianBlur  in="shadowOffsetOuter1" result="shadowBlurOuter1" stdDeviation="11"></feGaussianBlur>
	
		<feColorMatrix  in="shadowBlurOuter1" result="shadowMatrixOuter1" type="matrix" values="0 0 0 0 0.160784314   0 0 0 0 0.282352941   0 0 0 0 0.419607843  0 0 0 0.5 0">
		</feColorMatrix>
	<feMerge>
		<feMergeNode  in="shadowMatrixOuter1"></feMergeNode>
		<feMergeNode  in="SourceGraphic"></feMergeNode>
	</feMerge>
</filter>
<filter  filterUnits="objectBoundingBox" height="170.0%" id="filter-4" width="170.0%" x="-31.0%" y="-31.0%">
	<feOffset  dx="4" dy="4" in="SourceAlpha" result="shadowOffsetOuter1"></feOffset>
	<feGaussianBlur  in="shadowOffsetOuter1" result="shadowBlurOuter1" stdDeviation="11"></feGaussianBlur>
	
		<feColorMatrix  in="shadowBlurOuter1" result="shadowMatrixOuter1" type="matrix" values="0 0 0 0 0.160784314   0 0 0 0 0.282352941   0 0 0 0 0.419607843  0 0 0 0.5 0">
		</feColorMatrix>
	<feMerge>
		<feMergeNode  in="shadowMatrixOuter1"></feMergeNode>
		<feMergeNode  in="SourceGraphic"></feMergeNode>
	</feMerge>
</filter>
<filter  filterUnits="objectBoundingBox" height="170.0%" id="filter-3" width="170.0%" x="-31.0%" y="-31.0%">
	<feOffset  dx="4" dy="4" in="SourceAlpha" result="shadowOffsetOuter1"></feOffset>
	<feGaussianBlur  in="shadowOffsetOuter1" result="shadowBlurOuter1" stdDeviation="11"></feGaussianBlur>
	
		<feColorMatrix  in="shadowBlurOuter1" result="shadowMatrixOuter1" type="matrix" values="0 0 0 0 0.160784314   0 0 0 0 0.282352941   0 0 0 0 0.419607843  0 0 0 0.5 0">
		</feColorMatrix>
	<feMerge>
		<feMergeNode  in="shadowMatrixOuter1"></feMergeNode>
		<feMergeNode  in="SourceGraphic"></feMergeNode>
	</feMerge>
</filter>
<filter  filterUnits="objectBoundingBox" height="170.0%" id="filter-2" width="170.0%" x="-31.0%" y="-31.0%">
	<feOffset  dx="4" dy="4" in="SourceAlpha" result="shadowOffsetOuter1"></feOffset>
	<feGaussianBlur  in="shadowOffsetOuter1" result="shadowBlurOuter1" stdDeviation="11"></feGaussianBlur>
	
		<feColorMatrix  in="shadowBlurOuter1" result="shadowMatrixOuter1" type="matrix" values="0 0 0 0 0.160784314   0 0 0 0 0.282352941   0 0 0 0 0.419607843  0 0 0 0.5 0">
		</feColorMatrix>
	<feMerge>
		<feMergeNode  in="shadowMatrixOuter1"></feMergeNode>
		<feMergeNode  in="SourceGraphic"></feMergeNode>
	</feMerge>
</filter>
<filter  filterUnits="objectBoundingBox" height="130.8%" id="filter-1" width="130.8%" x="-12.3%" y="-12.3%">
	<feOffset  dx="4" dy="4" in="SourceAlpha" result="shadowOffsetOuter1"></feOffset>
	<feGaussianBlur  in="shadowOffsetOuter1" result="shadowBlurOuter1" stdDeviation="6"></feGaussianBlur>
	
		<feColorMatrix  in="shadowBlurOuter1" result="shadowMatrixOuter1" type="matrix" values="0 0 0 0 0.160784314   0 0 0 0 0.282352941   0 0 0 0 0.419607843  0 0 0 0.5 0">
		</feColorMatrix>
	<feMerge>
		<feMergeNode  in="shadowMatrixOuter1"></feMergeNode>
		<feMergeNode  in="SourceGraphic"></feMergeNode>
	</feMerge>
</filter>
<title>household</title>
<desc>Created with Sketch.</desc>
<g id="household">
	<g id="Group" transform="translate(-31.000000, 39.000000)">
		<path id="Line-Copy-4" class="st0" d="M249,70h420"/>
		<circle id="Oval-2" class="st1" cx="739" cy="70" r="69"/>
		<g id="ic_man-copy" transform="translate(674.000000, 5.000000)" class="st2">
			<g id="Group-4_1_">
				<circle id="Oval_5_" class="st3" cx="65" cy="65" r="65"/>
				<path id="Combined-Shape_1_" class="st4" d="M32.6,35.3c0,1.9,0.3,3.9,1,5.8c-3.3,2.3-4.6,7.1-3.3,12.3c1,4.2,3.9,7.8,7.2,8.7
					C41.4,75,51.6,88.3,65.3,88.3S89.2,75,93.1,62.1c3.3-1.3,6.2-4.5,7.2-8.7c1.6-5.8-0.7-11.3-4.9-13.2c0.3-1.6,0.7-3.2,0.7-4.8
					C96.1,21.1,82,9.8,64.3,9.8S32.6,21.1,32.6,35.3z M85,28.5c2.6,3.9,4.3,8.4,5.2,13.6l0.3,2.3l2.3-0.3c0.3,0,0.7,0,1,0
					c0,0,0.3,0,0.3,0.3c2,1,2.9,4.2,2.3,7.8c-1,3.6-3.3,5.5-4.9,5.8l-1.6,0.3l-0.3,1.3c-3.3,12-12.4,24.2-23.9,24.2
					S45,71.8,41.8,59.5l-0.3-1.3l-1.6-0.3c-2-0.3-4.3-2.3-4.9-5.8c-0.7-2.6-0.3-4.8,0.7-6.5c0.3-0.6,1-1.3,2-1.6h0.3h0.3l2.3,0.3
					l0.3-2.3c0.7-4.5,2-8.4,3.9-12c3.6,4.2,11.1,6.8,19.6,6.8C73.8,37.2,82,33.7,85,28.5z M92.2,77.6c10.1,4.2,18,12,21.6,20
					c-10.5,15.5-28.5,25.9-48.8,25.9s-38.3-10-48.8-25.2c3.6-8.4,11.5-16.5,21.6-20.7c2.9,4.8,6.2,9,10.8,11.3
					c9.5,4.5,16.4,8.4,16.4,8.4s7.2-3.6,16.4-8.4C85.9,86.7,89.2,82.5,92.2,77.6z"/>
			</g>
		</g>
		<path id="Line-Copy-2" class="st0" d="M808,70h120"/>
		<path id="Line-Copy-3" class="st0" d="M739,170h240"/>
		<path id="Line-2-Copy-3" class="st0" d="M859,70v100"/>
		<path id="Line-2-Copy-6" class="st0" d="M249,70v130"/>
		<path id="Line-2-Copy-4" class="st0" d="M739,170v30"/>
		<path id="Line-2-Copy-5" class="st0" d="M979,170v30"/>
		<g id="ic_man-copy-16" transform="translate(199.000000, 200.000000)" class="st5">
			<g id="Group-3_1_">
				<circle id="Oval_5_" class="st3" cx="50" cy="50" r="50"/>
				<path id="Shape_11_" class="st6" d="M26.3,37.6c-1.2,1.8-1.7,4.5-1,7.3c0.2,1,0.7,2,1.2,3c1.2,11.1,5.5,14.8,11.2,16.3
					C41,67.7,45.2,70,50.2,70c4.7,0,8.9-2.5,12.4-6c1.5-0.5,3-1,4.2-2l0.2-0.3c2.7-2.3,4.5-6,5.5-12.3c1-1.3,2-2.8,2.2-4.5
					c0.7-3.5,0-6.8-2-8.5C71,24.3,61.3,15,49.7,15C37.3,15,27.3,25,26.3,37.6z M28.2,44.3c-0.5-2.6,0-5.1,1.2-5.9
					c0,3.3,0.4,6.7,1.1,10C29.5,47.8,28.6,46.6,28.2,44.3z M70,38.6c1.5,0.6,2.2,3.4,1.5,6.3c-0.2,1.7-1,2.9-1.8,3.7
					C70.5,46,70.5,42.3,70,38.6z M67.8,49.5c-1.8,5.9-5.7,11.7-10.6,14.7c-2.1,1.2-4.4,2-6.7,2c-2.3,0-4.6-0.7-6.7-2
					c-3.4-2-6.4-5.4-8.5-9.3c0.3-0.7,0.3-1.7,0.5-3.2c0.8-7.1,2.3-12.7,4.4-17.1c1.3-0.2,2.8-0.5,4.1-1c0.5,0.5,1,0.7,1.5,1.2
					c2.8,2,5.9,3.2,9,3.7C58.5,38.7,64.4,47.8,67.8,49.5z"/>
				<path id="Shape_10_" class="st6" d="M67.9,65c-2,3.2-4.2,6-7.2,7.5c-6,3.2-10.7,5.8-10.7,5.8s-4.5-2.5-10.7-5.8
					c-3-1.5-5.2-4.2-7.2-7.5c-7.4,3-13.1,9.5-14.6,15.8C25.7,89.5,37.1,95,50,95s24.3-5.5,32.5-14.2C80.8,74.2,75.3,68,67.9,65z"/>
			</g>
		</g>
		<g id="ic_man-copy-6" transform="translate(929.000000, 20.000000)" class="st7">
			<circle id="Oval_5_" class="st3" cx="50" cy="50" r="50"/>
			<path id="Shape_10_" class="st6" d="M74.1,66.1c0.3-0.5,0.3-1,0.5-1.7c0-0.5,0.3-1,0.3-1.7c0.8-4.7,1.3-12.1,1.3-23.5
				c0-17.5-11.7-31.6-26.2-31.6c-5.3,0-10.2,2-14.3,5.2c-0.8,0.5-1.3,1-1.8,1.7c-6.1,5.7-9.9,14.8-9.9,25c0,11.9,0.5,19.5,1.3,24.2
				c0,0.5,0.3,1.2,0.3,1.7c0.3,0.5,0.3,1.2,0.5,1.7c-5.1,3.2-9.2,7.7-10.9,12.1C23.4,88.8,35.9,95,49.9,95S76.6,88.8,85,79.2
				C83.2,74,79.1,69.3,74.1,66.1z M61.1,71.8C55,75,50.6,77.5,50.1,77.5c-2-0.2-11.5-5.7-11.5-5.7c-2.3-1.2-3.8-2-6.6-4.4
				c0.3-0.5,1.5-2.2,2-2.7c0.3-0.5,0.8-0.7,1-1.2c1.5-2,3.3-4.2,4.8-5.9c2.8,2.2,6.1,3.7,9.7,3.7s6.6-1.5,9.7-3.7
				c2.3,2.5,4.3,5.2,6.1,7.4c0.3,0.5,0.8,1,1,1.2c0.3,0.5,0.8,0.7,1,1.2C66.2,69.3,62.9,70.8,61.1,71.8z M71.5,34.9
				c-0.5,2.5-2.3,3.7-3.6,4l-1,0.2l-0.3,1C64.9,46.1,61.6,52,57,55.5c-2.3,1.7-4.8,3-7.4,3c-2.5,0-5.1-1-7.4-3
				c-4.3-3.5-7.9-9.4-9.7-15.3l-0.3-1l-1-0.2c-1.3-0.2-3.1-1.5-3.6-4c-0.5-1.5-0.3-3.2,0.5-4.4c0.3-0.5,0.8-1,1.3-1h0.3H30l1.5,0.2
				l0.3-1.5c0.3-1.2,0.5-2.5,0.8-3.5c1.8,5.9,7.1,5.4,14.8,6.2c2.3,0.2,5.3,0.5,6.9,0.5c0.3-4.7-5.3-9.9-5.3-9.9s0,0,0.8,0
				c0.8,0,2.5,0.7,3.1,1c6.1,3.2,7.1,8.2,7.4,8.2c3.1-0.7,5.3-2.5,6.4-5.2c0.3,1,0.5,1.7,0.5,2.7l0.3,1.5l1.5-0.2c0.3,0,0.5,0,0.5,0
				c0.8,0.2,1,0.7,1.3,1C71.8,31.7,72,33.2,71.5,34.9z"/>
		</g>
		<g id="ic_man-copy-7" transform="translate(689.000000, 200.000000)" class="st8">
			<circle id="Oval_5_" class="st3" cx="50" cy="50" r="50"/>
			<path id="Shape_11_" class="st6" d="M26.3,37.6c-1.2,1.8-1.7,4.5-1,7.3c0.2,1,0.7,2,1.2,3c1.2,11.1,5.5,14.8,11.2,16.3
				C41,67.7,45.2,70,50.2,70c4.7,0,8.9-2.5,12.4-6c1.5-0.5,3-1,4.2-2l0.2-0.3c2.7-2.3,4.5-6,5.5-12.3c1-1.3,2-2.8,2.2-4.5
				c0.7-3.5,0-6.8-2-8.5C71,24.3,61.3,15,49.7,15C37.3,15,27.3,25,26.3,37.6z M28.2,44.3c-0.5-2.6,0-5.1,1.2-5.9
				c0,3.3,0.4,6.7,1.1,10C29.5,47.8,28.6,46.6,28.2,44.3z M70,38.6c1.5,0.6,2.2,3.4,1.5,6.3c-0.2,1.7-1,2.9-1.8,3.7
				C70.5,46,70.5,42.3,70,38.6z M67.8,49.5c-1.8,5.9-5.7,11.7-10.6,14.7c-2.1,1.2-4.4,2-6.7,2c-2.3,0-4.6-0.7-6.7-2
				c-3.4-2-6.4-5.4-8.5-9.3c0.3-0.7,0.3-1.7,0.5-3.2c0.8-7.1,2.3-12.7,4.4-17.1c1.3-0.2,2.8-0.5,4.1-1c0.5,0.5,1,0.7,1.5,1.2
				c2.8,2,5.9,3.2,9,3.7C58.5,38.7,64.4,47.8,67.8,49.5z"/>
			<path id="Shape_10_" class="st6" d="M67.9,65c-2,3.2-4.2,6-7.2,7.5c-6,3.2-10.7,5.8-10.7,5.8s-4.5-2.5-10.7-5.8
				c-3-1.5-5.2-4.2-7.2-7.5c-7.4,3-13.1,9.5-14.6,15.8C25.7,89.5,37.1,95,50,95s24.3-5.5,32.5-14.2C80.8,74.2,75.3,68,67.9,65z"/>
		</g>
		<g id="ic_man-copy-8" transform="translate(929.000000, 200.000000)" class="st9">
			<circle id="Oval_5_" class="st3" cx="50" cy="50" r="50"/>
			<path id="Shape_11_" class="st6" d="M69.6,70.2C67.4,74,65.2,77,62,78.8c-6.7,3.5-12.1,6-12.1,6l-11.6-6c-3.2-1.8-6.2-5-8.4-8.8
				c-5.4,2.2-9.6,6-12.4,10.5c8.2,9,19.8,14.5,32.6,14.5s24.5-5.5,32.4-14.2C79.5,76.5,75.1,72.5,69.6,70.2z"/>
			<path id="Shape_10_" class="st6" d="M42.2,42.7c-1.3,0.5-2.5,0.8-3.5,1.3c-1,0.5-2,1-3,1.5c-0.5,0.3-0.8,0.5-1.3,0.8
				c-0.3,0.3-0.8,0.5-1,0.8c-0.8,0.5-1.3,1-1.5,1.5c-0.8,1-1.3,1.5-1.3,1.5s0.5-0.3,1.8-0.8c0.5-0.3,1.3-0.5,1.8-1
				c0.8-0.3,1.5-0.8,2.5-1c1-0.3,2-0.8,3-1c1-0.3,2.3-0.5,3.3-0.8c1.3-0.3,2.5-0.3,3.5-0.5c1.3-0.3,2.5,0,3.8,0c1.3,0,2.5,0,3.8,0.3
				c1.3,0,2.5,0.3,3.5,0.5c1,0.3,2.3,0.5,3.3,0.8c1,0.3,2,0.8,3,1c1,0.3,1.8,0.8,2.5,1c0.8,0.3,1.5,0.5,1.8,1c1,0.5,1.8,0.8,1.8,0.8
				s-0.5-0.5-1.3-1.5c-0.3-0.5-0.8-1-1.5-1.5c-0.3-0.3-0.8-0.5-1-0.8C66,46.2,65.5,46,65,45.7c-0.5-0.3-0.8-0.5-1.3-1
				c-0.5-0.3-1-0.5-1.5-0.8c-1-0.5-2.3-1-3.5-1.5c-1.3-0.3-2.5-0.8-4.1-1c-1.3-0.3-2.8-0.3-4.3-0.5c-1.5,0-2.8,0-4.3,0.3
				C44.7,41.9,43.4,42.4,42.2,42.7z M46.7,18.8c0,0.3,0,0.5,0,0.8c-9.6,1.5-16.7,9.1-19,20.3h-0.3c-1.5,0.3-2.8,1.3-3.8,2.8
				c-1.3,2-1.5,4.8-0.8,7.6c0.8,3.3,3,6.1,5.6,6.9c3,9.9,10.9,20.3,21.5,20.3s18.5-10.4,21.5-20.3c2.5-1,4.8-3.6,5.6-6.9
				c0.8-2.8,0.3-5.6-0.8-7.6c-0.8-1.5-2.3-2.5-3.8-2.8h-0.3c-2-10.9-9.4-18.8-19-20.3c0-0.3,0-0.5,0-0.8c0-2-1.8-3.8-3.8-3.8
				C48.5,15.3,46.7,16.8,46.7,18.8z M70,43.5l1.5-0.3c0.3,0,0.5,0,0.8,0c0.8,0.3,1.3,0.8,1.5,1.3c0.8,1.3,1,3,0.5,4.8
				c-0.8,2.8-2.5,4.3-3.8,4.6l-1.3,0.3l-0.3,1c-2.5,9.4-9.6,18.8-18.5,18.8s-16-9.4-18.5-18.8l-0.3-1l-1.3-0.3
				c-1.5-0.3-3.3-1.8-3.8-4.6c-0.5-1.8-0.3-3.6,0.5-4.8c0.3-0.5,0.8-1,1.5-1.3c0,0,0.3,0,0.5,0h0.3h0.8l1-0.8
				C49.3,30.8,67.8,42.2,70,43.5z"/>
		</g>
		<g class="st10">
			<path class="st4" d="M1057.2,30.5l1.3,0.3c-0.3,1.1-0.8,1.9-1.5,2.5c-0.7,0.6-1.6,0.9-2.6,0.9c-1.1,0-2-0.2-2.6-0.7
				c-0.7-0.4-1.2-1.1-1.5-1.9c-0.4-0.8-0.5-1.7-0.5-2.7c0-1,0.2-2,0.6-2.7c0.4-0.8,1-1.4,1.7-1.8c0.7-0.4,1.5-0.6,2.4-0.6
				c1,0,1.8,0.3,2.5,0.8s1.2,1.2,1.4,2.2l-1.3,0.3c-0.2-0.7-0.6-1.3-1-1.6s-1-0.5-1.7-0.5c-0.8,0-1.4,0.2-1.9,0.6
				c-0.5,0.4-0.9,0.9-1.1,1.5c-0.2,0.6-0.3,1.3-0.3,1.9c0,0.9,0.1,1.6,0.4,2.2c0.2,0.6,0.6,1.1,1.2,1.4s1.1,0.5,1.7,0.5
				c0.7,0,1.4-0.2,1.9-0.6S1057,31.3,1057.2,30.5z"/>
			<path class="st4" d="M1059.8,36.8l-0.1-1.2c0.3,0.1,0.5,0.1,0.7,0.1c0.3,0,0.5,0,0.7-0.1s0.3-0.2,0.4-0.4
				c0.1-0.1,0.2-0.4,0.4-0.9c0-0.1,0.1-0.2,0.1-0.3l-2.8-7.3h1.3l1.5,4.2c0.2,0.5,0.4,1.1,0.5,1.7c0.1-0.6,0.3-1.1,0.5-1.7l1.6-4.2
				h1.2l-2.8,7.4c-0.3,0.8-0.5,1.3-0.7,1.6c-0.2,0.4-0.5,0.7-0.8,0.9c-0.3,0.2-0.6,0.3-1,0.3C1060.3,36.9,1060.1,36.9,1059.8,36.8z"
				/>
			<path class="st4" d="M1066.6,26.7h5.7V34h-1.2v-6.2h-3.3V34h-1.2V26.7z"/>
			<path class="st4" d="M1074,36.8v-10h1.1v0.9c0.3-0.4,0.6-0.6,0.9-0.8c0.3-0.2,0.7-0.3,1.2-0.3c0.6,0,1.2,0.2,1.6,0.5
				s0.8,0.8,1.1,1.3c0.2,0.6,0.4,1.2,0.4,1.9c0,0.7-0.1,1.4-0.4,2c-0.3,0.6-0.7,1-1.2,1.4c-0.5,0.3-1,0.5-1.6,0.5
				c-0.4,0-0.8-0.1-1.1-0.3c-0.3-0.2-0.6-0.4-0.8-0.7v3.5H1074z M1075.1,30.4c0,0.9,0.2,1.6,0.6,2.1s0.8,0.7,1.4,0.7
				c0.5,0,1-0.2,1.4-0.7c0.4-0.5,0.6-1.2,0.6-2.2c0-0.9-0.2-1.6-0.6-2.1c-0.4-0.5-0.8-0.7-1.4-0.7c-0.5,0-1,0.2-1.4,0.7
				C1075.3,28.8,1075.1,29.5,1075.1,30.4z"/>
			<path class="st4" d="M1081.3,36.8l-0.1-1.2c0.3,0.1,0.5,0.1,0.7,0.1c0.3,0,0.5,0,0.7-0.1s0.3-0.2,0.4-0.4
				c0.1-0.1,0.2-0.4,0.4-0.9c0-0.1,0.1-0.2,0.1-0.3l-2.8-7.3h1.3l1.5,4.2c0.2,0.5,0.4,1.1,0.5,1.7c0.1-0.6,0.3-1.1,0.5-1.7l1.6-4.2
				h1.2l-2.8,7.4c-0.3,0.8-0.5,1.3-0.7,1.6c-0.2,0.4-0.5,0.7-0.8,0.9c-0.3,0.2-0.6,0.3-1,0.3C1081.9,36.9,1081.6,36.9,1081.3,36.8z"
				/>
			<path class="st4" d="M1088.2,26.7h4.2v1h-2.9V34h-1.2V26.7z"/>
			<path class="st4" d="M1097.5,33.1c-0.5,0.4-0.9,0.7-1.3,0.8c-0.4,0.2-0.9,0.2-1.4,0.2c-0.8,0-1.4-0.2-1.8-0.6
				c-0.4-0.4-0.6-0.9-0.6-1.5c0-0.4,0.1-0.7,0.2-1c0.2-0.3,0.4-0.5,0.6-0.7c0.3-0.2,0.6-0.3,0.9-0.4c0.2-0.1,0.6-0.1,1.1-0.2
				c1-0.1,1.7-0.3,2.2-0.4c0-0.2,0-0.3,0-0.3c0-0.5-0.1-0.9-0.3-1.1c-0.3-0.3-0.8-0.4-1.4-0.4c-0.6,0-1,0.1-1.3,0.3
				c-0.3,0.2-0.5,0.6-0.6,1.1l-1.2-0.2c0.1-0.5,0.3-0.9,0.5-1.2c0.2-0.3,0.6-0.6,1.1-0.7c0.5-0.2,1-0.3,1.6-0.3
				c0.6,0,1.1,0.1,1.5,0.2s0.7,0.3,0.9,0.6c0.2,0.2,0.3,0.5,0.4,0.8c0,0.2,0.1,0.6,0.1,1.1V31c0,1.1,0,1.9,0.1,2.2
				c0.1,0.3,0.2,0.6,0.3,0.9h-1.3C1097.6,33.7,1097.6,33.4,1097.5,33.1z M1097.4,30.4c-0.4,0.2-1.1,0.3-2,0.5
				c-0.5,0.1-0.9,0.2-1.1,0.2s-0.4,0.2-0.5,0.4c-0.1,0.2-0.2,0.4-0.2,0.6c0,0.3,0.1,0.6,0.4,0.8c0.2,0.2,0.6,0.3,1.1,0.3
				c0.5,0,0.9-0.1,1.3-0.3c0.4-0.2,0.6-0.5,0.8-0.9c0.1-0.3,0.2-0.7,0.2-1.2V30.4z"/>
		</g>
		<g class="st10">
			<path d="M1057.2,47.5l1.3,0.3c-0.3,1.1-0.8,1.9-1.5,2.5c-0.7,0.6-1.6,0.9-2.6,0.9c-1.1,0-2-0.2-2.6-0.7c-0.7-0.4-1.2-1.1-1.5-1.9
				c-0.4-0.8-0.5-1.7-0.5-2.7c0-1,0.2-2,0.6-2.7c0.4-0.8,1-1.4,1.7-1.8c0.7-0.4,1.5-0.6,2.4-0.6c1,0,1.8,0.3,2.5,0.8
				s1.2,1.2,1.4,2.2l-1.3,0.3c-0.2-0.7-0.6-1.3-1-1.6s-1-0.5-1.7-0.5c-0.8,0-1.4,0.2-1.9,0.6c-0.5,0.4-0.9,0.9-1.1,1.5
				c-0.2,0.6-0.3,1.3-0.3,1.9c0,0.9,0.1,1.6,0.4,2.2c0.2,0.6,0.6,1.1,1.2,1.4s1.1,0.5,1.7,0.5c0.7,0,1.4-0.2,1.9-0.6
				S1057,48.3,1057.2,47.5z"/>
			<path d="M1064.7,50.1c-0.5,0.4-0.9,0.7-1.3,0.8c-0.4,0.2-0.9,0.2-1.4,0.2c-0.8,0-1.4-0.2-1.8-0.6c-0.4-0.4-0.6-0.9-0.6-1.5
				c0-0.4,0.1-0.7,0.2-1c0.2-0.3,0.4-0.5,0.6-0.7c0.3-0.2,0.6-0.3,0.9-0.4c0.2-0.1,0.6-0.1,1.1-0.2c1-0.1,1.7-0.3,2.2-0.4
				c0-0.2,0-0.3,0-0.3c0-0.5-0.1-0.9-0.3-1.1c-0.3-0.3-0.8-0.4-1.4-0.4c-0.6,0-1,0.1-1.3,0.3c-0.3,0.2-0.5,0.6-0.6,1.1l-1.2-0.2
				c0.1-0.5,0.3-0.9,0.5-1.2c0.3-0.3,0.6-0.6,1.1-0.7c0.5-0.2,1-0.3,1.6-0.3c0.6,0,1.1,0.1,1.5,0.2s0.7,0.3,0.9,0.6
				c0.2,0.2,0.3,0.5,0.4,0.8c0,0.2,0.1,0.6,0.1,1.1V48c0,1.1,0,1.9,0.1,2.2c0.1,0.3,0.2,0.6,0.3,0.9h-1.3
				C1064.8,50.7,1064.8,50.4,1064.7,50.1z M1064.6,47.4c-0.4,0.2-1.1,0.3-2,0.5c-0.5,0.1-0.9,0.2-1.1,0.2s-0.4,0.2-0.5,0.4
				c-0.1,0.2-0.2,0.4-0.2,0.6c0,0.3,0.1,0.6,0.4,0.8c0.2,0.2,0.6,0.3,1.1,0.3c0.5,0,0.9-0.1,1.3-0.3c0.4-0.2,0.6-0.5,0.8-0.9
				c0.1-0.3,0.2-0.7,0.2-1.2V47.4z"/>
			<path d="M1068.2,43.7h5.7V51h-1.2v-6.2h-3.3v3.6c0,0.8,0,1.4-0.1,1.7s-0.2,0.5-0.5,0.7s-0.6,0.3-1.1,0.3c-0.3,0-0.6,0-1-0.1v-1
				h0.5c0.3,0,0.4,0,0.5-0.1c0.1-0.1,0.2-0.1,0.2-0.2s0.1-0.5,0.1-1.1V43.7z"/>
			<path d="M1074.9,43.7h5.9v1h-2.3V51h-1.2v-6.2h-2.3V43.7z"/>
			<path d="M1081.7,43.7h1.2v2.8h1.6c1,0,1.8,0.2,2.3,0.6c0.5,0.4,0.8,0.9,0.8,1.6c0,0.6-0.2,1.1-0.7,1.6c-0.5,0.4-1.2,0.6-2.2,0.6
				h-3.1V43.7z M1083,50h1.3c0.8,0,1.3-0.1,1.7-0.3s0.5-0.5,0.5-0.9c0-0.3-0.1-0.6-0.4-0.8s-0.8-0.4-1.6-0.4h-1.5V50z M1088.6,43.7
				h1.2V51h-1.2V43.7z"/>
			<path d="M1091.6,43.7h1.2v3.1c0.4,0,0.7-0.1,0.8-0.2c0.2-0.2,0.4-0.6,0.7-1.3c0.2-0.6,0.4-1,0.6-1.1s0.3-0.3,0.5-0.4
				s0.5-0.1,0.9-0.1h0.2v1l-0.3,0c-0.3,0-0.5,0-0.6,0.1c-0.1,0.1-0.2,0.4-0.4,0.9c-0.2,0.5-0.4,0.8-0.5,1s-0.4,0.3-0.7,0.5
				c0.5,0.1,1,0.6,1.6,1.5l1.3,2.2h-1.4l-1.3-2.2c-0.3-0.5-0.5-0.7-0.7-0.9c-0.2-0.1-0.4-0.2-0.7-0.2V51h-1.2V43.7z"/>
			<path d="M1097.2,47.4c0-1.3,0.4-2.3,1.1-3c0.6-0.5,1.4-0.8,2.3-0.8c1,0,1.8,0.3,2.4,1c0.6,0.7,1,1.6,1,2.7c0,0.9-0.1,1.7-0.4,2.2
				c-0.3,0.5-0.7,1-1.2,1.2c-0.5,0.3-1.1,0.4-1.8,0.4c-1,0-1.8-0.3-2.5-1C1097.5,49.5,1097.2,48.6,1097.2,47.4z M1098.4,47.4
				c0,0.9,0.2,1.6,0.6,2.1c0.4,0.5,0.9,0.7,1.5,0.7c0.6,0,1.1-0.2,1.5-0.7s0.6-1.2,0.6-2.1c0-0.9-0.2-1.6-0.6-2
				c-0.4-0.5-0.9-0.7-1.5-0.7c-0.6,0-1.1,0.2-1.5,0.7S1098.4,46.4,1098.4,47.4z"/>
			<path d="M1105.2,43.7h2.8c0.7,0,1.2,0.1,1.6,0.2c0.3,0.1,0.6,0.3,0.9,0.6s0.4,0.7,0.4,1.1c0,0.3-0.1,0.6-0.2,0.9
				c-0.1,0.3-0.4,0.5-0.6,0.6c0.3,0.1,0.6,0.3,0.9,0.6c0.2,0.3,0.3,0.7,0.3,1.1c0,0.7-0.3,1.2-0.7,1.5c-0.4,0.3-1.1,0.5-1.9,0.5
				h-3.3V43.7z M1106.5,46.8h1.3c0.5,0,0.9,0,1.1-0.1c0.2-0.1,0.4-0.2,0.5-0.3c0.2-0.2,0.2-0.4,0.2-0.6c0-0.4-0.1-0.6-0.4-0.8
				s-0.7-0.2-1.4-0.2h-1.4V46.8z M1106.5,50h1.6c0.7,0,1.2-0.1,1.4-0.2c0.3-0.2,0.4-0.4,0.4-0.8c0-0.2-0.1-0.4-0.2-0.6
				c-0.2-0.2-0.3-0.3-0.6-0.4c-0.2-0.1-0.6-0.1-1.2-0.1h-1.5V50z"/>
			<path d="M1117,50.1c-0.5,0.4-0.9,0.7-1.3,0.8s-0.9,0.2-1.4,0.2c-0.8,0-1.4-0.2-1.8-0.6c-0.4-0.4-0.6-0.9-0.6-1.5
				c0-0.4,0.1-0.7,0.2-1c0.2-0.3,0.4-0.5,0.6-0.7s0.6-0.3,0.9-0.4c0.2-0.1,0.6-0.1,1.1-0.2c1-0.1,1.7-0.3,2.2-0.4c0-0.2,0-0.3,0-0.3
				c0-0.5-0.1-0.9-0.3-1.1c-0.3-0.3-0.8-0.4-1.4-0.4c-0.6,0-1,0.1-1.3,0.3c-0.3,0.2-0.5,0.6-0.6,1.1l-1.2-0.2
				c0.1-0.5,0.3-0.9,0.5-1.2c0.3-0.3,0.6-0.6,1.1-0.7c0.5-0.2,1-0.3,1.6-0.3c0.6,0,1.1,0.1,1.5,0.2c0.4,0.1,0.7,0.3,0.9,0.6
				c0.2,0.2,0.3,0.5,0.4,0.8c0,0.2,0.1,0.6,0.1,1.1V48c0,1.1,0,1.9,0.1,2.2c0.1,0.3,0.2,0.6,0.3,0.9h-1.3
				C1117.1,50.7,1117.1,50.4,1117,50.1z M1116.9,47.4c-0.4,0.2-1.1,0.3-2,0.5c-0.5,0.1-0.9,0.2-1.1,0.2c-0.2,0.1-0.4,0.2-0.5,0.4
				c-0.1,0.2-0.2,0.4-0.2,0.6c0,0.3,0.1,0.6,0.4,0.8s0.6,0.3,1.1,0.3c0.5,0,0.9-0.1,1.3-0.3c0.4-0.2,0.6-0.5,0.8-0.9
				c0.1-0.3,0.2-0.7,0.2-1.2V47.4z"/>
			<path d="M1119.4,48v-1.2h3.8V48H1119.4z"/>
			<path d="M1124.5,41h1.3v8.8h3.3V41h1.3v8.8h3.3V41h1.3v8.8h0.9v4h-1.2V51h-10.4V41z"/>
			<path d="M1142.2,48.7l1.3,0.2c-0.2,0.7-0.6,1.3-1.1,1.7c-0.5,0.4-1.2,0.6-2.1,0.6c-1.1,0-1.9-0.3-2.5-1c-0.6-0.7-0.9-1.6-0.9-2.8
				c0-1.2,0.3-2.2,0.9-2.8s1.4-1,2.4-1c1,0,1.8,0.3,2.4,1s0.9,1.6,0.9,2.8c0,0.1,0,0.2,0,0.3h-5.4c0,0.8,0.3,1.4,0.7,1.8
				c0.4,0.4,0.9,0.6,1.5,0.6c0.5,0,0.8-0.1,1.2-0.4C1141.8,49.6,1142,49.2,1142.2,48.7z M1138.2,46.7h4.1c-0.1-0.6-0.2-1.1-0.5-1.4
				c-0.4-0.5-0.9-0.7-1.5-0.7c-0.6,0-1,0.2-1.4,0.6S1138.2,46,1138.2,46.7z"/>
			<path d="M1145.5,43.7h5.1V50h0.8v3.1h-1V51h-5.7v2.1h-1V50h0.6C1145.1,48.8,1145.5,46.7,1145.5,43.7z M1146.5,44.8
				c-0.1,2.4-0.5,4.1-1.1,5.2h3.9v-5.2H1146.5z"/>
			<path d="M1152.5,53.8v-10h1.1v0.9c0.3-0.4,0.6-0.6,0.9-0.8c0.3-0.2,0.7-0.3,1.2-0.3c0.6,0,1.2,0.2,1.6,0.5
				c0.5,0.3,0.8,0.8,1.1,1.3c0.2,0.6,0.4,1.2,0.4,1.9c0,0.7-0.1,1.4-0.4,2c-0.3,0.6-0.7,1-1.2,1.4c-0.5,0.3-1,0.5-1.6,0.5
				c-0.4,0-0.8-0.1-1.1-0.3s-0.6-0.4-0.8-0.7v3.5H1152.5z M1153.6,47.4c0,0.9,0.2,1.6,0.6,2.1c0.4,0.4,0.8,0.7,1.4,0.7
				c0.5,0,1-0.2,1.4-0.7c0.4-0.5,0.6-1.2,0.6-2.2c0-0.9-0.2-1.6-0.6-2.1s-0.8-0.7-1.4-0.7c-0.5,0-1,0.2-1.4,0.7
				C1153.8,45.8,1153.6,46.5,1153.6,47.4z"/>
			<path d="M1160,43.7h1.2v5.5l3.4-5.5h1.3V51h-1.2v-5.5l-3.4,5.5h-1.3V43.7z"/>
			<path d="M1167.7,43.7h1.2v3h3.4v-3h1.2V51h-1.2v-3.2h-3.4V51h-1.2V43.7z"/>
			<path d="M1179.9,50.1c-0.5,0.4-0.9,0.7-1.3,0.8s-0.9,0.2-1.4,0.2c-0.8,0-1.4-0.2-1.8-0.6c-0.4-0.4-0.6-0.9-0.6-1.5
				c0-0.4,0.1-0.7,0.2-1c0.2-0.3,0.4-0.5,0.6-0.7s0.6-0.3,0.9-0.4c0.2-0.1,0.6-0.1,1.1-0.2c1-0.1,1.7-0.3,2.2-0.4c0-0.2,0-0.3,0-0.3
				c0-0.5-0.1-0.9-0.3-1.1c-0.3-0.3-0.8-0.4-1.4-0.4c-0.6,0-1,0.1-1.3,0.3c-0.3,0.2-0.5,0.6-0.6,1.1l-1.2-0.2
				c0.1-0.5,0.3-0.9,0.5-1.2c0.3-0.3,0.6-0.6,1.1-0.7c0.5-0.2,1-0.3,1.6-0.3c0.6,0,1.1,0.1,1.5,0.2c0.4,0.1,0.7,0.3,0.9,0.6
				c0.2,0.2,0.3,0.5,0.4,0.8c0,0.2,0.1,0.6,0.1,1.1V48c0,1.1,0,1.9,0.1,2.2c0.1,0.3,0.2,0.6,0.3,0.9h-1.3
				C1180,50.7,1179.9,50.4,1179.9,50.1z M1179.8,47.4c-0.4,0.2-1.1,0.3-2,0.5c-0.5,0.1-0.9,0.2-1.1,0.2c-0.2,0.1-0.4,0.2-0.5,0.4
				c-0.1,0.2-0.2,0.4-0.2,0.6c0,0.3,0.1,0.6,0.4,0.8s0.6,0.3,1.1,0.3c0.5,0,0.9-0.1,1.3-0.3c0.4-0.2,0.6-0.5,0.8-0.9
				c0.1-0.3,0.2-0.7,0.2-1.2V47.4z"/>
		</g>
		<g class="st10">
			<path d="M1049,68l3.8-10h1.4l4.1,10h-1.5l-1.2-3h-4.2l-1.1,3H1049z M1051.9,63.9h3.4l-1-2.8c-0.3-0.8-0.6-1.5-0.7-2.1
				c-0.1,0.6-0.3,1.3-0.5,1.9L1051.9,63.9z"/>
			<path d="M1059.1,60.7h1.2v3h3.4v-3h1.2V68h-1.2v-3.2h-3.4V68h-1.2V60.7z"/>
			<path d="M1066.6,60.7h1.2v3h3.4v-3h1.2V68h-1.2v-3.2h-3.4V68h-1.2V60.7z"/>
			<path d="M1078.8,67.1c-0.5,0.4-0.9,0.7-1.3,0.8c-0.4,0.2-0.9,0.2-1.4,0.2c-0.8,0-1.4-0.2-1.8-0.6c-0.4-0.4-0.6-0.9-0.6-1.5
				c0-0.4,0.1-0.7,0.2-1c0.2-0.3,0.4-0.5,0.6-0.7c0.3-0.2,0.6-0.3,0.9-0.4c0.2-0.1,0.6-0.1,1.1-0.2c1-0.1,1.7-0.3,2.2-0.4
				c0-0.2,0-0.3,0-0.3c0-0.5-0.1-0.9-0.3-1.1c-0.3-0.3-0.8-0.4-1.4-0.4c-0.6,0-1,0.1-1.3,0.3c-0.3,0.2-0.5,0.6-0.6,1.1l-1.2-0.2
				c0.1-0.5,0.3-0.9,0.5-1.2c0.3-0.3,0.6-0.6,1.1-0.7c0.5-0.2,1-0.3,1.6-0.3c0.6,0,1.1,0.1,1.5,0.2s0.7,0.3,0.9,0.6
				c0.2,0.2,0.3,0.5,0.4,0.8c0,0.2,0.1,0.6,0.1,1.1V65c0,1.1,0,1.9,0.1,2.2c0.1,0.3,0.2,0.6,0.3,0.9h-1.3
				C1078.9,67.7,1078.9,67.4,1078.8,67.1z M1078.7,64.4c-0.4,0.2-1.1,0.3-2,0.5c-0.5,0.1-0.9,0.2-1.1,0.2s-0.4,0.2-0.5,0.4
				c-0.1,0.2-0.2,0.4-0.2,0.6c0,0.3,0.1,0.6,0.4,0.8c0.2,0.2,0.6,0.3,1.1,0.3c0.5,0,0.9-0.1,1.3-0.3c0.4-0.2,0.6-0.5,0.8-0.9
				c0.1-0.3,0.2-0.7,0.2-1.2V64.4z"/>
			<path d="M1085.5,58h1.3v4.4c0.6,0,1-0.1,1.3-0.4c0.2-0.2,0.6-0.8,0.9-1.7c0.3-0.7,0.5-1.1,0.7-1.4c0.2-0.3,0.4-0.5,0.8-0.7
				c0.3-0.2,0.7-0.3,1.1-0.3c0.5,0,0.8,0,0.8,0v1.1c0,0-0.1,0-0.3,0c-0.1,0-0.2,0-0.3,0c-0.4,0-0.7,0.1-0.9,0.3
				c-0.2,0.2-0.4,0.6-0.7,1.3c-0.3,0.8-0.6,1.4-0.9,1.6c-0.2,0.2-0.5,0.4-0.8,0.5c0.6,0.2,1.3,0.8,1.9,1.8l2.1,3.3h-1.6l-1.7-2.7
				c-0.5-0.8-0.8-1.3-1.2-1.5c-0.3-0.3-0.7-0.4-1.2-0.4V68h-1.3V58z"/>
			<path d="M1098,67.1c-0.5,0.4-0.9,0.7-1.3,0.8c-0.4,0.2-0.9,0.2-1.4,0.2c-0.8,0-1.4-0.2-1.8-0.6c-0.4-0.4-0.6-0.9-0.6-1.5
				c0-0.4,0.1-0.7,0.2-1c0.2-0.3,0.4-0.5,0.6-0.7c0.3-0.2,0.6-0.3,0.9-0.4c0.2-0.1,0.6-0.1,1.1-0.2c1-0.1,1.7-0.3,2.2-0.4
				c0-0.2,0-0.3,0-0.3c0-0.5-0.1-0.9-0.3-1.1c-0.3-0.3-0.8-0.4-1.4-0.4c-0.6,0-1,0.1-1.3,0.3c-0.3,0.2-0.5,0.6-0.6,1.1l-1.2-0.2
				c0.1-0.5,0.3-0.9,0.5-1.2c0.3-0.3,0.6-0.6,1.1-0.7c0.5-0.2,1-0.3,1.6-0.3c0.6,0,1.1,0.1,1.5,0.2s0.7,0.3,0.9,0.6
				c0.2,0.2,0.3,0.5,0.4,0.8c0,0.2,0.1,0.6,0.1,1.1V65c0,1.1,0,1.9,0.1,2.2c0.1,0.3,0.2,0.6,0.3,0.9h-1.3
				C1098.2,67.7,1098.1,67.4,1098,67.1z M1097.9,64.4c-0.4,0.2-1.1,0.3-2,0.5c-0.5,0.1-0.9,0.2-1.1,0.2s-0.4,0.2-0.5,0.4
				c-0.1,0.2-0.2,0.4-0.2,0.6c0,0.3,0.1,0.6,0.4,0.8c0.2,0.2,0.6,0.3,1.1,0.3c0.5,0,0.9-0.1,1.3-0.3c0.4-0.2,0.6-0.5,0.8-0.9
				c0.1-0.3,0.2-0.7,0.2-1.2V64.4z"/>
			<path d="M1100.9,70.8v-10h1.1v0.9c0.3-0.4,0.6-0.6,0.9-0.8c0.3-0.2,0.7-0.3,1.2-0.3c0.6,0,1.2,0.2,1.6,0.5
				c0.5,0.3,0.8,0.8,1.1,1.3c0.2,0.6,0.4,1.2,0.4,1.9c0,0.7-0.1,1.4-0.4,2c-0.3,0.6-0.7,1-1.2,1.4c-0.5,0.3-1,0.5-1.6,0.5
				c-0.4,0-0.8-0.1-1.1-0.3s-0.6-0.4-0.8-0.7v3.5H1100.9z M1102,64.4c0,0.9,0.2,1.6,0.6,2.1c0.4,0.4,0.8,0.7,1.4,0.7
				c0.5,0,1-0.2,1.4-0.7c0.4-0.5,0.6-1.2,0.6-2.2c0-0.9-0.2-1.6-0.6-2.1s-0.8-0.7-1.4-0.7c-0.5,0-1,0.2-1.4,0.7
				C1102.2,62.8,1102,63.5,1102,64.4z"/>
			<path d="M1113.4,65.7l1.3,0.2c-0.2,0.7-0.6,1.3-1.1,1.7c-0.5,0.4-1.2,0.6-2.1,0.6c-1.1,0-1.9-0.3-2.5-1c-0.6-0.7-0.9-1.6-0.9-2.8
				c0-1.2,0.3-2.2,0.9-2.8s1.4-1,2.4-1c1,0,1.8,0.3,2.4,1s0.9,1.6,0.9,2.8c0,0.1,0,0.2,0,0.3h-5.4c0,0.8,0.3,1.4,0.7,1.8
				c0.4,0.4,0.9,0.6,1.5,0.6c0.5,0,0.8-0.1,1.2-0.4C1113,66.6,1113.2,66.2,1113.4,65.7z M1109.4,63.7h4.1c-0.1-0.6-0.2-1.1-0.5-1.4
				c-0.4-0.5-0.9-0.7-1.5-0.7c-0.6,0-1,0.2-1.4,0.6S1109.4,63,1109.4,63.7z"/>
			<path d="M1116,60.7h1.2v3h3.4v-3h1.2V68h-1.2v-3.2h-3.4V68h-1.2V60.7z"/>
			<path d="M1123.1,64.4c0-1.3,0.4-2.3,1.1-3c0.6-0.5,1.4-0.8,2.3-0.8c1,0,1.8,0.3,2.4,1c0.6,0.7,1,1.6,1,2.7c0,0.9-0.1,1.7-0.4,2.2
				c-0.3,0.5-0.7,1-1.2,1.2s-1.1,0.4-1.8,0.4c-1,0-1.8-0.3-2.5-1S1123.1,65.6,1123.1,64.4z M1124.4,64.4c0,0.9,0.2,1.6,0.6,2.1
				c0.4,0.5,0.9,0.7,1.5,0.7c0.6,0,1.1-0.2,1.5-0.7c0.4-0.5,0.6-1.2,0.6-2.1c0-0.9-0.2-1.6-0.6-2c-0.4-0.5-0.9-0.7-1.5-0.7
				c-0.6,0-1.1,0.2-1.5,0.7C1124.6,62.7,1124.4,63.4,1124.4,64.4z"/>
			<path d="M1131.1,60.7h2.8c0.7,0,1.2,0.1,1.6,0.2c0.3,0.1,0.6,0.3,0.9,0.6s0.4,0.7,0.4,1.1c0,0.3-0.1,0.6-0.2,0.9
				c-0.1,0.3-0.4,0.5-0.6,0.6c0.3,0.1,0.6,0.3,0.9,0.6c0.2,0.3,0.3,0.7,0.3,1.1c0,0.7-0.3,1.2-0.7,1.5c-0.4,0.3-1.1,0.5-1.9,0.5
				h-3.3V60.7z M1132.4,63.8h1.3c0.5,0,0.9,0,1.1-0.1c0.2-0.1,0.4-0.2,0.5-0.3c0.2-0.2,0.2-0.4,0.2-0.6c0-0.4-0.1-0.6-0.4-0.8
				s-0.7-0.2-1.4-0.2h-1.4V63.8z M1132.4,67h1.6c0.7,0,1.2-0.1,1.4-0.2c0.3-0.2,0.4-0.4,0.4-0.8c0-0.2-0.1-0.4-0.2-0.6
				c-0.2-0.2-0.3-0.3-0.6-0.4c-0.2-0.1-0.6-0.1-1.2-0.1h-1.5V67z"/>
			<path d="M1138.4,60.7h1.2v3h3.4v-3h1.2V68h-1.2v-3.2h-3.4V68h-1.2V60.7z"/>
			<path d="M1150.6,67.1c-0.5,0.4-0.9,0.7-1.3,0.8s-0.9,0.2-1.4,0.2c-0.8,0-1.4-0.2-1.8-0.6c-0.4-0.4-0.6-0.9-0.6-1.5
				c0-0.4,0.1-0.7,0.2-1c0.2-0.3,0.4-0.5,0.6-0.7s0.6-0.3,0.9-0.4c0.2-0.1,0.6-0.1,1.1-0.2c1-0.1,1.7-0.3,2.2-0.4c0-0.2,0-0.3,0-0.3
				c0-0.5-0.1-0.9-0.3-1.1c-0.3-0.3-0.8-0.4-1.4-0.4c-0.6,0-1,0.1-1.3,0.3c-0.3,0.2-0.5,0.6-0.6,1.1l-1.2-0.2
				c0.1-0.5,0.3-0.9,0.5-1.2c0.2-0.3,0.6-0.6,1.1-0.7c0.5-0.2,1-0.3,1.6-0.3c0.6,0,1.1,0.1,1.5,0.2c0.4,0.1,0.7,0.3,0.9,0.6
				c0.2,0.2,0.3,0.5,0.4,0.8c0,0.2,0.1,0.6,0.1,1.1V65c0,1.1,0,1.9,0.1,2.2c0.1,0.3,0.2,0.6,0.3,0.9h-1.3
				C1150.7,67.7,1150.6,67.4,1150.6,67.1z M1150.5,64.4c-0.4,0.2-1.1,0.3-2,0.5c-0.5,0.1-0.9,0.2-1.1,0.2c-0.2,0.1-0.4,0.2-0.5,0.4
				c-0.1,0.2-0.2,0.4-0.2,0.6c0,0.3,0.1,0.6,0.4,0.8s0.6,0.3,1.1,0.3c0.5,0,0.9-0.1,1.3-0.3c0.4-0.2,0.6-0.5,0.8-0.9
				c0.1-0.3,0.2-0.7,0.2-1.2V64.4z"/>
		</g>
		<g class="st10">
			<path d="M1056,83.8V85h-6.6c0-0.3,0-0.6,0.1-0.9c0.2-0.5,0.4-0.9,0.8-1.3c0.4-0.4,0.9-0.9,1.6-1.5c1.1-0.9,1.8-1.6,2.2-2.1
				c0.4-0.5,0.6-1,0.6-1.5c0-0.5-0.2-0.9-0.5-1.2c-0.3-0.3-0.8-0.5-1.4-0.5c-0.6,0-1.1,0.2-1.4,0.5s-0.5,0.8-0.5,1.5l-1.3-0.1
				c0.1-0.9,0.4-1.7,1-2.2c0.6-0.5,1.3-0.7,2.3-0.7c1,0,1.7,0.3,2.3,0.8s0.8,1.2,0.8,2c0,0.4-0.1,0.8-0.2,1.2s-0.4,0.8-0.8,1.2
				c-0.4,0.4-1,1-1.9,1.8c-0.7,0.6-1.2,1-1.4,1.3c-0.2,0.2-0.4,0.4-0.5,0.7H1056z"/>
			<path d="M1057.2,82.4l1.3-0.1c0.1,0.6,0.3,1.1,0.7,1.4c0.3,0.3,0.8,0.5,1.3,0.5c0.6,0,1.1-0.2,1.5-0.7s0.6-1,0.6-1.8
				c0-0.7-0.2-1.3-0.6-1.7c-0.4-0.4-0.9-0.6-1.5-0.6c-0.4,0-0.8,0.1-1.1,0.3c-0.3,0.2-0.6,0.4-0.8,0.7l-1.2-0.2l1-5.1h5v1.2h-4
				l-0.5,2.7c0.6-0.4,1.2-0.6,1.9-0.6c0.9,0,1.6,0.3,2.2,0.9s0.9,1.4,0.9,2.3c0,0.9-0.3,1.7-0.8,2.4c-0.6,0.8-1.5,1.2-2.6,1.2
				c-0.9,0-1.7-0.3-2.2-0.8C1057.6,83.9,1057.2,83.2,1057.2,82.4z"/>
			<path d="M1065.4,85v-1.4h1.4V85H1065.4z"/>
			<path d="M1073,85h-1.2v-7.8c-0.3,0.3-0.7,0.6-1.2,0.8c-0.5,0.3-0.9,0.5-1.3,0.6v-1.2c0.7-0.3,1.3-0.7,1.8-1.2s0.9-0.9,1.1-1.3
				h0.8V85z"/>
			<path d="M1079.6,85h-1.2v-7.8c-0.3,0.3-0.7,0.6-1.2,0.8c-0.5,0.3-0.9,0.5-1.3,0.6v-1.2c0.7-0.3,1.3-0.7,1.8-1.2s0.9-0.9,1.1-1.3
				h0.8V85z"/>
			<path d="M1083.2,85v-1.4h1.4V85H1083.2z"/>
			<path d="M1090.8,85h-1.2v-7.8c-0.3,0.3-0.7,0.6-1.2,0.8c-0.5,0.3-0.9,0.5-1.3,0.6v-1.2c0.7-0.3,1.3-0.7,1.8-1.2s0.9-0.9,1.1-1.3
				h0.8V85z"/>
			<path d="M1094,82.7l1.2-0.1c0.1,0.6,0.3,1,0.6,1.2c0.3,0.3,0.6,0.4,1.1,0.4c0.4,0,0.7-0.1,1-0.3s0.5-0.4,0.7-0.7
				c0.2-0.3,0.3-0.7,0.5-1.2s0.2-1,0.2-1.5c0-0.1,0-0.1,0-0.2c-0.2,0.4-0.6,0.7-1,1c-0.4,0.2-0.9,0.4-1.4,0.4
				c-0.8,0-1.5-0.3-2.1-0.9s-0.9-1.4-0.9-2.4c0-1,0.3-1.8,0.9-2.5s1.4-0.9,2.3-0.9c0.7,0,1.2,0.2,1.8,0.5s1,0.9,1.2,1.5
				c0.3,0.6,0.4,1.6,0.4,2.8c0,1.3-0.1,2.3-0.4,3.1c-0.3,0.8-0.7,1.3-1.2,1.7s-1.2,0.6-1.9,0.6c-0.8,0-1.4-0.2-1.9-0.7
				C1094.4,84.1,1094.1,83.5,1094,82.7z M1099,78.3c0-0.7-0.2-1.3-0.6-1.7s-0.8-0.6-1.4-0.6c-0.5,0-1,0.2-1.4,0.7
				c-0.4,0.4-0.6,1-0.6,1.7c0,0.6,0.2,1.2,0.6,1.6c0.4,0.4,0.9,0.6,1.4,0.6c0.6,0,1-0.2,1.4-0.6C1098.8,79.5,1099,79,1099,78.3z"/>
			<path d="M1101.4,82.4l1.2-0.2c0.1,0.7,0.4,1.2,0.7,1.5c0.3,0.3,0.8,0.5,1.2,0.5c0.6,0,1.1-0.2,1.5-0.6s0.6-0.9,0.6-1.5
				c0-0.6-0.2-1-0.6-1.4c-0.4-0.4-0.8-0.6-1.4-0.6c-0.2,0-0.5,0-0.9,0.1l0.1-1.1c0.1,0,0.1,0,0.2,0c0.5,0,1-0.1,1.4-0.4
				c0.4-0.3,0.6-0.7,0.6-1.3c0-0.5-0.2-0.8-0.5-1.1c-0.3-0.3-0.7-0.4-1.2-0.4c-0.5,0-0.9,0.2-1.2,0.5c-0.3,0.3-0.5,0.8-0.6,1.4
				l-1.2-0.2c0.2-0.8,0.5-1.5,1-1.9c0.5-0.5,1.2-0.7,2-0.7c0.5,0,1.1,0.1,1.5,0.4c0.5,0.2,0.8,0.6,1.1,1s0.4,0.8,0.4,1.3
				c0,0.4-0.1,0.8-0.3,1.2s-0.6,0.6-1,0.8c0.6,0.1,1.1,0.4,1.4,0.9c0.3,0.4,0.5,1,0.5,1.6c0,0.9-0.3,1.6-1,2.2
				c-0.6,0.6-1.4,0.9-2.4,0.9c-0.9,0-1.6-0.3-2.2-0.8S1101.4,83.2,1101.4,82.4z"/>
			<path d="M1115.3,77.4l-1.2,0.1c-0.1-0.5-0.3-0.8-0.5-1.1c-0.3-0.4-0.7-0.5-1.2-0.5c-0.4,0-0.7,0.1-1,0.3
				c-0.4,0.3-0.7,0.7-0.9,1.2c-0.2,0.5-0.3,1.3-0.3,2.3c0.3-0.5,0.7-0.8,1.1-1c0.4-0.2,0.9-0.3,1.3-0.3c0.8,0,1.5,0.3,2.1,0.9
				c0.6,0.6,0.9,1.4,0.9,2.3c0,0.6-0.1,1.2-0.4,1.8c-0.3,0.5-0.6,1-1.1,1.2c-0.5,0.3-1,0.4-1.6,0.4c-1,0-1.9-0.4-2.5-1.1
				c-0.6-0.8-1-2-1-3.7c0-1.9,0.4-3.3,1.1-4.2c0.6-0.8,1.5-1.1,2.5-1.1c0.8,0,1.4,0.2,1.9,0.7S1115.2,76.7,1115.3,77.4z
				 M1110.3,81.8c0,0.4,0.1,0.8,0.3,1.2s0.4,0.7,0.8,0.9c0.3,0.2,0.7,0.3,1,0.3c0.5,0,1-0.2,1.3-0.6c0.4-0.4,0.6-1,0.6-1.7
				c0-0.7-0.2-1.2-0.6-1.6c-0.4-0.4-0.8-0.6-1.4-0.6c-0.6,0-1,0.2-1.4,0.6C1110.5,80.6,1110.3,81.1,1110.3,81.8z"/>
		</g>
		<g class="st10">
			<path class="st4" d="M1057.2,210.5l1.3,0.3c-0.3,1.1-0.8,1.9-1.5,2.5c-0.7,0.6-1.6,0.9-2.6,0.9c-1.1,0-2-0.2-2.6-0.7
				c-0.7-0.4-1.2-1.1-1.5-1.9c-0.4-0.8-0.5-1.7-0.5-2.7c0-1,0.2-2,0.6-2.7c0.4-0.8,1-1.4,1.7-1.8c0.7-0.4,1.5-0.6,2.4-0.6
				c1,0,1.8,0.3,2.5,0.8s1.2,1.2,1.4,2.2l-1.3,0.3c-0.2-0.7-0.6-1.3-1-1.6s-1-0.5-1.7-0.5c-0.8,0-1.4,0.2-1.9,0.6
				c-0.5,0.4-0.9,0.9-1.1,1.5c-0.2,0.6-0.3,1.3-0.3,1.9c0,0.9,0.1,1.6,0.4,2.2c0.2,0.6,0.6,1.1,1.2,1.4s1.1,0.5,1.7,0.5
				c0.7,0,1.4-0.2,1.9-0.6S1057,211.3,1057.2,210.5z"/>
			<path class="st4" d="M1059.9,206.7h1.2v2.8h1.6c1,0,1.8,0.2,2.3,0.6c0.5,0.4,0.8,0.9,0.8,1.6c0,0.6-0.2,1.1-0.7,1.6
				c-0.5,0.4-1.2,0.6-2.2,0.6h-3.1V206.7z M1061.1,213h1.3c0.8,0,1.3-0.1,1.7-0.3s0.5-0.5,0.5-0.9c0-0.3-0.1-0.6-0.4-0.8
				s-0.8-0.4-1.6-0.4h-1.5V213z M1066.7,206.7h1.2v7.3h-1.2V206.7z"/>
			<path class="st4" d="M1069.7,206.7h1.2v3h3.4v-3h1.2v7.3h-1.2v-3.2h-3.4v3.2h-1.2V206.7z"/>
		</g>
		<g class="st10">
			<path d="M1057.2,227.5l1.3,0.3c-0.3,1.1-0.8,1.9-1.5,2.5c-0.7,0.6-1.6,0.9-2.6,0.9c-1.1,0-2-0.2-2.6-0.7
				c-0.7-0.4-1.2-1.1-1.5-1.9c-0.4-0.8-0.5-1.7-0.5-2.7c0-1,0.2-2,0.6-2.7c0.4-0.8,1-1.4,1.7-1.8c0.7-0.4,1.5-0.6,2.4-0.6
				c1,0,1.8,0.3,2.5,0.8s1.2,1.2,1.4,2.2l-1.3,0.3c-0.2-0.7-0.6-1.3-1-1.6s-1-0.5-1.7-0.5c-0.8,0-1.4,0.2-1.9,0.6
				c-0.5,0.4-0.9,0.9-1.1,1.5c-0.2,0.6-0.3,1.3-0.3,1.9c0,0.9,0.1,1.6,0.4,2.2c0.2,0.6,0.6,1.1,1.2,1.4s1.1,0.5,1.7,0.5
				c0.7,0,1.4-0.2,1.9-0.6S1057,228.3,1057.2,227.5z"/>
			<path d="M1064.7,230.1c-0.5,0.4-0.9,0.7-1.3,0.8c-0.4,0.2-0.9,0.2-1.4,0.2c-0.8,0-1.4-0.2-1.8-0.6c-0.4-0.4-0.6-0.9-0.6-1.5
				c0-0.4,0.1-0.7,0.2-1c0.2-0.3,0.4-0.5,0.6-0.7c0.3-0.2,0.6-0.3,0.9-0.4c0.2-0.1,0.6-0.1,1.1-0.2c1-0.1,1.7-0.3,2.2-0.4
				c0-0.2,0-0.3,0-0.3c0-0.5-0.1-0.9-0.3-1.1c-0.3-0.3-0.8-0.4-1.4-0.4c-0.6,0-1,0.1-1.3,0.3c-0.3,0.2-0.5,0.6-0.6,1.1l-1.2-0.2
				c0.1-0.5,0.3-0.9,0.5-1.2c0.3-0.3,0.6-0.6,1.1-0.7c0.5-0.2,1-0.3,1.6-0.3c0.6,0,1.1,0.1,1.5,0.2s0.7,0.3,0.9,0.6
				c0.2,0.2,0.3,0.5,0.4,0.8c0,0.2,0.1,0.6,0.1,1.1v1.6c0,1.1,0,1.9,0.1,2.2c0.1,0.3,0.2,0.6,0.3,0.9h-1.3
				C1064.8,230.7,1064.8,230.4,1064.7,230.1z M1064.6,227.4c-0.4,0.2-1.1,0.3-2,0.5c-0.5,0.1-0.9,0.2-1.1,0.2s-0.4,0.2-0.5,0.4
				c-0.1,0.2-0.2,0.4-0.2,0.6c0,0.3,0.1,0.6,0.4,0.8c0.2,0.2,0.6,0.3,1.1,0.3c0.5,0,0.9-0.1,1.3-0.3c0.4-0.2,0.6-0.5,0.8-0.9
				c0.1-0.3,0.2-0.7,0.2-1.2V227.4z"/>
			<path d="M1068.2,223.7h5.7v7.3h-1.2v-6.2h-3.3v3.6c0,0.8,0,1.4-0.1,1.7s-0.2,0.5-0.5,0.7s-0.6,0.3-1.1,0.3c-0.3,0-0.6,0-1-0.1v-1
				h0.5c0.3,0,0.4,0,0.5-0.1c0.1-0.1,0.2-0.1,0.2-0.2s0.1-0.5,0.1-1.1V223.7z"/>
			<path d="M1074.9,223.7h5.9v1h-2.3v6.2h-1.2v-6.2h-2.3V223.7z"/>
			<path d="M1081.7,223.7h1.2v2.8h1.6c1,0,1.8,0.2,2.3,0.6c0.5,0.4,0.8,0.9,0.8,1.6c0,0.6-0.2,1.1-0.7,1.6c-0.5,0.4-1.2,0.6-2.2,0.6
				h-3.1V223.7z M1083,230h1.3c0.8,0,1.3-0.1,1.7-0.3s0.5-0.5,0.5-0.9c0-0.3-0.1-0.6-0.4-0.8s-0.8-0.4-1.6-0.4h-1.5V230z
				 M1088.6,223.7h1.2v7.3h-1.2V223.7z"/>
			<path d="M1091.6,223.7h1.2v3.1c0.4,0,0.7-0.1,0.8-0.2c0.2-0.2,0.4-0.6,0.7-1.3c0.2-0.6,0.4-1,0.6-1.1s0.3-0.3,0.5-0.4
				s0.5-0.1,0.9-0.1h0.2v1l-0.3,0c-0.3,0-0.5,0-0.6,0.1c-0.1,0.1-0.2,0.4-0.4,0.9c-0.2,0.5-0.4,0.8-0.5,1s-0.4,0.3-0.7,0.5
				c0.5,0.1,1,0.6,1.6,1.5l1.3,2.2h-1.4l-1.3-2.2c-0.3-0.5-0.5-0.7-0.7-0.9c-0.2-0.1-0.4-0.2-0.7-0.2v3.4h-1.2V223.7z"/>
			<path d="M1097.2,227.4c0-1.3,0.4-2.3,1.1-3c0.6-0.5,1.4-0.8,2.3-0.8c1,0,1.8,0.3,2.4,1c0.6,0.7,1,1.6,1,2.7
				c0,0.9-0.1,1.7-0.4,2.2c-0.3,0.5-0.7,1-1.2,1.2c-0.5,0.3-1.1,0.4-1.8,0.4c-1,0-1.8-0.3-2.5-1
				C1097.5,229.5,1097.2,228.6,1097.2,227.4z M1098.4,227.4c0,0.9,0.2,1.6,0.6,2.1c0.4,0.5,0.9,0.7,1.5,0.7c0.6,0,1.1-0.2,1.5-0.7
				s0.6-1.2,0.6-2.1c0-0.9-0.2-1.6-0.6-2c-0.4-0.5-0.9-0.7-1.5-0.7c-0.6,0-1.1,0.2-1.5,0.7S1098.4,226.4,1098.4,227.4z"/>
			<path d="M1105.2,223.7h2.8c0.7,0,1.2,0.1,1.6,0.2c0.3,0.1,0.6,0.3,0.9,0.6s0.4,0.7,0.4,1.1c0,0.3-0.1,0.6-0.2,0.9
				c-0.1,0.3-0.4,0.5-0.6,0.6c0.3,0.1,0.6,0.3,0.9,0.6c0.2,0.3,0.3,0.7,0.3,1.1c0,0.7-0.3,1.2-0.7,1.5c-0.4,0.3-1.1,0.5-1.9,0.5
				h-3.3V223.7z M1106.5,226.8h1.3c0.5,0,0.9,0,1.1-0.1c0.2-0.1,0.4-0.2,0.5-0.3c0.2-0.2,0.2-0.4,0.2-0.6c0-0.4-0.1-0.6-0.4-0.8
				s-0.7-0.2-1.4-0.2h-1.4V226.8z M1106.5,230h1.6c0.7,0,1.2-0.1,1.4-0.2c0.3-0.2,0.4-0.4,0.4-0.8c0-0.2-0.1-0.4-0.2-0.6
				c-0.2-0.2-0.3-0.3-0.6-0.4c-0.2-0.1-0.6-0.1-1.2-0.1h-1.5V230z"/>
			<path d="M1112,228v-1.2h3.8v1.2H1112z"/>
			<path d="M1117.1,221h1.3v8.8h3.3V221h1.3v8.8h3.3V221h1.3v8.8h0.9v4h-1.2V231h-10.4V221z"/>
			<path d="M1134.8,228.7l1.3,0.2c-0.2,0.7-0.6,1.3-1.1,1.7c-0.5,0.4-1.2,0.6-2.1,0.6c-1.1,0-1.9-0.3-2.5-1
				c-0.6-0.7-0.9-1.6-0.9-2.8c0-1.2,0.3-2.2,0.9-2.8s1.4-1,2.4-1c1,0,1.8,0.3,2.4,1s0.9,1.6,0.9,2.8c0,0.1,0,0.2,0,0.3h-5.4
				c0,0.8,0.3,1.4,0.7,1.8c0.4,0.4,0.9,0.6,1.5,0.6c0.5,0,0.8-0.1,1.2-0.4C1134.3,229.6,1134.6,229.2,1134.8,228.7z M1130.7,226.7
				h4.1c-0.1-0.6-0.2-1.1-0.5-1.4c-0.4-0.5-0.9-0.7-1.5-0.7c-0.6,0-1,0.2-1.4,0.6S1130.8,226,1130.7,226.7z"/>
			<path d="M1138.1,223.7h5.1v6.2h0.8v3.1h-1V231h-5.7v2.1h-1V230h0.7C1137.7,228.8,1138.1,226.7,1138.1,223.7z M1139.1,224.8
				c-0.1,2.4-0.5,4.1-1.1,5.2h3.9v-5.2H1139.1z"/>
			<path d="M1145,233.8v-10h1.1v0.9c0.3-0.4,0.6-0.6,0.9-0.8c0.3-0.2,0.7-0.3,1.2-0.3c0.6,0,1.2,0.2,1.6,0.5
				c0.5,0.3,0.8,0.8,1.1,1.3c0.2,0.6,0.4,1.2,0.4,1.9c0,0.7-0.1,1.4-0.4,2c-0.3,0.6-0.7,1-1.2,1.4c-0.5,0.3-1,0.5-1.6,0.5
				c-0.4,0-0.8-0.1-1.1-0.3s-0.6-0.4-0.8-0.7v3.5H1145z M1146.2,227.4c0,0.9,0.2,1.6,0.6,2.1c0.4,0.4,0.8,0.7,1.4,0.7
				c0.5,0,1-0.2,1.4-0.7c0.4-0.5,0.6-1.2,0.6-2.2c0-0.9-0.2-1.6-0.6-2.1s-0.8-0.7-1.4-0.7c-0.5,0-1,0.2-1.4,0.7
				C1146.4,225.8,1146.2,226.5,1146.2,227.4z"/>
			<path d="M1152.6,223.7h1.2v5.5l3.4-5.5h1.3v7.3h-1.2v-5.5l-3.4,5.5h-1.3V223.7z"/>
			<path d="M1160.2,223.7h1.2v3h3.4v-3h1.2v7.3h-1.2v-3.2h-3.4v3.2h-1.2V223.7z"/>
		</g>
		<g class="st10">
			<path d="M1050.1,238h7.9v10h-1.3v-8.8h-5.2v8.8h-1.3V238z"/>
			<path d="M1064.7,245.7l1.3,0.2c-0.2,0.7-0.6,1.3-1.1,1.7s-1.2,0.6-2.1,0.6c-1.1,0-1.9-0.3-2.5-1c-0.6-0.7-0.9-1.6-0.9-2.8
				c0-1.2,0.3-2.2,0.9-2.8s1.4-1,2.4-1c1,0,1.8,0.3,2.4,1s0.9,1.6,0.9,2.8c0,0.1,0,0.2,0,0.3h-5.4c0,0.8,0.3,1.4,0.7,1.8
				s0.9,0.6,1.5,0.6c0.5,0,0.8-0.1,1.2-0.4S1064.6,246.2,1064.7,245.7z M1060.7,243.7h4.1c-0.1-0.6-0.2-1.1-0.5-1.4
				c-0.4-0.5-0.9-0.7-1.5-0.7c-0.6,0-1,0.2-1.4,0.6C1061,242.5,1060.7,243,1060.7,243.7z"/>
			<path d="M1066.2,240.7h5.9v1h-2.3v6.2h-1.2v-6.2h-2.3V240.7z"/>
			<path d="M1073.1,250.8v-10h1.1v0.9c0.3-0.4,0.6-0.6,0.9-0.8c0.3-0.2,0.7-0.3,1.2-0.3c0.6,0,1.2,0.2,1.6,0.5s0.8,0.8,1.1,1.3
				c0.2,0.6,0.4,1.2,0.4,1.9c0,0.7-0.1,1.4-0.4,2c-0.3,0.6-0.7,1-1.2,1.4c-0.5,0.3-1,0.5-1.6,0.5c-0.4,0-0.8-0.1-1.1-0.3
				c-0.3-0.2-0.6-0.4-0.8-0.7v3.5H1073.1z M1074.2,244.4c0,0.9,0.2,1.6,0.6,2.1s0.8,0.7,1.4,0.7c0.5,0,1-0.2,1.4-0.7
				c0.4-0.5,0.6-1.2,0.6-2.2c0-0.9-0.2-1.6-0.6-2.1c-0.4-0.5-0.8-0.7-1.4-0.7c-0.5,0-1,0.2-1.4,0.7
				C1074.4,242.8,1074.2,243.5,1074.2,244.4z"/>
			<path d="M1084.5,248v-10h1.3v4.1h5.2V238h1.3v10h-1.3v-4.7h-5.2v4.7H1084.5z"/>
			<path d="M1094.2,240.7h1.2v5.5l3.4-5.5h1.3v7.3h-1.2v-5.5l-3.4,5.5h-1.3V240.7z"/>
			<path d="M1101.8,240.7h1.2v3.1c0.4,0,0.7-0.1,0.8-0.2s0.4-0.6,0.7-1.3c0.2-0.6,0.4-1,0.6-1.1s0.3-0.3,0.5-0.4
				c0.2-0.1,0.5-0.1,0.9-0.1h0.2v1l-0.3,0c-0.3,0-0.5,0-0.6,0.1c-0.1,0.1-0.2,0.4-0.4,0.9c-0.2,0.5-0.4,0.8-0.5,1
				c-0.2,0.2-0.4,0.3-0.7,0.5c0.5,0.1,1,0.6,1.6,1.5l1.3,2.2h-1.4l-1.3-2.2c-0.3-0.5-0.5-0.7-0.7-0.9c-0.2-0.1-0.4-0.2-0.7-0.2v3.4
				h-1.2V240.7z"/>
			<path d="M1107.5,244.4c0-1.3,0.4-2.3,1.1-3c0.6-0.5,1.4-0.8,2.3-0.8c1,0,1.8,0.3,2.4,1c0.6,0.7,1,1.6,1,2.7
				c0,0.9-0.1,1.7-0.4,2.2c-0.3,0.5-0.7,1-1.2,1.2s-1.1,0.4-1.8,0.4c-1,0-1.8-0.3-2.5-1S1107.5,245.6,1107.5,244.4z M1108.7,244.4
				c0,0.9,0.2,1.6,0.6,2.1c0.4,0.5,0.9,0.7,1.5,0.7c0.6,0,1.1-0.2,1.5-0.7c0.4-0.5,0.6-1.2,0.6-2.1c0-0.9-0.2-1.6-0.6-2
				c-0.4-0.5-0.9-0.7-1.5-0.7c-0.6,0-1.1,0.2-1.5,0.7C1108.9,242.7,1108.7,243.4,1108.7,244.4z"/>
			<path d="M1115.8,240.7h5.7v7.3h-1.2v-6.2h-3.3v3.6c0,0.8,0,1.4-0.1,1.7s-0.2,0.5-0.5,0.7s-0.6,0.3-1.1,0.3c-0.3,0-0.6,0-1-0.1v-1
				h0.5c0.3,0,0.4,0,0.5-0.1c0.1-0.1,0.2-0.1,0.2-0.2c0-0.1,0.1-0.5,0.1-1.1V240.7z"/>
			<path d="M1127.9,247.1c-0.5,0.4-0.9,0.7-1.3,0.8s-0.9,0.2-1.4,0.2c-0.8,0-1.4-0.2-1.8-0.6c-0.4-0.4-0.6-0.9-0.6-1.5
				c0-0.4,0.1-0.7,0.2-1c0.2-0.3,0.4-0.5,0.6-0.7s0.6-0.3,0.9-0.4c0.2-0.1,0.6-0.1,1.1-0.2c1-0.1,1.7-0.3,2.2-0.4c0-0.2,0-0.3,0-0.3
				c0-0.5-0.1-0.9-0.3-1.1c-0.3-0.3-0.8-0.4-1.4-0.4c-0.6,0-1,0.1-1.3,0.3c-0.3,0.2-0.5,0.6-0.6,1.1l-1.2-0.2
				c0.1-0.5,0.3-0.9,0.5-1.2c0.2-0.3,0.6-0.6,1.1-0.7c0.5-0.2,1-0.3,1.6-0.3c0.6,0,1.1,0.1,1.5,0.2c0.4,0.1,0.7,0.3,0.9,0.6
				c0.2,0.2,0.3,0.5,0.4,0.8c0,0.2,0.1,0.6,0.1,1.1v1.6c0,1.1,0,1.9,0.1,2.2c0.1,0.3,0.2,0.6,0.3,0.9h-1.3
				C1128,247.7,1127.9,247.4,1127.9,247.1z M1127.8,244.4c-0.4,0.2-1.1,0.3-2,0.5c-0.5,0.1-0.9,0.2-1.1,0.2
				c-0.2,0.1-0.4,0.2-0.5,0.4c-0.1,0.2-0.2,0.4-0.2,0.6c0,0.3,0.1,0.6,0.4,0.8s0.6,0.3,1.1,0.3c0.5,0,0.9-0.1,1.3-0.3
				c0.4-0.2,0.6-0.5,0.8-0.9c0.1-0.3,0.2-0.7,0.2-1.2V244.4z"/>
			<path d="M1135.7,245.7l1.3,0.2c-0.2,0.7-0.6,1.3-1.1,1.7c-0.5,0.4-1.2,0.6-2.1,0.6c-1.1,0-1.9-0.3-2.5-1
				c-0.6-0.7-0.9-1.6-0.9-2.8c0-1.2,0.3-2.2,0.9-2.8s1.4-1,2.4-1c1,0,1.8,0.3,2.4,1s0.9,1.6,0.9,2.8c0,0.1,0,0.2,0,0.3h-5.4
				c0,0.8,0.3,1.4,0.7,1.8c0.4,0.4,0.9,0.6,1.5,0.6c0.5,0,0.8-0.1,1.2-0.4C1135.3,246.6,1135.5,246.2,1135.7,245.7z M1131.7,243.7
				h4.1c-0.1-0.6-0.2-1.1-0.5-1.4c-0.4-0.5-0.9-0.7-1.5-0.7c-0.6,0-1,0.2-1.4,0.6S1131.7,243,1131.7,243.7z"/>
			<path d="M1138.3,240.7h2.8c0.7,0,1.2,0.1,1.6,0.2c0.3,0.1,0.6,0.3,0.9,0.6s0.4,0.7,0.4,1.1c0,0.3-0.1,0.6-0.2,0.9
				c-0.1,0.3-0.4,0.5-0.6,0.6c0.3,0.1,0.6,0.3,0.9,0.6c0.2,0.3,0.3,0.7,0.3,1.1c0,0.7-0.3,1.2-0.7,1.5c-0.4,0.3-1.1,0.5-1.9,0.5
				h-3.3V240.7z M1139.5,243.8h1.3c0.5,0,0.9,0,1.1-0.1c0.2-0.1,0.4-0.2,0.5-0.3c0.2-0.2,0.2-0.4,0.2-0.6c0-0.4-0.1-0.6-0.4-0.8
				s-0.7-0.2-1.4-0.2h-1.4V243.8z M1139.5,247h1.6c0.7,0,1.2-0.1,1.4-0.2c0.3-0.2,0.4-0.4,0.4-0.8c0-0.2-0.1-0.4-0.2-0.6
				c-0.2-0.2-0.3-0.3-0.6-0.4c-0.2-0.1-0.6-0.1-1.2-0.1h-1.5V247z"/>
			<path d="M1145.5,240.7h1.2v5.5l3.4-5.5h1.3v7.3h-1.2v-5.5l-3.4,5.5h-1.3V240.7z"/>
			<path d="M1152.7,240.7h1.2v1.4c0,0.6,0,1,0.1,1.3c0.1,0.3,0.2,0.5,0.5,0.7c0.3,0.2,0.6,0.3,1,0.3c0.5,0,1.1-0.1,1.8-0.4v-3.3h1.2
				v7.3h-1.2v-2.9c-0.8,0.2-1.5,0.4-2.1,0.4c-0.6,0-1-0.1-1.5-0.4c-0.4-0.3-0.7-0.6-0.9-1s-0.2-0.9-0.2-1.3V240.7z"/>
		</g>
		<g class="st10">
			<path d="M1056,263.8v1.2h-6.6c0-0.3,0-0.6,0.1-0.9c0.2-0.5,0.4-0.9,0.8-1.3c0.4-0.4,0.9-0.9,1.6-1.5c1.1-0.9,1.8-1.6,2.2-2.1
				c0.4-0.5,0.6-1,0.6-1.5c0-0.5-0.2-0.9-0.5-1.2c-0.3-0.3-0.8-0.5-1.4-0.5c-0.6,0-1.1,0.2-1.4,0.5s-0.5,0.8-0.5,1.5l-1.3-0.1
				c0.1-0.9,0.4-1.7,1-2.2c0.6-0.5,1.3-0.7,2.3-0.7c1,0,1.7,0.3,2.3,0.8s0.8,1.2,0.8,2c0,0.4-0.1,0.8-0.2,1.2s-0.4,0.8-0.8,1.2
				c-0.4,0.4-1,1-1.9,1.8c-0.7,0.6-1.2,1-1.4,1.3c-0.2,0.2-0.4,0.4-0.5,0.7H1056z"/>
			<path d="M1057.2,262.4l1.3-0.1c0.1,0.6,0.3,1.1,0.7,1.4c0.3,0.3,0.8,0.5,1.3,0.5c0.6,0,1.1-0.2,1.5-0.7s0.6-1,0.6-1.8
				c0-0.7-0.2-1.3-0.6-1.7c-0.4-0.4-0.9-0.6-1.5-0.6c-0.4,0-0.8,0.1-1.1,0.3c-0.3,0.2-0.6,0.4-0.8,0.7l-1.2-0.2l1-5.1h5v1.2h-4
				l-0.5,2.7c0.6-0.4,1.2-0.6,1.9-0.6c0.9,0,1.6,0.3,2.2,0.9s0.9,1.4,0.9,2.3c0,0.9-0.3,1.7-0.8,2.4c-0.6,0.8-1.5,1.2-2.6,1.2
				c-0.9,0-1.7-0.3-2.2-0.8C1057.6,263.9,1057.2,263.2,1057.2,262.4z"/>
			<path d="M1065.4,265v-1.4h1.4v1.4H1065.4z"/>
			<path d="M1073,265h-1.2v-7.8c-0.3,0.3-0.7,0.6-1.2,0.8c-0.5,0.3-0.9,0.5-1.3,0.6v-1.2c0.7-0.3,1.3-0.7,1.8-1.2s0.9-0.9,1.1-1.3
				h0.8V265z"/>
			<path d="M1079.6,265h-1.2v-7.8c-0.3,0.3-0.7,0.6-1.2,0.8c-0.5,0.3-0.9,0.5-1.3,0.6v-1.2c0.7-0.3,1.3-0.7,1.8-1.2s0.9-0.9,1.1-1.3
				h0.8V265z"/>
			<path d="M1083.2,265v-1.4h1.4v1.4H1083.2z"/>
			<path d="M1090.8,265h-1.2v-7.8c-0.3,0.3-0.7,0.6-1.2,0.8c-0.5,0.3-0.9,0.5-1.3,0.6v-1.2c0.7-0.3,1.3-0.7,1.8-1.2s0.9-0.9,1.1-1.3
				h0.8V265z"/>
			<path d="M1094,262.7l1.2-0.1c0.1,0.6,0.3,1,0.6,1.2c0.3,0.3,0.6,0.4,1.1,0.4c0.4,0,0.7-0.1,1-0.3s0.5-0.4,0.7-0.7
				c0.2-0.3,0.3-0.7,0.5-1.2s0.2-1,0.2-1.5c0-0.1,0-0.1,0-0.2c-0.2,0.4-0.6,0.7-1,1c-0.4,0.2-0.9,0.4-1.4,0.4
				c-0.8,0-1.5-0.3-2.1-0.9s-0.9-1.4-0.9-2.4c0-1,0.3-1.8,0.9-2.5s1.4-0.9,2.3-0.9c0.7,0,1.2,0.2,1.8,0.5s1,0.9,1.2,1.5
				c0.3,0.6,0.4,1.6,0.4,2.8c0,1.3-0.1,2.3-0.4,3.1c-0.3,0.8-0.7,1.3-1.2,1.7s-1.2,0.6-1.9,0.6c-0.8,0-1.4-0.2-1.9-0.7
				C1094.4,264.1,1094.1,263.5,1094,262.7z M1099,258.3c0-0.7-0.2-1.3-0.6-1.7s-0.8-0.6-1.4-0.6c-0.5,0-1,0.2-1.4,0.7
				c-0.4,0.4-0.6,1-0.6,1.7c0,0.6,0.2,1.2,0.6,1.6c0.4,0.4,0.9,0.6,1.4,0.6c0.6,0,1-0.2,1.4-0.6C1098.8,259.5,1099,259,1099,258.3z"
				/>
			<path d="M1101.4,262.4l1.2-0.2c0.1,0.7,0.4,1.2,0.7,1.5c0.3,0.3,0.8,0.5,1.2,0.5c0.6,0,1.1-0.2,1.5-0.6s0.6-0.9,0.6-1.5
				c0-0.6-0.2-1-0.6-1.4c-0.4-0.4-0.8-0.6-1.4-0.6c-0.2,0-0.5,0-0.9,0.1l0.1-1.1c0.1,0,0.1,0,0.2,0c0.5,0,1-0.1,1.4-0.4
				c0.4-0.3,0.6-0.7,0.6-1.3c0-0.5-0.2-0.8-0.5-1.1c-0.3-0.3-0.7-0.4-1.2-0.4c-0.5,0-0.9,0.2-1.2,0.5c-0.3,0.3-0.5,0.8-0.6,1.4
				l-1.2-0.2c0.2-0.8,0.5-1.5,1-1.9c0.5-0.5,1.2-0.7,2-0.7c0.5,0,1.1,0.1,1.5,0.4c0.5,0.2,0.8,0.6,1.1,1s0.4,0.8,0.4,1.3
				c0,0.4-0.1,0.8-0.3,1.2s-0.6,0.6-1,0.8c0.6,0.1,1.1,0.4,1.4,0.9c0.3,0.4,0.5,1,0.5,1.6c0,0.9-0.3,1.6-1,2.2
				c-0.6,0.6-1.4,0.9-2.4,0.9c-0.9,0-1.6-0.3-2.2-0.8S1101.4,263.2,1101.4,262.4z"/>
			<path d="M1115.3,257.4l-1.2,0.1c-0.1-0.5-0.3-0.8-0.5-1.1c-0.3-0.4-0.7-0.5-1.2-0.5c-0.4,0-0.7,0.1-1,0.3
				c-0.4,0.3-0.7,0.7-0.9,1.2c-0.2,0.5-0.3,1.3-0.3,2.3c0.3-0.5,0.7-0.8,1.1-1c0.4-0.2,0.9-0.3,1.3-0.3c0.8,0,1.5,0.3,2.1,0.9
				c0.6,0.6,0.9,1.4,0.9,2.3c0,0.6-0.1,1.2-0.4,1.8c-0.3,0.5-0.6,1-1.1,1.2c-0.5,0.3-1,0.4-1.6,0.4c-1,0-1.9-0.4-2.5-1.1
				c-0.6-0.8-1-2-1-3.7c0-1.9,0.4-3.3,1.1-4.2c0.6-0.8,1.5-1.1,2.5-1.1c0.8,0,1.4,0.2,1.9,0.7S1115.2,256.7,1115.3,257.4z
				 M1110.3,261.8c0,0.4,0.1,0.8,0.3,1.2s0.4,0.7,0.8,0.9c0.3,0.2,0.7,0.3,1,0.3c0.5,0,1-0.2,1.3-0.6c0.4-0.4,0.6-1,0.6-1.7
				c0-0.7-0.2-1.2-0.6-1.6c-0.4-0.4-0.8-0.6-1.4-0.6c-0.6,0-1,0.2-1.4,0.6C1110.5,260.6,1110.3,261.1,1110.3,261.8z"/>
		</g>
		<g class="st10">
			<path class="st4" d="M149.7,204h6.1v8.8h0.9v3.5h-1.2V214h-6.6v2.3h-1.2v-3.5h0.8c0.8-1.2,1.2-3.7,1.2-7.4V204z M154.5,205.2H151
				v0.5c0,0.9-0.1,2-0.2,3.5c-0.2,1.5-0.5,2.7-0.9,3.6h4.6V205.2z"/>
			<path class="st4" d="M157.6,210.4c0-1.3,0.4-2.3,1.1-3c0.6-0.5,1.4-0.8,2.3-0.8c1,0,1.8,0.3,2.4,1c0.6,0.7,1,1.6,1,2.7
				c0,0.9-0.1,1.7-0.4,2.2c-0.3,0.5-0.7,1-1.2,1.2s-1.1,0.4-1.8,0.4c-1,0-1.8-0.3-2.5-1S157.6,211.6,157.6,210.4z M158.9,210.4
				c0,0.9,0.2,1.6,0.6,2.1c0.4,0.5,0.9,0.7,1.5,0.7c0.6,0,1.1-0.2,1.5-0.7s0.6-1.2,0.6-2.1c0-0.9-0.2-1.6-0.6-2
				c-0.4-0.5-0.9-0.7-1.5-0.7c-0.6,0-1.1,0.2-1.5,0.7S158.9,209.4,158.9,210.4z"/>
			<path class="st4" d="M164.9,206.7h1.2v1.4c0,0.6,0,1,0.1,1.3c0.1,0.3,0.2,0.5,0.5,0.7c0.3,0.2,0.6,0.3,1,0.3
				c0.5,0,1.1-0.1,1.8-0.4v-3.3h1.2v7.3h-1.2v-2.9c-0.8,0.2-1.5,0.4-2.1,0.4c-0.6,0-1-0.1-1.5-0.4c-0.4-0.3-0.7-0.6-0.9-1
				s-0.2-0.9-0.2-1.3V206.7z"/>
			<path class="st4" d="M172.4,206.7h1.2v2.8h1.6c1,0,1.8,0.2,2.3,0.6c0.5,0.4,0.8,0.9,0.8,1.6c0,0.6-0.2,1.1-0.7,1.6
				c-0.5,0.4-1.2,0.6-2.2,0.6h-3.1V206.7z M173.7,213h1.3c0.8,0,1.3-0.1,1.7-0.3s0.5-0.5,0.5-0.9c0-0.3-0.1-0.6-0.4-0.8
				s-0.8-0.4-1.6-0.4h-1.5V213z"/>
		</g>
		<g class="st10">
			<path d="M141.8,231h-1.3v-4c-1.2,0.4-2.2,0.7-3.1,0.7c-0.7,0-1.3-0.2-1.8-0.5c-0.5-0.3-0.9-0.7-1.1-1.2s-0.3-1.2-0.3-2V221h1.3
				v2.8c0,1.1,0.2,1.8,0.6,2.2c0.4,0.3,0.9,0.5,1.4,0.5c0.9,0,1.9-0.2,2.9-0.6V221h1.3V231z"/>
			<path d="M148.6,228.7l1.3,0.2c-0.2,0.7-0.6,1.3-1.1,1.7s-1.2,0.6-2.1,0.6c-1.1,0-1.9-0.3-2.5-1c-0.6-0.7-0.9-1.6-0.9-2.8
				c0-1.2,0.3-2.2,0.9-2.8s1.4-1,2.4-1c1,0,1.8,0.3,2.4,1s0.9,1.6,0.9,2.8c0,0.1,0,0.2,0,0.3h-5.4c0,0.8,0.3,1.4,0.7,1.8
				s0.9,0.6,1.5,0.6c0.5,0,0.8-0.1,1.2-0.4S148.4,229.2,148.6,228.7z M144.5,226.7h4.1c-0.1-0.6-0.2-1.1-0.5-1.4
				c-0.4-0.5-0.9-0.7-1.5-0.7c-0.6,0-1,0.2-1.4,0.6S144.6,226,144.5,226.7z"/>
			<path d="M150,231l2.7-3.8l-2.5-3.5h1.5l1.1,1.7c0.2,0.3,0.4,0.6,0.5,0.8c0.2-0.3,0.4-0.6,0.6-0.8l1.2-1.7h1.5l-2.5,3.4l2.7,3.8
				h-1.5l-1.5-2.3l-0.4-0.6l-1.9,2.9H150z"/>
			<path d="M157,227.4c0-1.3,0.4-2.3,1.1-3c0.6-0.5,1.4-0.8,2.3-0.8c1,0,1.8,0.3,2.4,1c0.6,0.7,1,1.6,1,2.7c0,0.9-0.1,1.7-0.4,2.2
				c-0.3,0.5-0.7,1-1.2,1.2s-1.1,0.4-1.8,0.4c-1,0-1.8-0.3-2.5-1S157,228.6,157,227.4z M158.3,227.4c0,0.9,0.2,1.6,0.6,2.1
				c0.4,0.5,0.9,0.7,1.5,0.7c0.6,0,1.1-0.2,1.5-0.7s0.6-1.2,0.6-2.1c0-0.9-0.2-1.6-0.6-2c-0.4-0.5-0.9-0.7-1.5-0.7
				c-0.6,0-1.1,0.2-1.5,0.7S158.3,226.4,158.3,227.4z"/>
			<path d="M165.1,223.7h2.8c0.7,0,1.2,0.1,1.6,0.2c0.3,0.1,0.6,0.3,0.9,0.6s0.4,0.7,0.4,1.1c0,0.3-0.1,0.6-0.2,0.9
				c-0.1,0.3-0.4,0.5-0.6,0.6c0.3,0.1,0.6,0.3,0.9,0.6c0.2,0.3,0.3,0.7,0.3,1.1c0,0.7-0.3,1.2-0.7,1.5s-1.1,0.5-1.9,0.5h-3.3V223.7z
				 M166.3,226.8h1.3c0.5,0,0.9,0,1.1-0.1s0.4-0.2,0.5-0.3c0.2-0.2,0.2-0.4,0.2-0.6c0-0.4-0.1-0.6-0.4-0.8s-0.7-0.2-1.4-0.2h-1.4
				V226.8z M166.3,230h1.6c0.7,0,1.2-0.1,1.4-0.2c0.3-0.2,0.4-0.4,0.4-0.8c0-0.2-0.1-0.4-0.2-0.6c-0.2-0.2-0.3-0.3-0.6-0.4
				c-0.2-0.1-0.6-0.1-1.2-0.1h-1.5V230z"/>
			<path d="M176.9,230.1c-0.5,0.4-0.9,0.7-1.3,0.8s-0.9,0.2-1.4,0.2c-0.8,0-1.4-0.2-1.8-0.6c-0.4-0.4-0.6-0.9-0.6-1.5
				c0-0.4,0.1-0.7,0.2-1c0.2-0.3,0.4-0.5,0.6-0.7s0.6-0.3,0.9-0.4c0.2-0.1,0.6-0.1,1.1-0.2c1-0.1,1.7-0.3,2.2-0.4c0-0.2,0-0.3,0-0.3
				c0-0.5-0.1-0.9-0.3-1.1c-0.3-0.3-0.8-0.4-1.4-0.4c-0.6,0-1,0.1-1.3,0.3c-0.3,0.2-0.5,0.6-0.6,1.1l-1.2-0.2
				c0.1-0.5,0.3-0.9,0.5-1.2c0.3-0.3,0.6-0.6,1.1-0.7c0.5-0.2,1-0.3,1.6-0.3c0.6,0,1.1,0.1,1.5,0.2s0.7,0.3,0.9,0.6
				c0.2,0.2,0.3,0.5,0.4,0.8c0,0.2,0.1,0.6,0.1,1.1v1.6c0,1.1,0,1.9,0.1,2.2c0.1,0.3,0.2,0.6,0.3,0.9h-1.3
				C177,230.7,176.9,230.4,176.9,230.1z M176.8,227.4c-0.4,0.2-1.1,0.3-2,0.5c-0.5,0.1-0.9,0.2-1.1,0.2s-0.4,0.2-0.5,0.4
				c-0.1,0.2-0.2,0.4-0.2,0.6c0,0.3,0.1,0.6,0.4,0.8s0.6,0.3,1.1,0.3c0.5,0,0.9-0.1,1.3-0.3c0.4-0.2,0.6-0.5,0.8-0.9
				c0.1-0.3,0.2-0.7,0.2-1.2V227.4z"/>
		</g>
		<g class="st10">
			<path d="M34.2,248l3.8-10h1.4l4.1,10h-1.5l-1.2-3h-4.2l-1.1,3H34.2z M37.1,243.9h3.4l-1-2.8c-0.3-0.8-0.6-1.5-0.7-2.1
				c-0.1,0.6-0.3,1.3-0.5,1.9L37.1,243.9z"/>
			<path d="M44.3,240.7h1.2v3h3.4v-3h1.2v7.3h-1.2v-3.2h-3.4v3.2h-1.2V240.7z"/>
			<path d="M51.1,240.7H57v1h-2.3v6.2h-1.2v-6.2h-2.3V240.7z"/>
			<path d="M57.4,244.4c0-1.3,0.4-2.3,1.1-3c0.6-0.5,1.4-0.8,2.3-0.8c1,0,1.8,0.3,2.4,1c0.6,0.7,1,1.6,1,2.7c0,0.9-0.1,1.7-0.4,2.2
				c-0.3,0.5-0.7,1-1.2,1.2s-1.1,0.4-1.8,0.4c-1,0-1.8-0.3-2.5-1S57.4,245.6,57.4,244.4z M58.7,244.4c0,0.9,0.2,1.6,0.6,2.1
				c0.4,0.5,0.9,0.7,1.5,0.7c0.6,0,1.1-0.2,1.5-0.7s0.6-1.2,0.6-2.1c0-0.9-0.2-1.6-0.6-2c-0.4-0.5-0.9-0.7-1.5-0.7
				c-0.6,0-1.1,0.2-1.5,0.7S58.7,243.4,58.7,244.4z"/>
			<path d="M65.4,240.7h1.2v3h3.4v-3h1.2v7.3h-1.2v-3.2h-3.4v3.2h-1.2V240.7z"/>
			<path d="M72.9,240.7h1.2v5.5l3.4-5.5h1.3v7.3h-1.2v-5.5l-3.4,5.5h-1.3V240.7z"/>
			<path d="M80.6,240.7h1.2v3h3.4v-3h1.2v7.3h-1.2v-3.2h-3.4v3.2h-1.2V240.7z"/>
			<path d="M92.8,247.1c-0.5,0.4-0.9,0.7-1.3,0.8s-0.9,0.2-1.4,0.2c-0.8,0-1.4-0.2-1.8-0.6c-0.4-0.4-0.6-0.9-0.6-1.5
				c0-0.4,0.1-0.7,0.2-1c0.2-0.3,0.4-0.5,0.6-0.7s0.6-0.3,0.9-0.4c0.2-0.1,0.6-0.1,1.1-0.2c1-0.1,1.7-0.3,2.2-0.4c0-0.2,0-0.3,0-0.3
				c0-0.5-0.1-0.9-0.3-1.1c-0.3-0.3-0.8-0.4-1.4-0.4c-0.6,0-1,0.1-1.3,0.3c-0.3,0.2-0.5,0.6-0.6,1.1l-1.2-0.2
				c0.1-0.5,0.3-0.9,0.5-1.2c0.3-0.3,0.6-0.6,1.1-0.7c0.5-0.2,1-0.3,1.6-0.3c0.6,0,1.1,0.1,1.5,0.2s0.7,0.3,0.9,0.6
				c0.2,0.2,0.3,0.5,0.4,0.8c0,0.2,0.1,0.6,0.1,1.1v1.6c0,1.1,0,1.9,0.1,2.2c0.1,0.3,0.2,0.6,0.3,0.9h-1.3
				C92.9,247.7,92.8,247.4,92.8,247.1z M92.7,244.4c-0.4,0.2-1.1,0.3-2,0.5c-0.5,0.1-0.9,0.2-1.1,0.2s-0.4,0.2-0.5,0.4
				c-0.1,0.2-0.2,0.4-0.2,0.6c0,0.3,0.1,0.6,0.4,0.8s0.6,0.3,1.1,0.3c0.5,0,0.9-0.1,1.3-0.3c0.4-0.2,0.6-0.5,0.8-0.9
				c0.1-0.3,0.2-0.7,0.2-1.2V244.4z"/>
			<path d="M99.5,248v-10h1.3v4.1h5.2V238h1.3v10h-1.3v-4.7h-5.2v4.7H99.5z"/>
			<path d="M109.2,240.7h1.2v5.5l3.4-5.5h1.3v7.3H114v-5.5l-3.4,5.5h-1.3V240.7z"/>
			<path d="M116.8,240.7h1.2v3.1c0.4,0,0.7-0.1,0.8-0.2s0.4-0.6,0.7-1.3c0.2-0.6,0.4-1,0.6-1.1s0.3-0.3,0.5-0.4s0.5-0.1,0.9-0.1h0.2
				v1l-0.3,0c-0.3,0-0.5,0-0.6,0.1c-0.1,0.1-0.2,0.4-0.4,0.9c-0.2,0.5-0.4,0.8-0.5,1s-0.4,0.3-0.7,0.5c0.5,0.1,1,0.6,1.6,1.5
				l1.3,2.2h-1.4l-1.3-2.2c-0.3-0.5-0.5-0.7-0.7-0.9c-0.2-0.1-0.4-0.2-0.7-0.2v3.4h-1.2V240.7z"/>
			<path d="M122.5,244.4c0-1.3,0.4-2.3,1.1-3c0.6-0.5,1.4-0.8,2.3-0.8c1,0,1.8,0.3,2.4,1c0.6,0.7,1,1.6,1,2.7c0,0.9-0.1,1.7-0.4,2.2
				c-0.3,0.5-0.7,1-1.2,1.2s-1.1,0.4-1.8,0.4c-1,0-1.8-0.3-2.5-1S122.5,245.6,122.5,244.4z M123.7,244.4c0,0.9,0.2,1.6,0.6,2.1
				c0.4,0.5,0.9,0.7,1.5,0.7c0.6,0,1.1-0.2,1.5-0.7s0.6-1.2,0.6-2.1c0-0.9-0.2-1.6-0.6-2c-0.4-0.5-0.9-0.7-1.5-0.7
				c-0.6,0-1.1,0.2-1.5,0.7S123.7,243.4,123.7,244.4z"/>
			<path d="M130.8,240.7h5.7v7.3h-1.2v-6.2H132v3.6c0,0.8,0,1.4-0.1,1.7s-0.2,0.5-0.5,0.7s-0.6,0.3-1.1,0.3c-0.3,0-0.6,0-1-0.1v-1
				h0.5c0.3,0,0.4,0,0.5-0.1c0.1-0.1,0.2-0.1,0.2-0.2s0.1-0.5,0.1-1.1V240.7z"/>
			<path d="M142.9,247.1c-0.5,0.4-0.9,0.7-1.3,0.8s-0.9,0.2-1.4,0.2c-0.8,0-1.4-0.2-1.8-0.6c-0.4-0.4-0.6-0.9-0.6-1.5
				c0-0.4,0.1-0.7,0.2-1c0.2-0.3,0.4-0.5,0.6-0.7s0.6-0.3,0.9-0.4c0.2-0.1,0.6-0.1,1.1-0.2c1-0.1,1.7-0.3,2.2-0.4c0-0.2,0-0.3,0-0.3
				c0-0.5-0.1-0.9-0.3-1.1c-0.3-0.3-0.8-0.4-1.4-0.4c-0.6,0-1,0.1-1.3,0.3c-0.3,0.2-0.5,0.6-0.6,1.1l-1.2-0.2
				c0.1-0.5,0.3-0.9,0.5-1.2c0.3-0.3,0.6-0.6,1.1-0.7c0.5-0.2,1-0.3,1.6-0.3c0.6,0,1.1,0.1,1.5,0.2s0.7,0.3,0.9,0.6
				c0.2,0.2,0.3,0.5,0.4,0.8c0,0.2,0.1,0.6,0.1,1.1v1.6c0,1.1,0,1.9,0.1,2.2c0.1,0.3,0.2,0.6,0.3,0.9h-1.3
				C143,247.7,142.9,247.4,142.9,247.1z M142.8,244.4c-0.4,0.2-1.1,0.3-2,0.5c-0.5,0.1-0.9,0.2-1.1,0.2s-0.4,0.2-0.5,0.4
				c-0.1,0.2-0.2,0.4-0.2,0.6c0,0.3,0.1,0.6,0.4,0.8s0.6,0.3,1.1,0.3c0.5,0,0.9-0.1,1.3-0.3c0.4-0.2,0.6-0.5,0.8-0.9
				c0.1-0.3,0.2-0.7,0.2-1.2V244.4z"/>
			<path d="M150.7,245.7l1.3,0.2c-0.2,0.7-0.6,1.3-1.1,1.7s-1.2,0.6-2.1,0.6c-1.1,0-1.9-0.3-2.5-1c-0.6-0.7-0.9-1.6-0.9-2.8
				c0-1.2,0.3-2.2,0.9-2.8s1.4-1,2.4-1c1,0,1.8,0.3,2.4,1s0.9,1.6,0.9,2.8c0,0.1,0,0.2,0,0.3h-5.4c0,0.8,0.3,1.4,0.7,1.8
				s0.9,0.6,1.5,0.6c0.5,0,0.8-0.1,1.2-0.4S150.5,246.2,150.7,245.7z M146.6,243.7h4.1c-0.1-0.6-0.2-1.1-0.5-1.4
				c-0.4-0.5-0.9-0.7-1.5-0.7c-0.6,0-1,0.2-1.4,0.6S146.7,243,146.6,243.7z"/>
			<path d="M153.3,240.7h2.8c0.7,0,1.2,0.1,1.6,0.2c0.3,0.1,0.6,0.3,0.9,0.6s0.4,0.7,0.4,1.1c0,0.3-0.1,0.6-0.2,0.9
				c-0.1,0.3-0.4,0.5-0.6,0.6c0.3,0.1,0.6,0.3,0.9,0.6c0.2,0.3,0.3,0.7,0.3,1.1c0,0.7-0.3,1.2-0.7,1.5s-1.1,0.5-1.9,0.5h-3.3V240.7z
				 M154.5,243.8h1.3c0.5,0,0.9,0,1.1-0.1s0.4-0.2,0.5-0.3c0.2-0.2,0.2-0.4,0.2-0.6c0-0.4-0.1-0.6-0.4-0.8s-0.7-0.2-1.4-0.2h-1.4
				V243.8z M154.5,247h1.6c0.7,0,1.2-0.1,1.4-0.2c0.3-0.2,0.4-0.4,0.4-0.8c0-0.2-0.1-0.4-0.2-0.6c-0.2-0.2-0.3-0.3-0.6-0.4
				c-0.2-0.1-0.6-0.1-1.2-0.1h-1.5V247z"/>
			<path d="M160.5,240.7h1.2v3h3.4v-3h1.2v7.3h-1.2v-3.2h-3.4v3.2h-1.2V240.7z"/>
			<path d="M172.8,247.1c-0.5,0.4-0.9,0.7-1.3,0.8s-0.9,0.2-1.4,0.2c-0.8,0-1.4-0.2-1.8-0.6c-0.4-0.4-0.6-0.9-0.6-1.5
				c0-0.4,0.1-0.7,0.2-1c0.2-0.3,0.4-0.5,0.6-0.7s0.6-0.3,0.9-0.4c0.2-0.1,0.6-0.1,1.1-0.2c1-0.1,1.7-0.3,2.2-0.4c0-0.2,0-0.3,0-0.3
				c0-0.5-0.1-0.9-0.3-1.1c-0.3-0.3-0.8-0.4-1.4-0.4c-0.6,0-1,0.1-1.3,0.3c-0.3,0.2-0.5,0.6-0.6,1.1l-1.2-0.2
				c0.1-0.5,0.3-0.9,0.5-1.2c0.3-0.3,0.6-0.6,1.1-0.7c0.5-0.2,1-0.3,1.6-0.3c0.6,0,1.1,0.1,1.5,0.2s0.7,0.3,0.9,0.6
				c0.2,0.2,0.3,0.5,0.4,0.8c0,0.2,0.1,0.6,0.1,1.1v1.6c0,1.1,0,1.9,0.1,2.2c0.1,0.3,0.2,0.6,0.3,0.9H173
				C172.9,247.7,172.8,247.4,172.8,247.1z M172.7,244.4c-0.4,0.2-1.1,0.3-2,0.5c-0.5,0.1-0.9,0.2-1.1,0.2s-0.4,0.2-0.5,0.4
				c-0.1,0.2-0.2,0.4-0.2,0.6c0,0.3,0.1,0.6,0.4,0.8s0.6,0.3,1.1,0.3c0.5,0,0.9-0.1,1.3-0.3c0.4-0.2,0.6-0.5,0.8-0.9
				c0.1-0.3,0.2-0.7,0.2-1.2V244.4z"/>
		</g>
		<g class="st10">
			<path d="M120.9,263.8v1.2h-6.6c0-0.3,0-0.6,0.1-0.9c0.2-0.5,0.4-0.9,0.8-1.3s0.9-0.9,1.6-1.5c1.1-0.9,1.8-1.6,2.2-2.1
				c0.4-0.5,0.6-1,0.6-1.5c0-0.5-0.2-0.9-0.5-1.2c-0.3-0.3-0.8-0.5-1.4-0.5c-0.6,0-1.1,0.2-1.4,0.5s-0.5,0.8-0.5,1.5l-1.3-0.1
				c0.1-0.9,0.4-1.7,1-2.2c0.6-0.5,1.3-0.7,2.3-0.7c1,0,1.7,0.3,2.3,0.8s0.8,1.2,0.8,2c0,0.4-0.1,0.8-0.2,1.2s-0.4,0.8-0.8,1.2
				s-1,1-1.9,1.8c-0.7,0.6-1.2,1-1.4,1.3c-0.2,0.2-0.4,0.4-0.5,0.7H120.9z"/>
			<path d="M122,262.4l1.3-0.1c0.1,0.6,0.3,1.1,0.7,1.4c0.3,0.3,0.8,0.5,1.3,0.5c0.6,0,1.1-0.2,1.5-0.7s0.6-1,0.6-1.8
				c0-0.7-0.2-1.3-0.6-1.7s-0.9-0.6-1.5-0.6c-0.4,0-0.8,0.1-1.1,0.3c-0.3,0.2-0.6,0.4-0.8,0.7l-1.2-0.2l1-5.1h5v1.2h-4l-0.5,2.7
				c0.6-0.4,1.2-0.6,1.9-0.6c0.9,0,1.6,0.3,2.2,0.9s0.9,1.4,0.9,2.3c0,0.9-0.3,1.7-0.8,2.4c-0.6,0.8-1.5,1.2-2.6,1.2
				c-0.9,0-1.7-0.3-2.2-0.8S122,263.2,122,262.4z"/>
			<path d="M130.2,265v-1.4h1.4v1.4H130.2z"/>
			<path d="M137.9,265h-1.2v-7.8c-0.3,0.3-0.7,0.6-1.2,0.8s-0.9,0.5-1.3,0.6v-1.2c0.7-0.3,1.3-0.7,1.8-1.2s0.9-0.9,1.1-1.3h0.8V265z
				"/>
			<path d="M144.4,265h-1.2v-7.8c-0.3,0.3-0.7,0.6-1.2,0.8s-0.9,0.5-1.3,0.6v-1.2c0.7-0.3,1.3-0.7,1.8-1.2s0.9-0.9,1.1-1.3h0.8V265z
				"/>
			<path d="M148,265v-1.4h1.4v1.4H148z"/>
			<path d="M155.6,265h-1.2v-7.8c-0.3,0.3-0.7,0.6-1.2,0.8s-0.9,0.5-1.3,0.6v-1.2c0.7-0.3,1.3-0.7,1.8-1.2s0.9-0.9,1.1-1.3h0.8V265z
				"/>
			<path d="M158.8,262.7l1.2-0.1c0.1,0.6,0.3,1,0.6,1.2s0.6,0.4,1.1,0.4c0.4,0,0.7-0.1,1-0.3s0.5-0.4,0.7-0.7
				c0.2-0.3,0.3-0.7,0.5-1.2s0.2-1,0.2-1.5c0-0.1,0-0.1,0-0.2c-0.2,0.4-0.6,0.7-1,1c-0.4,0.2-0.9,0.4-1.4,0.4
				c-0.8,0-1.5-0.3-2.1-0.9s-0.9-1.4-0.9-2.4c0-1,0.3-1.8,0.9-2.5s1.4-0.9,2.3-0.9c0.7,0,1.2,0.2,1.8,0.5s1,0.9,1.2,1.5
				c0.3,0.6,0.4,1.6,0.4,2.8c0,1.3-0.1,2.3-0.4,3.1c-0.3,0.8-0.7,1.3-1.2,1.7s-1.2,0.6-1.9,0.6c-0.8,0-1.4-0.2-1.9-0.7
				C159.2,264.1,158.9,263.5,158.8,262.7z M163.8,258.3c0-0.7-0.2-1.3-0.6-1.7s-0.8-0.6-1.4-0.6c-0.5,0-1,0.2-1.4,0.7
				s-0.6,1-0.6,1.7c0,0.6,0.2,1.2,0.6,1.6c0.4,0.4,0.9,0.6,1.4,0.6c0.6,0,1-0.2,1.4-0.6C163.6,259.5,163.8,259,163.8,258.3z"/>
			<path d="M166.2,262.4l1.2-0.2c0.1,0.7,0.4,1.2,0.7,1.5c0.3,0.3,0.8,0.5,1.2,0.5c0.6,0,1.1-0.2,1.5-0.6s0.6-0.9,0.6-1.5
				c0-0.6-0.2-1-0.6-1.4c-0.4-0.4-0.8-0.6-1.4-0.6c-0.2,0-0.5,0-0.9,0.1l0.1-1.1c0.1,0,0.1,0,0.2,0c0.5,0,1-0.1,1.4-0.4
				s0.6-0.7,0.6-1.3c0-0.5-0.2-0.8-0.5-1.1s-0.7-0.4-1.2-0.4c-0.5,0-0.9,0.2-1.2,0.5s-0.5,0.8-0.6,1.4l-1.2-0.2
				c0.2-0.8,0.5-1.5,1-1.9c0.5-0.5,1.2-0.7,2-0.7c0.5,0,1.1,0.1,1.5,0.4c0.5,0.2,0.8,0.6,1.1,1s0.4,0.8,0.4,1.3
				c0,0.4-0.1,0.8-0.3,1.2s-0.6,0.6-1,0.8c0.6,0.1,1.1,0.4,1.4,0.9c0.3,0.4,0.5,1,0.5,1.6c0,0.9-0.3,1.6-1,2.2
				c-0.6,0.6-1.4,0.9-2.4,0.9c-0.9,0-1.6-0.3-2.2-0.8S166.3,263.2,166.2,262.4z"/>
			<path d="M180.1,257.4l-1.2,0.1c-0.1-0.5-0.3-0.8-0.5-1.1c-0.3-0.4-0.7-0.5-1.2-0.5c-0.4,0-0.7,0.1-1,0.3
				c-0.4,0.3-0.7,0.7-0.9,1.2s-0.3,1.3-0.3,2.3c0.3-0.5,0.7-0.8,1.1-1s0.9-0.3,1.3-0.3c0.8,0,1.5,0.3,2.1,0.9
				c0.6,0.6,0.9,1.4,0.9,2.3c0,0.6-0.1,1.2-0.4,1.8c-0.3,0.5-0.6,1-1.1,1.2s-1,0.4-1.6,0.4c-1,0-1.9-0.4-2.5-1.1c-0.6-0.8-1-2-1-3.7
				c0-1.9,0.4-3.3,1.1-4.2c0.6-0.8,1.5-1.1,2.5-1.1c0.8,0,1.4,0.2,1.9,0.7S180,256.7,180.1,257.4z M175.1,261.8
				c0,0.4,0.1,0.8,0.3,1.2s0.4,0.7,0.8,0.9c0.3,0.2,0.7,0.3,1,0.3c0.5,0,1-0.2,1.3-0.6s0.6-1,0.6-1.7c0-0.7-0.2-1.2-0.6-1.6
				c-0.4-0.4-0.8-0.6-1.4-0.6c-0.6,0-1,0.2-1.4,0.6C175.3,260.6,175.1,261.1,175.1,261.8z"/>
		</g>
		<g class="st10">
			<path class="st4" d="M639.7,204h6.1v8.8h0.9v3.5h-1.2V214h-6.6v2.3h-1.2v-3.5h0.8c0.8-1.2,1.2-3.7,1.2-7.4V204z M644.5,205.2H641
				v0.5c0,0.9-0.1,2-0.2,3.5c-0.2,1.5-0.5,2.7-0.9,3.6h4.6V205.2z"/>
			<path class="st4" d="M647.6,210.4c0-1.3,0.4-2.3,1.1-3c0.6-0.5,1.4-0.8,2.3-0.8c1,0,1.8,0.3,2.4,1c0.6,0.7,1,1.6,1,2.7
				c0,0.9-0.1,1.7-0.4,2.2c-0.3,0.5-0.7,1-1.2,1.2c-0.5,0.3-1.1,0.4-1.8,0.4c-1,0-1.8-0.3-2.5-1C648,212.5,647.6,211.6,647.6,210.4z
				 M648.9,210.4c0,0.9,0.2,1.6,0.6,2.1c0.4,0.5,0.9,0.7,1.5,0.7c0.6,0,1.1-0.2,1.5-0.7c0.4-0.5,0.6-1.2,0.6-2.1
				c0-0.9-0.2-1.6-0.6-2c-0.4-0.5-0.9-0.7-1.5-0.7c-0.6,0-1.1,0.2-1.5,0.7C649.1,208.7,648.9,209.4,648.9,210.4z"/>
			<path class="st4" d="M654.9,206.7h1.2v1.4c0,0.6,0,1,0.1,1.3c0.1,0.3,0.2,0.5,0.5,0.7c0.3,0.2,0.6,0.3,1,0.3
				c0.5,0,1.1-0.1,1.8-0.4v-3.3h1.2v7.3h-1.2v-2.9c-0.8,0.2-1.5,0.4-2.1,0.4c-0.6,0-1-0.1-1.5-0.4c-0.4-0.3-0.7-0.6-0.9-1
				s-0.2-0.9-0.2-1.3V206.7z"/>
			<path class="st4" d="M662.4,206.7h1.2v2.8h1.6c1,0,1.8,0.2,2.3,0.6c0.5,0.4,0.8,0.9,0.8,1.6c0,0.6-0.2,1.1-0.7,1.6
				c-0.5,0.4-1.2,0.6-2.2,0.6h-3.1V206.7z M663.7,213h1.3c0.8,0,1.3-0.1,1.7-0.3c0.3-0.2,0.5-0.5,0.5-0.9c0-0.3-0.1-0.6-0.4-0.8
				s-0.8-0.4-1.6-0.4h-1.5V213z"/>
		</g>
		<g class="st10">
			<path d="M539.6,227.5l1.3,0.3c-0.3,1.1-0.8,1.9-1.5,2.5c-0.7,0.6-1.6,0.9-2.6,0.9c-1.1,0-2-0.2-2.6-0.7c-0.7-0.4-1.2-1.1-1.5-1.9
				s-0.5-1.7-0.5-2.7c0-1,0.2-2,0.6-2.7c0.4-0.8,1-1.4,1.7-1.8c0.7-0.4,1.5-0.6,2.4-0.6c1,0,1.8,0.3,2.5,0.8s1.2,1.2,1.4,2.2
				l-1.3,0.3c-0.2-0.7-0.6-1.3-1-1.6s-1-0.5-1.7-0.5c-0.8,0-1.4,0.2-1.9,0.6s-0.9,0.9-1.1,1.5c-0.2,0.6-0.3,1.3-0.3,1.9
				c0,0.9,0.1,1.6,0.4,2.2c0.2,0.6,0.6,1.1,1.2,1.4s1.1,0.5,1.7,0.5c0.7,0,1.4-0.2,1.9-0.6S539.5,228.3,539.6,227.5z"/>
			<path d="M547.1,230.1c-0.5,0.4-0.9,0.7-1.3,0.8s-0.9,0.2-1.4,0.2c-0.8,0-1.4-0.2-1.8-0.6c-0.4-0.4-0.6-0.9-0.6-1.5
				c0-0.4,0.1-0.7,0.2-1c0.2-0.3,0.4-0.5,0.6-0.7s0.6-0.3,0.9-0.4c0.2-0.1,0.6-0.1,1.1-0.2c1-0.1,1.7-0.3,2.2-0.4c0-0.2,0-0.3,0-0.3
				c0-0.5-0.1-0.9-0.3-1.1c-0.3-0.3-0.8-0.4-1.4-0.4c-0.6,0-1,0.1-1.3,0.3c-0.3,0.2-0.5,0.6-0.6,1.1l-1.2-0.2
				c0.1-0.5,0.3-0.9,0.5-1.2c0.3-0.3,0.6-0.6,1.1-0.7c0.5-0.2,1-0.3,1.6-0.3c0.6,0,1.1,0.1,1.5,0.2s0.7,0.3,0.9,0.6
				c0.2,0.2,0.3,0.5,0.4,0.8c0,0.2,0.1,0.6,0.1,1.1v1.6c0,1.1,0,1.9,0.1,2.2c0.1,0.3,0.2,0.6,0.3,0.9h-1.3
				C547.3,230.7,547.2,230.4,547.1,230.1z M547,227.4c-0.4,0.2-1.1,0.3-2,0.5c-0.5,0.1-0.9,0.2-1.1,0.2s-0.4,0.2-0.5,0.4
				c-0.1,0.2-0.2,0.4-0.2,0.6c0,0.3,0.1,0.6,0.4,0.8s0.6,0.3,1.1,0.3c0.5,0,0.9-0.1,1.3-0.3c0.4-0.2,0.6-0.5,0.8-0.9
				c0.1-0.3,0.2-0.7,0.2-1.2V227.4z"/>
			<path d="M550.6,223.7h5.7v7.3h-1.2v-6.2h-3.3v3.6c0,0.8,0,1.4-0.1,1.7s-0.2,0.5-0.5,0.7s-0.6,0.3-1.1,0.3c-0.3,0-0.6,0-1-0.1v-1
				h0.5c0.3,0,0.4,0,0.5-0.1c0.1-0.1,0.2-0.1,0.2-0.2s0.1-0.5,0.1-1.1V223.7z"/>
			<path d="M557.3,223.7h5.9v1h-2.3v6.2h-1.2v-6.2h-2.3V223.7z"/>
			<path d="M564.2,223.7h1.2v2.8h1.6c1,0,1.8,0.2,2.3,0.6c0.5,0.4,0.8,0.9,0.8,1.6c0,0.6-0.2,1.1-0.7,1.6c-0.5,0.4-1.2,0.6-2.2,0.6
				h-3.1V223.7z M565.4,230h1.3c0.8,0,1.3-0.1,1.7-0.3s0.5-0.5,0.5-0.9c0-0.3-0.1-0.6-0.4-0.8s-0.8-0.4-1.6-0.4h-1.5V230z
				 M571,223.7h1.2v7.3H571V223.7z"/>
			<path d="M574,223.7h1.2v3.1c0.4,0,0.7-0.1,0.8-0.2s0.4-0.6,0.7-1.3c0.2-0.6,0.4-1,0.6-1.1s0.3-0.3,0.5-0.4s0.5-0.1,0.9-0.1h0.2v1
				l-0.3,0c-0.3,0-0.5,0-0.6,0.1c-0.1,0.1-0.2,0.4-0.4,0.9c-0.2,0.5-0.4,0.8-0.5,1s-0.4,0.3-0.7,0.5c0.5,0.1,1,0.6,1.6,1.5l1.3,2.2
				h-1.4l-1.3-2.2c-0.3-0.5-0.5-0.7-0.7-0.9c-0.2-0.1-0.4-0.2-0.7-0.2v3.4H574V223.7z"/>
			<path d="M579.6,227.4c0-1.3,0.4-2.3,1.1-3c0.6-0.5,1.4-0.8,2.3-0.8c1,0,1.8,0.3,2.4,1c0.6,0.7,1,1.6,1,2.7c0,0.9-0.1,1.7-0.4,2.2
				c-0.3,0.5-0.7,1-1.2,1.2s-1.1,0.4-1.8,0.4c-1,0-1.8-0.3-2.5-1S579.6,228.6,579.6,227.4z M580.9,227.4c0,0.9,0.2,1.6,0.6,2.1
				c0.4,0.5,0.9,0.7,1.5,0.7c0.6,0,1.1-0.2,1.5-0.7s0.6-1.2,0.6-2.1c0-0.9-0.2-1.6-0.6-2c-0.4-0.5-0.9-0.7-1.5-0.7
				c-0.6,0-1.1,0.2-1.5,0.7S580.9,226.4,580.9,227.4z"/>
			<path d="M587.6,223.7h2.8c0.7,0,1.2,0.1,1.6,0.2c0.3,0.1,0.6,0.3,0.9,0.6s0.4,0.7,0.4,1.1c0,0.3-0.1,0.6-0.2,0.9
				c-0.1,0.3-0.4,0.5-0.6,0.6c0.3,0.1,0.6,0.3,0.9,0.6c0.2,0.3,0.3,0.7,0.3,1.1c0,0.7-0.3,1.2-0.7,1.5s-1.1,0.5-1.9,0.5h-3.3V223.7z
				 M588.9,226.8h1.3c0.5,0,0.9,0,1.1-0.1s0.4-0.2,0.5-0.3c0.2-0.2,0.2-0.4,0.2-0.6c0-0.4-0.1-0.6-0.4-0.8s-0.7-0.2-1.4-0.2h-1.4
				V226.8z M588.9,230h1.6c0.7,0,1.2-0.1,1.4-0.2c0.3-0.2,0.4-0.4,0.4-0.8c0-0.2-0.1-0.4-0.2-0.6c-0.2-0.2-0.3-0.3-0.6-0.4
				c-0.2-0.1-0.6-0.1-1.2-0.1h-1.5V230z"/>
			<path d="M599.4,230.1c-0.5,0.4-0.9,0.7-1.3,0.8s-0.9,0.2-1.4,0.2c-0.8,0-1.4-0.2-1.8-0.6c-0.4-0.4-0.6-0.9-0.6-1.5
				c0-0.4,0.1-0.7,0.2-1c0.2-0.3,0.4-0.5,0.6-0.7s0.6-0.3,0.9-0.4c0.2-0.1,0.6-0.1,1.1-0.2c1-0.1,1.7-0.3,2.2-0.4c0-0.2,0-0.3,0-0.3
				c0-0.5-0.1-0.9-0.3-1.1c-0.3-0.3-0.8-0.4-1.4-0.4c-0.6,0-1,0.1-1.3,0.3c-0.3,0.2-0.5,0.6-0.6,1.1l-1.2-0.2
				c0.1-0.5,0.3-0.9,0.5-1.2c0.3-0.3,0.6-0.6,1.1-0.7c0.5-0.2,1-0.3,1.6-0.3c0.6,0,1.1,0.1,1.5,0.2s0.7,0.3,0.9,0.6
				c0.2,0.2,0.3,0.5,0.4,0.8c0,0.2,0.1,0.6,0.1,1.1v1.6c0,1.1,0,1.9,0.1,2.2c0.1,0.3,0.2,0.6,0.3,0.9h-1.3
				C599.6,230.7,599.5,230.4,599.4,230.1z M599.3,227.4c-0.4,0.2-1.1,0.3-2,0.5c-0.5,0.1-0.9,0.2-1.1,0.2s-0.4,0.2-0.5,0.4
				c-0.1,0.2-0.2,0.4-0.2,0.6c0,0.3,0.1,0.6,0.4,0.8s0.6,0.3,1.1,0.3c0.5,0,0.9-0.1,1.3-0.3c0.4-0.2,0.6-0.5,0.8-0.9
				c0.1-0.3,0.2-0.7,0.2-1.2V227.4z"/>
			<path d="M601.8,228v-1.2h3.8v1.2H601.8z"/>
			<path d="M606.9,221h1.3v8.8h3.3V221h1.3v8.8h3.3V221h1.3v8.8h0.9v4h-1.2V231h-10.4V221z"/>
			<path d="M624.6,228.7l1.3,0.2c-0.2,0.7-0.6,1.3-1.1,1.7c-0.5,0.4-1.2,0.6-2.1,0.6c-1.1,0-1.9-0.3-2.5-1c-0.6-0.7-0.9-1.6-0.9-2.8
				c0-1.2,0.3-2.2,0.9-2.8s1.4-1,2.4-1c1,0,1.8,0.3,2.4,1s0.9,1.6,0.9,2.8c0,0.1,0,0.2,0,0.3h-5.4c0,0.8,0.3,1.4,0.7,1.8
				c0.4,0.4,0.9,0.6,1.5,0.6c0.5,0,0.8-0.1,1.2-0.4C624.2,229.6,624.4,229.2,624.6,228.7z M620.6,226.7h4.1
				c-0.1-0.6-0.2-1.1-0.5-1.4c-0.4-0.5-0.9-0.7-1.5-0.7c-0.6,0-1,0.2-1.4,0.6S620.6,226,620.6,226.7z"/>
			<path d="M627.9,223.7h5.1v6.2h0.8v3.1h-1V231H627v2.1h-1V230h0.7C627.5,228.8,627.9,226.7,627.9,223.7z M628.9,224.8
				c-0.1,2.4-0.5,4.1-1.1,5.2h3.9v-5.2H628.9z"/>
			<path d="M634.9,233.8v-10h1.1v0.9c0.3-0.4,0.6-0.6,0.9-0.8c0.3-0.2,0.7-0.3,1.2-0.3c0.6,0,1.2,0.2,1.6,0.5
				c0.5,0.3,0.8,0.8,1.1,1.3c0.2,0.6,0.4,1.2,0.4,1.9c0,0.7-0.1,1.4-0.4,2c-0.3,0.6-0.7,1-1.2,1.4c-0.5,0.3-1,0.5-1.6,0.5
				c-0.4,0-0.8-0.1-1.1-0.3s-0.6-0.4-0.8-0.7v3.5H634.9z M636,227.4c0,0.9,0.2,1.6,0.6,2.1c0.4,0.4,0.8,0.7,1.4,0.7
				c0.5,0,1-0.2,1.4-0.7c0.4-0.5,0.6-1.2,0.6-2.2c0-0.9-0.2-1.6-0.6-2.1s-0.8-0.7-1.4-0.7c-0.5,0-1,0.2-1.4,0.7
				C636.2,225.8,636,226.5,636,227.4z"/>
			<path d="M642.5,223.7h1.2v5.5l3.4-5.5h1.3v7.3h-1.2v-5.5l-3.4,5.5h-1.3V223.7z"/>
			<path d="M650.1,223.7h1.2v3h3.4v-3h1.2v7.3h-1.2v-3.2h-3.4v3.2h-1.2V223.7z"/>
			<path d="M662.3,230.1c-0.5,0.4-0.9,0.7-1.3,0.8s-0.9,0.2-1.4,0.2c-0.8,0-1.4-0.2-1.8-0.6c-0.4-0.4-0.6-0.9-0.6-1.5
				c0-0.4,0.1-0.7,0.2-1c0.2-0.3,0.4-0.5,0.6-0.7s0.6-0.3,0.9-0.4c0.2-0.1,0.6-0.1,1.1-0.2c1-0.1,1.7-0.3,2.2-0.4c0-0.2,0-0.3,0-0.3
				c0-0.5-0.1-0.9-0.3-1.1c-0.3-0.3-0.8-0.4-1.4-0.4c-0.6,0-1,0.1-1.3,0.3c-0.3,0.2-0.5,0.6-0.6,1.1l-1.2-0.2
				c0.1-0.5,0.3-0.9,0.5-1.2c0.2-0.3,0.6-0.6,1.1-0.7c0.5-0.2,1-0.3,1.6-0.3c0.6,0,1.1,0.1,1.5,0.2c0.4,0.1,0.7,0.3,0.9,0.6
				c0.2,0.2,0.3,0.5,0.4,0.8c0,0.2,0.1,0.6,0.1,1.1v1.6c0,1.1,0,1.9,0.1,2.2c0.1,0.3,0.2,0.6,0.3,0.9h-1.3
				C662.4,230.7,662.4,230.4,662.3,230.1z M662.2,227.4c-0.4,0.2-1.1,0.3-2,0.5c-0.5,0.1-0.9,0.2-1.1,0.2c-0.2,0.1-0.4,0.2-0.5,0.4
				c-0.1,0.2-0.2,0.4-0.2,0.6c0,0.3,0.1,0.6,0.4,0.8s0.6,0.3,1.1,0.3c0.5,0,0.9-0.1,1.3-0.3c0.4-0.2,0.6-0.5,0.8-0.9
				c0.1-0.3,0.2-0.7,0.2-1.2V227.4z"/>
		</g>
		<g class="st10">
			<path d="M533.1,248v-10h3.8c0.8,0,1.4,0.1,1.8,0.3c0.5,0.2,0.8,0.5,1.1,0.9c0.3,0.4,0.4,0.9,0.4,1.3c0,0.4-0.1,0.8-0.3,1.2
				s-0.6,0.7-1.1,0.9c0.6,0.2,1.1,0.5,1.4,0.9c0.3,0.4,0.5,0.9,0.5,1.5c0,0.5-0.1,0.9-0.3,1.3c-0.2,0.4-0.4,0.7-0.7,0.9
				c-0.3,0.2-0.7,0.4-1.1,0.5c-0.4,0.1-1,0.2-1.6,0.2H533.1z M534.4,242.2h2.2c0.6,0,1,0,1.3-0.1c0.3-0.1,0.6-0.3,0.8-0.5
				s0.3-0.5,0.3-0.9c0-0.3-0.1-0.6-0.2-0.9c-0.2-0.3-0.4-0.4-0.7-0.5c-0.3-0.1-0.8-0.1-1.5-0.1h-2V242.2z M534.4,246.8h2.5
				c0.4,0,0.7,0,0.9,0c0.3-0.1,0.6-0.1,0.8-0.3s0.4-0.3,0.5-0.6c0.1-0.2,0.2-0.5,0.2-0.8c0-0.4-0.1-0.7-0.3-1
				c-0.2-0.3-0.5-0.5-0.8-0.6c-0.3-0.1-0.8-0.2-1.5-0.2h-2.3V246.8z"/>
			<path d="M546.8,247.1c-0.5,0.4-0.9,0.7-1.3,0.8c-0.4,0.2-0.9,0.2-1.4,0.2c-0.8,0-1.4-0.2-1.8-0.6c-0.4-0.4-0.6-0.9-0.6-1.5
				c0-0.4,0.1-0.7,0.2-1c0.2-0.3,0.4-0.5,0.6-0.7c0.3-0.2,0.6-0.3,0.9-0.4c0.2-0.1,0.6-0.1,1.1-0.2c1-0.1,1.7-0.3,2.2-0.4
				c0-0.2,0-0.3,0-0.3c0-0.5-0.1-0.9-0.3-1.1c-0.3-0.3-0.8-0.4-1.4-0.4c-0.6,0-1,0.1-1.3,0.3c-0.3,0.2-0.5,0.6-0.6,1.1l-1.2-0.2
				c0.1-0.5,0.3-0.9,0.5-1.2c0.3-0.3,0.6-0.6,1.1-0.7c0.5-0.2,1-0.3,1.6-0.3c0.6,0,1.1,0.1,1.5,0.2c0.4,0.1,0.7,0.3,0.9,0.6
				c0.2,0.2,0.3,0.5,0.4,0.8c0,0.2,0.1,0.6,0.1,1.1v1.6c0,1.1,0,1.9,0.1,2.2c0.1,0.3,0.2,0.6,0.3,0.9h-1.3
				C547,247.7,546.9,247.4,546.8,247.1z M546.7,244.4c-0.4,0.2-1.1,0.3-2,0.5c-0.5,0.1-0.9,0.2-1.1,0.2c-0.2,0.1-0.4,0.2-0.5,0.4
				c-0.1,0.2-0.2,0.4-0.2,0.6c0,0.3,0.1,0.6,0.4,0.8c0.2,0.2,0.6,0.3,1.1,0.3c0.5,0,0.9-0.1,1.3-0.3c0.4-0.2,0.6-0.5,0.8-0.9
				c0.1-0.3,0.2-0.7,0.2-1.2V244.4z"/>
			<path d="M550.3,240.7h5.7v7.3h-1.2v-6.2h-3.3v3.6c0,0.8,0,1.4-0.1,1.7s-0.2,0.5-0.5,0.7s-0.6,0.3-1.1,0.3c-0.3,0-0.6,0-1-0.1v-1
				h0.5c0.3,0,0.4,0,0.5-0.1c0.1-0.1,0.2-0.1,0.2-0.2c0-0.1,0.1-0.5,0.1-1.1V240.7z"/>
			<path d="M562.6,245.7l1.3,0.2c-0.2,0.7-0.6,1.3-1.1,1.7c-0.5,0.4-1.2,0.6-2.1,0.6c-1.1,0-1.9-0.3-2.5-1c-0.6-0.7-0.9-1.6-0.9-2.8
				c0-1.2,0.3-2.2,0.9-2.8s1.4-1,2.4-1c1,0,1.8,0.3,2.4,1s0.9,1.6,0.9,2.8c0,0.1,0,0.2,0,0.3h-5.4c0,0.8,0.3,1.4,0.7,1.8
				c0.4,0.4,0.9,0.6,1.5,0.6c0.5,0,0.8-0.1,1.2-0.4C562.2,246.6,562.4,246.2,562.6,245.7z M558.6,243.7h4.1
				c-0.1-0.6-0.2-1.1-0.5-1.4c-0.4-0.5-0.9-0.7-1.5-0.7c-0.6,0-1,0.2-1.4,0.6C558.8,242.5,558.6,243,558.6,243.7z"/>
			<path d="M565.2,250.8v-10h1.1v0.9c0.3-0.4,0.6-0.6,0.9-0.8c0.3-0.2,0.7-0.3,1.2-0.3c0.6,0,1.2,0.2,1.6,0.5
				c0.5,0.3,0.8,0.8,1.1,1.3c0.2,0.6,0.4,1.2,0.4,1.9c0,0.7-0.1,1.4-0.4,2c-0.3,0.6-0.7,1-1.2,1.4c-0.5,0.3-1,0.5-1.6,0.5
				c-0.4,0-0.8-0.1-1.1-0.3c-0.3-0.2-0.6-0.4-0.8-0.7v3.5H565.2z M566.3,244.4c0,0.9,0.2,1.6,0.6,2.1c0.4,0.4,0.8,0.7,1.4,0.7
				c0.5,0,1-0.2,1.4-0.7c0.4-0.5,0.6-1.2,0.6-2.2c0-0.9-0.2-1.6-0.6-2.1c-0.4-0.5-0.8-0.7-1.4-0.7c-0.5,0-1,0.2-1.4,0.7
				C566.5,242.8,566.3,243.5,566.3,244.4z"/>
			<path d="M572.8,240.7h1.2v5.5l3.4-5.5h1.3v7.3h-1.2v-5.5l-3.4,5.5h-1.3V240.7z"/>
			<path d="M586.1,240.7v7.3h-1.2v-2.8h-0.7c-0.4,0-0.8,0.1-1,0.2c-0.2,0.1-0.5,0.5-0.9,1.1l-1.1,1.6h-1.5l1.3-2
				c0.4-0.6,0.8-0.9,1.2-1c-0.7-0.1-1.2-0.3-1.6-0.8c-0.3-0.4-0.5-0.9-0.5-1.4c0-0.6,0.2-1.1,0.7-1.5s1.1-0.6,1.9-0.6H586.1z
				 M584.9,241.8h-1.8c-0.7,0-1.2,0.1-1.4,0.3s-0.3,0.5-0.3,0.8c0,0.4,0.2,0.8,0.5,1c0.3,0.2,0.9,0.3,1.7,0.3h1.4V241.8z"/>
			<path d="M591.7,248v-10h1.3v4.1h5.2V238h1.3v10h-1.3v-4.7H593v4.7H591.7z"/>
			<path d="M601.4,240.7h1.2v5.5l3.4-5.5h1.3v7.3h-1.2v-5.5l-3.4,5.5h-1.3V240.7z"/>
			<path d="M609,240.7h1.2v3.1c0.4,0,0.7-0.1,0.8-0.2s0.4-0.6,0.7-1.3c0.2-0.6,0.4-1,0.6-1.1s0.3-0.3,0.5-0.4
				c0.2-0.1,0.5-0.1,0.9-0.1h0.2v1l-0.3,0c-0.3,0-0.5,0-0.6,0.1c-0.1,0.1-0.2,0.4-0.4,0.9c-0.2,0.5-0.4,0.8-0.5,1
				c-0.2,0.2-0.4,0.3-0.7,0.5c0.5,0.1,1,0.6,1.6,1.5l1.3,2.2h-1.4l-1.3-2.2c-0.3-0.5-0.5-0.7-0.7-0.9c-0.2-0.1-0.4-0.2-0.7-0.2v3.4
				H609V240.7z"/>
			<path d="M614.6,244.4c0-1.3,0.4-2.3,1.1-3c0.6-0.5,1.4-0.8,2.3-0.8c1,0,1.8,0.3,2.4,1c0.6,0.7,1,1.6,1,2.7c0,0.9-0.1,1.7-0.4,2.2
				c-0.3,0.5-0.7,1-1.2,1.2c-0.5,0.3-1.1,0.4-1.8,0.4c-1,0-1.8-0.3-2.5-1C614.9,246.5,614.6,245.6,614.6,244.4z M615.8,244.4
				c0,0.9,0.2,1.6,0.6,2.1c0.4,0.5,0.9,0.7,1.5,0.7c0.6,0,1.1-0.2,1.5-0.7c0.4-0.5,0.6-1.2,0.6-2.1c0-0.9-0.2-1.6-0.6-2
				c-0.4-0.5-0.9-0.7-1.5-0.7c-0.6,0-1.1,0.2-1.5,0.7C616,242.7,615.8,243.4,615.8,244.4z"/>
			<path d="M622.9,240.7h5.7v7.3h-1.2v-6.2h-3.3v3.6c0,0.8,0,1.4-0.1,1.7s-0.2,0.5-0.5,0.7s-0.6,0.3-1.1,0.3c-0.3,0-0.6,0-1-0.1v-1
				h0.5c0.3,0,0.4,0,0.5-0.1c0.1-0.1,0.2-0.1,0.2-0.2c0-0.1,0.1-0.5,0.1-1.1V240.7z"/>
			<path d="M635,247.1c-0.5,0.4-0.9,0.7-1.3,0.8c-0.4,0.2-0.9,0.2-1.4,0.2c-0.8,0-1.4-0.2-1.8-0.6c-0.4-0.4-0.6-0.9-0.6-1.5
				c0-0.4,0.1-0.7,0.2-1c0.2-0.3,0.4-0.5,0.6-0.7c0.3-0.2,0.6-0.3,0.9-0.4c0.2-0.1,0.6-0.1,1.1-0.2c1-0.1,1.7-0.3,2.2-0.4
				c0-0.2,0-0.3,0-0.3c0-0.5-0.1-0.9-0.3-1.1c-0.3-0.3-0.8-0.4-1.4-0.4c-0.6,0-1,0.1-1.3,0.3c-0.3,0.2-0.5,0.6-0.6,1.1l-1.2-0.2
				c0.1-0.5,0.3-0.9,0.5-1.2c0.2-0.3,0.6-0.6,1.1-0.7c0.5-0.2,1-0.3,1.6-0.3c0.6,0,1.1,0.1,1.5,0.2c0.4,0.1,0.7,0.3,0.9,0.6
				c0.2,0.2,0.3,0.5,0.4,0.8c0,0.2,0.1,0.6,0.1,1.1v1.6c0,1.1,0,1.9,0.1,2.2c0.1,0.3,0.2,0.6,0.3,0.9h-1.3
				C635.1,247.7,635,247.4,635,247.1z M634.9,244.4c-0.4,0.2-1.1,0.3-2,0.5c-0.5,0.1-0.9,0.2-1.1,0.2c-0.2,0.1-0.4,0.2-0.5,0.4
				c-0.1,0.2-0.2,0.4-0.2,0.6c0,0.3,0.1,0.6,0.4,0.8c0.2,0.2,0.6,0.3,1.1,0.3c0.5,0,0.9-0.1,1.3-0.3c0.4-0.2,0.6-0.5,0.8-0.9
				c0.1-0.3,0.2-0.7,0.2-1.2V244.4z"/>
			<path d="M642.8,245.7l1.3,0.2c-0.2,0.7-0.6,1.3-1.1,1.7c-0.5,0.4-1.2,0.6-2.1,0.6c-1.1,0-1.9-0.3-2.5-1c-0.6-0.7-0.9-1.6-0.9-2.8
				c0-1.2,0.3-2.2,0.9-2.8s1.4-1,2.4-1c1,0,1.8,0.3,2.4,1s0.9,1.6,0.9,2.8c0,0.1,0,0.2,0,0.3h-5.4c0,0.8,0.3,1.4,0.7,1.8
				c0.4,0.4,0.9,0.6,1.5,0.6c0.5,0,0.8-0.1,1.2-0.4C642.4,246.6,642.6,246.2,642.8,245.7z M638.8,243.7h4.1
				c-0.1-0.6-0.2-1.1-0.5-1.4c-0.4-0.5-0.9-0.7-1.5-0.7c-0.6,0-1,0.2-1.4,0.6C639,242.5,638.8,243,638.8,243.7z"/>
			<path d="M645.4,240.7h2.8c0.7,0,1.2,0.1,1.6,0.2c0.3,0.1,0.6,0.3,0.9,0.6c0.2,0.3,0.4,0.7,0.4,1.1c0,0.3-0.1,0.6-0.2,0.9
				c-0.1,0.3-0.4,0.5-0.6,0.6c0.3,0.1,0.6,0.3,0.9,0.6c0.2,0.3,0.3,0.7,0.3,1.1c0,0.7-0.3,1.2-0.7,1.5c-0.4,0.3-1.1,0.5-1.9,0.5
				h-3.3V240.7z M646.7,243.8h1.3c0.5,0,0.9,0,1.1-0.1c0.2-0.1,0.4-0.2,0.5-0.3c0.2-0.2,0.2-0.4,0.2-0.6c0-0.4-0.1-0.6-0.4-0.8
				c-0.3-0.2-0.7-0.2-1.4-0.2h-1.4V243.8z M646.7,247h1.6c0.7,0,1.2-0.1,1.4-0.2c0.3-0.2,0.4-0.4,0.4-0.8c0-0.2-0.1-0.4-0.2-0.6
				c-0.2-0.2-0.3-0.3-0.6-0.4c-0.2-0.1-0.6-0.1-1.2-0.1h-1.5V247z"/>
			<path d="M652.7,240.7h1.2v3h3.4v-3h1.2v7.3h-1.2v-3.2h-3.4v3.2h-1.2V240.7z"/>
			<path d="M664.9,247.1c-0.5,0.4-0.9,0.7-1.3,0.8c-0.4,0.2-0.9,0.2-1.4,0.2c-0.8,0-1.4-0.2-1.8-0.6c-0.4-0.4-0.6-0.9-0.6-1.5
				c0-0.4,0.1-0.7,0.2-1c0.2-0.3,0.4-0.5,0.6-0.7c0.3-0.2,0.6-0.3,0.9-0.4c0.2-0.1,0.6-0.1,1.1-0.2c1-0.1,1.7-0.3,2.2-0.4
				c0-0.2,0-0.3,0-0.3c0-0.5-0.1-0.9-0.3-1.1c-0.3-0.3-0.8-0.4-1.4-0.4c-0.6,0-1,0.1-1.3,0.3c-0.3,0.2-0.5,0.6-0.6,1.1l-1.2-0.2
				c0.1-0.5,0.3-0.9,0.5-1.2c0.2-0.3,0.6-0.6,1.1-0.7c0.5-0.2,1-0.3,1.6-0.3c0.6,0,1.1,0.1,1.5,0.2c0.4,0.1,0.7,0.3,0.9,0.6
				c0.2,0.2,0.3,0.5,0.4,0.8c0,0.2,0.1,0.6,0.1,1.1v1.6c0,1.1,0,1.9,0.1,2.2c0.1,0.3,0.2,0.6,0.3,0.9h-1.3
				C665,247.7,664.9,247.4,664.9,247.1z M664.8,244.4c-0.4,0.2-1.1,0.3-2,0.5c-0.5,0.1-0.9,0.2-1.1,0.2c-0.2,0.1-0.4,0.2-0.5,0.4
				c-0.1,0.2-0.2,0.4-0.2,0.6c0,0.3,0.1,0.6,0.4,0.8c0.2,0.2,0.6,0.3,1.1,0.3c0.5,0,0.9-0.1,1.3-0.3c0.4-0.2,0.6-0.5,0.8-0.9
				c0.1-0.3,0.2-0.7,0.2-1.2V244.4z"/>
		</g>
		<g class="st10">
			<path d="M610.9,263.8v1.2h-6.6c0-0.3,0-0.6,0.1-0.9c0.2-0.5,0.4-0.9,0.8-1.3s0.9-0.9,1.6-1.5c1.1-0.9,1.8-1.6,2.2-2.1
				c0.4-0.5,0.6-1,0.6-1.5c0-0.5-0.2-0.9-0.5-1.2c-0.3-0.3-0.8-0.5-1.4-0.5c-0.6,0-1.1,0.2-1.4,0.5s-0.5,0.8-0.5,1.5l-1.3-0.1
				c0.1-0.9,0.4-1.7,1-2.2c0.6-0.5,1.3-0.7,2.3-0.7c1,0,1.7,0.3,2.3,0.8s0.8,1.2,0.8,2c0,0.4-0.1,0.8-0.2,1.2s-0.4,0.8-0.8,1.2
				s-1,1-1.9,1.8c-0.7,0.6-1.2,1-1.4,1.3c-0.2,0.2-0.4,0.4-0.5,0.7H610.9z"/>
			<path d="M612,262.4l1.3-0.1c0.1,0.6,0.3,1.1,0.7,1.4c0.3,0.3,0.8,0.5,1.3,0.5c0.6,0,1.1-0.2,1.5-0.7s0.6-1,0.6-1.8
				c0-0.7-0.2-1.3-0.6-1.7c-0.4-0.4-0.9-0.6-1.5-0.6c-0.4,0-0.8,0.1-1.1,0.3c-0.3,0.2-0.6,0.4-0.8,0.7l-1.2-0.2l1-5.1h5v1.2h-4
				l-0.5,2.7c0.6-0.4,1.2-0.6,1.9-0.6c0.9,0,1.6,0.3,2.2,0.9s0.9,1.4,0.9,2.3c0,0.9-0.3,1.7-0.8,2.4c-0.6,0.8-1.5,1.2-2.6,1.2
				c-0.9,0-1.7-0.3-2.2-0.8C612.4,263.9,612,263.2,612,262.4z"/>
			<path d="M620.2,265v-1.4h1.4v1.4H620.2z"/>
			<path d="M627.9,265h-1.2v-7.8c-0.3,0.3-0.7,0.6-1.2,0.8c-0.5,0.3-0.9,0.5-1.3,0.6v-1.2c0.7-0.3,1.3-0.7,1.8-1.2
				c0.5-0.5,0.9-0.9,1.1-1.3h0.8V265z"/>
			<path d="M634.4,265h-1.2v-7.8c-0.3,0.3-0.7,0.6-1.2,0.8c-0.5,0.3-0.9,0.5-1.3,0.6v-1.2c0.7-0.3,1.3-0.7,1.8-1.2
				c0.5-0.5,0.9-0.9,1.1-1.3h0.8V265z"/>
			<path d="M638,265v-1.4h1.4v1.4H638z"/>
			<path d="M645.6,265h-1.2v-7.8c-0.3,0.3-0.7,0.6-1.2,0.8c-0.5,0.3-0.9,0.5-1.3,0.6v-1.2c0.7-0.3,1.3-0.7,1.8-1.2
				c0.5-0.5,0.9-0.9,1.1-1.3h0.8V265z"/>
			<path d="M648.8,262.7l1.2-0.1c0.1,0.6,0.3,1,0.6,1.2c0.3,0.3,0.6,0.4,1.1,0.4c0.4,0,0.7-0.1,1-0.3c0.3-0.2,0.5-0.4,0.7-0.7
				c0.2-0.3,0.3-0.7,0.5-1.2s0.2-1,0.2-1.5c0-0.1,0-0.1,0-0.2c-0.2,0.4-0.6,0.7-1,1c-0.4,0.2-0.9,0.4-1.4,0.4
				c-0.8,0-1.5-0.3-2.1-0.9s-0.9-1.4-0.9-2.4c0-1,0.3-1.8,0.9-2.5c0.6-0.6,1.4-0.9,2.3-0.9c0.7,0,1.2,0.2,1.8,0.5s1,0.9,1.2,1.5
				c0.3,0.6,0.4,1.6,0.4,2.8c0,1.3-0.1,2.3-0.4,3.1c-0.3,0.8-0.7,1.3-1.2,1.7c-0.5,0.4-1.2,0.6-1.9,0.6c-0.8,0-1.4-0.2-1.9-0.7
				C649.2,264.1,648.9,263.5,648.8,262.7z M653.8,258.3c0-0.7-0.2-1.3-0.6-1.7s-0.8-0.6-1.4-0.6c-0.5,0-1,0.2-1.4,0.7
				c-0.4,0.4-0.6,1-0.6,1.7c0,0.6,0.2,1.2,0.6,1.6c0.4,0.4,0.9,0.6,1.4,0.6c0.6,0,1-0.2,1.4-0.6C653.6,259.5,653.8,259,653.8,258.3z
				"/>
			<path d="M656.2,262.4l1.2-0.2c0.1,0.7,0.4,1.2,0.7,1.5c0.3,0.3,0.8,0.5,1.2,0.5c0.6,0,1.1-0.2,1.5-0.6c0.4-0.4,0.6-0.9,0.6-1.5
				c0-0.6-0.2-1-0.6-1.4c-0.4-0.4-0.8-0.6-1.4-0.6c-0.2,0-0.5,0-0.9,0.1l0.1-1.1c0.1,0,0.1,0,0.2,0c0.5,0,1-0.1,1.4-0.4
				c0.4-0.3,0.6-0.7,0.6-1.3c0-0.5-0.2-0.8-0.5-1.1c-0.3-0.3-0.7-0.4-1.2-0.4c-0.5,0-0.9,0.2-1.2,0.5c-0.3,0.3-0.5,0.8-0.6,1.4
				l-1.2-0.2c0.2-0.8,0.5-1.5,1-1.9c0.5-0.5,1.2-0.7,2-0.7c0.5,0,1,0.1,1.5,0.4c0.5,0.2,0.8,0.6,1.1,1c0.2,0.4,0.4,0.8,0.4,1.3
				c0,0.4-0.1,0.8-0.3,1.2s-0.6,0.6-1,0.8c0.6,0.1,1.1,0.4,1.4,0.9c0.3,0.4,0.5,1,0.5,1.6c0,0.9-0.3,1.6-1,2.2
				c-0.6,0.6-1.4,0.9-2.4,0.9c-0.9,0-1.6-0.3-2.2-0.8S656.3,263.2,656.2,262.4z"/>
			<path d="M670.1,257.4l-1.2,0.1c-0.1-0.5-0.3-0.8-0.5-1.1c-0.3-0.4-0.7-0.5-1.2-0.5c-0.4,0-0.7,0.1-1,0.3
				c-0.4,0.3-0.7,0.7-0.9,1.2c-0.2,0.5-0.3,1.3-0.3,2.3c0.3-0.5,0.7-0.8,1.1-1c0.4-0.2,0.9-0.3,1.3-0.3c0.8,0,1.5,0.3,2.1,0.9
				c0.6,0.6,0.9,1.4,0.9,2.3c0,0.6-0.1,1.2-0.4,1.8c-0.3,0.5-0.6,1-1.1,1.2c-0.5,0.3-1,0.4-1.6,0.4c-1,0-1.9-0.4-2.5-1.1
				c-0.6-0.8-1-2-1-3.7c0-1.9,0.4-3.3,1.1-4.2c0.6-0.8,1.5-1.1,2.5-1.1c0.8,0,1.4,0.2,1.9,0.7C669.7,256,670,256.7,670.1,257.4z
				 M665.1,261.8c0,0.4,0.1,0.8,0.3,1.2c0.2,0.4,0.4,0.7,0.8,0.9c0.3,0.2,0.7,0.3,1,0.3c0.5,0,1-0.2,1.3-0.6c0.4-0.4,0.6-1,0.6-1.7
				c0-0.7-0.2-1.2-0.6-1.6c-0.4-0.4-0.8-0.6-1.4-0.6c-0.6,0-1,0.2-1.4,0.6C665.3,260.6,665.1,261.1,665.1,261.8z"/>
		</g>
		<g id="Group-7-Copy-5" transform="translate(689.000000, 140.000000)">
			<g class="st10">
				<path class="st11" d="M34.2,14H33V6.2c-0.3,0.3-0.7,0.6-1.2,0.8c-0.5,0.3-0.9,0.5-1.3,0.6V6.5c0.7-0.3,1.3-0.7,1.8-1.2
					s0.9-0.9,1.1-1.3h0.8V14z"/>
				<path class="st11" d="M43.8,12.8V14h-6.6c0-0.3,0-0.6,0.1-0.9c0.2-0.5,0.4-0.9,0.8-1.3c0.4-0.4,0.9-0.9,1.6-1.5
					c1.1-0.9,1.8-1.6,2.2-2.1c0.4-0.5,0.6-1,0.6-1.5c0-0.5-0.2-0.9-0.5-1.2C41.7,5.1,41.2,5,40.7,5c-0.6,0-1.1,0.2-1.4,0.5
					S38.7,6.3,38.7,7l-1.3-0.1c0.1-0.9,0.4-1.7,1-2.2c0.6-0.5,1.3-0.7,2.3-0.7c1,0,1.7,0.3,2.3,0.8s0.8,1.2,0.8,2
					c0,0.4-0.1,0.8-0.2,1.2s-0.4,0.8-0.8,1.2c-0.4,0.4-1,1-1.9,1.8c-0.7,0.6-1.2,1-1.4,1.3c-0.2,0.2-0.4,0.4-0.5,0.7H43.8z"/>
				<path class="st11" d="M45.2,9.1c0-1.2,0.1-2.1,0.4-2.9c0.2-0.7,0.6-1.3,1.1-1.7c0.5-0.4,1.1-0.6,1.8-0.6c0.5,0,1,0.1,1.4,0.3
					c0.4,0.2,0.7,0.5,1,0.9c0.3,0.4,0.5,0.9,0.6,1.5c0.2,0.6,0.2,1.4,0.2,2.4c0,1.2-0.1,2.1-0.4,2.8c-0.2,0.7-0.6,1.3-1.1,1.7
					c-0.5,0.4-1.1,0.6-1.8,0.6c-1,0-1.7-0.3-2.3-1C45.5,12.3,45.2,10.9,45.2,9.1z M46.4,9.1c0,1.6,0.2,2.7,0.6,3.3
					c0.4,0.5,0.9,0.8,1.4,0.8s1-0.3,1.4-0.8c0.4-0.5,0.6-1.6,0.6-3.3c0-1.6-0.2-2.7-0.6-3.3C49.5,5.2,49,5,48.4,5
					c-0.6,0-1,0.2-1.4,0.7C46.6,6.3,46.4,7.4,46.4,9.1z"/>
				<path class="st11" d="M56.9,5.3V4.1h6.5v1c-0.6,0.7-1.3,1.6-1.9,2.7c-0.6,1.1-1.1,2.3-1.5,3.5c-0.2,0.8-0.4,1.8-0.5,2.8h-1.3
					c0-0.8,0.2-1.7,0.5-2.9s0.7-2.2,1.3-3.2c0.6-1,1.1-1.9,1.8-2.6H56.9z"/>
				<path class="st11" d="M71,6.4l-1.2,0.1c-0.1-0.5-0.3-0.8-0.5-1.1c-0.3-0.4-0.7-0.5-1.2-0.5c-0.4,0-0.7,0.1-1,0.3
					c-0.4,0.3-0.7,0.7-0.9,1.2s-0.3,1.3-0.3,2.3c0.3-0.5,0.7-0.8,1.1-1s0.9-0.3,1.3-0.3c0.8,0,1.5,0.3,2.1,0.9
					c0.6,0.6,0.9,1.4,0.9,2.3c0,0.6-0.1,1.2-0.4,1.8c-0.3,0.5-0.6,1-1.1,1.2s-1,0.4-1.6,0.4c-1,0-1.9-0.4-2.5-1.1
					c-0.6-0.8-1-2-1-3.7c0-1.9,0.4-3.3,1.1-4.2c0.6-0.8,1.5-1.1,2.5-1.1c0.8,0,1.4,0.2,1.9,0.7C70.6,5,70.9,5.7,71,6.4z M66,10.8
					c0,0.4,0.1,0.8,0.3,1.2c0.2,0.4,0.4,0.7,0.8,0.9c0.3,0.2,0.7,0.3,1,0.3c0.5,0,1-0.2,1.3-0.6s0.6-1,0.6-1.7
					c0-0.7-0.2-1.2-0.6-1.6C69,8.8,68.5,8.6,68,8.6c-0.6,0-1,0.2-1.4,0.6C66.2,9.6,66,10.1,66,10.8z"/>
				<path class="st11" d="M72.5,5.3V4.1H79v1c-0.6,0.7-1.3,1.6-1.9,2.7c-0.6,1.1-1.1,2.3-1.5,3.5c-0.2,0.8-0.4,1.8-0.5,2.8h-1.3
					c0-0.8,0.2-1.7,0.5-2.9s0.7-2.2,1.3-3.2c0.6-1,1.1-1.9,1.8-2.6H72.5z"/>
			</g>
			<g id="ic_check_box_black_24px">
				<g id="Shape_7_">
					<polygon class="st12" points="0,0 24,0 24,24 0,24 					"/>
					<path class="st11" d="M19,3H5C3.9,3,3,3.9,3,5v14c0,1.1,0.9,2,2,2h14c1.1,0,2-0.9,2-2V5C21,3.9,20.1,3,19,3z M10,17l-5-5
						l1.4-1.4l3.6,3.6l7.6-7.6L19,8L10,17z"/>
				</g>
			</g>
		</g>
		<g id="Group-7-Copy-8" transform="translate(929.000000, 130.000000)">
			<g class="st10">
				<path class="st11" d="M36,12.8V14h-6.6c0-0.3,0-0.6,0.1-0.9c0.2-0.5,0.4-0.9,0.8-1.3c0.4-0.4,0.9-0.9,1.6-1.5
					c1.1-0.9,1.8-1.6,2.2-2.1c0.4-0.5,0.6-1,0.6-1.5c0-0.5-0.2-0.9-0.5-1.2C33.9,5.1,33.4,5,32.9,5c-0.6,0-1.1,0.2-1.4,0.5
					S30.9,6.3,30.9,7l-1.3-0.1c0.1-0.9,0.4-1.7,1-2.2c0.6-0.5,1.3-0.7,2.3-0.7c1,0,1.7,0.3,2.3,0.8s0.8,1.2,0.8,2
					c0,0.4-0.1,0.8-0.2,1.2S35.4,8.7,35,9.1c-0.4,0.4-1,1-1.9,1.8c-0.7,0.6-1.2,1-1.4,1.3c-0.2,0.2-0.4,0.4-0.5,0.7H36z"/>
				<path class="st11" d="M37.4,11.4l1.2-0.2c0.1,0.7,0.4,1.2,0.7,1.5c0.3,0.3,0.8,0.5,1.2,0.5c0.6,0,1.1-0.2,1.5-0.6
					c0.4-0.4,0.6-0.9,0.6-1.5c0-0.6-0.2-1-0.6-1.4c-0.4-0.4-0.8-0.6-1.4-0.6c-0.2,0-0.5,0-0.9,0.1l0.1-1.1c0.1,0,0.1,0,0.2,0
					c0.5,0,1-0.1,1.4-0.4s0.6-0.7,0.6-1.3c0-0.5-0.2-0.8-0.5-1.1S41,4.9,40.5,4.9c-0.5,0-0.9,0.2-1.2,0.5s-0.5,0.8-0.6,1.4l-1.2-0.2
					c0.2-0.8,0.5-1.5,1-1.9c0.5-0.5,1.2-0.7,2-0.7c0.5,0,1.1,0.1,1.5,0.4c0.5,0.2,0.8,0.6,1.1,1c0.2,0.4,0.4,0.8,0.4,1.3
					c0,0.4-0.1,0.8-0.3,1.2s-0.6,0.6-1,0.8c0.6,0.1,1.1,0.4,1.4,0.9c0.3,0.4,0.5,1,0.5,1.6c0,0.9-0.3,1.6-1,2.2
					c-0.6,0.6-1.4,0.9-2.4,0.9c-0.9,0-1.6-0.3-2.2-0.8C37.8,12.9,37.5,12.2,37.4,11.4z"/>
				<path class="st11" d="M49.1,5.3V4.1h6.5v1c-0.6,0.7-1.3,1.6-1.9,2.7c-0.6,1.1-1.1,2.3-1.5,3.5C52,12.1,51.9,13,51.8,14h-1.3
					c0-0.8,0.2-1.7,0.5-2.9s0.7-2.2,1.3-3.2c0.6-1,1.1-1.9,1.8-2.6H49.1z"/>
				<path class="st11" d="M58.7,8.6c-0.5-0.2-0.9-0.5-1.1-0.8S57.2,7,57.2,6.5c0-0.7,0.3-1.3,0.8-1.8s1.2-0.7,2.1-0.7
					c0.9,0,1.6,0.3,2.1,0.8C62.7,5.2,63,5.8,63,6.6c0,0.5-0.1,0.9-0.4,1.2c-0.2,0.3-0.6,0.6-1.1,0.8c0.6,0.2,1.1,0.5,1.4,1
					c0.3,0.4,0.5,1,0.5,1.6c0,0.9-0.3,1.6-0.9,2.2s-1.4,0.9-2.4,0.9s-1.8-0.3-2.4-0.9c-0.6-0.6-0.9-1.3-0.9-2.2
					c0-0.7,0.2-1.2,0.5-1.6C57.6,9,58.1,8.7,58.7,8.6z M58.1,11.1c0,0.4,0.1,0.7,0.2,1c0.2,0.3,0.4,0.6,0.7,0.8
					c0.3,0.2,0.7,0.3,1.1,0.3c0.6,0,1.1-0.2,1.5-0.6s0.6-0.9,0.6-1.4c0-0.6-0.2-1.1-0.6-1.5c-0.4-0.4-0.9-0.6-1.5-0.6
					c-0.6,0-1.1,0.2-1.4,0.6C58.3,10.1,58.1,10.5,58.1,11.1z M58.5,6.5c0,0.5,0.2,0.9,0.5,1.2s0.7,0.5,1.2,0.5
					c0.5,0,0.9-0.1,1.2-0.4c0.3-0.3,0.5-0.7,0.5-1.1c0-0.5-0.2-0.8-0.5-1.1c-0.3-0.3-0.7-0.5-1.2-0.5c-0.5,0-0.9,0.2-1.2,0.5
					S58.5,6.1,58.5,6.5z"/>
				<path class="st11" d="M71,6.4l-1.2,0.1c-0.1-0.5-0.3-0.8-0.5-1.1c-0.3-0.4-0.7-0.5-1.2-0.5c-0.4,0-0.7,0.1-1,0.3
					c-0.4,0.3-0.7,0.7-0.9,1.2s-0.3,1.3-0.3,2.3c0.3-0.5,0.7-0.8,1.1-1s0.9-0.3,1.3-0.3c0.8,0,1.5,0.3,2.1,0.9
					c0.6,0.6,0.9,1.4,0.9,2.3c0,0.6-0.1,1.2-0.4,1.8c-0.3,0.5-0.6,1-1.1,1.2s-1,0.4-1.6,0.4c-1,0-1.9-0.4-2.5-1.1
					c-0.6-0.8-1-2-1-3.7c0-1.9,0.4-3.3,1.1-4.2c0.6-0.8,1.5-1.1,2.5-1.1c0.8,0,1.4,0.2,1.9,0.7C70.6,5,70.9,5.7,71,6.4z M66,10.8
					c0,0.4,0.1,0.8,0.3,1.2c0.2,0.4,0.4,0.7,0.8,0.9c0.3,0.2,0.7,0.3,1,0.3c0.5,0,1-0.2,1.3-0.6s0.6-1,0.6-1.7
					c0-0.7-0.2-1.2-0.6-1.6C69,8.8,68.5,8.6,68,8.6c-0.6,0-1,0.2-1.4,0.6C66.2,9.6,66,10.1,66,10.8z"/>
			</g>
			<g id="ic_check_box_black_24px_1_">
				<g id="Shape_8_">
					<polygon class="st12" points="0,0 24,0 24,24 0,24 					"/>
					<path class="st11" d="M19,3H5C3.9,3,3,3.9,3,5v14c0,1.1,0.9,2,2,2h14c1.1,0,2-0.9,2-2V5C21,3.9,20.1,3,19,3z M10,17l-5-5
						l1.4-1.4l3.6,3.6l7.6-7.6L19,8L10,17z"/>
				</g>
			</g>
		</g>
		<g id="Group-7-Copy-3" transform="translate(199.000000, 310.000000)">
			<g class="st10">
				<path class="st11" d="M36,12.8V14h-6.6c0-0.3,0-0.6,0.1-0.9c0.2-0.5,0.4-0.9,0.8-1.3s0.9-0.9,1.6-1.5c1.1-0.9,1.8-1.6,2.2-2.1
					c0.4-0.5,0.6-1,0.6-1.5c0-0.5-0.2-0.9-0.5-1.2C33.9,5.1,33.4,5,32.9,5c-0.6,0-1.1,0.2-1.4,0.5S30.9,6.3,30.9,7l-1.3-0.1
					c0.1-0.9,0.4-1.7,1-2.2c0.6-0.5,1.3-0.7,2.3-0.7c1,0,1.7,0.3,2.3,0.8s0.8,1.2,0.8,2c0,0.4-0.1,0.8-0.2,1.2S35.4,8.7,35,9.1
					s-1,1-1.9,1.8c-0.7,0.6-1.2,1-1.4,1.3c-0.2,0.2-0.4,0.4-0.5,0.7H36z"/>
				<path class="st11" d="M37.4,11.4l1.2-0.2c0.1,0.7,0.4,1.2,0.7,1.5c0.3,0.3,0.8,0.5,1.2,0.5c0.6,0,1.1-0.2,1.5-0.6
					s0.6-0.9,0.6-1.5c0-0.6-0.2-1-0.6-1.4c-0.4-0.4-0.8-0.6-1.4-0.6c-0.2,0-0.5,0-0.9,0.1l0.1-1.1c0.1,0,0.1,0,0.2,0
					c0.5,0,1-0.1,1.4-0.4s0.6-0.7,0.6-1.3c0-0.5-0.2-0.8-0.5-1.1S41,4.9,40.5,4.9c-0.5,0-0.9,0.2-1.2,0.5s-0.5,0.8-0.6,1.4l-1.2-0.2
					c0.2-0.8,0.5-1.5,1-1.9c0.5-0.5,1.2-0.7,2-0.7c0.5,0,1.1,0.1,1.5,0.4c0.5,0.2,0.8,0.6,1.1,1s0.4,0.8,0.4,1.3
					c0,0.4-0.1,0.8-0.3,1.2s-0.6,0.6-1,0.8c0.6,0.1,1.1,0.4,1.4,0.9c0.3,0.4,0.5,1,0.5,1.6c0,0.9-0.3,1.6-1,2.2
					c-0.6,0.6-1.4,0.9-2.4,0.9c-0.9,0-1.6-0.3-2.2-0.8S37.5,12.2,37.4,11.4z"/>
				<path class="st11" d="M49.1,5.3V4.1h6.5v1c-0.6,0.7-1.3,1.6-1.9,2.7s-1.1,2.3-1.5,3.5C52,12.1,51.9,13,51.8,14h-1.3
					c0-0.8,0.2-1.7,0.5-2.9s0.7-2.2,1.3-3.2c0.6-1,1.1-1.9,1.8-2.6H49.1z"/>
				<path class="st11" d="M58.7,8.6c-0.5-0.2-0.9-0.5-1.1-0.8S57.2,7,57.2,6.5c0-0.7,0.3-1.3,0.8-1.8s1.2-0.7,2.1-0.7
					c0.9,0,1.6,0.3,2.1,0.8C62.7,5.2,63,5.8,63,6.6c0,0.5-0.1,0.9-0.4,1.2c-0.2,0.3-0.6,0.6-1.1,0.8c0.6,0.2,1.1,0.5,1.4,1
					s0.5,1,0.5,1.6c0,0.9-0.3,1.6-0.9,2.2s-1.4,0.9-2.4,0.9s-1.8-0.3-2.4-0.9c-0.6-0.6-0.9-1.3-0.9-2.2c0-0.7,0.2-1.2,0.5-1.6
					C57.6,9,58.1,8.7,58.7,8.6z M58.1,11.1c0,0.4,0.1,0.7,0.2,1s0.4,0.6,0.7,0.8c0.3,0.2,0.7,0.3,1.1,0.3c0.6,0,1.1-0.2,1.5-0.6
					s0.6-0.9,0.6-1.4c0-0.6-0.2-1.1-0.6-1.5s-0.9-0.6-1.5-0.6c-0.6,0-1.1,0.2-1.4,0.6S58.1,10.5,58.1,11.1z M58.5,6.5
					c0,0.5,0.2,0.9,0.5,1.2s0.7,0.5,1.2,0.5c0.5,0,0.9-0.1,1.2-0.4c0.3-0.3,0.5-0.7,0.5-1.1c0-0.5-0.2-0.8-0.5-1.1
					c-0.3-0.3-0.7-0.5-1.2-0.5c-0.5,0-0.9,0.2-1.2,0.5S58.5,6.1,58.5,6.5z"/>
				<path class="st11" d="M71,6.4l-1.2,0.1c-0.1-0.5-0.3-0.8-0.5-1.1c-0.3-0.4-0.7-0.5-1.2-0.5c-0.4,0-0.7,0.1-1,0.3
					c-0.4,0.3-0.7,0.7-0.9,1.2s-0.3,1.3-0.3,2.3c0.3-0.5,0.7-0.8,1.1-1s0.9-0.3,1.3-0.3c0.8,0,1.5,0.3,2.1,0.9
					c0.6,0.6,0.9,1.4,0.9,2.3c0,0.6-0.1,1.2-0.4,1.8c-0.3,0.5-0.6,1-1.1,1.2s-1,0.4-1.6,0.4c-1,0-1.9-0.4-2.5-1.1
					c-0.6-0.8-1-2-1-3.7c0-1.9,0.4-3.3,1.1-4.2c0.6-0.8,1.5-1.1,2.5-1.1c0.8,0,1.4,0.2,1.9,0.7S70.9,5.7,71,6.4z M66,10.8
					c0,0.4,0.1,0.8,0.3,1.2s0.4,0.7,0.8,0.9c0.3,0.2,0.7,0.3,1,0.3c0.5,0,1-0.2,1.3-0.6s0.6-1,0.6-1.7c0-0.7-0.2-1.2-0.6-1.6
					C69,8.8,68.5,8.6,68,8.6c-0.6,0-1,0.2-1.4,0.6C66.2,9.6,66,10.1,66,10.8z"/>
			</g>
			<g id="ic_check_box_black_24px_2_">
				<g id="Shape_9_">
					<polygon class="st12" points="0,0 24,0 24,24 0,24 					"/>
					<path class="st11" d="M19,3H5C3.9,3,3,3.9,3,5v14c0,1.1,0.9,2,2,2h14c1.1,0,2-0.9,2-2V5C21,3.9,20.1,3,19,3z M10,17l-5-5
						l1.4-1.4l3.6,3.6l7.6-7.6L19,8L10,17z"/>
				</g>
			</g>
		</g>
	</g>
</g>
</svg>
