<svg xmlns="http://www.w3.org/2000/svg" xmlns:xlink="http://www.w3.org/1999/xlink" width="622" height="369" viewBox="0 0 622 369">
    <defs>
        <filter id="a" width="170%" height="170%" x="-31%" y="-31%" filterUnits="objectBoundingBox">
            <feOffset dx="4" dy="4" in="SourceAlpha" result="shadowOffsetOuter1"/>
            <feGaussianBlur in="shadowOffsetOuter1" result="shadowBlurOuter1" stdDeviation="11"/>
            <feColorMatrix in="shadowBlurOuter1" result="shadowMatrixOuter1" values="0 0 0 0 0.160784314 0 0 0 0 0.282352941 0 0 0 0 0.419607843 0 0 0 0.5 0"/>
            <feMerge>
                <feMergeNode in="shadowMatrixOuter1"/>
                <feMergeNode in="SourceGraphic"/>
            </feMerge>
        </filter>
        <filter id="b" width="170%" height="170%" x="-31%" y="-31%" filterUnits="objectBoundingBox">
            <feOffset dx="4" dy="4" in="SourceAlpha" result="shadowOffsetOuter1"/>
            <feGaussianBlur in="shadowOffsetOuter1" result="shadowBlurOuter1" stdDeviation="11"/>
            <feColorMatrix in="shadowBlurOuter1" result="shadowMatrixOuter1" values="0 0 0 0 0.160784314 0 0 0 0 0.282352941 0 0 0 0 0.419607843 0 0 0 0.5 0"/>
            <feMerge>
                <feMergeNode in="shadowMatrixOuter1"/>
                <feMergeNode in="SourceGraphic"/>
            </feMerge>
        </filter>
        <filter id="c" width="170%" height="170%" x="-31%" y="-31%" filterUnits="objectBoundingBox">
            <feOffset dx="4" dy="4" in="SourceAlpha" result="shadowOffsetOuter1"/>
            <feGaussianBlur in="shadowOffsetOuter1" result="shadowBlurOuter1" stdDeviation="11"/>
            <feColorMatrix in="shadowBlurOuter1" result="shadowMatrixOuter1" values="0 0 0 0 0.160784314 0 0 0 0 0.282352941 0 0 0 0 0.419607843 0 0 0 0.5 0"/>
            <feMerge>
                <feMergeNode in="shadowMatrixOuter1"/>
                <feMergeNode in="SourceGraphic"/>
            </feMerge>
        </filter>
        <filter id="d" width="153.8%" height="153.8%" x="-23.8%" y="-23.8%" filterUnits="objectBoundingBox">
            <feOffset dx="4" dy="4" in="SourceAlpha" result="shadowOffsetOuter1"/>
            <feGaussianBlur in="shadowOffsetOuter1" result="shadowBlurOuter1" stdDeviation="11"/>
            <feColorMatrix in="shadowBlurOuter1" result="shadowMatrixOuter1" values="0 0 0 0 0.160784314 0 0 0 0 0.282352941 0 0 0 0 0.419607843 0 0 0 0.5 0"/>
            <feMerge>
                <feMergeNode in="shadowMatrixOuter1"/>
                <feMergeNode in="SourceGraphic"/>
            </feMerge>
        </filter>
        <filter id="e" width="170%" height="170%" x="-31%" y="-31%" filterUnits="objectBoundingBox">
            <feOffset dx="4" dy="4" in="SourceAlpha" result="shadowOffsetOuter1"/>
            <feGaussianBlur in="shadowOffsetOuter1" result="shadowBlurOuter1" stdDeviation="11"/>
            <feColorMatrix in="shadowBlurOuter1" result="shadowMatrixOuter1" values="0 0 0 0 0.160784314 0 0 0 0 0.282352941 0 0 0 0 0.419607843 0 0 0 0.5 0"/>
            <feMerge>
                <feMergeNode in="shadowMatrixOuter1"/>
                <feMergeNode in="SourceGraphic"/>
            </feMerge>
        </filter>
        <circle id="f" cx="50" cy="50" r="50"/>
    </defs>
    <g fill="none" fill-rule="evenodd">
        <path stroke="#29486B" stroke-linecap="square" stroke-width="2" d="M256 83h120M67 213h480M307 83v130M67 213v30M547 213v30"/>
        <g fill-rule="nonzero" filter="url(#a)" transform="translate(257 243)">
            <circle cx="50" cy="50" r="50" fill="#FFF"/>
            <path fill="#9F9F9F" d="M74.055 66.08c.254-.494.254-.988.509-1.73 0-.494.254-.988.254-1.73.764-4.696 1.273-12.112 1.273-23.482C76.09 21.59 64.38 7.5 49.873 7.5c-5.346 0-10.182 1.977-14.255 5.19a5.864 5.864 0 0 0-1.782 1.73c-6.109 5.686-9.927 14.831-9.927 24.966 0 11.864.51 19.526 1.273 24.223 0 .494.254 1.236.254 1.73.255.494.255 1.236.51 1.73-5.091 3.213-9.164 7.663-10.946 12.112C23.4 88.82 35.873 95 49.873 95c14 0 26.727-6.18 35.127-15.82-1.782-5.19-5.855-9.886-10.945-13.1zm-12.982 5.686c-6.11 3.213-10.437 5.685-10.946 5.685-2.036-.248-11.454-5.685-11.454-5.685-2.291-1.236-3.818-1.978-6.618-4.45.254-.494 1.527-2.224 2.036-2.719.254-.494.764-.741 1.018-1.235 1.527-1.978 3.31-4.202 4.836-5.933 2.8 2.225 6.11 3.708 9.673 3.708 3.564 0 6.618-1.483 9.673-3.708 2.29 2.472 4.327 5.191 6.109 7.416.255.494.764.988 1.018 1.236.255.494.764.741 1.018 1.235-1.272 1.978-4.581 3.46-6.363 4.45zm10.436-36.83c-.509 2.472-2.29 3.708-3.564 3.955l-1.018.247-.254.99C64.89 46.058 61.582 51.991 57 55.451c-2.29 1.73-4.836 2.966-7.382 2.966-2.545 0-5.09-.989-7.382-2.966-4.327-3.46-7.89-9.393-9.672-15.325l-.255-.989-1.018-.247c-1.273-.247-3.055-1.483-3.564-3.955-.509-1.483-.254-3.213.51-4.449.254-.494.763-.988 1.272-.988h.509l1.527.247.255-1.483c.255-1.236.51-2.472.764-3.46 1.781 5.931 7.127 5.437 14.763 6.179 2.291.247 5.346.494 6.873.494.255-4.696-5.345-9.887-5.345-9.887h.763c.764 0 2.546.742 3.055.989 6.109 3.213 7.127 8.156 7.382 8.156 3.054-.741 5.345-2.471 6.363-5.19.255.988.51 1.73.51 2.719l.254 1.483 1.527-.247h.51c.763.247 1.017.741 1.272.988 1.273 1.236 1.527 2.72 1.018 4.45z"/>
        </g>
        <g fill-rule="nonzero" filter="url(#b)" transform="translate(497 243)">
            <circle cx="50" cy="50" r="50" fill="#FFF"/>
            <path fill="#9F9F9F" d="M25.084 27.138c0 1.491.252 2.983.755 4.474-2.517 1.74-3.524 5.469-2.517 9.446.755 3.232 3.02 5.966 5.537 6.712 3.02 9.943 10.822 20.135 21.393 20.135 10.57 0 18.372-10.192 21.392-20.135 2.517-.994 4.782-3.48 5.537-6.712 1.259-4.474-.503-8.7-3.775-10.192.252-1.242.503-2.485.503-3.728C73.91 16.2 63.087 7.5 49.497 7.5c-13.591 0-24.413 8.7-24.413 19.638zm40.268-5.22c2.014 2.983 3.272 6.463 4.027 10.44l.252 1.74 1.762-.249h.755s.251 0 .251.249c1.51.746 2.265 3.232 1.762 5.966-.755 2.734-2.517 4.226-3.775 4.474l-1.258.249-.252.994c-2.517 9.198-9.564 18.644-18.373 18.644-8.808 0-15.855-9.198-18.372-18.644l-.252-.994-1.258-.249c-1.51-.248-3.272-1.74-3.775-4.474-.504-1.989-.252-3.729.503-4.972.252-.497.755-.994 1.51-1.243h.503l1.762.249.252-1.74c.503-3.48 1.51-6.463 3.02-9.197 2.768 3.231 8.557 5.22 15.1 5.22 7.3.248 13.591-2.486 15.856-6.463zm5.537 37.784c7.802 3.231 13.843 9.197 16.611 15.412C79.446 87.045 65.604 95 50 95s-29.446-7.706-37.5-19.39c2.768-6.462 8.809-12.677 16.61-15.908 2.266 3.728 4.783 6.96 8.306 8.7C44.715 71.882 50 74.865 50 74.865s5.537-2.734 12.584-6.463c3.523-1.74 6.04-4.972 8.305-8.7z"/>
        </g>
        <g fill-rule="nonzero" filter="url(#c)" transform="translate(17 243)">
            <circle cx="50" cy="50" r="50" fill="#FFF"/>
            <path fill="#9F9F9F" d="M26.342 37.603c-1.24 1.758-1.737 4.52-.992 7.283.248 1.004.744 2.009 1.24 3.014 1.24 11.05 5.458 14.817 11.164 16.324C40.978 67.74 45.196 70 50.157 70c4.714 0 8.931-2.511 12.404-6.027 1.489-.503 2.977-1.005 4.217-2.01l.249-.25c2.728-2.26 4.465-6.028 5.457-12.307.993-1.255 1.985-2.762 2.233-4.52.744-3.516 0-6.781-1.985-8.539C70.996 24.292 61.321 15 49.662 15c-12.405 0-22.328 10.046-23.32 22.603zm1.902 6.65c-.53-2.564 0-5.128 1.236-5.897 0 3.333.353 6.667 1.06 10-1.06-.513-1.943-1.795-2.296-4.102zm41.761-5.646c1.5.572 2.25 3.429 1.5 6.286-.25 1.714-1 2.857-1.75 3.714.75-2.571.75-6.285.25-10zm-2.232 10.86c-1.806 5.866-5.675 11.73-10.576 14.663-2.063 1.221-4.385 1.954-6.706 1.954-2.321 0-4.643-.733-6.706-1.954-3.354-1.955-6.449-5.376-8.512-9.286.258-.733.258-1.71.516-3.177.773-7.086 2.321-12.707 4.385-17.105 1.29-.244 2.837-.489 4.127-.978.515.49 1.031.734 1.547 1.222 2.837 1.955 5.933 3.177 9.028 3.666 3.611.244 9.544 9.285 12.897 10.996z"/>
            <path fill="#9F9F9F" d="M67.863 65c-1.985 3.25-4.218 6-7.195 7.5C54.714 75.75 50 78.25 50 78.25s-4.466-2.5-10.668-5.75c-2.977-1.5-5.21-4.25-7.195-7.5-7.442 3-13.148 9.5-14.637 15.75C25.687 89.5 37.1 95 50 95c12.9 0 24.313-5.5 32.5-14.25C80.763 74.25 75.305 68 67.863 65z"/>
        </g>
        <g transform="translate(117 13)">
            <circle cx="70" cy="70" r="69" stroke="#29486B" stroke-width="2"/>
            <g fill-rule="nonzero" filter="url(#d)" transform="translate(5 5)">
                <circle cx="65" cy="65" r="65" fill="#FFF"/>
                <path fill="#29486B" d="M51.766 25.54c0 1.88.32 3.759 1.279 5.325-5.752 3.758-9.906 10.336-11.504 18.479h-.32c-4.154.94-6.39 6.264-5.112 11.589.958 3.758 3.515 6.577 6.39 7.516C46.016 79.411 54.643 91 66.466 91s20.77-11.589 24.285-22.55c2.876-.94 5.433-3.76 6.391-7.517 1.278-5.325-.958-10.336-5.112-11.589h-.32c-.32-2.192-.959-4.072-1.917-5.95-.32-3.446-2.876-7.518-6.71-10.65-.64-.313-1.279-.626-1.598-.94-1.279-.939-2.557-1.879-4.154-2.505.32-.94.639-2.192.639-3.445 0-7.204-5.752-12.842-13.101-12.842-7.03-.313-13.102 5.325-13.102 12.529zm20.77 21.298c5.433 4.072 11.824 4.698 15.338 1.88.32.94.32 1.566.64 2.505l.32 1.88 1.916-.314h.64c1.917.627 2.875 3.759 2.236 6.89-.639 2.82-2.876 4.699-4.473 5.012l-1.279.313-.32 1.253c-2.875 10.336-10.863 20.671-20.77 20.671-9.585 0-17.894-10.335-20.77-20.671l-.319-1.253-1.278-.313c-1.598-.313-3.515-1.88-4.474-5.011-.639-3.132.32-6.264 2.237-6.89H43.14a11.934 11.934 0 0 0 3.515 7.203c6.071 5.95 3.834-7.204 11.503-14.72 2.556-2.506 5.432-3.76 8.308-5.012 1.598 2.506 3.515 4.698 6.072 6.577z"/>
                <path fill="#29486B" d="M88.261 84.5c-2.532 4.439-5.38 7.927-9.178 9.83-7.912 4.121-13.925 7.292-13.925 7.292s-6.013-3.17-13.925-7.293c-3.798-1.902-6.646-5.707-9.178-9.829-9.81 3.805-16.773 12.049-19.305 20.293C33.194 116.207 48.068 123.5 64.842 123.5c17.09 0 32.28-7.61 42.408-19.341-2.215-7.61-9.178-15.537-18.989-19.659z"/>
            </g>
        </g>
        <g filter="url(#e)" transform="translate(377 33)">
            <use fill="#FFF" fill-rule="nonzero" xlink:href="#f"/>
            <g fill="#9F9F9F" fill-rule="nonzero">
                <path d="M45.752 10.039c-.996 0-1.992 1.214-2.988 1.457-.996.242-2.24-.486-3.237-.243-.996.243-1.743 1.699-2.49 2.185-.996.485-2.49 0-3.237.728-.996.485-1.245 1.942-1.992 2.67-.747.728-2.241.728-2.988 1.457-.747.728-.498 2.185-.996 3.156-.498.97-1.992 1.213-2.241 2.184-.498.971.249 2.185 0 3.156-.25.971-1.245 1.942-1.245 2.913 0 .971 1.245 1.942 1.245 2.913v1.457c-2.49 1.7-3.735 5.34-2.74 9.225.748 3.398 2.989 5.826 5.728 6.797C31.559 59.804 39.527 70 49.986 70 60.693 70 68.412 59.804 71.4 50.094c2.49-.971 4.731-3.399 5.727-6.797 1.245-4.613-.747-8.982-4.233-10.196v-.486c.25-.97 1.245-1.942 1.245-2.913 0-.97-1.245-1.942-1.245-2.913-.249-.97.498-2.185 0-3.156-.498-.97-1.743-1.456-2.24-2.184-.499-.971-.25-2.185-.997-3.156-.747-.729-2.24-.729-2.988-1.457-.747-.728-.996-2.185-1.992-2.67-.996-.486-2.241-.243-3.237-.728-.996-.486-1.494-1.7-2.49-2.185-.996-.243-2.241.243-3.237.243-.996-.243-1.992-1.457-2.988-1.457s-2.241.728-3.237.728c-1.494 0-2.74-.97-3.736-.728zM68.91 35.043l.25 1.7 1.742-.243h.747c.25 0 .25.242.498.242 1.494.729 1.992 3.399 1.494 5.826-.747 2.67-2.49 4.127-3.735 4.37l-1.245.243-.249 1.214c-2.49 9.224-9.711 18.45-18.426 18.45-8.716 0-15.688-9.226-18.427-18.45l-.249-1.214-1.245-.243c-1.494-.243-3.237-1.7-3.735-4.37-.498-1.942-.25-3.884.747-5.097.249-.486.747-.729 1.245-.971h.747l1.743.242.25-1.699c1.742-11.167 9.461-18.45 19.173-18.45 9.213 0 16.932 7.283 18.675 18.45z"/>
                <path d="M47.25 56c2.75-2.75 2.5-7.75 2.5-7.75s-5-.25-7.75 2.5-2.5 7.75-2.5 7.75 5 .5 7.75-2.5z"/>
                <path d="M60 58.5s.25-5-2.5-7.75-7.75-2.5-7.75-2.5-.25 5 2.5 7.75c3 3 7.75 2.5 7.75 2.5zM69.658 62.5c-2.158 3.638-4.555 6.791-7.911 8.489C55.034 74.384 50 77.295 50 77.295s-5.034-2.91-11.747-6.306c-3.356-1.698-5.753-4.85-7.91-8.489C23.39 65.41 17.876 70.989 15 76.81 22.911 87.724 35.616 95 50 95s27.329-7.276 35-18.19c-2.877-6.064-8.39-11.4-15.342-14.31z"/>
            </g>
        </g>
        <path stroke="#29486B" stroke-linecap="square" stroke-width="2" d="M307 213v30"/>
    </g>
</svg>
