<?xml version="1.0" encoding="utf-8"?>
<!-- Generator: Adobe Illustrator 21.1.0, SVG Export Plug-In . SVG Version: 6.00 Build 0)  -->
<svg version="1.1" id="Слой_1" xmlns="http://www.w3.org/2000/svg" xmlns:xlink="http://www.w3.org/1999/xlink" x="0px" y="0px"
	 viewBox="0 0 673 401" style="enable-background:new 0 0 673 401;" xml:space="preserve">
<style type="text/css">
	.st0{fill:none;stroke:#29486B;stroke-width:2;}
	.st1{fill:#FFFFFF;}
	.st2{fill:#29486B;}
	.st3{fill:none;stroke:#29486B;stroke-width:2;stroke-linecap:square;}
	.st4{filter:url(#filter-1);}
	.st5{fill:#9F9F9F;}
	.st6{filter:url(#filter-2);}
	.st7{filter:url(#filter-3);}
	.st8{enable-background:new    ;}
	.st9{font-family:'ArialMT';}
	.st10{font-size:14px;}
	.st11{fill:#375D88;}
	.st12{fill:none;}
	.st13{filter:url(#filter-4);}
	.st14{filter:url(#filter-5);}
	.st15{filter:url(#filter-6);}
	.st16{filter:url(#filter-7);}
</style>
<filter  filterUnits="objectBoundingBox" height="170.0%" id="filter-7" width="170.0%" x="-31.0%" y="-31.0%">
	<feOffset  dx="4" dy="4" in="SourceAlpha" result="shadowOffsetOuter1"></feOffset>
	<feGaussianBlur  in="shadowOffsetOuter1" result="shadowBlurOuter1" stdDeviation="11"></feGaussianBlur>
	
		<feColorMatrix  in="shadowBlurOuter1" result="shadowMatrixOuter1" type="matrix" values="0 0 0 0 0.160784314   0 0 0 0 0.282352941   0 0 0 0 0.419607843  0 0 0 0.5 0">
		</feColorMatrix>
	<feMerge>
		<feMergeNode  in="shadowMatrixOuter1"></feMergeNode>
		<feMergeNode  in="SourceGraphic"></feMergeNode>
	</feMerge>
</filter>
<filter  filterUnits="objectBoundingBox" height="170.0%" id="filter-6" width="170.0%" x="-31.0%" y="-31.0%">
	<feOffset  dx="4" dy="4" in="SourceAlpha" result="shadowOffsetOuter1"></feOffset>
	<feGaussianBlur  in="shadowOffsetOuter1" result="shadowBlurOuter1" stdDeviation="11"></feGaussianBlur>
	
		<feColorMatrix  in="shadowBlurOuter1" result="shadowMatrixOuter1" type="matrix" values="0 0 0 0 0.160784314   0 0 0 0 0.282352941   0 0 0 0 0.419607843  0 0 0 0.5 0">
		</feColorMatrix>
	<feMerge>
		<feMergeNode  in="shadowMatrixOuter1"></feMergeNode>
		<feMergeNode  in="SourceGraphic"></feMergeNode>
	</feMerge>
</filter>
<filter  filterUnits="objectBoundingBox" height="170.0%" id="filter-5" width="170.0%" x="-31.0%" y="-31.0%">
	<feOffset  dx="4" dy="4" in="SourceAlpha" result="shadowOffsetOuter1"></feOffset>
	<feGaussianBlur  in="shadowOffsetOuter1" result="shadowBlurOuter1" stdDeviation="11"></feGaussianBlur>
	
		<feColorMatrix  in="shadowBlurOuter1" result="shadowMatrixOuter1" type="matrix" values="0 0 0 0 0.160784314   0 0 0 0 0.282352941   0 0 0 0 0.419607843  0 0 0 0.5 0">
		</feColorMatrix>
	<feMerge>
		<feMergeNode  in="shadowMatrixOuter1"></feMergeNode>
		<feMergeNode  in="SourceGraphic"></feMergeNode>
	</feMerge>
</filter>
<filter  filterUnits="objectBoundingBox" height="130.8%" id="filter-4" width="130.8%" x="-12.3%" y="-12.3%">
	<feOffset  dx="4" dy="4" in="SourceAlpha" result="shadowOffsetOuter1"></feOffset>
	<feGaussianBlur  in="shadowOffsetOuter1" result="shadowBlurOuter1" stdDeviation="6"></feGaussianBlur>
	
		<feColorMatrix  in="shadowBlurOuter1" result="shadowMatrixOuter1" type="matrix" values="0 0 0 0 0.160784314   0 0 0 0 0.282352941   0 0 0 0 0.419607843  0 0 0 0.5 0">
		</feColorMatrix>
	<feMerge>
		<feMergeNode  in="shadowMatrixOuter1"></feMergeNode>
		<feMergeNode  in="SourceGraphic"></feMergeNode>
	</feMerge>
</filter>
<filter  filterUnits="objectBoundingBox" height="170.0%" id="filter-3" width="170.0%" x="-31.0%" y="-31.0%">
	<feOffset  dx="4" dy="4" in="SourceAlpha" result="shadowOffsetOuter1"></feOffset>
	<feGaussianBlur  in="shadowOffsetOuter1" result="shadowBlurOuter1" stdDeviation="11"></feGaussianBlur>
	
		<feColorMatrix  in="shadowBlurOuter1" result="shadowMatrixOuter1" type="matrix" values="0 0 0 0 0.160784314   0 0 0 0 0.282352941   0 0 0 0 0.419607843  0 0 0 0.5 0">
		</feColorMatrix>
	<feMerge>
		<feMergeNode  in="shadowMatrixOuter1"></feMergeNode>
		<feMergeNode  in="SourceGraphic"></feMergeNode>
	</feMerge>
</filter>
<filter  filterUnits="objectBoundingBox" height="170.0%" id="filter-2" width="170.0%" x="-31.0%" y="-31.0%">
	<feOffset  dx="4" dy="4" in="SourceAlpha" result="shadowOffsetOuter1"></feOffset>
	<feGaussianBlur  in="shadowOffsetOuter1" result="shadowBlurOuter1" stdDeviation="11"></feGaussianBlur>
	
		<feColorMatrix  in="shadowBlurOuter1" result="shadowMatrixOuter1" type="matrix" values="0 0 0 0 0.160784314   0 0 0 0 0.282352941   0 0 0 0 0.419607843  0 0 0 0.5 0">
		</feColorMatrix>
	<feMerge>
		<feMergeNode  in="shadowMatrixOuter1"></feMergeNode>
		<feMergeNode  in="SourceGraphic"></feMergeNode>
	</feMerge>
</filter>
<filter  filterUnits="objectBoundingBox" height="170.0%" id="filter-1" width="170.0%" x="-31.0%" y="-31.0%">
	<feOffset  dx="4" dy="4" in="SourceAlpha" result="shadowOffsetOuter1"></feOffset>
	<feGaussianBlur  in="shadowOffsetOuter1" result="shadowBlurOuter1" stdDeviation="11"></feGaussianBlur>
	
		<feColorMatrix  in="shadowBlurOuter1" result="shadowMatrixOuter1" type="matrix" values="0 0 0 0 0.160784314   0 0 0 0 0.282352941   0 0 0 0 0.419607843  0 0 0 0.5 0">
		</feColorMatrix>
	<feMerge>
		<feMergeNode  in="shadowMatrixOuter1"></feMergeNode>
		<feMergeNode  in="SourceGraphic"></feMergeNode>
	</feMerge>
</filter>
<title>property</title>
<desc>Created with Sketch.</desc>
<g id="property">
	<g id="Group" transform="translate(-32.000000, 39.000000)">
		<circle id="Oval-2" class="st0" cx="249" cy="70" r="69"/>
		<circle id="Oval" class="st1" cx="249" cy="70" r="65"/>
		<path id="Combined-Shape" class="st2" d="M216.6,40.3c0,1.9,0.3,3.9,1,5.8c-3.3,2.3-4.6,7.1-3.3,12.3c1,4.2,3.9,7.8,7.2,8.7
			c3.9,12.9,14.1,26.2,27.8,26.2s23.9-13.2,27.8-26.2c3.3-1.3,6.2-4.5,7.2-8.7c1.6-5.8-0.7-11.3-4.9-13.2c0.3-1.6,0.7-3.2,0.7-4.8
			c0-14.2-14.1-25.5-31.7-25.5S216.6,26.1,216.6,40.3z M269,33.5c2.6,3.9,4.3,8.4,5.2,13.6l0.3,2.3l2.3-0.3c0.3,0,0.7,0,1,0
			c0,0,0.3,0,0.3,0.3c2,1,2.9,4.2,2.3,7.8c-1,3.6-3.3,5.5-4.9,5.8l-1.6,0.3l-0.3,1.3c-3.3,12-12.4,24.2-23.9,24.2
			c-11.5,0-20.6-12-23.9-24.2l-0.3-1.3l-1.6-0.3c-2-0.3-4.3-2.3-4.9-5.8c-0.7-2.6-0.3-4.8,0.7-6.5c0.3-0.6,1-1.3,2-1.6h0.3h0.3
			l2.3,0.3l0.3-2.3c0.7-4.5,2-8.4,3.9-12c3.6,4.2,11.1,6.8,19.6,6.8C257.8,42.2,266,38.7,269,33.5z M276.2,82.6
			c10.1,4.2,18,12,21.6,20c-10.5,15.5-28.5,25.9-48.8,25.9s-38.3-10-48.8-25.2c3.6-8.4,11.5-16.5,21.6-20.7c2.9,4.8,6.2,9,10.8,11.3
			c9.5,4.5,16.4,8.4,16.4,8.4s7.2-3.6,16.4-8.4C269.9,91.7,273.2,87.5,276.2,82.6z"/>
		<path id="Line-Copy-2" class="st3" d="M318,70h120"/>
		<path id="Line-Copy-3" class="st3" d="M249,170h240"/>
		<path id="Line-2-Copy-3" class="st3" d="M369,70v100"/>
		<path id="Line-2-Copy-4" class="st3" d="M249,170v30"/>
		<path id="Line-2-Copy-5" class="st3" d="M489,170v30"/>
		<g id="Group-2" transform="translate(439.000000, 20.000000)" class="st4">
			<circle id="Oval_4_" class="st1" cx="50" cy="50" r="50"/>
			<path id="Shape_9_" class="st5" d="M74.1,66.1c0.3-0.5,0.3-1,0.5-1.7c0-0.5,0.3-1,0.3-1.7c0.8-4.7,1.3-12.1,1.3-23.5
				c0-17.5-11.7-31.6-26.2-31.6c-5.3,0-10.2,2-14.3,5.2c-0.8,0.5-1.3,1-1.8,1.7c-6.1,5.7-9.9,14.8-9.9,25c0,11.9,0.5,19.5,1.3,24.2
				c0,0.5,0.3,1.2,0.3,1.7c0.3,0.5,0.3,1.2,0.5,1.7c-5.1,3.2-9.2,7.7-10.9,12.1C23.4,88.8,35.9,95,49.9,95S76.6,88.8,85,79.2
				C83.2,74,79.1,69.3,74.1,66.1z M61.1,71.8C55,75,50.6,77.5,50.1,77.5c-2-0.2-11.5-5.7-11.5-5.7c-2.3-1.2-3.8-2-6.6-4.4
				c0.3-0.5,1.5-2.2,2-2.7c0.3-0.5,0.8-0.7,1-1.2c1.5-2,3.3-4.2,4.8-5.9c2.8,2.2,6.1,3.7,9.7,3.7s6.6-1.5,9.7-3.7
				c2.3,2.5,4.3,5.2,6.1,7.4c0.3,0.5,0.8,1,1,1.2c0.3,0.5,0.8,0.7,1,1.2C66.2,69.3,62.9,70.8,61.1,71.8z M71.5,34.9
				c-0.5,2.5-2.3,3.7-3.6,4l-1,0.2l-0.3,1C64.9,46.1,61.6,52,57,55.5c-2.3,1.7-4.8,3-7.4,3c-2.5,0-5.1-1-7.4-3
				c-4.3-3.5-7.9-9.4-9.7-15.3l-0.3-1l-1-0.2c-1.3-0.2-3.1-1.5-3.6-4c-0.5-1.5-0.3-3.2,0.5-4.4c0.3-0.5,0.8-1,1.3-1h0.3H30l1.5,0.2
				l0.3-1.5c0.3-1.2,0.5-2.5,0.8-3.5c1.8,5.9,7.1,5.4,14.8,6.2c2.3,0.2,5.3,0.5,6.9,0.5c0.3-4.7-5.3-9.9-5.3-9.9s0,0,0.8,0
				c0.8,0,2.5,0.7,3.1,1c6.1,3.2,7.1,8.2,7.4,8.2c3.1-0.7,5.3-2.5,6.4-5.2c0.3,1,0.5,1.7,0.5,2.7l0.3,1.5l1.5-0.2c0.3,0,0.5,0,0.5,0
				c0.8,0.2,1,0.7,1.3,1C71.8,31.7,72,33.2,71.5,34.9z"/>
		</g>
		<g id="Group-3" transform="translate(199.000000, 200.000000)" class="st6">
			<circle id="Oval_4_" class="st1" cx="50" cy="50" r="50"/>
			<path id="Shape_10_" class="st5" d="M26.3,37.6c-1.2,1.8-1.7,4.5-1,7.3c0.2,1,0.7,2,1.2,3c1.2,11.1,5.5,14.8,11.2,16.3
				C41,67.7,45.2,70,50.2,70c4.7,0,8.9-2.5,12.4-6c1.5-0.5,3-1,4.2-2l0.2-0.3c2.7-2.3,4.5-6,5.5-12.3c1-1.3,2-2.8,2.2-4.5
				c0.7-3.5,0-6.8-2-8.5C71,24.3,61.3,15,49.7,15C37.3,15,27.3,25,26.3,37.6z M28.2,44.3c-0.5-2.6,0-5.1,1.2-5.9
				c0,3.3,0.4,6.7,1.1,10C29.5,47.8,28.6,46.6,28.2,44.3z M70,38.6c1.5,0.6,2.2,3.4,1.5,6.3c-0.2,1.7-1,2.9-1.8,3.7
				C70.5,46,70.5,42.3,70,38.6z M67.8,49.5c-1.8,5.9-5.7,11.7-10.6,14.7c-2.1,1.2-4.4,2-6.7,2c-2.3,0-4.6-0.7-6.7-2
				c-3.4-2-6.4-5.4-8.5-9.3c0.3-0.7,0.3-1.7,0.5-3.2c0.8-7.1,2.3-12.7,4.4-17.1c1.3-0.2,2.8-0.5,4.1-1c0.5,0.5,1,0.7,1.5,1.2
				c2.8,2,5.9,3.2,9,3.7C58.5,38.7,64.4,47.8,67.8,49.5z"/>
			<path id="Shape_9_" class="st5" d="M67.9,65c-2,3.2-4.2,6-7.2,7.5c-6,3.2-10.7,5.8-10.7,5.8s-4.5-2.5-10.7-5.8
				c-3-1.5-5.2-4.2-7.2-7.5c-7.4,3-13.1,9.5-14.6,15.8C25.7,89.5,37.1,95,50,95s24.3-5.5,32.5-14.2C80.8,74.2,75.3,68,67.9,65z"/>
		</g>
		<g id="Group-5" transform="translate(439.000000, 200.000000)" class="st7">
			<circle id="Oval_4_" class="st1" cx="50" cy="50" r="50"/>
			<path id="Shape_10_" class="st5" d="M69.6,70.2C67.4,74,65.2,77,62,78.8c-6.7,3.5-12.1,6-12.1,6l-11.6-6c-3.2-1.8-6.2-5-8.4-8.8
				c-5.4,2.2-9.6,6-12.4,10.5c8.2,9,19.8,14.5,32.6,14.5s24.5-5.5,32.4-14.2C79.5,76.5,75.1,72.5,69.6,70.2z"/>
			<path id="Shape_9_" class="st5" d="M42.2,42.7c-1.3,0.5-2.5,0.8-3.5,1.3c-1,0.5-2,1-3,1.5c-0.5,0.3-0.8,0.5-1.3,0.8
				c-0.3,0.3-0.8,0.5-1,0.8c-0.8,0.5-1.3,1-1.5,1.5c-0.8,1-1.3,1.5-1.3,1.5s0.5-0.3,1.8-0.8c0.5-0.3,1.3-0.5,1.8-1
				c0.8-0.3,1.5-0.8,2.5-1c1-0.3,2-0.8,3-1c1-0.3,2.3-0.5,3.3-0.8c1.3-0.3,2.5-0.3,3.5-0.5c1.3-0.3,2.5,0,3.8,0c1.3,0,2.5,0,3.8,0.3
				c1.3,0,2.5,0.3,3.5,0.5c1,0.3,2.3,0.5,3.3,0.8c1,0.3,2,0.8,3,1c1,0.3,1.8,0.8,2.5,1c0.8,0.3,1.5,0.5,1.8,1c1,0.5,1.8,0.8,1.8,0.8
				s-0.5-0.5-1.3-1.5c-0.3-0.5-0.8-1-1.5-1.5c-0.3-0.3-0.8-0.5-1-0.8C66,46.2,65.5,46,65,45.7c-0.5-0.3-0.8-0.5-1.3-1
				c-0.5-0.3-1-0.5-1.5-0.8c-1-0.5-2.3-1-3.5-1.5c-1.3-0.3-2.5-0.8-4.1-1c-1.3-0.3-2.8-0.3-4.3-0.5c-1.5,0-2.8,0-4.3,0.3
				C44.7,41.9,43.4,42.4,42.2,42.7z M46.7,18.8c0,0.3,0,0.5,0,0.8c-9.6,1.5-16.7,9.1-19,20.3h-0.3c-1.5,0.3-2.8,1.3-3.8,2.8
				c-1.3,2-1.5,4.8-0.8,7.6c0.8,3.3,3,6.1,5.6,6.9c3,9.9,10.9,20.3,21.5,20.3s18.5-10.4,21.5-20.3c2.5-1,4.8-3.6,5.6-6.9
				c0.8-2.8,0.3-5.6-0.8-7.6c-0.8-1.5-2.3-2.5-3.8-2.8h-0.3c-2-10.9-9.4-18.8-19-20.3c0-0.3,0-0.5,0-0.8c0-2-1.8-3.8-3.8-3.8
				C48.5,15.3,46.7,16.8,46.7,18.8z M70,43.5l1.5-0.3c0.3,0,0.5,0,0.8,0c0.8,0.3,1.3,0.8,1.5,1.3c0.8,1.3,1,3,0.5,4.8
				c-0.8,2.8-2.5,4.3-3.8,4.6l-1.3,0.3l-0.3,1c-2.5,9.4-9.6,18.8-18.5,18.8s-16-9.4-18.5-18.8l-0.3-1l-1.3-0.3
				c-1.5-0.3-3.3-1.8-3.8-4.6c-0.5-1.8-0.3-3.6,0.5-4.8c0.3-0.5,0.8-1,1.5-1.3c0,0,0.3,0,0.5,0h0.3h0.8l1-0.8
				C49.3,30.8,67.8,42.2,70,43.5z"/>
		</g>
		<g class="st8">
			<path class="st2" d="M567.2,39.5l1.3,0.3c-0.3,1.1-0.8,1.9-1.5,2.5c-0.7,0.6-1.6,0.9-2.6,0.9c-1.1,0-2-0.2-2.6-0.7
				c-0.7-0.4-1.2-1.1-1.5-1.9c-0.4-0.8-0.5-1.7-0.5-2.7c0-1,0.2-2,0.6-2.7c0.4-0.8,1-1.4,1.7-1.8c0.7-0.4,1.5-0.6,2.4-0.6
				c1,0,1.8,0.3,2.5,0.8s1.2,1.2,1.4,2.2l-1.3,0.3c-0.2-0.7-0.6-1.3-1-1.6s-1-0.5-1.7-0.5c-0.8,0-1.4,0.2-1.9,0.6
				c-0.5,0.4-0.9,0.9-1.1,1.5c-0.2,0.6-0.3,1.3-0.3,1.9c0,0.9,0.1,1.6,0.4,2.2c0.2,0.6,0.6,1.1,1.2,1.4s1.1,0.5,1.7,0.5
				c0.7,0,1.4-0.2,1.9-0.6S567,40.3,567.2,39.5z"/>
			<path class="st2" d="M569.8,45.8l-0.1-1.2c0.3,0.1,0.5,0.1,0.7,0.1c0.3,0,0.5,0,0.7-0.1s0.3-0.2,0.4-0.4c0.1-0.1,0.2-0.4,0.4-0.9
				c0-0.1,0.1-0.2,0.1-0.3l-2.8-7.3h1.3l1.5,4.2c0.2,0.5,0.4,1.1,0.5,1.7c0.1-0.6,0.3-1.1,0.5-1.7l1.6-4.2h1.2l-2.8,7.4
				c-0.3,0.8-0.5,1.3-0.7,1.6c-0.2,0.4-0.5,0.7-0.8,0.9c-0.3,0.2-0.6,0.3-1,0.3C570.3,45.9,570.1,45.9,569.8,45.8z"/>
			<path class="st2" d="M576.6,35.7h5.7V43h-1.2v-6.2h-3.3V43h-1.2V35.7z"/>
			<path class="st2" d="M584,45.8v-10h1.1v0.9c0.3-0.4,0.6-0.6,0.9-0.8c0.3-0.2,0.7-0.3,1.2-0.3c0.6,0,1.2,0.2,1.6,0.5
				s0.8,0.8,1.1,1.3c0.2,0.6,0.4,1.2,0.4,1.9c0,0.7-0.1,1.4-0.4,2c-0.3,0.6-0.7,1-1.2,1.4c-0.5,0.3-1,0.5-1.6,0.5
				c-0.4,0-0.8-0.1-1.1-0.3c-0.3-0.2-0.6-0.4-0.8-0.7v3.5H584z M585.1,39.4c0,0.9,0.2,1.6,0.6,2.1s0.8,0.7,1.4,0.7
				c0.5,0,1-0.2,1.4-0.7c0.4-0.5,0.6-1.2,0.6-2.2c0-0.9-0.2-1.6-0.6-2.1c-0.4-0.5-0.8-0.7-1.4-0.7c-0.5,0-1,0.2-1.4,0.7
				C585.3,37.8,585.1,38.5,585.1,39.4z"/>
			<path class="st2" d="M591.3,45.8l-0.1-1.2c0.3,0.1,0.5,0.1,0.7,0.1c0.3,0,0.5,0,0.7-0.1s0.3-0.2,0.4-0.4c0.1-0.1,0.2-0.4,0.4-0.9
				c0-0.1,0.1-0.2,0.1-0.3l-2.8-7.3h1.3l1.5,4.2c0.2,0.5,0.4,1.1,0.5,1.7c0.1-0.6,0.3-1.1,0.5-1.7l1.6-4.2h1.2l-2.8,7.4
				c-0.3,0.8-0.5,1.3-0.7,1.6c-0.2,0.4-0.5,0.7-0.8,0.9c-0.3,0.2-0.6,0.3-1,0.3C591.9,45.9,591.6,45.9,591.3,45.8z"/>
			<path class="st2" d="M598.2,35.7h4.2v1h-2.9V43h-1.2V35.7z"/>
			<path class="st2" d="M607.5,42.1c-0.5,0.4-0.9,0.7-1.3,0.8c-0.4,0.2-0.9,0.2-1.4,0.2c-0.8,0-1.4-0.2-1.8-0.6
				c-0.4-0.4-0.6-0.9-0.6-1.5c0-0.4,0.1-0.7,0.2-1c0.2-0.3,0.4-0.5,0.6-0.7c0.3-0.2,0.6-0.3,0.9-0.4c0.2-0.1,0.6-0.1,1.1-0.2
				c1-0.1,1.7-0.3,2.2-0.4c0-0.2,0-0.3,0-0.3c0-0.5-0.1-0.9-0.3-1.1c-0.3-0.3-0.8-0.4-1.4-0.4c-0.6,0-1,0.1-1.3,0.3
				c-0.3,0.2-0.5,0.6-0.6,1.1l-1.2-0.2c0.1-0.5,0.3-0.9,0.5-1.2c0.2-0.3,0.6-0.6,1.1-0.7c0.5-0.2,1-0.3,1.6-0.3
				c0.6,0,1.1,0.1,1.5,0.2s0.7,0.3,0.9,0.6c0.2,0.2,0.3,0.5,0.4,0.8c0,0.2,0.1,0.6,0.1,1.1V40c0,1.1,0,1.9,0.1,2.2
				c0.1,0.3,0.2,0.6,0.3,0.9h-1.3C607.6,42.7,607.6,42.4,607.5,42.1z M607.4,39.4c-0.4,0.2-1.1,0.3-2,0.5c-0.5,0.1-0.9,0.2-1.1,0.2
				s-0.4,0.2-0.5,0.4c-0.1,0.2-0.2,0.4-0.2,0.6c0,0.3,0.1,0.6,0.4,0.8c0.2,0.2,0.6,0.3,1.1,0.3c0.5,0,0.9-0.1,1.3-0.3
				c0.4-0.2,0.6-0.5,0.8-0.9c0.1-0.3,0.2-0.7,0.2-1.2V39.4z"/>
		</g>
		<g class="st8">
			<path d="M567.2,56.5l1.3,0.3c-0.3,1.1-0.8,1.9-1.5,2.5c-0.7,0.6-1.6,0.9-2.6,0.9c-1.1,0-2-0.2-2.6-0.7c-0.7-0.4-1.2-1.1-1.5-1.9
				c-0.4-0.8-0.5-1.7-0.5-2.7c0-1,0.2-2,0.6-2.7c0.4-0.8,1-1.4,1.7-1.8c0.7-0.4,1.5-0.6,2.4-0.6c1,0,1.8,0.3,2.5,0.8
				s1.2,1.2,1.4,2.2l-1.3,0.3c-0.2-0.7-0.6-1.3-1-1.6s-1-0.5-1.7-0.5c-0.8,0-1.4,0.2-1.9,0.6c-0.5,0.4-0.9,0.9-1.1,1.5
				c-0.2,0.6-0.3,1.3-0.3,1.9c0,0.9,0.1,1.6,0.4,2.2c0.2,0.6,0.6,1.1,1.2,1.4s1.1,0.5,1.7,0.5c0.7,0,1.4-0.2,1.9-0.6
				S567,57.3,567.2,56.5z"/>
			<path d="M574.7,59.1c-0.5,0.4-0.9,0.7-1.3,0.8c-0.4,0.2-0.9,0.2-1.4,0.2c-0.8,0-1.4-0.2-1.8-0.6c-0.4-0.4-0.6-0.9-0.6-1.5
				c0-0.4,0.1-0.7,0.2-1c0.2-0.3,0.4-0.5,0.6-0.7c0.3-0.2,0.6-0.3,0.9-0.4c0.2-0.1,0.6-0.1,1.1-0.2c1-0.1,1.7-0.3,2.2-0.4
				c0-0.2,0-0.3,0-0.3c0-0.5-0.1-0.9-0.3-1.1c-0.3-0.3-0.8-0.4-1.4-0.4c-0.6,0-1,0.1-1.3,0.3c-0.3,0.2-0.5,0.6-0.6,1.1l-1.2-0.2
				c0.1-0.5,0.3-0.9,0.5-1.2c0.3-0.3,0.6-0.6,1.1-0.7c0.5-0.2,1-0.3,1.6-0.3c0.6,0,1.1,0.1,1.5,0.2s0.7,0.3,0.9,0.6
				c0.2,0.2,0.3,0.5,0.4,0.8c0,0.2,0.1,0.6,0.1,1.1V57c0,1.1,0,1.9,0.1,2.2c0.1,0.3,0.2,0.6,0.3,0.9H575
				C574.8,59.7,574.8,59.4,574.7,59.1z M574.6,56.4c-0.4,0.2-1.1,0.3-2,0.5c-0.5,0.1-0.9,0.2-1.1,0.2s-0.4,0.2-0.5,0.4
				c-0.1,0.2-0.2,0.4-0.2,0.6c0,0.3,0.1,0.6,0.4,0.8c0.2,0.2,0.6,0.3,1.1,0.3c0.5,0,0.9-0.1,1.3-0.3c0.4-0.2,0.6-0.5,0.8-0.9
				c0.1-0.3,0.2-0.7,0.2-1.2V56.4z"/>
			<path d="M578.2,52.7h5.7V60h-1.2v-6.2h-3.3v3.6c0,0.8,0,1.4-0.1,1.7s-0.2,0.5-0.5,0.7s-0.6,0.3-1.1,0.3c-0.3,0-0.6,0-1-0.1v-1
				h0.5c0.3,0,0.4,0,0.5-0.1c0.1-0.1,0.2-0.1,0.2-0.2s0.1-0.5,0.1-1.1V52.7z"/>
			<path d="M584.9,52.7h5.9v1h-2.3V60h-1.2v-6.2h-2.3V52.7z"/>
			<path d="M591.7,52.7h1.2v2.8h1.6c1,0,1.8,0.2,2.3,0.6c0.5,0.4,0.8,0.9,0.8,1.6c0,0.6-0.2,1.1-0.7,1.6c-0.5,0.4-1.2,0.6-2.2,0.6
				h-3.1V52.7z M593,59h1.3c0.8,0,1.3-0.1,1.7-0.3s0.5-0.5,0.5-0.9c0-0.3-0.1-0.6-0.4-0.8s-0.8-0.4-1.6-0.4H593V59z M598.6,52.7h1.2
				V60h-1.2V52.7z"/>
			<path d="M601.6,52.7h1.2v3.1c0.4,0,0.7-0.1,0.8-0.2c0.2-0.2,0.4-0.6,0.7-1.3c0.2-0.6,0.4-1,0.6-1.1s0.3-0.3,0.5-0.4
				s0.5-0.1,0.9-0.1h0.2v1l-0.3,0c-0.3,0-0.5,0-0.6,0.1c-0.1,0.1-0.2,0.4-0.4,0.9c-0.2,0.5-0.4,0.8-0.5,1s-0.4,0.3-0.7,0.5
				c0.5,0.1,1,0.6,1.6,1.5l1.3,2.2h-1.4l-1.3-2.2c-0.3-0.5-0.5-0.7-0.7-0.9c-0.2-0.1-0.4-0.2-0.7-0.2V60h-1.2V52.7z"/>
			<path d="M607.2,56.4c0-1.3,0.4-2.3,1.1-3c0.6-0.5,1.4-0.8,2.3-0.8c1,0,1.8,0.3,2.4,1c0.6,0.7,1,1.6,1,2.7c0,0.9-0.1,1.7-0.4,2.2
				c-0.3,0.5-0.7,1-1.2,1.2c-0.5,0.3-1.1,0.4-1.8,0.4c-1,0-1.8-0.3-2.5-1C607.5,58.5,607.2,57.6,607.2,56.4z M608.4,56.4
				c0,0.9,0.2,1.6,0.6,2.1c0.4,0.5,0.9,0.7,1.5,0.7c0.6,0,1.1-0.2,1.5-0.7s0.6-1.2,0.6-2.1c0-0.9-0.2-1.6-0.6-2
				c-0.4-0.5-0.9-0.7-1.5-0.7c-0.6,0-1.1,0.2-1.5,0.7S608.4,55.4,608.4,56.4z"/>
			<path d="M615.2,52.7h2.8c0.7,0,1.2,0.1,1.6,0.2c0.3,0.1,0.6,0.3,0.9,0.6s0.4,0.7,0.4,1.1c0,0.3-0.1,0.6-0.2,0.9
				c-0.1,0.3-0.4,0.5-0.6,0.6c0.3,0.1,0.6,0.3,0.9,0.6c0.2,0.3,0.3,0.7,0.3,1.1c0,0.7-0.3,1.2-0.7,1.5c-0.4,0.3-1.1,0.5-1.9,0.5
				h-3.3V52.7z M616.5,55.8h1.3c0.5,0,0.9,0,1.1-0.1c0.2-0.1,0.4-0.2,0.5-0.3c0.2-0.2,0.2-0.4,0.2-0.6c0-0.4-0.1-0.6-0.4-0.8
				s-0.7-0.2-1.4-0.2h-1.4V55.8z M616.5,59h1.6c0.7,0,1.2-0.1,1.4-0.2c0.3-0.2,0.4-0.4,0.4-0.8c0-0.2-0.1-0.4-0.2-0.6
				c-0.2-0.2-0.3-0.3-0.6-0.4c-0.2-0.1-0.6-0.1-1.2-0.1h-1.5V59z"/>
			<path d="M627,59.1c-0.5,0.4-0.9,0.7-1.3,0.8s-0.9,0.2-1.4,0.2c-0.8,0-1.4-0.2-1.8-0.6c-0.4-0.4-0.6-0.9-0.6-1.5
				c0-0.4,0.1-0.7,0.2-1c0.2-0.3,0.4-0.5,0.6-0.7s0.6-0.3,0.9-0.4c0.2-0.1,0.6-0.1,1.1-0.2c1-0.1,1.7-0.3,2.2-0.4c0-0.2,0-0.3,0-0.3
				c0-0.5-0.1-0.9-0.3-1.1c-0.3-0.3-0.8-0.4-1.4-0.4c-0.6,0-1,0.1-1.3,0.3c-0.3,0.2-0.5,0.6-0.6,1.1l-1.2-0.2
				c0.1-0.5,0.3-0.9,0.5-1.2c0.3-0.3,0.6-0.6,1.1-0.7c0.5-0.2,1-0.3,1.6-0.3c0.6,0,1.1,0.1,1.5,0.2c0.4,0.1,0.7,0.3,0.9,0.6
				c0.2,0.2,0.3,0.5,0.4,0.8c0,0.2,0.1,0.6,0.1,1.1V57c0,1.1,0,1.9,0.1,2.2c0.1,0.3,0.2,0.6,0.3,0.9h-1.3
				C627.1,59.7,627.1,59.4,627,59.1z M626.9,56.4c-0.4,0.2-1.1,0.3-2,0.5c-0.5,0.1-0.9,0.2-1.1,0.2c-0.2,0.1-0.4,0.2-0.5,0.4
				c-0.1,0.2-0.2,0.4-0.2,0.6c0,0.3,0.1,0.6,0.4,0.8s0.6,0.3,1.1,0.3c0.5,0,0.9-0.1,1.3-0.3c0.4-0.2,0.6-0.5,0.8-0.9
				c0.1-0.3,0.2-0.7,0.2-1.2V56.4z"/>
			<path d="M629.4,57v-1.2h3.8V57H629.4z"/>
			<path d="M634.5,50h1.3v8.8h3.3V50h1.3v8.8h3.3V50h1.3v8.8h0.9v4h-1.2V60h-10.4V50z"/>
			<path d="M652.2,57.7l1.3,0.2c-0.2,0.7-0.6,1.3-1.1,1.7c-0.5,0.4-1.2,0.6-2.1,0.6c-1.1,0-1.9-0.3-2.5-1c-0.6-0.7-0.9-1.6-0.9-2.8
				c0-1.2,0.3-2.2,0.9-2.8s1.4-1,2.4-1c1,0,1.8,0.3,2.4,1s0.9,1.6,0.9,2.8c0,0.1,0,0.2,0,0.3h-5.4c0,0.8,0.3,1.4,0.7,1.8
				c0.4,0.4,0.9,0.6,1.5,0.6c0.5,0,0.8-0.1,1.2-0.4C651.8,58.6,652,58.2,652.2,57.7z M648.2,55.7h4.1c-0.1-0.6-0.2-1.1-0.5-1.4
				c-0.4-0.5-0.9-0.7-1.5-0.7c-0.6,0-1,0.2-1.4,0.6S648.2,55,648.2,55.7z"/>
			<path d="M655.5,52.7h5.1V59h0.8v3.1h-1V60h-5.7v2.1h-1V59h0.6C655.1,57.8,655.5,55.7,655.5,52.7z M656.5,53.8
				c-0.1,2.4-0.5,4.1-1.1,5.2h3.9v-5.2H656.5z"/>
			<path d="M662.5,62.8v-10h1.1v0.9c0.3-0.4,0.6-0.6,0.9-0.8c0.3-0.2,0.7-0.3,1.2-0.3c0.6,0,1.2,0.2,1.6,0.5
				c0.5,0.3,0.8,0.8,1.1,1.3c0.2,0.6,0.4,1.2,0.4,1.9c0,0.7-0.1,1.4-0.4,2c-0.3,0.6-0.7,1-1.2,1.4c-0.5,0.3-1,0.5-1.6,0.5
				c-0.4,0-0.8-0.1-1.1-0.3s-0.6-0.4-0.8-0.7v3.5H662.5z M663.6,56.4c0,0.9,0.2,1.6,0.6,2.1c0.4,0.4,0.8,0.7,1.4,0.7
				c0.5,0,1-0.2,1.4-0.7c0.4-0.5,0.6-1.2,0.6-2.2c0-0.9-0.2-1.6-0.6-2.1s-0.8-0.7-1.4-0.7c-0.5,0-1,0.2-1.4,0.7
				C663.8,54.8,663.6,55.5,663.6,56.4z"/>
			<path d="M670,52.7h1.2v5.5l3.4-5.5h1.3V60h-1.2v-5.5l-3.4,5.5H670V52.7z"/>
			<path d="M677.7,52.7h1.2v3h3.4v-3h1.2V60h-1.2v-3.2h-3.4V60h-1.2V52.7z"/>
			<path d="M689.9,59.1c-0.5,0.4-0.9,0.7-1.3,0.8s-0.9,0.2-1.4,0.2c-0.8,0-1.4-0.2-1.8-0.6c-0.4-0.4-0.6-0.9-0.6-1.5
				c0-0.4,0.1-0.7,0.2-1c0.2-0.3,0.4-0.5,0.6-0.7s0.6-0.3,0.9-0.4c0.2-0.1,0.6-0.1,1.1-0.2c1-0.1,1.7-0.3,2.2-0.4c0-0.2,0-0.3,0-0.3
				c0-0.5-0.1-0.9-0.3-1.1c-0.3-0.3-0.8-0.4-1.4-0.4c-0.6,0-1,0.1-1.3,0.3c-0.3,0.2-0.5,0.6-0.6,1.1l-1.2-0.2
				c0.1-0.5,0.3-0.9,0.5-1.2c0.3-0.3,0.6-0.6,1.1-0.7c0.5-0.2,1-0.3,1.6-0.3c0.6,0,1.1,0.1,1.5,0.2c0.4,0.1,0.7,0.3,0.9,0.6
				c0.2,0.2,0.3,0.5,0.4,0.8c0,0.2,0.1,0.6,0.1,1.1V57c0,1.1,0,1.9,0.1,2.2c0.1,0.3,0.2,0.6,0.3,0.9h-1.3
				C690,59.7,689.9,59.4,689.9,59.1z M689.8,56.4c-0.4,0.2-1.1,0.3-2,0.5c-0.5,0.1-0.9,0.2-1.1,0.2c-0.2,0.1-0.4,0.2-0.5,0.4
				c-0.1,0.2-0.2,0.4-0.2,0.6c0,0.3,0.1,0.6,0.4,0.8s0.6,0.3,1.1,0.3c0.5,0,0.9-0.1,1.3-0.3c0.4-0.2,0.6-0.5,0.8-0.9
				c0.1-0.3,0.2-0.7,0.2-1.2V56.4z"/>
		</g>
		<g class="st8">
			<path d="M559,77l3.8-10h1.4l4.1,10h-1.5l-1.2-3h-4.2l-1.1,3H559z M561.9,72.9h3.4l-1-2.8c-0.3-0.8-0.6-1.5-0.7-2.1
				c-0.1,0.6-0.3,1.3-0.5,1.9L561.9,72.9z"/>
			<path d="M569.1,69.7h1.2v3h3.4v-3h1.2V77h-1.2v-3.2h-3.4V77h-1.2V69.7z"/>
			<path d="M576.6,69.7h1.2v3h3.4v-3h1.2V77h-1.2v-3.2h-3.4V77h-1.2V69.7z"/>
			<path d="M588.8,76.1c-0.5,0.4-0.9,0.7-1.3,0.8c-0.4,0.2-0.9,0.2-1.4,0.2c-0.8,0-1.4-0.2-1.8-0.6c-0.4-0.4-0.6-0.9-0.6-1.5
				c0-0.4,0.1-0.7,0.2-1c0.2-0.3,0.4-0.5,0.6-0.7c0.3-0.2,0.6-0.3,0.9-0.4c0.2-0.1,0.6-0.1,1.1-0.2c1-0.1,1.7-0.3,2.2-0.4
				c0-0.2,0-0.3,0-0.3c0-0.5-0.1-0.9-0.3-1.1c-0.3-0.3-0.8-0.4-1.4-0.4c-0.6,0-1,0.1-1.3,0.3c-0.3,0.2-0.5,0.6-0.6,1.1l-1.2-0.2
				c0.1-0.5,0.3-0.9,0.5-1.2c0.3-0.3,0.6-0.6,1.1-0.7c0.5-0.2,1-0.3,1.6-0.3c0.6,0,1.1,0.1,1.5,0.2s0.7,0.3,0.9,0.6
				c0.2,0.2,0.3,0.5,0.4,0.8c0,0.2,0.1,0.6,0.1,1.1V74c0,1.1,0,1.9,0.1,2.2c0.1,0.3,0.2,0.6,0.3,0.9h-1.3
				C588.9,76.7,588.9,76.4,588.8,76.1z M588.7,73.4c-0.4,0.2-1.1,0.3-2,0.5c-0.5,0.1-0.9,0.2-1.1,0.2s-0.4,0.2-0.5,0.4
				c-0.1,0.2-0.2,0.4-0.2,0.6c0,0.3,0.1,0.6,0.4,0.8c0.2,0.2,0.6,0.3,1.1,0.3c0.5,0,0.9-0.1,1.3-0.3c0.4-0.2,0.6-0.5,0.8-0.9
				c0.1-0.3,0.2-0.7,0.2-1.2V73.4z"/>
			<path d="M595.5,67h1.3v4.4c0.6,0,1-0.1,1.3-0.4c0.2-0.2,0.6-0.8,0.9-1.7c0.3-0.7,0.5-1.1,0.7-1.4c0.2-0.3,0.4-0.5,0.8-0.7
				c0.3-0.2,0.7-0.3,1.1-0.3c0.5,0,0.8,0,0.8,0v1.1c0,0-0.1,0-0.3,0c-0.1,0-0.2,0-0.3,0c-0.4,0-0.7,0.1-0.9,0.3
				c-0.2,0.2-0.4,0.6-0.7,1.3c-0.3,0.8-0.6,1.4-0.9,1.6c-0.2,0.2-0.5,0.4-0.8,0.5c0.6,0.2,1.3,0.8,1.9,1.8l2.1,3.3h-1.6l-1.7-2.7
				c-0.5-0.8-0.8-1.3-1.2-1.5c-0.3-0.3-0.7-0.4-1.2-0.4V77h-1.3V67z"/>
			<path d="M608,76.1c-0.5,0.4-0.9,0.7-1.3,0.8c-0.4,0.2-0.9,0.2-1.4,0.2c-0.8,0-1.4-0.2-1.8-0.6c-0.4-0.4-0.6-0.9-0.6-1.5
				c0-0.4,0.1-0.7,0.2-1c0.2-0.3,0.4-0.5,0.6-0.7c0.3-0.2,0.6-0.3,0.9-0.4c0.2-0.1,0.6-0.1,1.1-0.2c1-0.1,1.7-0.3,2.2-0.4
				c0-0.2,0-0.3,0-0.3c0-0.5-0.1-0.9-0.3-1.1c-0.3-0.3-0.8-0.4-1.4-0.4c-0.6,0-1,0.1-1.3,0.3c-0.3,0.2-0.5,0.6-0.6,1.1l-1.2-0.2
				c0.1-0.5,0.3-0.9,0.5-1.2c0.3-0.3,0.6-0.6,1.1-0.7c0.5-0.2,1-0.3,1.6-0.3c0.6,0,1.1,0.1,1.5,0.2s0.7,0.3,0.9,0.6
				c0.2,0.2,0.3,0.5,0.4,0.8c0,0.2,0.1,0.6,0.1,1.1V74c0,1.1,0,1.9,0.1,2.2c0.1,0.3,0.2,0.6,0.3,0.9h-1.3
				C608.2,76.7,608.1,76.4,608,76.1z M607.9,73.4c-0.4,0.2-1.1,0.3-2,0.5c-0.5,0.1-0.9,0.2-1.1,0.2s-0.4,0.2-0.5,0.4
				c-0.1,0.2-0.2,0.4-0.2,0.6c0,0.3,0.1,0.6,0.4,0.8c0.2,0.2,0.6,0.3,1.1,0.3c0.5,0,0.9-0.1,1.3-0.3c0.4-0.2,0.6-0.5,0.8-0.9
				c0.1-0.3,0.2-0.7,0.2-1.2V73.4z"/>
			<path d="M610.9,79.8v-10h1.1v0.9c0.3-0.4,0.6-0.6,0.9-0.8c0.3-0.2,0.7-0.3,1.2-0.3c0.6,0,1.2,0.2,1.6,0.5
				c0.5,0.3,0.8,0.8,1.1,1.3c0.2,0.6,0.4,1.2,0.4,1.9c0,0.7-0.1,1.4-0.4,2c-0.3,0.6-0.7,1-1.2,1.4c-0.5,0.3-1,0.5-1.6,0.5
				c-0.4,0-0.8-0.1-1.1-0.3s-0.6-0.4-0.8-0.7v3.5H610.9z M612,73.4c0,0.9,0.2,1.6,0.6,2.1c0.4,0.4,0.8,0.7,1.4,0.7
				c0.5,0,1-0.2,1.4-0.7c0.4-0.5,0.6-1.2,0.6-2.2c0-0.9-0.2-1.6-0.6-2.1s-0.8-0.7-1.4-0.7c-0.5,0-1,0.2-1.4,0.7
				C612.2,71.8,612,72.5,612,73.4z"/>
			<path d="M623.4,74.7l1.3,0.2c-0.2,0.7-0.6,1.3-1.1,1.7c-0.5,0.4-1.2,0.6-2.1,0.6c-1.1,0-1.9-0.3-2.5-1c-0.6-0.7-0.9-1.6-0.9-2.8
				c0-1.2,0.3-2.2,0.9-2.8s1.4-1,2.4-1c1,0,1.8,0.3,2.4,1s0.9,1.6,0.9,2.8c0,0.1,0,0.2,0,0.3h-5.4c0,0.8,0.3,1.4,0.7,1.8
				c0.4,0.4,0.9,0.6,1.5,0.6c0.5,0,0.8-0.1,1.2-0.4C623,75.6,623.2,75.2,623.4,74.7z M619.4,72.7h4.1c-0.1-0.6-0.2-1.1-0.5-1.4
				c-0.4-0.5-0.9-0.7-1.5-0.7c-0.6,0-1,0.2-1.4,0.6S619.4,72,619.4,72.7z"/>
			<path d="M626,69.7h1.2v3h3.4v-3h1.2V77h-1.2v-3.2h-3.4V77H626V69.7z"/>
			<path d="M633.1,73.4c0-1.3,0.4-2.3,1.1-3c0.6-0.5,1.4-0.8,2.3-0.8c1,0,1.8,0.3,2.4,1c0.6,0.7,1,1.6,1,2.7c0,0.9-0.1,1.7-0.4,2.2
				c-0.3,0.5-0.7,1-1.2,1.2s-1.1,0.4-1.8,0.4c-1,0-1.8-0.3-2.5-1S633.1,74.6,633.1,73.4z M634.4,73.4c0,0.9,0.2,1.6,0.6,2.1
				c0.4,0.5,0.9,0.7,1.5,0.7c0.6,0,1.1-0.2,1.5-0.7c0.4-0.5,0.6-1.2,0.6-2.1c0-0.9-0.2-1.6-0.6-2c-0.4-0.5-0.9-0.7-1.5-0.7
				c-0.6,0-1.1,0.2-1.5,0.7C634.6,71.7,634.4,72.4,634.4,73.4z"/>
			<path d="M641.1,69.7h2.8c0.7,0,1.2,0.1,1.6,0.2c0.3,0.1,0.6,0.3,0.9,0.6s0.4,0.7,0.4,1.1c0,0.3-0.1,0.6-0.2,0.9
				c-0.1,0.3-0.4,0.5-0.6,0.6c0.3,0.1,0.6,0.3,0.9,0.6c0.2,0.3,0.3,0.7,0.3,1.1c0,0.7-0.3,1.2-0.7,1.5c-0.4,0.3-1.1,0.5-1.9,0.5
				h-3.3V69.7z M642.4,72.8h1.3c0.5,0,0.9,0,1.1-0.1c0.2-0.1,0.4-0.2,0.5-0.3c0.2-0.2,0.2-0.4,0.2-0.6c0-0.4-0.1-0.6-0.4-0.8
				s-0.7-0.2-1.4-0.2h-1.4V72.8z M642.4,76h1.6c0.7,0,1.2-0.1,1.4-0.2c0.3-0.2,0.4-0.4,0.4-0.8c0-0.2-0.1-0.4-0.2-0.6
				c-0.2-0.2-0.3-0.3-0.6-0.4c-0.2-0.1-0.6-0.1-1.2-0.1h-1.5V76z"/>
			<path d="M648.4,69.7h1.2v3h3.4v-3h1.2V77H653v-3.2h-3.4V77h-1.2V69.7z"/>
			<path d="M660.6,76.1c-0.5,0.4-0.9,0.7-1.3,0.8s-0.9,0.2-1.4,0.2c-0.8,0-1.4-0.2-1.8-0.6c-0.4-0.4-0.6-0.9-0.6-1.5
				c0-0.4,0.1-0.7,0.2-1c0.2-0.3,0.4-0.5,0.6-0.7s0.6-0.3,0.9-0.4c0.2-0.1,0.6-0.1,1.1-0.2c1-0.1,1.7-0.3,2.2-0.4c0-0.2,0-0.3,0-0.3
				c0-0.5-0.1-0.9-0.3-1.1c-0.3-0.3-0.8-0.4-1.4-0.4c-0.6,0-1,0.1-1.3,0.3c-0.3,0.2-0.5,0.6-0.6,1.1l-1.2-0.2
				c0.1-0.5,0.3-0.9,0.5-1.2c0.2-0.3,0.6-0.6,1.1-0.7c0.5-0.2,1-0.3,1.6-0.3c0.6,0,1.1,0.1,1.5,0.2c0.4,0.1,0.7,0.3,0.9,0.6
				c0.2,0.2,0.3,0.5,0.4,0.8c0,0.2,0.1,0.6,0.1,1.1V74c0,1.1,0,1.9,0.1,2.2c0.1,0.3,0.2,0.6,0.3,0.9h-1.3
				C660.7,76.7,660.6,76.4,660.6,76.1z M660.5,73.4c-0.4,0.2-1.1,0.3-2,0.5c-0.5,0.1-0.9,0.2-1.1,0.2c-0.2,0.1-0.4,0.2-0.5,0.4
				c-0.1,0.2-0.2,0.4-0.2,0.6c0,0.3,0.1,0.6,0.4,0.8s0.6,0.3,1.1,0.3c0.5,0,0.9-0.1,1.3-0.3c0.4-0.2,0.6-0.5,0.8-0.9
				c0.1-0.3,0.2-0.7,0.2-1.2V73.4z"/>
		</g>
		<g class="st8">
			<path d="M566,92.8V94h-6.6c0-0.3,0-0.6,0.1-0.9c0.2-0.5,0.4-0.9,0.8-1.3c0.4-0.4,0.9-0.9,1.6-1.5c1.1-0.9,1.8-1.6,2.2-2.1
				c0.4-0.5,0.6-1,0.6-1.5c0-0.5-0.2-0.9-0.5-1.2c-0.3-0.3-0.8-0.5-1.4-0.5c-0.6,0-1.1,0.2-1.4,0.5s-0.5,0.8-0.5,1.5l-1.3-0.1
				c0.1-0.9,0.4-1.7,1-2.2c0.6-0.5,1.3-0.7,2.3-0.7c1,0,1.7,0.3,2.3,0.8s0.8,1.2,0.8,2c0,0.4-0.1,0.8-0.2,1.2s-0.4,0.8-0.8,1.2
				c-0.4,0.4-1,1-1.9,1.8c-0.7,0.6-1.2,1-1.4,1.3c-0.2,0.2-0.4,0.4-0.5,0.7H566z"/>
			<path d="M567.2,91.4l1.3-0.1c0.1,0.6,0.3,1.1,0.7,1.4c0.3,0.3,0.8,0.5,1.3,0.5c0.6,0,1.1-0.2,1.5-0.7s0.6-1,0.6-1.8
				c0-0.7-0.2-1.3-0.6-1.7c-0.4-0.4-0.9-0.6-1.5-0.6c-0.4,0-0.8,0.1-1.1,0.3c-0.3,0.2-0.6,0.4-0.8,0.7l-1.2-0.2l1-5.1h5v1.2h-4
				l-0.5,2.7c0.6-0.4,1.2-0.6,1.9-0.6c0.9,0,1.6,0.3,2.2,0.9s0.9,1.4,0.9,2.3c0,0.9-0.3,1.7-0.8,2.4c-0.6,0.8-1.5,1.2-2.6,1.2
				c-0.9,0-1.7-0.3-2.2-0.8C567.6,92.9,567.2,92.2,567.2,91.4z"/>
			<path d="M575.4,94v-1.4h1.4V94H575.4z"/>
			<path d="M583,94h-1.2v-7.8c-0.3,0.3-0.7,0.6-1.2,0.8c-0.5,0.3-0.9,0.5-1.3,0.6v-1.2c0.7-0.3,1.3-0.7,1.8-1.2s0.9-0.9,1.1-1.3h0.8
				V94z"/>
			<path d="M589.6,94h-1.2v-7.8c-0.3,0.3-0.7,0.6-1.2,0.8c-0.5,0.3-0.9,0.5-1.3,0.6v-1.2c0.7-0.3,1.3-0.7,1.8-1.2s0.9-0.9,1.1-1.3
				h0.8V94z"/>
			<path d="M593.2,94v-1.4h1.4V94H593.2z"/>
			<path d="M600.8,94h-1.2v-7.8c-0.3,0.3-0.7,0.6-1.2,0.8c-0.5,0.3-0.9,0.5-1.3,0.6v-1.2c0.7-0.3,1.3-0.7,1.8-1.2s0.9-0.9,1.1-1.3
				h0.8V94z"/>
			<path d="M604,91.7l1.2-0.1c0.1,0.6,0.3,1,0.6,1.2c0.3,0.3,0.6,0.4,1.1,0.4c0.4,0,0.7-0.1,1-0.3s0.5-0.4,0.7-0.7
				c0.2-0.3,0.3-0.7,0.5-1.2s0.2-1,0.2-1.5c0-0.1,0-0.1,0-0.2c-0.2,0.4-0.6,0.7-1,1c-0.4,0.2-0.9,0.4-1.4,0.4
				c-0.8,0-1.5-0.3-2.1-0.9s-0.9-1.4-0.9-2.4c0-1,0.3-1.8,0.9-2.5s1.4-0.9,2.3-0.9c0.7,0,1.2,0.2,1.8,0.5s1,0.9,1.2,1.5
				c0.3,0.6,0.4,1.6,0.4,2.8c0,1.3-0.1,2.3-0.4,3.1c-0.3,0.8-0.7,1.3-1.2,1.7s-1.2,0.6-1.9,0.6c-0.8,0-1.4-0.2-1.9-0.7
				C604.4,93.1,604.1,92.5,604,91.7z M609,87.3c0-0.7-0.2-1.3-0.6-1.7s-0.8-0.6-1.4-0.6c-0.5,0-1,0.2-1.4,0.7
				c-0.4,0.4-0.6,1-0.6,1.7c0,0.6,0.2,1.2,0.6,1.6c0.4,0.4,0.9,0.6,1.4,0.6c0.6,0,1-0.2,1.4-0.6C608.8,88.5,609,88,609,87.3z"/>
			<path d="M611.4,91.4l1.2-0.2c0.1,0.7,0.4,1.2,0.7,1.5c0.3,0.3,0.8,0.5,1.2,0.5c0.6,0,1.1-0.2,1.5-0.6s0.6-0.9,0.6-1.5
				c0-0.6-0.2-1-0.6-1.4c-0.4-0.4-0.8-0.6-1.4-0.6c-0.2,0-0.5,0-0.9,0.1l0.1-1.1c0.1,0,0.1,0,0.2,0c0.5,0,1-0.1,1.4-0.4
				c0.4-0.3,0.6-0.7,0.6-1.3c0-0.5-0.2-0.8-0.5-1.1c-0.3-0.3-0.7-0.4-1.2-0.4c-0.5,0-0.9,0.2-1.2,0.5c-0.3,0.3-0.5,0.8-0.6,1.4
				l-1.2-0.2c0.2-0.8,0.5-1.5,1-1.9c0.5-0.5,1.2-0.7,2-0.7c0.5,0,1.1,0.1,1.5,0.4c0.5,0.2,0.8,0.6,1.1,1s0.4,0.8,0.4,1.3
				c0,0.4-0.1,0.8-0.3,1.2s-0.6,0.6-1,0.8c0.6,0.1,1.1,0.4,1.4,0.9c0.3,0.4,0.5,1,0.5,1.6c0,0.9-0.3,1.6-1,2.2
				c-0.6,0.6-1.4,0.9-2.4,0.9c-0.9,0-1.6-0.3-2.2-0.8S611.4,92.2,611.4,91.4z"/>
			<path d="M625.3,86.4l-1.2,0.1c-0.1-0.5-0.3-0.8-0.5-1.1c-0.3-0.4-0.7-0.5-1.2-0.5c-0.4,0-0.7,0.1-1,0.3c-0.4,0.3-0.7,0.7-0.9,1.2
				c-0.2,0.5-0.3,1.3-0.3,2.3c0.3-0.5,0.7-0.8,1.1-1c0.4-0.2,0.9-0.3,1.3-0.3c0.8,0,1.5,0.3,2.1,0.9c0.6,0.6,0.9,1.4,0.9,2.3
				c0,0.6-0.1,1.2-0.4,1.8c-0.3,0.5-0.6,1-1.1,1.2c-0.5,0.3-1,0.4-1.6,0.4c-1,0-1.9-0.4-2.5-1.1c-0.6-0.8-1-2-1-3.7
				c0-1.9,0.4-3.3,1.1-4.2c0.6-0.8,1.5-1.1,2.5-1.1c0.8,0,1.4,0.2,1.9,0.7S625.2,85.7,625.3,86.4z M620.3,90.8
				c0,0.4,0.1,0.8,0.3,1.2s0.4,0.7,0.8,0.9c0.3,0.2,0.7,0.3,1,0.3c0.5,0,1-0.2,1.3-0.6c0.4-0.4,0.6-1,0.6-1.7c0-0.7-0.2-1.2-0.6-1.6
				c-0.4-0.4-0.8-0.6-1.4-0.6c-0.6,0-1,0.2-1.4,0.6C620.5,89.6,620.3,90.1,620.3,90.8z"/>
		</g>
		<g class="st8">
			<path class="st2" d="M567.2,216.5l1.3,0.3c-0.3,1.1-0.8,1.9-1.5,2.5c-0.7,0.6-1.6,0.9-2.6,0.9c-1.1,0-2-0.2-2.6-0.7
				c-0.7-0.4-1.2-1.1-1.5-1.9c-0.4-0.8-0.5-1.7-0.5-2.7c0-1,0.2-2,0.6-2.7c0.4-0.8,1-1.4,1.7-1.8c0.7-0.4,1.5-0.6,2.4-0.6
				c1,0,1.8,0.3,2.5,0.8s1.2,1.2,1.4,2.2l-1.3,0.3c-0.2-0.7-0.6-1.3-1-1.6s-1-0.5-1.7-0.5c-0.8,0-1.4,0.2-1.9,0.6
				c-0.5,0.4-0.9,0.9-1.1,1.5c-0.2,0.6-0.3,1.3-0.3,1.9c0,0.9,0.1,1.6,0.4,2.2c0.2,0.6,0.6,1.1,1.2,1.4s1.1,0.5,1.7,0.5
				c0.7,0,1.4-0.2,1.9-0.6S567,217.3,567.2,216.5z"/>
			<path class="st2" d="M569.9,212.7h1.2v2.8h1.6c1,0,1.8,0.2,2.3,0.6c0.5,0.4,0.8,0.9,0.8,1.6c0,0.6-0.2,1.1-0.7,1.6
				c-0.5,0.4-1.2,0.6-2.2,0.6h-3.1V212.7z M571.1,219h1.3c0.8,0,1.3-0.1,1.7-0.3s0.5-0.5,0.5-0.9c0-0.3-0.1-0.6-0.4-0.8
				s-0.8-0.4-1.6-0.4h-1.5V219z M576.7,212.7h1.2v7.3h-1.2V212.7z"/>
			<path class="st2" d="M579.7,212.7h1.2v3h3.4v-3h1.2v7.3h-1.2v-3.2h-3.4v3.2h-1.2V212.7z"/>
		</g>
		<g class="st8">
			<path d="M567.2,233.5l1.3,0.3c-0.3,1.1-0.8,1.9-1.5,2.5c-0.7,0.6-1.6,0.9-2.6,0.9c-1.1,0-2-0.2-2.6-0.7c-0.7-0.4-1.2-1.1-1.5-1.9
				c-0.4-0.8-0.5-1.7-0.5-2.7c0-1,0.2-2,0.6-2.7c0.4-0.8,1-1.4,1.7-1.8c0.7-0.4,1.5-0.6,2.4-0.6c1,0,1.8,0.3,2.5,0.8
				s1.2,1.2,1.4,2.2l-1.3,0.3c-0.2-0.7-0.6-1.3-1-1.6s-1-0.5-1.7-0.5c-0.8,0-1.4,0.2-1.9,0.6c-0.5,0.4-0.9,0.9-1.1,1.5
				c-0.2,0.6-0.3,1.3-0.3,1.9c0,0.9,0.1,1.6,0.4,2.2c0.2,0.6,0.6,1.1,1.2,1.4s1.1,0.5,1.7,0.5c0.7,0,1.4-0.2,1.9-0.6
				S567,234.3,567.2,233.5z"/>
			<path d="M574.7,236.1c-0.5,0.4-0.9,0.7-1.3,0.8c-0.4,0.2-0.9,0.2-1.4,0.2c-0.8,0-1.4-0.2-1.8-0.6c-0.4-0.4-0.6-0.9-0.6-1.5
				c0-0.4,0.1-0.7,0.2-1c0.2-0.3,0.4-0.5,0.6-0.7c0.3-0.2,0.6-0.3,0.9-0.4c0.2-0.1,0.6-0.1,1.1-0.2c1-0.1,1.7-0.3,2.2-0.4
				c0-0.2,0-0.3,0-0.3c0-0.5-0.1-0.9-0.3-1.1c-0.3-0.3-0.8-0.4-1.4-0.4c-0.6,0-1,0.1-1.3,0.3c-0.3,0.2-0.5,0.6-0.6,1.1l-1.2-0.2
				c0.1-0.5,0.3-0.9,0.5-1.2c0.3-0.3,0.6-0.6,1.1-0.7c0.5-0.2,1-0.3,1.6-0.3c0.6,0,1.1,0.1,1.5,0.2s0.7,0.3,0.9,0.6
				c0.2,0.2,0.3,0.5,0.4,0.8c0,0.2,0.1,0.6,0.1,1.1v1.6c0,1.1,0,1.9,0.1,2.2c0.1,0.3,0.2,0.6,0.3,0.9H575
				C574.8,236.7,574.8,236.4,574.7,236.1z M574.6,233.4c-0.4,0.2-1.1,0.3-2,0.5c-0.5,0.1-0.9,0.2-1.1,0.2s-0.4,0.2-0.5,0.4
				c-0.1,0.2-0.2,0.4-0.2,0.6c0,0.3,0.1,0.6,0.4,0.8c0.2,0.2,0.6,0.3,1.1,0.3c0.5,0,0.9-0.1,1.3-0.3c0.4-0.2,0.6-0.5,0.8-0.9
				c0.1-0.3,0.2-0.7,0.2-1.2V233.4z"/>
			<path d="M578.2,229.7h5.7v7.3h-1.2v-6.2h-3.3v3.6c0,0.8,0,1.4-0.1,1.7s-0.2,0.5-0.5,0.7s-0.6,0.3-1.1,0.3c-0.3,0-0.6,0-1-0.1v-1
				h0.5c0.3,0,0.4,0,0.5-0.1c0.1-0.1,0.2-0.1,0.2-0.2s0.1-0.5,0.1-1.1V229.7z"/>
			<path d="M584.9,229.7h5.9v1h-2.3v6.2h-1.2v-6.2h-2.3V229.7z"/>
			<path d="M591.7,229.7h1.2v2.8h1.6c1,0,1.8,0.2,2.3,0.6c0.5,0.4,0.8,0.9,0.8,1.6c0,0.6-0.2,1.1-0.7,1.6c-0.5,0.4-1.2,0.6-2.2,0.6
				h-3.1V229.7z M593,236h1.3c0.8,0,1.3-0.1,1.7-0.3s0.5-0.5,0.5-0.9c0-0.3-0.1-0.6-0.4-0.8s-0.8-0.4-1.6-0.4H593V236z M598.6,229.7
				h1.2v7.3h-1.2V229.7z"/>
			<path d="M601.6,229.7h1.2v3.1c0.4,0,0.7-0.1,0.8-0.2c0.2-0.2,0.4-0.6,0.7-1.3c0.2-0.6,0.4-1,0.6-1.1s0.3-0.3,0.5-0.4
				s0.5-0.1,0.9-0.1h0.2v1l-0.3,0c-0.3,0-0.5,0-0.6,0.1c-0.1,0.1-0.2,0.4-0.4,0.9c-0.2,0.5-0.4,0.8-0.5,1s-0.4,0.3-0.7,0.5
				c0.5,0.1,1,0.6,1.6,1.5l1.3,2.2h-1.4l-1.3-2.2c-0.3-0.5-0.5-0.7-0.7-0.9c-0.2-0.1-0.4-0.2-0.7-0.2v3.4h-1.2V229.7z"/>
			<path d="M607.2,233.4c0-1.3,0.4-2.3,1.1-3c0.6-0.5,1.4-0.8,2.3-0.8c1,0,1.8,0.3,2.4,1c0.6,0.7,1,1.6,1,2.7c0,0.9-0.1,1.7-0.4,2.2
				c-0.3,0.5-0.7,1-1.2,1.2c-0.5,0.3-1.1,0.4-1.8,0.4c-1,0-1.8-0.3-2.5-1C607.5,235.5,607.2,234.6,607.2,233.4z M608.4,233.4
				c0,0.9,0.2,1.6,0.6,2.1c0.4,0.5,0.9,0.7,1.5,0.7c0.6,0,1.1-0.2,1.5-0.7s0.6-1.2,0.6-2.1c0-0.9-0.2-1.6-0.6-2
				c-0.4-0.5-0.9-0.7-1.5-0.7c-0.6,0-1.1,0.2-1.5,0.7S608.4,232.4,608.4,233.4z"/>
			<path d="M615.2,229.7h2.8c0.7,0,1.2,0.1,1.6,0.2c0.3,0.1,0.6,0.3,0.9,0.6s0.4,0.7,0.4,1.1c0,0.3-0.1,0.6-0.2,0.9
				c-0.1,0.3-0.4,0.5-0.6,0.6c0.3,0.1,0.6,0.3,0.9,0.6c0.2,0.3,0.3,0.7,0.3,1.1c0,0.7-0.3,1.2-0.7,1.5c-0.4,0.3-1.1,0.5-1.9,0.5
				h-3.3V229.7z M616.5,232.8h1.3c0.5,0,0.9,0,1.1-0.1c0.2-0.1,0.4-0.2,0.5-0.3c0.2-0.2,0.2-0.4,0.2-0.6c0-0.4-0.1-0.6-0.4-0.8
				s-0.7-0.2-1.4-0.2h-1.4V232.8z M616.5,236h1.6c0.7,0,1.2-0.1,1.4-0.2c0.3-0.2,0.4-0.4,0.4-0.8c0-0.2-0.1-0.4-0.2-0.6
				c-0.2-0.2-0.3-0.3-0.6-0.4c-0.2-0.1-0.6-0.1-1.2-0.1h-1.5V236z"/>
			<path d="M622,234v-1.2h3.8v1.2H622z"/>
			<path d="M627.1,227h1.3v8.8h3.3V227h1.3v8.8h3.3V227h1.3v8.8h0.9v4h-1.2V237h-10.4V227z"/>
			<path d="M644.8,234.7l1.3,0.2c-0.2,0.7-0.6,1.3-1.1,1.7c-0.5,0.4-1.2,0.6-2.1,0.6c-1.1,0-1.9-0.3-2.5-1c-0.6-0.7-0.9-1.6-0.9-2.8
				c0-1.2,0.3-2.2,0.9-2.8s1.4-1,2.4-1c1,0,1.8,0.3,2.4,1s0.9,1.6,0.9,2.8c0,0.1,0,0.2,0,0.3h-5.4c0,0.8,0.3,1.4,0.7,1.8
				c0.4,0.4,0.9,0.6,1.5,0.6c0.5,0,0.8-0.1,1.2-0.4C644.3,235.6,644.6,235.2,644.8,234.7z M640.7,232.7h4.1
				c-0.1-0.6-0.2-1.1-0.5-1.4c-0.4-0.5-0.9-0.7-1.5-0.7c-0.6,0-1,0.2-1.4,0.6S640.8,232,640.7,232.7z"/>
			<path d="M648.1,229.7h5.1v6.2h0.8v3.1h-1V237h-5.7v2.1h-1V236h0.7C647.7,234.8,648.1,232.7,648.1,229.7z M649.1,230.8
				c-0.1,2.4-0.5,4.1-1.1,5.2h3.9v-5.2H649.1z"/>
			<path d="M655,239.8v-10h1.1v0.9c0.3-0.4,0.6-0.6,0.9-0.8c0.3-0.2,0.7-0.3,1.2-0.3c0.6,0,1.2,0.2,1.6,0.5c0.5,0.3,0.8,0.8,1.1,1.3
				c0.2,0.6,0.4,1.2,0.4,1.9c0,0.7-0.1,1.4-0.4,2c-0.3,0.6-0.7,1-1.2,1.4c-0.5,0.3-1,0.5-1.6,0.5c-0.4,0-0.8-0.1-1.1-0.3
				s-0.6-0.4-0.8-0.7v3.5H655z M656.2,233.4c0,0.9,0.2,1.6,0.6,2.1c0.4,0.4,0.8,0.7,1.4,0.7c0.5,0,1-0.2,1.4-0.7
				c0.4-0.5,0.6-1.2,0.6-2.2c0-0.9-0.2-1.6-0.6-2.1s-0.8-0.7-1.4-0.7c-0.5,0-1,0.2-1.4,0.7C656.4,231.8,656.2,232.5,656.2,233.4z"/>
			<path d="M662.6,229.7h1.2v5.5l3.4-5.5h1.3v7.3h-1.2v-5.5l-3.4,5.5h-1.3V229.7z"/>
			<path d="M670.2,229.7h1.2v3h3.4v-3h1.2v7.3h-1.2v-3.2h-3.4v3.2h-1.2V229.7z"/>
		</g>
		<g class="st8">
			<path d="M560.1,244h7.9v10h-1.3v-8.8h-5.2v8.8h-1.3V244z"/>
			<path d="M574.7,251.7l1.3,0.2c-0.2,0.7-0.6,1.3-1.1,1.7s-1.2,0.6-2.1,0.6c-1.1,0-1.9-0.3-2.5-1c-0.6-0.7-0.9-1.6-0.9-2.8
				c0-1.2,0.3-2.2,0.9-2.8s1.4-1,2.4-1c1,0,1.8,0.3,2.4,1s0.9,1.6,0.9,2.8c0,0.1,0,0.2,0,0.3h-5.4c0,0.8,0.3,1.4,0.7,1.8
				s0.9,0.6,1.5,0.6c0.5,0,0.8-0.1,1.2-0.4S574.6,252.2,574.7,251.7z M570.7,249.7h4.1c-0.1-0.6-0.2-1.1-0.5-1.4
				c-0.4-0.5-0.9-0.7-1.5-0.7c-0.6,0-1,0.2-1.4,0.6C571,248.5,570.7,249,570.7,249.7z"/>
			<path d="M576.2,246.7h5.9v1h-2.3v6.2h-1.2v-6.2h-2.3V246.7z"/>
			<path d="M583.1,256.8v-10h1.1v0.9c0.3-0.4,0.6-0.6,0.9-0.8c0.3-0.2,0.7-0.3,1.2-0.3c0.6,0,1.2,0.2,1.6,0.5s0.8,0.8,1.1,1.3
				c0.2,0.6,0.4,1.2,0.4,1.9c0,0.7-0.1,1.4-0.4,2c-0.3,0.6-0.7,1-1.2,1.4c-0.5,0.3-1,0.5-1.6,0.5c-0.4,0-0.8-0.1-1.1-0.3
				c-0.3-0.2-0.6-0.4-0.8-0.7v3.5H583.1z M584.2,250.4c0,0.9,0.2,1.6,0.6,2.1s0.8,0.7,1.4,0.7c0.5,0,1-0.2,1.4-0.7
				c0.4-0.5,0.6-1.2,0.6-2.2c0-0.9-0.2-1.6-0.6-2.1c-0.4-0.5-0.8-0.7-1.4-0.7c-0.5,0-1,0.2-1.4,0.7
				C584.4,248.8,584.2,249.5,584.2,250.4z"/>
			<path d="M594.5,254v-10h1.3v4.1h5.2V244h1.3v10h-1.3v-4.7h-5.2v4.7H594.5z"/>
			<path d="M604.2,246.7h1.2v5.5l3.4-5.5h1.3v7.3H609v-5.5l-3.4,5.5h-1.3V246.7z"/>
			<path d="M611.8,246.7h1.2v3.1c0.4,0,0.7-0.1,0.8-0.2s0.4-0.6,0.7-1.3c0.2-0.6,0.4-1,0.6-1.1s0.3-0.3,0.5-0.4
				c0.2-0.1,0.5-0.1,0.9-0.1h0.2v1l-0.3,0c-0.3,0-0.5,0-0.6,0.1c-0.1,0.1-0.2,0.4-0.4,0.9c-0.2,0.5-0.4,0.8-0.5,1
				c-0.2,0.2-0.4,0.3-0.7,0.5c0.5,0.1,1,0.6,1.6,1.5l1.3,2.2h-1.4l-1.3-2.2c-0.3-0.5-0.5-0.7-0.7-0.9c-0.2-0.1-0.4-0.2-0.7-0.2v3.4
				h-1.2V246.7z"/>
			<path d="M617.5,250.4c0-1.3,0.4-2.3,1.1-3c0.6-0.5,1.4-0.8,2.3-0.8c1,0,1.8,0.3,2.4,1c0.6,0.7,1,1.6,1,2.7c0,0.9-0.1,1.7-0.4,2.2
				c-0.3,0.5-0.7,1-1.2,1.2s-1.1,0.4-1.8,0.4c-1,0-1.8-0.3-2.5-1S617.5,251.6,617.5,250.4z M618.7,250.4c0,0.9,0.2,1.6,0.6,2.1
				c0.4,0.5,0.9,0.7,1.5,0.7c0.6,0,1.1-0.2,1.5-0.7c0.4-0.5,0.6-1.2,0.6-2.1c0-0.9-0.2-1.6-0.6-2c-0.4-0.5-0.9-0.7-1.5-0.7
				c-0.6,0-1.1,0.2-1.5,0.7C618.9,248.7,618.7,249.4,618.7,250.4z"/>
			<path d="M625.8,246.7h5.7v7.3h-1.2v-6.2H627v3.6c0,0.8,0,1.4-0.1,1.7s-0.2,0.5-0.5,0.7s-0.6,0.3-1.1,0.3c-0.3,0-0.6,0-1-0.1v-1
				h0.5c0.3,0,0.4,0,0.5-0.1c0.1-0.1,0.2-0.1,0.2-0.2c0-0.1,0.1-0.5,0.1-1.1V246.7z"/>
			<path d="M637.9,253.1c-0.5,0.4-0.9,0.7-1.3,0.8s-0.9,0.2-1.4,0.2c-0.8,0-1.4-0.2-1.8-0.6c-0.4-0.4-0.6-0.9-0.6-1.5
				c0-0.4,0.1-0.7,0.2-1c0.2-0.3,0.4-0.5,0.6-0.7s0.6-0.3,0.9-0.4c0.2-0.1,0.6-0.1,1.1-0.2c1-0.1,1.7-0.3,2.2-0.4c0-0.2,0-0.3,0-0.3
				c0-0.5-0.1-0.9-0.3-1.1c-0.3-0.3-0.8-0.4-1.4-0.4c-0.6,0-1,0.1-1.3,0.3c-0.3,0.2-0.5,0.6-0.6,1.1l-1.2-0.2
				c0.1-0.5,0.3-0.9,0.5-1.2c0.2-0.3,0.6-0.6,1.1-0.7c0.5-0.2,1-0.3,1.6-0.3c0.6,0,1.1,0.1,1.5,0.2c0.4,0.1,0.7,0.3,0.9,0.6
				c0.2,0.2,0.3,0.5,0.4,0.8c0,0.2,0.1,0.6,0.1,1.1v1.6c0,1.1,0,1.9,0.1,2.2c0.1,0.3,0.2,0.6,0.3,0.9h-1.3
				C638,253.7,637.9,253.4,637.9,253.1z M637.8,250.4c-0.4,0.2-1.1,0.3-2,0.5c-0.5,0.1-0.9,0.2-1.1,0.2c-0.2,0.1-0.4,0.2-0.5,0.4
				c-0.1,0.2-0.2,0.4-0.2,0.6c0,0.3,0.1,0.6,0.4,0.8s0.6,0.3,1.1,0.3c0.5,0,0.9-0.1,1.3-0.3c0.4-0.2,0.6-0.5,0.8-0.9
				c0.1-0.3,0.2-0.7,0.2-1.2V250.4z"/>
			<path d="M645.7,251.7l1.3,0.2c-0.2,0.7-0.6,1.3-1.1,1.7c-0.5,0.4-1.2,0.6-2.1,0.6c-1.1,0-1.9-0.3-2.5-1c-0.6-0.7-0.9-1.6-0.9-2.8
				c0-1.2,0.3-2.2,0.9-2.8s1.4-1,2.4-1c1,0,1.8,0.3,2.4,1s0.9,1.6,0.9,2.8c0,0.1,0,0.2,0,0.3h-5.4c0,0.8,0.3,1.4,0.7,1.8
				c0.4,0.4,0.9,0.6,1.5,0.6c0.5,0,0.8-0.1,1.2-0.4C645.3,252.6,645.5,252.2,645.7,251.7z M641.7,249.7h4.1
				c-0.1-0.6-0.2-1.1-0.5-1.4c-0.4-0.5-0.9-0.7-1.5-0.7c-0.6,0-1,0.2-1.4,0.6S641.7,249,641.7,249.7z"/>
			<path d="M648.3,246.7h2.8c0.7,0,1.2,0.1,1.6,0.2c0.3,0.1,0.6,0.3,0.9,0.6s0.4,0.7,0.4,1.1c0,0.3-0.1,0.6-0.2,0.9
				c-0.1,0.3-0.4,0.5-0.6,0.6c0.3,0.1,0.6,0.3,0.9,0.6c0.2,0.3,0.3,0.7,0.3,1.1c0,0.7-0.3,1.2-0.7,1.5c-0.4,0.3-1.1,0.5-1.9,0.5
				h-3.3V246.7z M649.5,249.8h1.3c0.5,0,0.9,0,1.1-0.1c0.2-0.1,0.4-0.2,0.5-0.3c0.2-0.2,0.2-0.4,0.2-0.6c0-0.4-0.1-0.6-0.4-0.8
				s-0.7-0.2-1.4-0.2h-1.4V249.8z M649.5,253h1.6c0.7,0,1.2-0.1,1.4-0.2c0.3-0.2,0.4-0.4,0.4-0.8c0-0.2-0.1-0.4-0.2-0.6
				c-0.2-0.2-0.3-0.3-0.6-0.4c-0.2-0.1-0.6-0.1-1.2-0.1h-1.5V253z"/>
			<path d="M655.5,246.7h1.2v5.5l3.4-5.5h1.3v7.3h-1.2v-5.5l-3.4,5.5h-1.3V246.7z"/>
			<path d="M662.7,246.7h1.2v1.4c0,0.6,0,1,0.1,1.3c0.1,0.3,0.2,0.5,0.5,0.7c0.3,0.2,0.6,0.3,1,0.3c0.5,0,1.1-0.1,1.8-0.4v-3.3h1.2
				v7.3h-1.2v-2.9c-0.8,0.2-1.5,0.4-2.1,0.4c-0.6,0-1-0.1-1.5-0.4c-0.4-0.3-0.7-0.6-0.9-1s-0.2-0.9-0.2-1.3V246.7z"/>
		</g>
		<g class="st8">
			<path d="M566,269.8v1.2h-6.6c0-0.3,0-0.6,0.1-0.9c0.2-0.5,0.4-0.9,0.8-1.3c0.4-0.4,0.9-0.9,1.6-1.5c1.1-0.9,1.8-1.6,2.2-2.1
				c0.4-0.5,0.6-1,0.6-1.5c0-0.5-0.2-0.9-0.5-1.2c-0.3-0.3-0.8-0.5-1.4-0.5c-0.6,0-1.1,0.2-1.4,0.5s-0.5,0.8-0.5,1.5l-1.3-0.1
				c0.1-0.9,0.4-1.7,1-2.2c0.6-0.5,1.3-0.7,2.3-0.7c1,0,1.7,0.3,2.3,0.8s0.8,1.2,0.8,2c0,0.4-0.1,0.8-0.2,1.2s-0.4,0.8-0.8,1.2
				c-0.4,0.4-1,1-1.9,1.8c-0.7,0.6-1.2,1-1.4,1.3c-0.2,0.2-0.4,0.4-0.5,0.7H566z"/>
			<path d="M567.2,268.4l1.3-0.1c0.1,0.6,0.3,1.1,0.7,1.4c0.3,0.3,0.8,0.5,1.3,0.5c0.6,0,1.1-0.2,1.5-0.7s0.6-1,0.6-1.8
				c0-0.7-0.2-1.3-0.6-1.7c-0.4-0.4-0.9-0.6-1.5-0.6c-0.4,0-0.8,0.1-1.1,0.3c-0.3,0.2-0.6,0.4-0.8,0.7l-1.2-0.2l1-5.1h5v1.2h-4
				l-0.5,2.7c0.6-0.4,1.2-0.6,1.9-0.6c0.9,0,1.6,0.3,2.2,0.9s0.9,1.4,0.9,2.3c0,0.9-0.3,1.7-0.8,2.4c-0.6,0.8-1.5,1.2-2.6,1.2
				c-0.9,0-1.7-0.3-2.2-0.8C567.6,269.9,567.2,269.2,567.2,268.4z"/>
			<path d="M575.4,271v-1.4h1.4v1.4H575.4z"/>
			<path d="M583,271h-1.2v-7.8c-0.3,0.3-0.7,0.6-1.2,0.8c-0.5,0.3-0.9,0.5-1.3,0.6v-1.2c0.7-0.3,1.3-0.7,1.8-1.2s0.9-0.9,1.1-1.3
				h0.8V271z"/>
			<path d="M589.6,271h-1.2v-7.8c-0.3,0.3-0.7,0.6-1.2,0.8c-0.5,0.3-0.9,0.5-1.3,0.6v-1.2c0.7-0.3,1.3-0.7,1.8-1.2s0.9-0.9,1.1-1.3
				h0.8V271z"/>
			<path d="M593.2,271v-1.4h1.4v1.4H593.2z"/>
			<path d="M600.8,271h-1.2v-7.8c-0.3,0.3-0.7,0.6-1.2,0.8c-0.5,0.3-0.9,0.5-1.3,0.6v-1.2c0.7-0.3,1.3-0.7,1.8-1.2s0.9-0.9,1.1-1.3
				h0.8V271z"/>
			<path d="M604,268.7l1.2-0.1c0.1,0.6,0.3,1,0.6,1.2c0.3,0.3,0.6,0.4,1.1,0.4c0.4,0,0.7-0.1,1-0.3s0.5-0.4,0.7-0.7
				c0.2-0.3,0.3-0.7,0.5-1.2s0.2-1,0.2-1.5c0-0.1,0-0.1,0-0.2c-0.2,0.4-0.6,0.7-1,1c-0.4,0.2-0.9,0.4-1.4,0.4
				c-0.8,0-1.5-0.3-2.1-0.9s-0.9-1.4-0.9-2.4c0-1,0.3-1.8,0.9-2.5s1.4-0.9,2.3-0.9c0.7,0,1.2,0.2,1.8,0.5s1,0.9,1.2,1.5
				c0.3,0.6,0.4,1.6,0.4,2.8c0,1.3-0.1,2.3-0.4,3.1c-0.3,0.8-0.7,1.3-1.2,1.7s-1.2,0.6-1.9,0.6c-0.8,0-1.4-0.2-1.9-0.7
				C604.4,270.1,604.1,269.5,604,268.7z M609,264.3c0-0.7-0.2-1.3-0.6-1.7s-0.8-0.6-1.4-0.6c-0.5,0-1,0.2-1.4,0.7
				c-0.4,0.4-0.6,1-0.6,1.7c0,0.6,0.2,1.2,0.6,1.6c0.4,0.4,0.9,0.6,1.4,0.6c0.6,0,1-0.2,1.4-0.6C608.8,265.5,609,265,609,264.3z"/>
			<path d="M611.4,268.4l1.2-0.2c0.1,0.7,0.4,1.2,0.7,1.5c0.3,0.3,0.8,0.5,1.2,0.5c0.6,0,1.1-0.2,1.5-0.6s0.6-0.9,0.6-1.5
				c0-0.6-0.2-1-0.6-1.4c-0.4-0.4-0.8-0.6-1.4-0.6c-0.2,0-0.5,0-0.9,0.1l0.1-1.1c0.1,0,0.1,0,0.2,0c0.5,0,1-0.1,1.4-0.4
				c0.4-0.3,0.6-0.7,0.6-1.3c0-0.5-0.2-0.8-0.5-1.1c-0.3-0.3-0.7-0.4-1.2-0.4c-0.5,0-0.9,0.2-1.2,0.5c-0.3,0.3-0.5,0.8-0.6,1.4
				l-1.2-0.2c0.2-0.8,0.5-1.5,1-1.9c0.5-0.5,1.2-0.7,2-0.7c0.5,0,1.1,0.1,1.5,0.4c0.5,0.2,0.8,0.6,1.1,1s0.4,0.8,0.4,1.3
				c0,0.4-0.1,0.8-0.3,1.2s-0.6,0.6-1,0.8c0.6,0.1,1.1,0.4,1.4,0.9c0.3,0.4,0.5,1,0.5,1.6c0,0.9-0.3,1.6-1,2.2
				c-0.6,0.6-1.4,0.9-2.4,0.9c-0.9,0-1.6-0.3-2.2-0.8S611.4,269.2,611.4,268.4z"/>
			<path d="M625.3,263.4l-1.2,0.1c-0.1-0.5-0.3-0.8-0.5-1.1c-0.3-0.4-0.7-0.5-1.2-0.5c-0.4,0-0.7,0.1-1,0.3
				c-0.4,0.3-0.7,0.7-0.9,1.2c-0.2,0.5-0.3,1.3-0.3,2.3c0.3-0.5,0.7-0.8,1.1-1c0.4-0.2,0.9-0.3,1.3-0.3c0.8,0,1.5,0.3,2.1,0.9
				c0.6,0.6,0.9,1.4,0.9,2.3c0,0.6-0.1,1.2-0.4,1.8c-0.3,0.5-0.6,1-1.1,1.2c-0.5,0.3-1,0.4-1.6,0.4c-1,0-1.9-0.4-2.5-1.1
				c-0.6-0.8-1-2-1-3.7c0-1.9,0.4-3.3,1.1-4.2c0.6-0.8,1.5-1.1,2.5-1.1c0.8,0,1.4,0.2,1.9,0.7S625.2,262.7,625.3,263.4z
				 M620.3,267.8c0,0.4,0.1,0.8,0.3,1.2s0.4,0.7,0.8,0.9c0.3,0.2,0.7,0.3,1,0.3c0.5,0,1-0.2,1.3-0.6c0.4-0.4,0.6-1,0.6-1.7
				c0-0.7-0.2-1.2-0.6-1.6c-0.4-0.4-0.8-0.6-1.4-0.6c-0.6,0-1,0.2-1.4,0.6C620.5,266.6,620.3,267.1,620.3,267.8z"/>
		</g>
		<text transform="matrix(1 0 0 1 147.0136 229)" class="st2 st9 st10">Дочь</text>
		<text transform="matrix(1 0 0 1 44.6797 246)" class="st9 st10">Салтыкова-Щедрина</text>
		<text transform="matrix(1 0 0 1 43.3196 263)" class="st9 st10">Валерия Николаевна</text>
		<text transform="matrix(1 0 0 1 111.0707 280)" class="st9 st10">25.11.1936</text>
		<g class="st8">
			<path class="st11" d="M233.2,154H232v-7.8c-0.3,0.3-0.7,0.6-1.2,0.8s-0.9,0.5-1.3,0.6v-1.2c0.7-0.3,1.3-0.7,1.8-1.2
				s0.9-0.9,1.1-1.3h0.8V154z"/>
			<path class="st11" d="M242.8,152.8v1.2h-6.6c0-0.3,0-0.6,0.1-0.9c0.2-0.5,0.4-0.9,0.8-1.3s0.9-0.9,1.6-1.5
				c1.1-0.9,1.8-1.6,2.2-2.1c0.4-0.5,0.6-1,0.6-1.5c0-0.5-0.2-0.9-0.5-1.2c-0.3-0.3-0.8-0.5-1.4-0.5c-0.6,0-1.1,0.2-1.4,0.5
				s-0.5,0.8-0.5,1.5l-1.3-0.1c0.1-0.9,0.4-1.7,1-2.2c0.6-0.5,1.3-0.7,2.3-0.7c1,0,1.7,0.3,2.3,0.8s0.8,1.2,0.8,2
				c0,0.4-0.1,0.8-0.2,1.2s-0.4,0.8-0.8,1.2s-1,1-1.9,1.8c-0.7,0.6-1.2,1-1.4,1.3c-0.2,0.2-0.4,0.4-0.5,0.7H242.8z"/>
			<path class="st11" d="M244.2,149.1c0-1.2,0.1-2.1,0.4-2.9c0.2-0.7,0.6-1.3,1.1-1.7s1.1-0.6,1.8-0.6c0.5,0,1,0.1,1.4,0.3
				c0.4,0.2,0.7,0.5,1,0.9c0.3,0.4,0.5,0.9,0.6,1.5c0.2,0.6,0.2,1.4,0.2,2.4c0,1.2-0.1,2.1-0.4,2.8c-0.2,0.7-0.6,1.3-1.1,1.7
				c-0.5,0.4-1.1,0.6-1.8,0.6c-1,0-1.7-0.3-2.3-1C244.5,152.3,244.2,150.9,244.2,149.1z M245.4,149.1c0,1.6,0.2,2.7,0.6,3.3
				c0.4,0.5,0.9,0.8,1.4,0.8s1-0.3,1.4-0.8s0.6-1.6,0.6-3.3c0-1.6-0.2-2.7-0.6-3.3s-0.9-0.8-1.4-0.8c-0.6,0-1,0.2-1.4,0.7
				C245.6,146.3,245.4,147.4,245.4,149.1z"/>
			<path class="st11" d="M255.9,145.3v-1.2h6.5v1c-0.6,0.7-1.3,1.6-1.9,2.7s-1.1,2.3-1.5,3.5c-0.2,0.8-0.4,1.8-0.5,2.8h-1.3
				c0-0.8,0.2-1.7,0.5-2.9s0.7-2.2,1.3-3.2c0.6-1,1.1-1.9,1.8-2.6H255.9z"/>
			<path class="st11" d="M270,146.4l-1.2,0.1c-0.1-0.5-0.3-0.8-0.5-1.1c-0.3-0.4-0.7-0.5-1.2-0.5c-0.4,0-0.7,0.1-1,0.3
				c-0.4,0.3-0.7,0.7-0.9,1.2s-0.3,1.3-0.3,2.3c0.3-0.5,0.7-0.8,1.1-1s0.9-0.3,1.3-0.3c0.8,0,1.5,0.3,2.1,0.9
				c0.6,0.6,0.9,1.4,0.9,2.3c0,0.6-0.1,1.2-0.4,1.8c-0.3,0.5-0.6,1-1.1,1.2s-1,0.4-1.6,0.4c-1,0-1.9-0.4-2.5-1.1c-0.6-0.8-1-2-1-3.7
				c0-1.9,0.4-3.3,1.1-4.2c0.6-0.8,1.5-1.1,2.5-1.1c0.8,0,1.4,0.2,1.9,0.7S269.9,145.7,270,146.4z M265,150.8c0,0.4,0.1,0.8,0.3,1.2
				s0.4,0.7,0.8,0.9c0.3,0.2,0.7,0.3,1,0.3c0.5,0,1-0.2,1.3-0.6s0.6-1,0.6-1.7c0-0.7-0.2-1.2-0.6-1.6c-0.4-0.4-0.8-0.6-1.4-0.6
				c-0.6,0-1,0.2-1.4,0.6C265.2,149.6,265,150.1,265,150.8z"/>
			<path class="st11" d="M271.5,145.3v-1.2h6.5v1c-0.6,0.7-1.3,1.6-1.9,2.7s-1.1,2.3-1.5,3.5c-0.2,0.8-0.4,1.8-0.5,2.8h-1.3
				c0-0.8,0.2-1.7,0.5-2.9s0.7-2.2,1.3-3.2c0.6-1,1.1-1.9,1.8-2.6H271.5z"/>
		</g>
		<g id="ic_check_box_black_24px" transform="translate(199.000000, 140.000000)">
			<g id="Shape_5_">
				<polygon class="st12" points="0,0 24,0 24,24 0,24 				"/>
				<path class="st11" d="M19,3H5C3.9,3,3,3.9,3,5v14c0,1.1,0.9,2,2,2h14c1.1,0,2-0.9,2-2V5C21,3.9,20.1,3,19,3z M10,17l-5-5
					l1.4-1.4l3.6,3.6l7.6-7.6L19,8L10,17z"/>
			</g>
		</g>
		<g class="st8">
			<path class="st11" d="M475,142.8v1.2h-6.6c0-0.3,0-0.6,0.1-0.9c0.2-0.5,0.4-0.9,0.8-1.3c0.4-0.4,0.9-0.9,1.6-1.5
				c1.1-0.9,1.8-1.6,2.2-2.1c0.4-0.5,0.6-1,0.6-1.5c0-0.5-0.2-0.9-0.5-1.2c-0.3-0.3-0.8-0.5-1.4-0.5c-0.6,0-1.1,0.2-1.4,0.5
				s-0.5,0.8-0.5,1.5l-1.3-0.1c0.1-0.9,0.4-1.7,1-2.2c0.6-0.5,1.3-0.7,2.3-0.7c1,0,1.7,0.3,2.3,0.8s0.8,1.2,0.8,2
				c0,0.4-0.1,0.8-0.2,1.2s-0.4,0.8-0.8,1.2c-0.4,0.4-1,1-1.9,1.8c-0.7,0.6-1.2,1-1.4,1.3c-0.2,0.2-0.4,0.4-0.5,0.7H475z"/>
			<path class="st11" d="M476.4,141.4l1.2-0.2c0.1,0.7,0.4,1.2,0.7,1.5c0.3,0.3,0.8,0.5,1.2,0.5c0.6,0,1.1-0.2,1.5-0.6
				c0.4-0.4,0.6-0.9,0.6-1.5c0-0.6-0.2-1-0.6-1.4c-0.4-0.4-0.8-0.6-1.4-0.6c-0.2,0-0.5,0-0.9,0.1l0.1-1.1c0.1,0,0.1,0,0.2,0
				c0.5,0,1-0.1,1.4-0.4s0.6-0.7,0.6-1.3c0-0.5-0.2-0.8-0.5-1.1s-0.7-0.4-1.2-0.4c-0.5,0-0.9,0.2-1.2,0.5s-0.5,0.8-0.6,1.4l-1.2-0.2
				c0.2-0.8,0.5-1.5,1-1.9c0.5-0.5,1.2-0.7,2-0.7c0.5,0,1.1,0.1,1.5,0.4c0.5,0.2,0.8,0.6,1.1,1c0.2,0.4,0.4,0.8,0.4,1.3
				c0,0.4-0.1,0.8-0.3,1.2s-0.6,0.6-1,0.8c0.6,0.1,1.1,0.4,1.4,0.9c0.3,0.4,0.5,1,0.5,1.6c0,0.9-0.3,1.6-1,2.2
				c-0.6,0.6-1.4,0.9-2.4,0.9c-0.9,0-1.6-0.3-2.2-0.8C476.8,142.9,476.5,142.2,476.4,141.4z"/>
			<path class="st11" d="M488.1,135.3v-1.2h6.5v1c-0.6,0.7-1.3,1.6-1.9,2.7c-0.6,1.1-1.1,2.3-1.5,3.5c-0.2,0.8-0.4,1.8-0.5,2.8h-1.3
				c0-0.8,0.2-1.7,0.5-2.9s0.7-2.2,1.3-3.2c0.6-1,1.1-1.9,1.8-2.6H488.1z"/>
			<path class="st11" d="M497.7,138.6c-0.5-0.2-0.9-0.5-1.1-0.8s-0.4-0.8-0.4-1.2c0-0.7,0.3-1.3,0.8-1.8s1.2-0.7,2.1-0.7
				c0.9,0,1.6,0.3,2.1,0.8c0.5,0.5,0.8,1.1,0.8,1.9c0,0.5-0.1,0.9-0.4,1.2c-0.2,0.3-0.6,0.6-1.1,0.8c0.6,0.2,1.1,0.5,1.4,1
				c0.3,0.4,0.5,1,0.5,1.6c0,0.9-0.3,1.6-0.9,2.2s-1.4,0.9-2.4,0.9s-1.8-0.3-2.4-0.9c-0.6-0.6-0.9-1.3-0.9-2.2
				c0-0.7,0.2-1.2,0.5-1.6C496.6,139,497.1,138.7,497.7,138.6z M497.1,141.1c0,0.4,0.1,0.7,0.2,1c0.2,0.3,0.4,0.6,0.7,0.8
				c0.3,0.2,0.7,0.3,1.1,0.3c0.6,0,1.1-0.2,1.5-0.6s0.6-0.9,0.6-1.4c0-0.6-0.2-1.1-0.6-1.5c-0.4-0.4-0.9-0.6-1.5-0.6
				c-0.6,0-1.1,0.2-1.4,0.6C497.3,140.1,497.1,140.5,497.1,141.1z M497.5,136.5c0,0.5,0.2,0.9,0.5,1.2s0.7,0.5,1.2,0.5
				c0.5,0,0.9-0.1,1.2-0.4c0.3-0.3,0.5-0.7,0.5-1.1c0-0.5-0.2-0.8-0.5-1.1c-0.3-0.3-0.7-0.5-1.2-0.5c-0.5,0-0.9,0.2-1.2,0.5
				S497.5,136.1,497.5,136.5z"/>
			<path class="st11" d="M510,136.4l-1.2,0.1c-0.1-0.5-0.3-0.8-0.5-1.1c-0.3-0.4-0.7-0.5-1.2-0.5c-0.4,0-0.7,0.1-1,0.3
				c-0.4,0.3-0.7,0.7-0.9,1.2s-0.3,1.3-0.3,2.3c0.3-0.5,0.7-0.8,1.1-1s0.9-0.3,1.3-0.3c0.8,0,1.5,0.3,2.1,0.9
				c0.6,0.6,0.9,1.4,0.9,2.3c0,0.6-0.1,1.2-0.4,1.8c-0.3,0.5-0.6,1-1.1,1.2s-1,0.4-1.6,0.4c-1,0-1.9-0.4-2.5-1.1c-0.6-0.8-1-2-1-3.7
				c0-1.9,0.4-3.3,1.1-4.2c0.6-0.8,1.5-1.1,2.5-1.1c0.8,0,1.4,0.2,1.9,0.7C509.6,135,509.9,135.7,510,136.4z M505,140.8
				c0,0.4,0.1,0.8,0.3,1.2c0.2,0.4,0.4,0.7,0.8,0.9c0.3,0.2,0.7,0.3,1,0.3c0.5,0,1-0.2,1.3-0.6s0.6-1,0.6-1.7c0-0.7-0.2-1.2-0.6-1.6
				c-0.4-0.4-0.8-0.6-1.4-0.6c-0.6,0-1,0.2-1.4,0.6C505.2,139.6,505,140.1,505,140.8z"/>
		</g>
		<g id="ic_check_box_black_24px_1_" transform="translate(439.000000, 130.000000)">
			<g id="Shape_6_">
				<polygon class="st12" points="0,0 24,0 24,24 0,24 				"/>
				<path class="st11" d="M19,3H5C3.9,3,3,3.9,3,5v14c0,1.1,0.9,2,2,2h14c1.1,0,2-0.9,2-2V5C21,3.9,20.1,3,19,3z M10,17l-5-5
					l1.4-1.4l3.6,3.6l7.6-7.6L19,8L10,17z"/>
			</g>
		</g>
		<g class="st8">
			<path class="st11" d="M475,322.8v1.2h-6.6c0-0.3,0-0.6,0.1-0.9c0.2-0.5,0.4-0.9,0.8-1.3c0.4-0.4,0.9-0.9,1.6-1.5
				c1.1-0.9,1.8-1.6,2.2-2.1c0.4-0.5,0.6-1,0.6-1.5c0-0.5-0.2-0.9-0.5-1.2c-0.3-0.3-0.8-0.5-1.4-0.5c-0.6,0-1.1,0.2-1.4,0.5
				s-0.5,0.8-0.5,1.5l-1.3-0.1c0.1-0.9,0.4-1.7,1-2.2c0.6-0.5,1.3-0.7,2.3-0.7c1,0,1.7,0.3,2.3,0.8s0.8,1.2,0.8,2
				c0,0.4-0.1,0.8-0.2,1.2s-0.4,0.8-0.8,1.2c-0.4,0.4-1,1-1.9,1.8c-0.7,0.6-1.2,1-1.4,1.3c-0.2,0.2-0.4,0.4-0.5,0.7H475z"/>
			<path class="st11" d="M476.4,321.4l1.2-0.2c0.1,0.7,0.4,1.2,0.7,1.5c0.3,0.3,0.8,0.5,1.2,0.5c0.6,0,1.1-0.2,1.5-0.6
				c0.4-0.4,0.6-0.9,0.6-1.5c0-0.6-0.2-1-0.6-1.4c-0.4-0.4-0.8-0.6-1.4-0.6c-0.2,0-0.5,0-0.9,0.1l0.1-1.1c0.1,0,0.1,0,0.2,0
				c0.5,0,1-0.1,1.4-0.4s0.6-0.7,0.6-1.3c0-0.5-0.2-0.8-0.5-1.1s-0.7-0.4-1.2-0.4c-0.5,0-0.9,0.2-1.2,0.5s-0.5,0.8-0.6,1.4l-1.2-0.2
				c0.2-0.8,0.5-1.5,1-1.9c0.5-0.5,1.2-0.7,2-0.7c0.5,0,1.1,0.1,1.5,0.4c0.5,0.2,0.8,0.6,1.1,1c0.2,0.4,0.4,0.8,0.4,1.3
				c0,0.4-0.1,0.8-0.3,1.2s-0.6,0.6-1,0.8c0.6,0.1,1.1,0.4,1.4,0.9c0.3,0.4,0.5,1,0.5,1.6c0,0.9-0.3,1.6-1,2.2
				c-0.6,0.6-1.4,0.9-2.4,0.9c-0.9,0-1.6-0.3-2.2-0.8C476.8,322.9,476.5,322.2,476.4,321.4z"/>
			<path class="st11" d="M488.1,315.3v-1.2h6.5v1c-0.6,0.7-1.3,1.6-1.9,2.7c-0.6,1.1-1.1,2.3-1.5,3.5c-0.2,0.8-0.4,1.8-0.5,2.8h-1.3
				c0-0.8,0.2-1.7,0.5-2.9s0.7-2.2,1.3-3.2c0.6-1,1.1-1.9,1.8-2.6H488.1z"/>
			<path class="st11" d="M497.7,318.6c-0.5-0.2-0.9-0.5-1.1-0.8s-0.4-0.8-0.4-1.2c0-0.7,0.3-1.3,0.8-1.8s1.2-0.7,2.1-0.7
				c0.9,0,1.6,0.3,2.1,0.8c0.5,0.5,0.8,1.1,0.8,1.9c0,0.5-0.1,0.9-0.4,1.2c-0.2,0.3-0.6,0.6-1.1,0.8c0.6,0.2,1.1,0.5,1.4,1
				c0.3,0.4,0.5,1,0.5,1.6c0,0.9-0.3,1.6-0.9,2.2s-1.4,0.9-2.4,0.9s-1.8-0.3-2.4-0.9c-0.6-0.6-0.9-1.3-0.9-2.2
				c0-0.7,0.2-1.2,0.5-1.6C496.6,319,497.1,318.7,497.7,318.6z M497.1,321.1c0,0.4,0.1,0.7,0.2,1c0.2,0.3,0.4,0.6,0.7,0.8
				c0.3,0.2,0.7,0.3,1.1,0.3c0.6,0,1.1-0.2,1.5-0.6s0.6-0.9,0.6-1.4c0-0.6-0.2-1.1-0.6-1.5c-0.4-0.4-0.9-0.6-1.5-0.6
				c-0.6,0-1.1,0.2-1.4,0.6C497.3,320.1,497.1,320.5,497.1,321.1z M497.5,316.5c0,0.5,0.2,0.9,0.5,1.2s0.7,0.5,1.2,0.5
				c0.5,0,0.9-0.1,1.2-0.4c0.3-0.3,0.5-0.7,0.5-1.1c0-0.5-0.2-0.8-0.5-1.1c-0.3-0.3-0.7-0.5-1.2-0.5c-0.5,0-0.9,0.2-1.2,0.5
				S497.5,316.1,497.5,316.5z"/>
			<path class="st11" d="M510,316.4l-1.2,0.1c-0.1-0.5-0.3-0.8-0.5-1.1c-0.3-0.4-0.7-0.5-1.2-0.5c-0.4,0-0.7,0.1-1,0.3
				c-0.4,0.3-0.7,0.7-0.9,1.2s-0.3,1.3-0.3,2.3c0.3-0.5,0.7-0.8,1.1-1s0.9-0.3,1.3-0.3c0.8,0,1.5,0.3,2.1,0.9
				c0.6,0.6,0.9,1.4,0.9,2.3c0,0.6-0.1,1.2-0.4,1.8c-0.3,0.5-0.6,1-1.1,1.2s-1,0.4-1.6,0.4c-1,0-1.9-0.4-2.5-1.1c-0.6-0.8-1-2-1-3.7
				c0-1.9,0.4-3.3,1.1-4.2c0.6-0.8,1.5-1.1,2.5-1.1c0.8,0,1.4,0.2,1.9,0.7C509.6,315,509.9,315.7,510,316.4z M505,320.8
				c0,0.4,0.1,0.8,0.3,1.2c0.2,0.4,0.4,0.7,0.8,0.9c0.3,0.2,0.7,0.3,1,0.3c0.5,0,1-0.2,1.3-0.6s0.6-1,0.6-1.7c0-0.7-0.2-1.2-0.6-1.6
				c-0.4-0.4-0.8-0.6-1.4-0.6c-0.6,0-1,0.2-1.4,0.6C505.2,319.6,505,320.1,505,320.8z"/>
		</g>
		<g id="ic_check_box_black_24px_2_" transform="translate(439.000000, 310.000000)">
			<g id="Shape_7_">
				<polygon class="st12" points="0,0 24,0 24,24 0,24 				"/>
				<path class="st11" d="M19,3H5C3.9,3,3,3.9,3,5v14c0,1.1,0.9,2,2,2h14c1.1,0,2-0.9,2-2V5C21,3.9,20.1,3,19,3z M10,17l-5-5
					l1.4-1.4l3.6,3.6l7.6-7.6L19,8L10,17z"/>
			</g>
		</g>
		<g class="st8">
			<path class="st11" d="M235,322.8v1.2h-6.6c0-0.3,0-0.6,0.1-0.9c0.2-0.5,0.4-0.9,0.8-1.3s0.9-0.9,1.6-1.5c1.1-0.9,1.8-1.6,2.2-2.1
				c0.4-0.5,0.6-1,0.6-1.5c0-0.5-0.2-0.9-0.5-1.2c-0.3-0.3-0.8-0.5-1.4-0.5c-0.6,0-1.1,0.2-1.4,0.5s-0.5,0.8-0.5,1.5l-1.3-0.1
				c0.1-0.9,0.4-1.7,1-2.2c0.6-0.5,1.3-0.7,2.3-0.7c1,0,1.7,0.3,2.3,0.8s0.8,1.2,0.8,2c0,0.4-0.1,0.8-0.2,1.2s-0.4,0.8-0.8,1.2
				s-1,1-1.9,1.8c-0.7,0.6-1.2,1-1.4,1.3c-0.2,0.2-0.4,0.4-0.5,0.7H235z"/>
			<path class="st11" d="M236.4,321.4l1.2-0.2c0.1,0.7,0.4,1.2,0.7,1.5c0.3,0.3,0.8,0.5,1.2,0.5c0.6,0,1.1-0.2,1.5-0.6
				s0.6-0.9,0.6-1.5c0-0.6-0.2-1-0.6-1.4c-0.4-0.4-0.8-0.6-1.4-0.6c-0.2,0-0.5,0-0.9,0.1l0.1-1.1c0.1,0,0.1,0,0.2,0
				c0.5,0,1-0.1,1.4-0.4s0.6-0.7,0.6-1.3c0-0.5-0.2-0.8-0.5-1.1s-0.7-0.4-1.2-0.4c-0.5,0-0.9,0.2-1.2,0.5s-0.5,0.8-0.6,1.4l-1.2-0.2
				c0.2-0.8,0.5-1.5,1-1.9c0.5-0.5,1.2-0.7,2-0.7c0.5,0,1.1,0.1,1.5,0.4c0.5,0.2,0.8,0.6,1.1,1s0.4,0.8,0.4,1.3
				c0,0.4-0.1,0.8-0.3,1.2s-0.6,0.6-1,0.8c0.6,0.1,1.1,0.4,1.4,0.9c0.3,0.4,0.5,1,0.5,1.6c0,0.9-0.3,1.6-1,2.2
				c-0.6,0.6-1.4,0.9-2.4,0.9c-0.9,0-1.6-0.3-2.2-0.8S236.5,322.2,236.4,321.4z"/>
			<path class="st11" d="M248.1,315.3v-1.2h6.5v1c-0.6,0.7-1.3,1.6-1.9,2.7s-1.1,2.3-1.5,3.5c-0.2,0.8-0.4,1.8-0.5,2.8h-1.3
				c0-0.8,0.2-1.7,0.5-2.9s0.7-2.2,1.3-3.2c0.6-1,1.1-1.9,1.8-2.6H248.1z"/>
			<path class="st11" d="M257.7,318.6c-0.5-0.2-0.9-0.5-1.1-0.8s-0.4-0.8-0.4-1.2c0-0.7,0.3-1.3,0.8-1.8s1.2-0.7,2.1-0.7
				c0.9,0,1.6,0.3,2.1,0.8c0.5,0.5,0.8,1.1,0.8,1.9c0,0.5-0.1,0.9-0.4,1.2c-0.2,0.3-0.6,0.6-1.1,0.8c0.6,0.2,1.1,0.5,1.4,1
				s0.5,1,0.5,1.6c0,0.9-0.3,1.6-0.9,2.2s-1.4,0.9-2.4,0.9s-1.8-0.3-2.4-0.9c-0.6-0.6-0.9-1.3-0.9-2.2c0-0.7,0.2-1.2,0.5-1.6
				C256.6,319,257.1,318.7,257.7,318.6z M257.1,321.1c0,0.4,0.1,0.7,0.2,1s0.4,0.6,0.7,0.8c0.3,0.2,0.7,0.3,1.1,0.3
				c0.6,0,1.1-0.2,1.5-0.6s0.6-0.9,0.6-1.4c0-0.6-0.2-1.1-0.6-1.5s-0.9-0.6-1.5-0.6c-0.6,0-1.1,0.2-1.4,0.6S257.1,320.5,257.1,321.1
				z M257.5,316.5c0,0.5,0.2,0.9,0.5,1.2s0.7,0.5,1.2,0.5c0.5,0,0.9-0.1,1.2-0.4c0.3-0.3,0.5-0.7,0.5-1.1c0-0.5-0.2-0.8-0.5-1.1
				c-0.3-0.3-0.7-0.5-1.2-0.5c-0.5,0-0.9,0.2-1.2,0.5S257.5,316.1,257.5,316.5z"/>
			<path class="st11" d="M270,316.4l-1.2,0.1c-0.1-0.5-0.3-0.8-0.5-1.1c-0.3-0.4-0.7-0.5-1.2-0.5c-0.4,0-0.7,0.1-1,0.3
				c-0.4,0.3-0.7,0.7-0.9,1.2s-0.3,1.3-0.3,2.3c0.3-0.5,0.7-0.8,1.1-1s0.9-0.3,1.3-0.3c0.8,0,1.5,0.3,2.1,0.9
				c0.6,0.6,0.9,1.4,0.9,2.3c0,0.6-0.1,1.2-0.4,1.8c-0.3,0.5-0.6,1-1.1,1.2s-1,0.4-1.6,0.4c-1,0-1.9-0.4-2.5-1.1c-0.6-0.8-1-2-1-3.7
				c0-1.9,0.4-3.3,1.1-4.2c0.6-0.8,1.5-1.1,2.5-1.1c0.8,0,1.4,0.2,1.9,0.7S269.9,315.7,270,316.4z M265,320.8c0,0.4,0.1,0.8,0.3,1.2
				s0.4,0.7,0.8,0.9c0.3,0.2,0.7,0.3,1,0.3c0.5,0,1-0.2,1.3-0.6s0.6-1,0.6-1.7c0-0.7-0.2-1.2-0.6-1.6c-0.4-0.4-0.8-0.6-1.4-0.6
				c-0.6,0-1,0.2-1.4,0.6C265.2,319.6,265,320.1,265,320.8z"/>
		</g>
		<g id="ic_check_box_black_24px_3_" transform="translate(199.000000, 310.000000)">
			<g id="Shape_8_">
				<polygon class="st12" points="0,0 24,0 24,24 0,24 				"/>
				<path class="st11" d="M19,3H5C3.9,3,3,3.9,3,5v14c0,1.1,0.9,2,2,2h14c1.1,0,2-0.9,2-2V5C21,3.9,20.1,3,19,3z M10,17l-5-5
					l1.4-1.4l3.6,3.6l7.6-7.6L19,8L10,17z"/>
			</g>
		</g>
	</g>
	<g id="ic_man-copy" transform="translate(152.000000, 47.000000)" class="st13">
	</g>
	<g id="ic_man-copy-6" transform="translate(407.000000, 62.000000)" class="st14">
	</g>
	<g id="ic_man-copy-7" transform="translate(167.000000, 242.000000)" class="st15">
	</g>
	<g id="ic_man-copy-8" transform="translate(407.000000, 242.000000)" class="st16">
	</g>
	<g id="Group-7-Copy-5" transform="translate(167.000000, 182.000000)">
	</g>
	<g id="Group-7-Copy-8" transform="translate(407.000000, 172.000000)">
	</g>
	<g id="Group-7-Copy-9" transform="translate(407.000000, 352.000000)">
	</g>
	<g id="Group-7-Copy-10" transform="translate(167.000000, 352.000000)">
	</g>
</g>
</svg>
