<?xml version="1.0" encoding="UTF-8"?>
<svg width="1420px" height="869px" viewBox="0 0 1420 869" version="1.1" xmlns="http://www.w3.org/2000/svg" xmlns:xlink="http://www.w3.org/1999/xlink">
    <!-- Generator: Sketch 49.2 (51160) - http://www.bohemiancoding.com/sketch -->
    <title>Group 3</title>
    <desc>Created with Sketch.</desc>
    <defs>
        <filter x="-12.3%" y="-12.3%" width="130.8%" height="130.8%" filterUnits="objectBoundingBox" id="filter-1">
            <feOffset dx="4" dy="4" in="SourceAlpha" result="shadowOffsetOuter1"></feOffset>
            <feGaussianBlur stdDeviation="6" in="shadowOffsetOuter1" result="shadowBlurOuter1"></feGaussianBlur>
            <feColorMatrix values="0 0 0 0 0.160784314   0 0 0 0 0.282352941   0 0 0 0 0.419607843  0 0 0 0.5 0" type="matrix" in="shadowBlurOuter1" result="shadowMatrixOuter1"></feColorMatrix>
            <feMerge>
                <feMergeNode in="shadowMatrixOuter1"></feMergeNode>
                <feMergeNode in="SourceGraphic"></feMergeNode>
            </feMerge>
        </filter>
        <filter x="-31.0%" y="-31.0%" width="170.0%" height="170.0%" filterUnits="objectBoundingBox" id="filter-2">
            <feOffset dx="4" dy="4" in="SourceAlpha" result="shadowOffsetOuter1"></feOffset>
            <feGaussianBlur stdDeviation="11" in="shadowOffsetOuter1" result="shadowBlurOuter1"></feGaussianBlur>
            <feColorMatrix values="0 0 0 0 0.160784314   0 0 0 0 0.282352941   0 0 0 0 0.419607843  0 0 0 0.5 0" type="matrix" in="shadowBlurOuter1" result="shadowMatrixOuter1"></feColorMatrix>
            <feMerge>
                <feMergeNode in="shadowMatrixOuter1"></feMergeNode>
                <feMergeNode in="SourceGraphic"></feMergeNode>
            </feMerge>
        </filter>
        <filter x="-31.0%" y="-31.0%" width="170.0%" height="170.0%" filterUnits="objectBoundingBox" id="filter-3">
            <feOffset dx="4" dy="4" in="SourceAlpha" result="shadowOffsetOuter1"></feOffset>
            <feGaussianBlur stdDeviation="11" in="shadowOffsetOuter1" result="shadowBlurOuter1"></feGaussianBlur>
            <feColorMatrix values="0 0 0 0 0.160784314   0 0 0 0 0.282352941   0 0 0 0 0.419607843  0 0 0 0.5 0" type="matrix" in="shadowBlurOuter1" result="shadowMatrixOuter1"></feColorMatrix>
            <feMerge>
                <feMergeNode in="shadowMatrixOuter1"></feMergeNode>
                <feMergeNode in="SourceGraphic"></feMergeNode>
            </feMerge>
        </filter>
        <filter x="-31.0%" y="-31.0%" width="170.0%" height="170.0%" filterUnits="objectBoundingBox" id="filter-4">
            <feOffset dx="4" dy="4" in="SourceAlpha" result="shadowOffsetOuter1"></feOffset>
            <feGaussianBlur stdDeviation="11" in="shadowOffsetOuter1" result="shadowBlurOuter1"></feGaussianBlur>
            <feColorMatrix values="0 0 0 0 0.160784314   0 0 0 0 0.282352941   0 0 0 0 0.419607843  0 0 0 0.5 0" type="matrix" in="shadowBlurOuter1" result="shadowMatrixOuter1"></feColorMatrix>
            <feMerge>
                <feMergeNode in="shadowMatrixOuter1"></feMergeNode>
                <feMergeNode in="SourceGraphic"></feMergeNode>
            </feMerge>
        </filter>
        <filter x="-31.0%" y="-31.0%" width="170.0%" height="170.0%" filterUnits="objectBoundingBox" id="filter-5">
            <feOffset dx="4" dy="4" in="SourceAlpha" result="shadowOffsetOuter1"></feOffset>
            <feGaussianBlur stdDeviation="11" in="shadowOffsetOuter1" result="shadowBlurOuter1"></feGaussianBlur>
            <feColorMatrix values="0 0 0 0 0.160784314   0 0 0 0 0.282352941   0 0 0 0 0.419607843  0 0 0 0.5 0" type="matrix" in="shadowBlurOuter1" result="shadowMatrixOuter1"></feColorMatrix>
            <feMerge>
                <feMergeNode in="shadowMatrixOuter1"></feMergeNode>
                <feMergeNode in="SourceGraphic"></feMergeNode>
            </feMerge>
        </filter>
        <circle id="path-6" cx="50" cy="50" r="50"></circle>
        <filter x="-31.0%" y="-31.0%" width="170.0%" height="170.0%" filterUnits="objectBoundingBox" id="filter-8">
            <feOffset dx="4" dy="4" in="SourceAlpha" result="shadowOffsetOuter1"></feOffset>
            <feGaussianBlur stdDeviation="11" in="shadowOffsetOuter1" result="shadowBlurOuter1"></feGaussianBlur>
            <feColorMatrix values="0 0 0 0 0.160784314   0 0 0 0 0.282352941   0 0 0 0 0.419607843  0 0 0 0.5 0" type="matrix" in="shadowBlurOuter1" result="shadowMatrixOuter1"></feColorMatrix>
            <feMerge>
                <feMergeNode in="shadowMatrixOuter1"></feMergeNode>
                <feMergeNode in="SourceGraphic"></feMergeNode>
            </feMerge>
        </filter>
        <filter x="-31.0%" y="-31.0%" width="170.0%" height="170.0%" filterUnits="objectBoundingBox" id="filter-9">
            <feOffset dx="4" dy="4" in="SourceAlpha" result="shadowOffsetOuter1"></feOffset>
            <feGaussianBlur stdDeviation="11" in="shadowOffsetOuter1" result="shadowBlurOuter1"></feGaussianBlur>
            <feColorMatrix values="0 0 0 0 0.160784314   0 0 0 0 0.282352941   0 0 0 0 0.419607843  0 0 0 0.5 0" type="matrix" in="shadowBlurOuter1" result="shadowMatrixOuter1"></feColorMatrix>
            <feMerge>
                <feMergeNode in="shadowMatrixOuter1"></feMergeNode>
                <feMergeNode in="SourceGraphic"></feMergeNode>
            </feMerge>
        </filter>
        <filter x="-31.0%" y="-31.0%" width="170.0%" height="170.0%" filterUnits="objectBoundingBox" id="filter-10">
            <feOffset dx="4" dy="4" in="SourceAlpha" result="shadowOffsetOuter1"></feOffset>
            <feGaussianBlur stdDeviation="11" in="shadowOffsetOuter1" result="shadowBlurOuter1"></feGaussianBlur>
            <feColorMatrix values="0 0 0 0 0.160784314   0 0 0 0 0.282352941   0 0 0 0 0.419607843  0 0 0 0.5 0" type="matrix" in="shadowBlurOuter1" result="shadowMatrixOuter1"></feColorMatrix>
            <feMerge>
                <feMergeNode in="shadowMatrixOuter1"></feMergeNode>
                <feMergeNode in="SourceGraphic"></feMergeNode>
            </feMerge>
        </filter>
        <filter x="-31.0%" y="-31.0%" width="170.0%" height="170.0%" filterUnits="objectBoundingBox" id="filter-11">
            <feOffset dx="4" dy="4" in="SourceAlpha" result="shadowOffsetOuter1"></feOffset>
            <feGaussianBlur stdDeviation="11" in="shadowOffsetOuter1" result="shadowBlurOuter1"></feGaussianBlur>
            <feColorMatrix values="0 0 0 0 0.160784314   0 0 0 0 0.282352941   0 0 0 0 0.419607843  0 0 0 0.5 0" type="matrix" in="shadowBlurOuter1" result="shadowMatrixOuter1"></feColorMatrix>
            <feMerge>
                <feMergeNode in="shadowMatrixOuter1"></feMergeNode>
                <feMergeNode in="SourceGraphic"></feMergeNode>
            </feMerge>
        </filter>
        <filter x="-31.0%" y="-31.0%" width="170.0%" height="170.0%" filterUnits="objectBoundingBox" id="filter-12">
            <feOffset dx="4" dy="4" in="SourceAlpha" result="shadowOffsetOuter1"></feOffset>
            <feGaussianBlur stdDeviation="11" in="shadowOffsetOuter1" result="shadowBlurOuter1"></feGaussianBlur>
            <feColorMatrix values="0 0 0 0 0.160784314   0 0 0 0 0.282352941   0 0 0 0 0.419607843  0 0 0 0.5 0" type="matrix" in="shadowBlurOuter1" result="shadowMatrixOuter1"></feColorMatrix>
            <feMerge>
                <feMergeNode in="shadowMatrixOuter1"></feMergeNode>
                <feMergeNode in="SourceGraphic"></feMergeNode>
            </feMerge>
        </filter>
        <filter x="-31.0%" y="-31.0%" width="170.0%" height="170.0%" filterUnits="objectBoundingBox" id="filter-13">
            <feOffset dx="4" dy="4" in="SourceAlpha" result="shadowOffsetOuter1"></feOffset>
            <feGaussianBlur stdDeviation="11" in="shadowOffsetOuter1" result="shadowBlurOuter1"></feGaussianBlur>
            <feColorMatrix values="0 0 0 0 0.160784314   0 0 0 0 0.282352941   0 0 0 0 0.419607843  0 0 0 0.5 0" type="matrix" in="shadowBlurOuter1" result="shadowMatrixOuter1"></feColorMatrix>
            <feMerge>
                <feMergeNode in="shadowMatrixOuter1"></feMergeNode>
                <feMergeNode in="SourceGraphic"></feMergeNode>
            </feMerge>
        </filter>
        <filter x="-31.0%" y="-31.0%" width="170.0%" height="170.0%" filterUnits="objectBoundingBox" id="filter-14">
            <feOffset dx="4" dy="4" in="SourceAlpha" result="shadowOffsetOuter1"></feOffset>
            <feGaussianBlur stdDeviation="11" in="shadowOffsetOuter1" result="shadowBlurOuter1"></feGaussianBlur>
            <feColorMatrix values="0 0 0 0 0.160784314   0 0 0 0 0.282352941   0 0 0 0 0.419607843  0 0 0 0.5 0" type="matrix" in="shadowBlurOuter1" result="shadowMatrixOuter1"></feColorMatrix>
            <feMerge>
                <feMergeNode in="shadowMatrixOuter1"></feMergeNode>
                <feMergeNode in="SourceGraphic"></feMergeNode>
            </feMerge>
        </filter>
        <filter x="-31.0%" y="-31.0%" width="170.0%" height="170.0%" filterUnits="objectBoundingBox" id="filter-15">
            <feOffset dx="4" dy="4" in="SourceAlpha" result="shadowOffsetOuter1"></feOffset>
            <feGaussianBlur stdDeviation="11" in="shadowOffsetOuter1" result="shadowBlurOuter1"></feGaussianBlur>
            <feColorMatrix values="0 0 0 0 0.160784314   0 0 0 0 0.282352941   0 0 0 0 0.419607843  0 0 0 0.5 0" type="matrix" in="shadowBlurOuter1" result="shadowMatrixOuter1"></feColorMatrix>
            <feMerge>
                <feMergeNode in="shadowMatrixOuter1"></feMergeNode>
                <feMergeNode in="SourceGraphic"></feMergeNode>
            </feMerge>
        </filter>
        <filter x="-31.0%" y="-31.0%" width="170.0%" height="170.0%" filterUnits="objectBoundingBox" id="filter-16">
            <feOffset dx="4" dy="4" in="SourceAlpha" result="shadowOffsetOuter1"></feOffset>
            <feGaussianBlur stdDeviation="11" in="shadowOffsetOuter1" result="shadowBlurOuter1"></feGaussianBlur>
            <feColorMatrix values="0 0 0 0 0.160784314   0 0 0 0 0.282352941   0 0 0 0 0.419607843  0 0 0 0.5 0" type="matrix" in="shadowBlurOuter1" result="shadowMatrixOuter1"></feColorMatrix>
            <feMerge>
                <feMergeNode in="shadowMatrixOuter1"></feMergeNode>
                <feMergeNode in="SourceGraphic"></feMergeNode>
            </feMerge>
        </filter>
        <filter x="-31.0%" y="-31.0%" width="170.0%" height="170.0%" filterUnits="objectBoundingBox" id="filter-17">
            <feOffset dx="4" dy="4" in="SourceAlpha" result="shadowOffsetOuter1"></feOffset>
            <feGaussianBlur stdDeviation="11" in="shadowOffsetOuter1" result="shadowBlurOuter1"></feGaussianBlur>
            <feColorMatrix values="0 0 0 0 0.160784314   0 0 0 0 0.282352941   0 0 0 0 0.419607843  0 0 0 0.5 0" type="matrix" in="shadowBlurOuter1" result="shadowMatrixOuter1"></feColorMatrix>
            <feMerge>
                <feMergeNode in="shadowMatrixOuter1"></feMergeNode>
                <feMergeNode in="SourceGraphic"></feMergeNode>
            </feMerge>
        </filter>
        <circle id="path-18" cx="50" cy="50" r="50"></circle>
        <filter x="-31.0%" y="-31.0%" width="170.0%" height="170.0%" filterUnits="objectBoundingBox" id="filter-20">
            <feOffset dx="4" dy="4" in="SourceAlpha" result="shadowOffsetOuter1"></feOffset>
            <feGaussianBlur stdDeviation="11" in="shadowOffsetOuter1" result="shadowBlurOuter1"></feGaussianBlur>
            <feColorMatrix values="0 0 0 0 0.160784314   0 0 0 0 0.282352941   0 0 0 0 0.419607843  0 0 0 0.5 0" type="matrix" in="shadowBlurOuter1" result="shadowMatrixOuter1"></feColorMatrix>
            <feMerge>
                <feMergeNode in="shadowMatrixOuter1"></feMergeNode>
                <feMergeNode in="SourceGraphic"></feMergeNode>
            </feMerge>
        </filter>
        <circle id="path-21" cx="50" cy="50" r="50"></circle>
    </defs>
    <g id="Page-1" stroke="none" stroke-width="1" fill="none" fill-rule="evenodd">
        <g id="02-02-02-05-Card-Relations-Graphic-Work" transform="translate(-421.000000, -367.000000)">
            <g id="Group-3" transform="translate(393.000000, 385.000000)">
                <path d="M694,590 L734,590" id="Line-Copy-3" stroke="#29486B" stroke-width="2" stroke-linecap="square"></path>
                <path d="M893,510 L893,540" id="Line-2-Copy-5" stroke="#29486B" stroke-width="2" stroke-linecap="square"></path>
                <path d="M653,500 L653,540" id="Line-2-Copy-6" stroke="#29486B" stroke-width="2" stroke-linecap="square"></path>
                <path d="M1133,500 L1133,540" id="Line-2-Copy-10" stroke="#29486B" stroke-width="2" stroke-linecap="square"></path>
                <path d="M413,500 L413,540" id="Line-2-Copy-7" stroke="#29486B" stroke-width="2" stroke-linecap="square"></path>
                <path d="M173,500 L173,540" id="Line-2-Copy-8" stroke="#29486B" stroke-width="2" stroke-linecap="square"></path>
                <path d="M643,140 L643,150" id="Line-2" stroke="#29486B" stroke-width="2" stroke-linecap="square"></path>
                <path d="M403,150 L893,150" id="Line-Copy" stroke="#2F5179" stroke-width="2" stroke-linecap="square"></path>
                <path d="M673,410 L823,410" id="Line-Copy-4" stroke="#29486B" stroke-width="2" stroke-linecap="square"></path>
                <path d="M463,410 L503,410" id="Line-Copy-7" stroke="#29486B" stroke-width="2" stroke-linecap="square"></path>
                <path d="M223,410 L263,410" id="Line-Copy-10" stroke="#29486B" stroke-width="2" stroke-linecap="square"></path>
                <path d="M403,150 L403,180" id="Line-2-Copy" stroke="#2F5179" stroke-width="2" stroke-linecap="square"></path>
                <path d="M893,151 L893,341" id="Line-2-Copy-2" stroke="#2F5179" stroke-width="2" stroke-linecap="square"></path>
                <circle id="Oval-2" stroke="#29486B" stroke-width="2" cx="893" cy="410" r="69"></circle>
                <g id="ic_man-copy" filter="url(#filter-1)" transform="translate(828.000000, 345.000000)" fill-rule="nonzero">
                    <g id="Group-4">
                        <circle id="Oval" fill="#FFFFFF" cx="65" cy="65" r="65"></circle>
                        <path d="M32.6090604,35.2791193 C32.6090604,37.2180398 32.9362416,39.1569602 33.590604,41.0958807 C30.3187919,43.3579545 29.0100671,48.2052557 30.3187919,53.3757102 C31.3003356,57.5767045 34.2449664,61.131392 37.5167785,62.1008523 C41.442953,75.0269886 51.5855705,88.2762784 65.3271812,88.2762784 C79.0687919,88.2762784 89.2114094,75.0269886 93.1375839,62.1008523 C96.409396,60.8082386 99.3540268,57.5767045 100.33557,53.3757102 C101.971477,47.5589489 99.6812081,42.0653409 95.4278523,40.1264205 C95.7550336,38.5106534 96.0822148,36.8948864 96.0822148,35.2791193 C96.0822148,21.0603693 82.0134228,9.75 64.3456376,9.75 C46.6778523,9.75 32.6090604,21.0603693 32.6090604,35.2791193 Z M84.9580537,28.4928977 C87.5755034,32.3707386 89.2114094,36.8948864 90.192953,42.0653409 L90.5201342,44.3274148 L92.8104027,44.0042614 C93.1375839,44.0042614 93.4647651,44.0042614 93.7919463,44.0042614 C93.7919463,44.0042614 94.1191275,44.0042614 94.1191275,44.3274148 C96.0822148,45.296875 97.0637584,48.5284091 96.409396,52.0830966 C95.4278523,55.6377841 93.1375839,57.5767045 91.5016779,57.899858 L89.8657718,58.2230114 L89.5385906,59.515625 C86.2667785,71.4723011 77.1057047,83.7521307 65.6543624,83.7521307 C54.2030201,83.7521307 45.0419463,71.7954545 41.7701342,59.515625 L41.442953,58.2230114 L39.807047,57.899858 C37.8439597,57.5767045 35.5536913,55.6377841 34.8993289,52.0830966 C34.2449664,49.4978693 34.5721477,47.2357955 35.5536913,45.6200284 C35.8808725,44.9737216 36.5352349,44.3274148 37.5167785,44.0042614 C37.5167785,44.0042614 37.8439597,44.0042614 37.8439597,44.0042614 C37.8439597,44.0042614 38.1711409,44.0042614 38.1711409,44.0042614 L40.4614094,44.3274148 L40.7885906,42.0653409 C41.442953,37.5411932 42.7516779,33.6633523 44.7147651,30.1086648 C48.3137584,34.3096591 55.8389262,36.8948864 64.3456376,36.8948864 C73.8338926,37.2180398 82.0134228,33.6633523 84.9580537,28.4928977 Z M92.1560403,77.6122159 C102.298658,81.8132102 110.151007,89.568892 113.75,97.6477273 C103.280201,113.159091 85.2852349,123.5 65,123.5 C44.7147651,123.5 26.7197987,113.482244 16.25,98.2940341 C19.8489933,89.8920455 27.7013423,81.8132102 37.8439597,77.6122159 C40.7885906,82.459517 44.0604027,86.6605114 48.6409396,88.9225852 C58.1291946,93.446733 65,97.3245739 65,97.3245739 C65,97.3245739 72.1979866,93.7698864 81.3590604,88.9225852 C85.9395973,86.6605114 89.2114094,82.459517 92.1560403,77.6122159 Z" id="Combined-Shape" fill="#29486B"></path>
                    </g>
                </g>
                <g id="ic_man-copy-3" filter="url(#filter-2)" transform="translate(603.000000, 540.000000)" fill-rule="nonzero">
                    <g id="Group-4">
                        <circle id="Oval" fill="#FFFFFF" cx="50" cy="50" r="50"></circle>
                        <path d="M25.0838926,27.1377841 C25.0838926,28.6292614 25.3355705,30.1207386 25.8389262,31.6122159 C23.3221477,33.3522727 22.3154362,37.0809659 23.3221477,41.0582386 C24.0771812,44.2897727 26.3422819,47.0241477 28.8590604,47.7698864 C31.8791946,57.7130682 39.6812081,67.9048295 50.2516779,67.9048295 C60.8221477,67.9048295 68.6241611,57.7130682 71.6442953,47.7698864 C74.1610738,46.7755682 76.4261745,44.2897727 77.1812081,41.0582386 C78.4395973,36.5838068 76.6778523,32.3579545 73.4060403,30.8664773 C73.6577181,29.6235795 73.909396,28.3806818 73.909396,27.1377841 C73.909396,16.2002841 63.0872483,7.5 49.4966443,7.5 C35.9060403,7.5 25.0838926,16.2002841 25.0838926,27.1377841 Z M65.352349,21.9176136 C67.3657718,24.9005682 68.6241611,28.3806818 69.3791946,32.3579545 L69.6308725,34.0980114 L71.3926174,33.8494318 C71.6442953,33.8494318 71.8959732,33.8494318 72.147651,33.8494318 C72.147651,33.8494318 72.3993289,33.8494318 72.3993289,34.0980114 C73.909396,34.84375 74.6644295,37.3295455 74.1610738,40.0639205 C73.4060403,42.7982955 71.6442953,44.2897727 70.385906,44.5383523 L69.1275168,44.7869318 L68.8758389,45.78125 C66.3590604,54.9786932 59.3120805,64.4247159 50.5033557,64.4247159 C41.6946309,64.4247159 34.647651,55.2272727 32.1308725,45.78125 L31.8791946,44.7869318 L30.6208054,44.5383523 C29.1107383,44.2897727 27.3489933,42.7982955 26.8456376,40.0639205 C26.3422819,38.0752841 26.5939597,36.3352273 27.3489933,35.0923295 C27.6006711,34.5951705 28.1040268,34.0980114 28.8590604,33.8494318 C28.8590604,33.8494318 29.1107383,33.8494318 29.1107383,33.8494318 C29.1107383,33.8494318 29.3624161,33.8494318 29.3624161,33.8494318 L31.1241611,34.0980114 L31.3758389,32.3579545 C31.8791946,28.8778409 32.885906,25.8948864 34.3959732,23.1605114 C37.1644295,26.3920455 42.9530201,28.3806818 49.4966443,28.3806818 C56.795302,28.6292614 63.0872483,25.8948864 65.352349,21.9176136 Z M70.8892617,59.7017045 C78.6912752,62.9332386 84.7315436,68.8991477 87.5,75.1136364 C79.4463087,87.0454545 65.6040268,95 50,95 C34.3959732,95 20.5536913,87.2940341 12.5,75.6107955 C15.2684564,69.1477273 21.3087248,62.9332386 29.1107383,59.7017045 C31.3758389,63.4303977 33.8926174,66.6619318 37.4161074,68.4019886 C44.7147651,71.8821023 50,74.8650568 50,74.8650568 C50,74.8650568 55.5369128,72.1306818 62.5838926,68.4019886 C66.1073826,66.6619318 68.6241611,63.4303977 70.8892617,59.7017045 Z" id="Combined-Shape" fill="#9F9F9F"></path>
                    </g>
                </g>
                <g id="ic_man-copy-20" filter="url(#filter-3)" transform="translate(602.000000, 361.000000)" fill-rule="nonzero">
                    <g id="Group-4">
                        <circle id="Oval" fill="#FFFFFF" cx="50" cy="50" r="50"></circle>
                        <path d="M25.0838926,27.1377841 C25.0838926,28.6292614 25.3355705,30.1207386 25.8389262,31.6122159 C23.3221477,33.3522727 22.3154362,37.0809659 23.3221477,41.0582386 C24.0771812,44.2897727 26.3422819,47.0241477 28.8590604,47.7698864 C31.8791946,57.7130682 39.6812081,67.9048295 50.2516779,67.9048295 C60.8221477,67.9048295 68.6241611,57.7130682 71.6442953,47.7698864 C74.1610738,46.7755682 76.4261745,44.2897727 77.1812081,41.0582386 C78.4395973,36.5838068 76.6778523,32.3579545 73.4060403,30.8664773 C73.6577181,29.6235795 73.909396,28.3806818 73.909396,27.1377841 C73.909396,16.2002841 63.0872483,7.5 49.4966443,7.5 C35.9060403,7.5 25.0838926,16.2002841 25.0838926,27.1377841 Z M65.352349,21.9176136 C67.3657718,24.9005682 68.6241611,28.3806818 69.3791946,32.3579545 L69.6308725,34.0980114 L71.3926174,33.8494318 C71.6442953,33.8494318 71.8959732,33.8494318 72.147651,33.8494318 C72.147651,33.8494318 72.3993289,33.8494318 72.3993289,34.0980114 C73.909396,34.84375 74.6644295,37.3295455 74.1610738,40.0639205 C73.4060403,42.7982955 71.6442953,44.2897727 70.385906,44.5383523 L69.1275168,44.7869318 L68.8758389,45.78125 C66.3590604,54.9786932 59.3120805,64.4247159 50.5033557,64.4247159 C41.6946309,64.4247159 34.647651,55.2272727 32.1308725,45.78125 L31.8791946,44.7869318 L30.6208054,44.5383523 C29.1107383,44.2897727 27.3489933,42.7982955 26.8456376,40.0639205 C26.3422819,38.0752841 26.5939597,36.3352273 27.3489933,35.0923295 C27.6006711,34.5951705 28.1040268,34.0980114 28.8590604,33.8494318 C28.8590604,33.8494318 29.1107383,33.8494318 29.1107383,33.8494318 C29.1107383,33.8494318 29.3624161,33.8494318 29.3624161,33.8494318 L31.1241611,34.0980114 L31.3758389,32.3579545 C31.8791946,28.8778409 32.885906,25.8948864 34.3959732,23.1605114 C37.1644295,26.3920455 42.9530201,28.3806818 49.4966443,28.3806818 C56.795302,28.6292614 63.0872483,25.8948864 65.352349,21.9176136 Z M70.8892617,59.7017045 C78.6912752,62.9332386 84.7315436,68.8991477 87.5,75.1136364 C79.4463087,87.0454545 65.6040268,95 50,95 C34.3959732,95 20.5536913,87.2940341 12.5,75.6107955 C15.2684564,69.1477273 21.3087248,62.9332386 29.1107383,59.7017045 C31.3758389,63.4303977 33.8926174,66.6619318 37.4161074,68.4019886 C44.7147651,71.8821023 50,74.8650568 50,74.8650568 C50,74.8650568 55.5369128,72.1306818 62.5838926,68.4019886 C66.1073826,66.6619318 68.6241611,63.4303977 70.8892617,59.7017045 Z" id="Combined-Shape" fill="#9F9F9F"></path>
                    </g>
                </g>
                <g id="ic_man-copy-19" filter="url(#filter-4)" transform="translate(122.000000, 361.000000)" fill-rule="nonzero">
                    <g id="Group-4">
                        <circle id="Oval" fill="#FFFFFF" cx="50" cy="50" r="50"></circle>
                        <path d="M25.0838926,27.1377841 C25.0838926,28.6292614 25.3355705,30.1207386 25.8389262,31.6122159 C23.3221477,33.3522727 22.3154362,37.0809659 23.3221477,41.0582386 C24.0771812,44.2897727 26.3422819,47.0241477 28.8590604,47.7698864 C31.8791946,57.7130682 39.6812081,67.9048295 50.2516779,67.9048295 C60.8221477,67.9048295 68.6241611,57.7130682 71.6442953,47.7698864 C74.1610738,46.7755682 76.4261745,44.2897727 77.1812081,41.0582386 C78.4395973,36.5838068 76.6778523,32.3579545 73.4060403,30.8664773 C73.6577181,29.6235795 73.909396,28.3806818 73.909396,27.1377841 C73.909396,16.2002841 63.0872483,7.5 49.4966443,7.5 C35.9060403,7.5 25.0838926,16.2002841 25.0838926,27.1377841 Z M65.352349,21.9176136 C67.3657718,24.9005682 68.6241611,28.3806818 69.3791946,32.3579545 L69.6308725,34.0980114 L71.3926174,33.8494318 C71.6442953,33.8494318 71.8959732,33.8494318 72.147651,33.8494318 C72.147651,33.8494318 72.3993289,33.8494318 72.3993289,34.0980114 C73.909396,34.84375 74.6644295,37.3295455 74.1610738,40.0639205 C73.4060403,42.7982955 71.6442953,44.2897727 70.385906,44.5383523 L69.1275168,44.7869318 L68.8758389,45.78125 C66.3590604,54.9786932 59.3120805,64.4247159 50.5033557,64.4247159 C41.6946309,64.4247159 34.647651,55.2272727 32.1308725,45.78125 L31.8791946,44.7869318 L30.6208054,44.5383523 C29.1107383,44.2897727 27.3489933,42.7982955 26.8456376,40.0639205 C26.3422819,38.0752841 26.5939597,36.3352273 27.3489933,35.0923295 C27.6006711,34.5951705 28.1040268,34.0980114 28.8590604,33.8494318 C28.8590604,33.8494318 29.1107383,33.8494318 29.1107383,33.8494318 C29.1107383,33.8494318 29.3624161,33.8494318 29.3624161,33.8494318 L31.1241611,34.0980114 L31.3758389,32.3579545 C31.8791946,28.8778409 32.885906,25.8948864 34.3959732,23.1605114 C37.1644295,26.3920455 42.9530201,28.3806818 49.4966443,28.3806818 C56.795302,28.6292614 63.0872483,25.8948864 65.352349,21.9176136 Z M70.8892617,59.7017045 C78.6912752,62.9332386 84.7315436,68.8991477 87.5,75.1136364 C79.4463087,87.0454545 65.6040268,95 50,95 C34.3959732,95 20.5536913,87.2940341 12.5,75.6107955 C15.2684564,69.1477273 21.3087248,62.9332386 29.1107383,59.7017045 C31.3758389,63.4303977 33.8926174,66.6619318 37.4161074,68.4019886 C44.7147651,71.8821023 50,74.8650568 50,74.8650568 C50,74.8650568 55.5369128,72.1306818 62.5838926,68.4019886 C66.1073826,66.6619318 68.6241611,63.4303977 70.8892617,59.7017045 Z" id="Combined-Shape" fill="#9F9F9F"></path>
                    </g>
                </g>
                <path d="M962,410 L1082,410" id="Line-Copy-2" stroke="#29486B" stroke-width="2" stroke-linecap="square"></path>
                <path d="M694,770 L734,770" id="Line-Copy-16" stroke="#29486B" stroke-width="2" stroke-linecap="square"></path>
                <path d="M944,590 L1084,590" id="Line-Copy-5" stroke="#29486B" stroke-width="2" stroke-linecap="square"></path>
                <path d="M1294,590 L1324,590" id="Line-Copy-12" stroke="#29486B" stroke-width="2" stroke-linecap="square"></path>
                <g id="Group-10" filter="url(#filter-5)" transform="translate(594.000000, 0.000000)">
                    <g id="Rectangle-7-Copy-2">
                        <mask id="mask-7" fill="white">
                            <use xlink:href="#path-6"></use>
                        </mask>
                        <use id="Mask" fill="#FFFFFF" fill-rule="nonzero" xlink:href="#path-6"></use>
                    </g>
                    <g id="Group-6" transform="translate(15.000000, 10.000000)" fill="#9F9F9F" fill-rule="nonzero">
                        <path d="M30.7524909,0.038961039 C29.7564626,0.038961039 28.7604343,1.25274725 27.764406,1.4955045 C26.7683777,1.73826174 25.5233423,1.00999001 24.527314,1.25274725 C23.5312857,1.4955045 22.7842645,2.95204795 22.0372432,3.43756244 C21.0412149,3.92307692 19.5471725,3.43756244 18.8001513,4.16583417 C17.804123,4.65134865 17.5551159,6.10789211 16.8080947,6.83616384 C16.0610734,7.56443556 14.567031,7.56443556 13.8200098,8.29270729 C13.0729885,9.02097902 13.3219956,10.4775225 12.8239815,11.4485514 C12.3259673,12.4195804 10.8319249,12.6623377 10.5829178,13.6333666 C10.0849037,14.6043956 10.8319249,15.8181818 10.5829178,16.7892108 C10.3339107,17.7602398 9.33788243,18.7312687 9.33788243,19.7022977 C9.33788243,20.6733267 10.5829178,21.6443556 10.5829178,22.6153846 C10.5829178,23.1008991 10.5829178,23.5864136 10.5829178,24.0719281 C8.09284705,25.7712288 6.84781168,29.4125874 7.84383998,33.2967033 C8.5908612,36.6953047 10.8319249,39.1228771 13.5710027,40.0939061 C16.5590876,49.8041958 24.527314,60 34.9856111,60 C45.6929154,60 53.4121347,49.8041958 56.4002196,40.0939061 C58.8902903,39.1228771 61.131354,36.6953047 62.1273823,33.2967033 C63.3724177,28.6843157 61.3803611,24.3146853 57.894262,23.1008991 C57.894262,22.8581419 57.894262,22.6153846 57.894262,22.6153846 C58.1432691,21.6443556 59.1392974,20.6733267 59.1392974,19.7022977 C59.1392974,18.7312687 57.894262,17.7602398 57.894262,16.7892108 C57.645255,15.8181818 58.3922762,14.6043956 57.894262,13.6333666 C57.3962479,12.6623377 56.1512125,12.1768232 55.6531984,11.4485514 C55.1551842,10.4775225 55.4041913,9.26373626 54.6571701,8.29270729 C53.9101488,7.56443556 52.4161064,7.56443556 51.6690852,6.83616384 C50.9220639,6.10789211 50.6730569,4.65134865 49.6770286,4.16583417 C48.6810003,3.68031968 47.4359649,3.92307692 46.4399366,3.43756244 C45.4439083,2.95204795 44.9458941,1.73826174 43.9498658,1.25274725 C42.9538375,1.00999001 41.7088022,1.4955045 40.7127739,1.4955045 C39.7167456,1.25274725 38.7207173,0.038961039 37.724689,0.038961039 C36.7286607,0.038961039 35.4836253,0.767232767 34.487597,0.767232767 C32.9935545,0.767232767 31.7485192,-0.203796204 30.7524909,0.038961039 Z M53.9101488,25.042957 L54.1591559,26.7422577 L55.9022054,26.4995005 C56.1512125,26.4995005 56.4002196,26.4995005 56.6492267,26.4995005 C56.8982337,26.4995005 56.8982337,26.7422577 57.1472408,26.7422577 C58.6412833,27.4705295 59.1392974,30.1408591 58.6412833,32.5684316 C57.894262,35.2387612 56.1512125,36.6953047 54.9061771,36.9380619 L53.6611418,37.1808192 L53.4121347,38.3946054 C50.9220639,47.6193806 43.7008588,56.8441558 34.9856111,56.8441558 C26.2703635,56.8441558 19.2981654,47.6193806 16.5590876,38.3946054 L16.3100805,37.1808192 L15.0650451,36.9380619 C13.5710027,36.6953047 11.8279532,35.2387612 11.329939,32.5684316 C10.8319249,30.6263736 11.080932,28.6843157 12.0769602,27.4705295 C12.3259673,26.985015 12.8239815,26.7422577 13.3219956,26.4995005 C13.3219956,26.4995005 13.5710027,26.4995005 13.8200098,26.4995005 C13.8200098,26.4995005 14.0690168,26.4995005 14.0690168,26.4995005 L15.8120664,26.7422577 L16.0610734,25.042957 C17.804123,13.8761239 25.5233423,6.59340659 35.2346182,6.59340659 C44.44788,6.59340659 52.1670993,13.8761239 53.9101488,25.042957 Z" id="Shape"></path>
                        <path d="M32.25,46 C35,43.25 34.75,38.25 34.75,38.25 C34.75,38.25 29.75,38 27,40.75 C24.25,43.5 24.5,48.5 24.5,48.5 C24.5,48.5 29.5,49 32.25,46 Z" id="Shape"></path>
                        <path d="M45,48.5 C45,48.5 45.25,43.5 42.5,40.75 C39.75,38 34.75,38.25 34.75,38.25 C34.75,38.25 34.5,43.25 37.25,46 C40.25,49 45,48.5 45,48.5 Z" id="Shape"></path>
                        <path d="M54.6575342,52.5 C52.5,56.1380597 50.1027397,59.2910448 46.7465753,60.988806 C40.0342466,64.3843284 35,67.2947761 35,67.2947761 C35,67.2947761 29.9657534,64.3843284 23.2534247,60.988806 C19.8972603,59.2910448 17.5,56.1380597 15.3424658,52.5 C8.39041096,55.4104478 2.87671233,60.988806 0,66.8097015 C7.9109589,77.7238806 20.6164384,85 35,85 C49.3835616,85 62.3287671,77.7238806 70,66.8097015 C67.1232877,60.7462687 61.609589,55.4104478 54.6575342,52.5 Z" id="Shape"></path>
                    </g>
                </g>
                <g id="ic_man-copy-6" filter="url(#filter-8)" transform="translate(1083.000000, 360.000000)" fill-rule="nonzero">
                    <circle id="Oval" fill="#FFFFFF" cx="50" cy="50" r="50"></circle>
                    <path d="M74.0545455,66.0805085 C74.3090909,65.5861582 74.3090909,65.0918079 74.5636364,64.3502825 C74.5636364,63.8559322 74.8181818,63.3615819 74.8181818,62.6200565 C75.5818182,57.9237288 76.0909091,50.5084746 76.0909091,39.1384181 C76.0909091,21.5889831 64.3818182,7.5 49.8727273,7.5 C44.5272727,7.5 39.6909091,9.47740113 35.6181818,12.690678 C34.8545455,13.1850282 34.3454545,13.6793785 33.8363636,14.420904 C27.7272727,20.1059322 23.9090909,29.2514124 23.9090909,39.3855932 C23.9090909,51.25 24.4181818,58.9124294 25.1818182,63.6087571 C25.1818182,64.1031073 25.4363636,64.8446328 25.4363636,65.3389831 C25.6909091,65.8333333 25.6909091,66.5748588 25.9454545,67.069209 C20.8545455,70.2824859 16.7818182,74.7316384 15,79.180791 C23.4,88.8206215 35.8727273,95 49.8727273,95 C63.8727273,95 76.6,88.8206215 85,79.180791 C83.2181818,73.990113 79.1454545,69.2937853 74.0545455,66.0805085 Z M61.0727273,71.7655367 C54.9636364,74.9788136 50.6363636,77.450565 50.1272727,77.450565 C48.0909091,77.2033898 38.6727273,71.7655367 38.6727273,71.7655367 C36.3818182,70.529661 34.8545455,69.7881356 32.0545455,67.3163842 C32.3090909,66.8220339 33.5818182,65.0918079 34.0909091,64.5974576 C34.3454545,64.1031073 34.8545455,63.8559322 35.1090909,63.3615819 C36.6363636,61.3841808 38.4181818,59.1596045 39.9454545,57.4293785 C42.7454545,59.6539548 46.0545455,61.1370056 49.6181818,61.1370056 C53.1818182,61.1370056 56.2363636,59.6539548 59.2909091,57.4293785 C61.5818182,59.9011299 63.6181818,62.6200565 65.4,64.8446328 C65.6545455,65.3389831 66.1636364,65.8333333 66.4181818,66.0805085 C66.6727273,66.5748588 67.1818182,66.8220339 67.4363636,67.3163842 C66.1636364,69.2937853 62.8545455,70.7768362 61.0727273,71.7655367 Z M71.5090909,34.9364407 C71,37.4081921 69.2181818,38.6440678 67.9454545,38.8912429 L66.9272727,39.1384181 L66.6727273,40.1271186 C64.8909091,46.059322 61.5818182,51.9915254 57,55.4519774 C54.7090909,57.1822034 52.1636364,58.4180791 49.6181818,58.4180791 C47.0727273,58.4180791 44.5272727,57.4293785 42.2363636,55.4519774 C37.9090909,51.9915254 34.3454545,46.059322 32.5636364,40.1271186 L32.3090909,39.1384181 L31.2909091,38.8912429 C30.0181818,38.6440678 28.2363636,37.4081921 27.7272727,34.9364407 C27.2181818,33.4533898 27.4727273,31.7231638 28.2363636,30.4872881 C28.4909091,29.9929379 29,29.4985876 29.5090909,29.4985876 C29.5090909,29.4985876 29.7636364,29.4985876 29.7636364,29.4985876 C29.7636364,29.4985876 30.0181818,29.4985876 30.0181818,29.4985876 L31.5454545,29.7457627 L31.8,28.2627119 C32.0545455,27.0268362 32.3090909,25.7909605 32.5636364,24.8022599 C34.3454545,30.7344633 39.6909091,30.240113 47.3272727,30.9816384 C49.6181818,31.2288136 52.6727273,31.4759887 54.2,31.4759887 C54.4545455,26.779661 48.8545455,21.5889831 48.8545455,21.5889831 C48.8545455,21.5889831 48.8545455,21.5889831 49.6181818,21.5889831 C50.3818182,21.5889831 52.1636364,22.3305085 52.6727273,22.5776836 C58.7818182,25.7909605 59.8,30.7344633 60.0545455,30.7344633 C63.1090909,29.9929379 65.4,28.2627119 66.4181818,25.5437853 C66.6727273,26.5324859 66.9272727,27.2740113 66.9272727,28.2627119 L67.1818182,29.7457627 L68.7090909,29.4985876 C68.9636364,29.4985876 69.2181818,29.4985876 69.2181818,29.4985876 C69.9818182,29.7457627 70.2363636,30.240113 70.4909091,30.4872881 C71.7636364,31.7231638 72.0181818,33.2062147 71.5090909,34.9364407 Z" id="Shape" fill="#9F9F9F"></path>
                </g>
                <text id="Салтыков-Щедрин-Ники" font-family="OpenSans, Open Sans" font-size="14" font-weight="normal" letter-spacing="-0.2160494" fill="#000000">
                    <tspan x="714" y="16">Салтыков-Щедрин </tspan>
                    <tspan x="714" y="35">Никифор Николаевич</tspan>
                    <tspan x="714" y="54">25.11.1936 - </tspan>
                    <tspan x="714" y="73">23.11.2005</tspan>
                </text>
                <text id="Салтыкова-Щедрина-Ан" font-family="OpenSans, Open Sans" font-size="14" font-weight="normal" letter-spacing="-0.2160494" fill="#000000">
                    <tspan x="1203" y="375">Салтыкова-Щедрина </tspan>
                    <tspan x="1203" y="394">Анна Кареновна</tspan>
                    <tspan x="1203" y="413">25.11.1936</tspan>
                </text>
                <text id="Чехова-Антонина-Павл" font-family="OpenSans, Open Sans" font-size="14" font-weight="normal" letter-spacing="-0.2160494" fill="#000000">
                    <tspan x="286.453523" y="195">Чехова</tspan>
                    <tspan x="200.017566" y="214">Антонина Павловна</tspan>
                    <tspan x="264.67026" y="233">25.11.1936</tspan>
                </text>
                <text id="Пушкин-Александр-Сег" font-family="OpenSans, Open Sans" font-size="14" font-weight="normal" letter-spacing="-0.2160494" fill="#000000">
                    <tspan x="530.560945" y="555">Пушкин</tspan>
                    <tspan x="514.344835" y="574">Александр </tspan>
                    <tspan x="507.984713" y="593">Сегргеевич</tspan>
                    <tspan x="514.67026" y="612">25.11.1936</tspan>
                </text>
                <text id="Чехова-Антонина-Павл" font-family="OpenSans, Open Sans" font-size="14" font-weight="normal" letter-spacing="-0.2160494" fill="#000000">
                    <tspan x="536.453523" y="375">Чехова</tspan>
                    <tspan x="518.736208" y="394">Антонина </tspan>
                    <tspan x="518.702028" y="413">Павловна</tspan>
                    <tspan x="514.67026" y="432">25.11.1936</tspan>
                </text>
                <g id="Group-7-Copy-5" transform="translate(843.000000, 480.000000)">
                    <text id="120-767" font-family="OpenSans-Semibold, Open Sans" font-size="14" font-weight="500" fill="#375D88">
                        <tspan x="29" y="15">120 767</tspan>
                    </text>
                    <g id="ic_check_box_black_24px">
                        <g id="Shape">
                            <polygon points="0 0 24 0 24 24 0 24"></polygon>
                            <path d="M19,3 L5,3 C3.89,3 3,3.9 3,5 L3,19 C3,20.1 3.89,21 5,21 L19,21 C20.11,21 21,20.1 21,19 L21,5 C21,3.9 20.11,3 19,3 Z M10,17 L5,12 L6.41,10.59 L10,14.17 L17.59,6.58 L19,8 L10,17 Z" fill="#375D88" fill-rule="nonzero"></path>
                        </g>
                    </g>
                </g>
                <g id="Group-7-Copy-8" transform="translate(1083.000000, 470.000000)">
                    <text id="23-786" font-family="OpenSans-Semibold, Open Sans" font-size="14" font-weight="500" fill="#375D88">
                        <tspan x="29" y="15">23 786</tspan>
                    </text>
                    <g id="ic_check_box_black_24px">
                        <g id="Shape">
                            <polygon points="0 0 24 0 24 24 0 24"></polygon>
                            <path d="M19,3 L5,3 C3.89,3 3,3.9 3,5 L3,19 C3,20.1 3.89,21 5,21 L19,21 C20.11,21 21,20.1 21,19 L21,5 C21,3.9 20.11,3 19,3 Z M10,17 L5,12 L6.41,10.59 L10,14.17 L17.59,6.58 L19,8 L10,17 Z" fill="#375D88" fill-rule="nonzero"></path>
                        </g>
                    </g>
                </g>
                <g id="Group-7-Copy" transform="translate(353.000000, 290.000000)">
                    <text id="23-786" font-family="OpenSans-Semibold, Open Sans" font-size="14" font-weight="500" fill="#375D88">
                        <tspan x="29" y="15">23 786</tspan>
                    </text>
                    <g id="ic_check_box_outline_blank_black_24px">
                        <g id="Shape">
                            <path d="M19,5 L19,19 L5,19 L5,5 L19,5 Z M19,3 L5,3 C3.9,3 3,3.9 3,5 L3,19 C3,20.1 3.9,21 5,21 L19,21 C20.1,21 21,20.1 21,19 L21,5 C21,3.9 20.1,3 19,3 Z" fill="#375D88" fill-rule="nonzero"></path>
                            <polygon points="0 0 24 0 24 24 0 24"></polygon>
                        </g>
                    </g>
                </g>
                <g id="Group-7-Copy-3" transform="translate(603.000000, 650.000000)">
                    <text id="23-786" font-family="OpenSans-Semibold, Open Sans" font-size="14" font-weight="500" fill="#375D88">
                        <tspan x="29" y="15">23 786</tspan>
                    </text>
                    <g id="ic_check_box_black_24px">
                        <g id="Shape">
                            <polygon points="0 0 24 0 24 24 0 24"></polygon>
                            <path d="M19,3 L5,3 C3.89,3 3,3.9 3,5 L3,19 C3,20.1 3.89,21 5,21 L19,21 C20.11,21 21,20.1 21,19 L21,5 C21,3.9 20.11,3 19,3 Z M10,17 L5,12 L6.41,10.59 L10,14.17 L17.59,6.58 L19,8 L10,17 Z" fill="#375D88" fill-rule="nonzero"></path>
                        </g>
                    </g>
                </g>
                <g id="ic_man-copy-11" filter="url(#filter-9)" transform="translate(363.000000, 540.000000)" fill-rule="nonzero">
                    <g id="Group-4">
                        <circle id="Oval" fill="#FFFFFF" cx="50" cy="50" r="50"></circle>
                        <path d="M25.0838926,27.1377841 C25.0838926,28.6292614 25.3355705,30.1207386 25.8389262,31.6122159 C23.3221477,33.3522727 22.3154362,37.0809659 23.3221477,41.0582386 C24.0771812,44.2897727 26.3422819,47.0241477 28.8590604,47.7698864 C31.8791946,57.7130682 39.6812081,67.9048295 50.2516779,67.9048295 C60.8221477,67.9048295 68.6241611,57.7130682 71.6442953,47.7698864 C74.1610738,46.7755682 76.4261745,44.2897727 77.1812081,41.0582386 C78.4395973,36.5838068 76.6778523,32.3579545 73.4060403,30.8664773 C73.6577181,29.6235795 73.909396,28.3806818 73.909396,27.1377841 C73.909396,16.2002841 63.0872483,7.5 49.4966443,7.5 C35.9060403,7.5 25.0838926,16.2002841 25.0838926,27.1377841 Z M65.352349,21.9176136 C67.3657718,24.9005682 68.6241611,28.3806818 69.3791946,32.3579545 L69.6308725,34.0980114 L71.3926174,33.8494318 C71.6442953,33.8494318 71.8959732,33.8494318 72.147651,33.8494318 C72.147651,33.8494318 72.3993289,33.8494318 72.3993289,34.0980114 C73.909396,34.84375 74.6644295,37.3295455 74.1610738,40.0639205 C73.4060403,42.7982955 71.6442953,44.2897727 70.385906,44.5383523 L69.1275168,44.7869318 L68.8758389,45.78125 C66.3590604,54.9786932 59.3120805,64.4247159 50.5033557,64.4247159 C41.6946309,64.4247159 34.647651,55.2272727 32.1308725,45.78125 L31.8791946,44.7869318 L30.6208054,44.5383523 C29.1107383,44.2897727 27.3489933,42.7982955 26.8456376,40.0639205 C26.3422819,38.0752841 26.5939597,36.3352273 27.3489933,35.0923295 C27.6006711,34.5951705 28.1040268,34.0980114 28.8590604,33.8494318 C28.8590604,33.8494318 29.1107383,33.8494318 29.1107383,33.8494318 C29.1107383,33.8494318 29.3624161,33.8494318 29.3624161,33.8494318 L31.1241611,34.0980114 L31.3758389,32.3579545 C31.8791946,28.8778409 32.885906,25.8948864 34.3959732,23.1605114 C37.1644295,26.3920455 42.9530201,28.3806818 49.4966443,28.3806818 C56.795302,28.6292614 63.0872483,25.8948864 65.352349,21.9176136 Z M70.8892617,59.7017045 C78.6912752,62.9332386 84.7315436,68.8991477 87.5,75.1136364 C79.4463087,87.0454545 65.6040268,95 50,95 C34.3959732,95 20.5536913,87.2940341 12.5,75.6107955 C15.2684564,69.1477273 21.3087248,62.9332386 29.1107383,59.7017045 C31.3758389,63.4303977 33.8926174,66.6619318 37.4161074,68.4019886 C44.7147651,71.8821023 50,74.8650568 50,74.8650568 C50,74.8650568 55.5369128,72.1306818 62.5838926,68.4019886 C66.1073826,66.6619318 68.6241611,63.4303977 70.8892617,59.7017045 Z" id="Combined-Shape" fill="#9F9F9F"></path>
                    </g>
                </g>
                <path d="M464,590 L504,590" id="Line-Copy-13" stroke="#29486B" stroke-width="2" stroke-linecap="square"></path>
                <text id="Пушкин-Александр-Сег" font-family="OpenSans, Open Sans" font-size="14" font-weight="normal" letter-spacing="-0.2160494" fill="#000000">
                    <tspan x="290.560945" y="555">Пушкин</tspan>
                    <tspan x="274.344835" y="574">Александр </tspan>
                    <tspan x="267.984713" y="593">Сегргеевич</tspan>
                    <tspan x="274.67026" y="612">25.11.1936</tspan>
                </text>
                <g id="Group-7-Copy-13" transform="translate(363.000000, 650.000000)">
                    <text id="23-786" font-family="OpenSans-Semibold, Open Sans" font-size="14" font-weight="500" fill="#375D88">
                        <tspan x="29" y="15">23 786</tspan>
                    </text>
                    <g id="ic_check_box_black_24px">
                        <g id="Shape">
                            <polygon points="0 0 24 0 24 24 0 24"></polygon>
                            <path d="M19,3 L5,3 C3.89,3 3,3.9 3,5 L3,19 C3,20.1 3.89,21 5,21 L19,21 C20.11,21 21,20.1 21,19 L21,5 C21,3.9 20.11,3 19,3 Z M10,17 L5,12 L6.41,10.59 L10,14.17 L17.59,6.58 L19,8 L10,17 Z" fill="#375D88" fill-rule="nonzero"></path>
                        </g>
                    </g>
                </g>
                <g id="ic_man-copy-12" filter="url(#filter-10)" transform="translate(123.000000, 540.000000)" fill-rule="nonzero">
                    <g id="Group-4">
                        <circle id="Oval" fill="#FFFFFF" cx="50" cy="50" r="50"></circle>
                        <path d="M25.0838926,27.1377841 C25.0838926,28.6292614 25.3355705,30.1207386 25.8389262,31.6122159 C23.3221477,33.3522727 22.3154362,37.0809659 23.3221477,41.0582386 C24.0771812,44.2897727 26.3422819,47.0241477 28.8590604,47.7698864 C31.8791946,57.7130682 39.6812081,67.9048295 50.2516779,67.9048295 C60.8221477,67.9048295 68.6241611,57.7130682 71.6442953,47.7698864 C74.1610738,46.7755682 76.4261745,44.2897727 77.1812081,41.0582386 C78.4395973,36.5838068 76.6778523,32.3579545 73.4060403,30.8664773 C73.6577181,29.6235795 73.909396,28.3806818 73.909396,27.1377841 C73.909396,16.2002841 63.0872483,7.5 49.4966443,7.5 C35.9060403,7.5 25.0838926,16.2002841 25.0838926,27.1377841 Z M65.352349,21.9176136 C67.3657718,24.9005682 68.6241611,28.3806818 69.3791946,32.3579545 L69.6308725,34.0980114 L71.3926174,33.8494318 C71.6442953,33.8494318 71.8959732,33.8494318 72.147651,33.8494318 C72.147651,33.8494318 72.3993289,33.8494318 72.3993289,34.0980114 C73.909396,34.84375 74.6644295,37.3295455 74.1610738,40.0639205 C73.4060403,42.7982955 71.6442953,44.2897727 70.385906,44.5383523 L69.1275168,44.7869318 L68.8758389,45.78125 C66.3590604,54.9786932 59.3120805,64.4247159 50.5033557,64.4247159 C41.6946309,64.4247159 34.647651,55.2272727 32.1308725,45.78125 L31.8791946,44.7869318 L30.6208054,44.5383523 C29.1107383,44.2897727 27.3489933,42.7982955 26.8456376,40.0639205 C26.3422819,38.0752841 26.5939597,36.3352273 27.3489933,35.0923295 C27.6006711,34.5951705 28.1040268,34.0980114 28.8590604,33.8494318 C28.8590604,33.8494318 29.1107383,33.8494318 29.1107383,33.8494318 C29.1107383,33.8494318 29.3624161,33.8494318 29.3624161,33.8494318 L31.1241611,34.0980114 L31.3758389,32.3579545 C31.8791946,28.8778409 32.885906,25.8948864 34.3959732,23.1605114 C37.1644295,26.3920455 42.9530201,28.3806818 49.4966443,28.3806818 C56.795302,28.6292614 63.0872483,25.8948864 65.352349,21.9176136 Z M70.8892617,59.7017045 C78.6912752,62.9332386 84.7315436,68.8991477 87.5,75.1136364 C79.4463087,87.0454545 65.6040268,95 50,95 C34.3959732,95 20.5536913,87.2940341 12.5,75.6107955 C15.2684564,69.1477273 21.3087248,62.9332386 29.1107383,59.7017045 C31.3758389,63.4303977 33.8926174,66.6619318 37.4161074,68.4019886 C44.7147651,71.8821023 50,74.8650568 50,74.8650568 C50,74.8650568 55.5369128,72.1306818 62.5838926,68.4019886 C66.1073826,66.6619318 68.6241611,63.4303977 70.8892617,59.7017045 Z" id="Combined-Shape" fill="#9F9F9F"></path>
                    </g>
                </g>
                <path d="M224,590 L264,590" id="Line-Copy-14" stroke="#29486B" stroke-width="2" stroke-linecap="square"></path>
                <text id="Пушкин-Александр-Сег" font-family="OpenSans, Open Sans" font-size="14" font-weight="normal" letter-spacing="-0.2160494" fill="#000000">
                    <tspan x="50.5609448" y="555">Пушкин</tspan>
                    <tspan x="34.3448352" y="574">Александр </tspan>
                    <tspan x="27.9847127" y="593">Сегргеевич</tspan>
                    <tspan x="34.6702596" y="612">25.11.1936</tspan>
                </text>
                <g id="Group-7-Copy-14" transform="translate(123.000000, 650.000000)">
                    <text id="23-786" font-family="OpenSans-Semibold, Open Sans" font-size="14" font-weight="500" fill="#375D88">
                        <tspan x="29" y="15">23 786</tspan>
                    </text>
                    <g id="ic_check_box_black_24px">
                        <g id="Shape">
                            <polygon points="0 0 24 0 24 24 0 24"></polygon>
                            <path d="M19,3 L5,3 C3.89,3 3,3.9 3,5 L3,19 C3,20.1 3.89,21 5,21 L19,21 C20.11,21 21,20.1 21,19 L21,5 C21,3.9 20.11,3 19,3 Z M10,17 L5,12 L6.41,10.59 L10,14.17 L17.59,6.58 L19,8 L10,17 Z" fill="#375D88" fill-rule="nonzero"></path>
                        </g>
                    </g>
                </g>
                <text id="Пушкин-Александр-Сег" font-family="OpenSans, Open Sans" font-size="14" font-weight="normal" letter-spacing="-0.2160494" fill="#000000">
                    <tspan x="770.560945" y="555">Пушкин</tspan>
                    <tspan x="754.344835" y="574">Александр </tspan>
                    <tspan x="747.984713" y="593">Сегргеевич</tspan>
                    <tspan x="754.67026" y="612">25.11.1936</tspan>
                </text>
                <g id="ic_man-copy-5" filter="url(#filter-11)" transform="translate(1083.000000, 540.000000)" fill-rule="nonzero">
                    <g id="Group-4">
                        <circle id="Oval" fill="#FFFFFF" cx="50" cy="50" r="50"></circle>
                        <path d="M25.0838926,27.1377841 C25.0838926,28.6292614 25.3355705,30.1207386 25.8389262,31.6122159 C23.3221477,33.3522727 22.3154362,37.0809659 23.3221477,41.0582386 C24.0771812,44.2897727 26.3422819,47.0241477 28.8590604,47.7698864 C31.8791946,57.7130682 39.6812081,67.9048295 50.2516779,67.9048295 C60.8221477,67.9048295 68.6241611,57.7130682 71.6442953,47.7698864 C74.1610738,46.7755682 76.4261745,44.2897727 77.1812081,41.0582386 C78.4395973,36.5838068 76.6778523,32.3579545 73.4060403,30.8664773 C73.6577181,29.6235795 73.909396,28.3806818 73.909396,27.1377841 C73.909396,16.2002841 63.0872483,7.5 49.4966443,7.5 C35.9060403,7.5 25.0838926,16.2002841 25.0838926,27.1377841 Z M65.352349,21.9176136 C67.3657718,24.9005682 68.6241611,28.3806818 69.3791946,32.3579545 L69.6308725,34.0980114 L71.3926174,33.8494318 C71.6442953,33.8494318 71.8959732,33.8494318 72.147651,33.8494318 C72.147651,33.8494318 72.3993289,33.8494318 72.3993289,34.0980114 C73.909396,34.84375 74.6644295,37.3295455 74.1610738,40.0639205 C73.4060403,42.7982955 71.6442953,44.2897727 70.385906,44.5383523 L69.1275168,44.7869318 L68.8758389,45.78125 C66.3590604,54.9786932 59.3120805,64.4247159 50.5033557,64.4247159 C41.6946309,64.4247159 34.647651,55.2272727 32.1308725,45.78125 L31.8791946,44.7869318 L30.6208054,44.5383523 C29.1107383,44.2897727 27.3489933,42.7982955 26.8456376,40.0639205 C26.3422819,38.0752841 26.5939597,36.3352273 27.3489933,35.0923295 C27.6006711,34.5951705 28.1040268,34.0980114 28.8590604,33.8494318 C28.8590604,33.8494318 29.1107383,33.8494318 29.1107383,33.8494318 C29.1107383,33.8494318 29.3624161,33.8494318 29.3624161,33.8494318 L31.1241611,34.0980114 L31.3758389,32.3579545 C31.8791946,28.8778409 32.885906,25.8948864 34.3959732,23.1605114 C37.1644295,26.3920455 42.9530201,28.3806818 49.4966443,28.3806818 C56.795302,28.6292614 63.0872483,25.8948864 65.352349,21.9176136 Z M70.8892617,59.7017045 C78.6912752,62.9332386 84.7315436,68.8991477 87.5,75.1136364 C79.4463087,87.0454545 65.6040268,95 50,95 C34.3959732,95 20.5536913,87.2940341 12.5,75.6107955 C15.2684564,69.1477273 21.3087248,62.9332386 29.1107383,59.7017045 C31.3758389,63.4303977 33.8926174,66.6619318 37.4161074,68.4019886 C44.7147651,71.8821023 50,74.8650568 50,74.8650568 C50,74.8650568 55.5369128,72.1306818 62.5838926,68.4019886 C66.1073826,66.6619318 68.6241611,63.4303977 70.8892617,59.7017045 Z" id="Combined-Shape" fill="#9F9F9F"></path>
                    </g>
                </g>
                <text id="Пушкин-Александр-Сег" font-family="OpenSans, Open Sans" font-size="14" font-weight="normal" letter-spacing="-0.2160494" fill="#000000">
                    <tspan x="1203" y="555">Пушкин</tspan>
                    <tspan x="1203" y="574">Александр </tspan>
                    <tspan x="1203" y="593">Сегргеевич</tspan>
                    <tspan x="1203" y="612">25.11.1936</tspan>
                </text>
                <g id="Group-7-Copy-6" transform="translate(843.000000, 650.000000)">
                    <text id="23-786" font-family="OpenSans-Semibold, Open Sans" font-size="14" font-weight="500" fill="#375D88">
                        <tspan x="29" y="15">23 786</tspan>
                    </text>
                    <g id="ic_check_box_black_24px">
                        <g id="Shape">
                            <polygon points="0 0 24 0 24 24 0 24"></polygon>
                            <path d="M19,3 L5,3 C3.89,3 3,3.9 3,5 L3,19 C3,20.1 3.89,21 5,21 L19,21 C20.11,21 21,20.1 21,19 L21,5 C21,3.9 20.11,3 19,3 Z M10,17 L5,12 L6.41,10.59 L10,14.17 L17.59,6.58 L19,8 L10,17 Z" fill="#375D88" fill-rule="nonzero"></path>
                        </g>
                    </g>
                </g>
                <path d="M893,680 L893,720" id="Line-2-Copy-4" stroke="#29486B" stroke-width="2" stroke-linecap="square"></path>
                <g id="ic_man-copy-14" filter="url(#filter-12)" transform="translate(843.000000, 720.000000)" fill-rule="nonzero">
                    <g id="Group-4">
                        <circle id="Oval" fill="#FFFFFF" cx="50" cy="50" r="50"></circle>
                        <path d="M25.0838926,27.1377841 C25.0838926,28.6292614 25.3355705,30.1207386 25.8389262,31.6122159 C23.3221477,33.3522727 22.3154362,37.0809659 23.3221477,41.0582386 C24.0771812,44.2897727 26.3422819,47.0241477 28.8590604,47.7698864 C31.8791946,57.7130682 39.6812081,67.9048295 50.2516779,67.9048295 C60.8221477,67.9048295 68.6241611,57.7130682 71.6442953,47.7698864 C74.1610738,46.7755682 76.4261745,44.2897727 77.1812081,41.0582386 C78.4395973,36.5838068 76.6778523,32.3579545 73.4060403,30.8664773 C73.6577181,29.6235795 73.909396,28.3806818 73.909396,27.1377841 C73.909396,16.2002841 63.0872483,7.5 49.4966443,7.5 C35.9060403,7.5 25.0838926,16.2002841 25.0838926,27.1377841 Z M65.352349,21.9176136 C67.3657718,24.9005682 68.6241611,28.3806818 69.3791946,32.3579545 L69.6308725,34.0980114 L71.3926174,33.8494318 C71.6442953,33.8494318 71.8959732,33.8494318 72.147651,33.8494318 C72.147651,33.8494318 72.3993289,33.8494318 72.3993289,34.0980114 C73.909396,34.84375 74.6644295,37.3295455 74.1610738,40.0639205 C73.4060403,42.7982955 71.6442953,44.2897727 70.385906,44.5383523 L69.1275168,44.7869318 L68.8758389,45.78125 C66.3590604,54.9786932 59.3120805,64.4247159 50.5033557,64.4247159 C41.6946309,64.4247159 34.647651,55.2272727 32.1308725,45.78125 L31.8791946,44.7869318 L30.6208054,44.5383523 C29.1107383,44.2897727 27.3489933,42.7982955 26.8456376,40.0639205 C26.3422819,38.0752841 26.5939597,36.3352273 27.3489933,35.0923295 C27.6006711,34.5951705 28.1040268,34.0980114 28.8590604,33.8494318 C28.8590604,33.8494318 29.1107383,33.8494318 29.1107383,33.8494318 C29.1107383,33.8494318 29.3624161,33.8494318 29.3624161,33.8494318 L31.1241611,34.0980114 L31.3758389,32.3579545 C31.8791946,28.8778409 32.885906,25.8948864 34.3959732,23.1605114 C37.1644295,26.3920455 42.9530201,28.3806818 49.4966443,28.3806818 C56.795302,28.6292614 63.0872483,25.8948864 65.352349,21.9176136 Z M70.8892617,59.7017045 C78.6912752,62.9332386 84.7315436,68.8991477 87.5,75.1136364 C79.4463087,87.0454545 65.6040268,95 50,95 C34.3959732,95 20.5536913,87.2940341 12.5,75.6107955 C15.2684564,69.1477273 21.3087248,62.9332386 29.1107383,59.7017045 C31.3758389,63.4303977 33.8926174,66.6619318 37.4161074,68.4019886 C44.7147651,71.8821023 50,74.8650568 50,74.8650568 C50,74.8650568 55.5369128,72.1306818 62.5838926,68.4019886 C66.1073826,66.6619318 68.6241611,63.4303977 70.8892617,59.7017045 Z" id="Combined-Shape" fill="#9F9F9F"></path>
                    </g>
                </g>
                <text id="Пушкин-Александр-Сег" font-family="OpenSans, Open Sans" font-size="14" font-weight="normal" letter-spacing="-0.2160494" fill="#000000">
                    <tspan x="770.560945" y="735">Пушкин</tspan>
                    <tspan x="754.344835" y="754">Александр </tspan>
                    <tspan x="747.984713" y="773">Сегргеевич</tspan>
                    <tspan x="754.67026" y="792">25.11.1936</tspan>
                </text>
                <g id="Group-7-Copy-16" transform="translate(843.000000, 830.000000)">
                    <text id="23-786" font-family="OpenSans-Semibold, Open Sans" font-size="14" font-weight="500" fill="#375D88">
                        <tspan x="29" y="15">23 786</tspan>
                    </text>
                    <g id="ic_check_box_black_24px">
                        <g id="Shape">
                            <polygon points="0 0 24 0 24 24 0 24"></polygon>
                            <path d="M19,3 L5,3 C3.89,3 3,3.9 3,5 L3,19 C3,20.1 3.89,21 5,21 L19,21 C20.11,21 21,20.1 21,19 L21,5 C21,3.9 20.11,3 19,3 Z M10,17 L5,12 L6.41,10.59 L10,14.17 L17.59,6.58 L19,8 L10,17 Z" fill="#375D88" fill-rule="nonzero"></path>
                        </g>
                    </g>
                </g>
                <g id="ic_man-copy-15" filter="url(#filter-13)" transform="translate(603.000000, 720.000000)" fill-rule="nonzero">
                    <g id="Group-4">
                        <circle id="Oval" fill="#FFFFFF" cx="50" cy="50" r="50"></circle>
                        <path d="M25.0838926,27.1377841 C25.0838926,28.6292614 25.3355705,30.1207386 25.8389262,31.6122159 C23.3221477,33.3522727 22.3154362,37.0809659 23.3221477,41.0582386 C24.0771812,44.2897727 26.3422819,47.0241477 28.8590604,47.7698864 C31.8791946,57.7130682 39.6812081,67.9048295 50.2516779,67.9048295 C60.8221477,67.9048295 68.6241611,57.7130682 71.6442953,47.7698864 C74.1610738,46.7755682 76.4261745,44.2897727 77.1812081,41.0582386 C78.4395973,36.5838068 76.6778523,32.3579545 73.4060403,30.8664773 C73.6577181,29.6235795 73.909396,28.3806818 73.909396,27.1377841 C73.909396,16.2002841 63.0872483,7.5 49.4966443,7.5 C35.9060403,7.5 25.0838926,16.2002841 25.0838926,27.1377841 Z M65.352349,21.9176136 C67.3657718,24.9005682 68.6241611,28.3806818 69.3791946,32.3579545 L69.6308725,34.0980114 L71.3926174,33.8494318 C71.6442953,33.8494318 71.8959732,33.8494318 72.147651,33.8494318 C72.147651,33.8494318 72.3993289,33.8494318 72.3993289,34.0980114 C73.909396,34.84375 74.6644295,37.3295455 74.1610738,40.0639205 C73.4060403,42.7982955 71.6442953,44.2897727 70.385906,44.5383523 L69.1275168,44.7869318 L68.8758389,45.78125 C66.3590604,54.9786932 59.3120805,64.4247159 50.5033557,64.4247159 C41.6946309,64.4247159 34.647651,55.2272727 32.1308725,45.78125 L31.8791946,44.7869318 L30.6208054,44.5383523 C29.1107383,44.2897727 27.3489933,42.7982955 26.8456376,40.0639205 C26.3422819,38.0752841 26.5939597,36.3352273 27.3489933,35.0923295 C27.6006711,34.5951705 28.1040268,34.0980114 28.8590604,33.8494318 C28.8590604,33.8494318 29.1107383,33.8494318 29.1107383,33.8494318 C29.1107383,33.8494318 29.3624161,33.8494318 29.3624161,33.8494318 L31.1241611,34.0980114 L31.3758389,32.3579545 C31.8791946,28.8778409 32.885906,25.8948864 34.3959732,23.1605114 C37.1644295,26.3920455 42.9530201,28.3806818 49.4966443,28.3806818 C56.795302,28.6292614 63.0872483,25.8948864 65.352349,21.9176136 Z M70.8892617,59.7017045 C78.6912752,62.9332386 84.7315436,68.8991477 87.5,75.1136364 C79.4463087,87.0454545 65.6040268,95 50,95 C34.3959732,95 20.5536913,87.2940341 12.5,75.6107955 C15.2684564,69.1477273 21.3087248,62.9332386 29.1107383,59.7017045 C31.3758389,63.4303977 33.8926174,66.6619318 37.4161074,68.4019886 C44.7147651,71.8821023 50,74.8650568 50,74.8650568 C50,74.8650568 55.5369128,72.1306818 62.5838926,68.4019886 C66.1073826,66.6619318 68.6241611,63.4303977 70.8892617,59.7017045 Z" id="Combined-Shape" fill="#9F9F9F"></path>
                    </g>
                </g>
                <text id="Пушкин-Александр-Сег" font-family="OpenSans, Open Sans" font-size="14" font-weight="normal" letter-spacing="-0.2160494" fill="#000000">
                    <tspan x="530.560945" y="735">Пушкин</tspan>
                    <tspan x="434.908879" y="754">Александр Сегргеевич</tspan>
                    <tspan x="514.67026" y="773">25.11.1936</tspan>
                </text>
                <g id="Group-7-Copy-17" transform="translate(603.000000, 830.000000)">
                    <text id="23-786" font-family="OpenSans-Semibold, Open Sans" font-size="14" font-weight="500" fill="#375D88">
                        <tspan x="29" y="15">23 786</tspan>
                    </text>
                    <g id="ic_check_box_black_24px">
                        <g id="Shape">
                            <polygon points="0 0 24 0 24 24 0 24"></polygon>
                            <path d="M19,3 L5,3 C3.89,3 3,3.9 3,5 L3,19 C3,20.1 3.89,21 5,21 L19,21 C20.11,21 21,20.1 21,19 L21,5 C21,3.9 20.11,3 19,3 Z M10,17 L5,12 L6.41,10.59 L10,14.17 L17.59,6.58 L19,8 L10,17 Z" fill="#375D88" fill-rule="nonzero"></path>
                        </g>
                    </g>
                </g>
                <g id="Group-7-Copy-7" transform="translate(1083.000000, 650.000000)">
                    <text id="23-786" font-family="OpenSans-Semibold, Open Sans" font-size="14" font-weight="500" fill="#375D88">
                        <tspan x="29" y="15">23 786</tspan>
                    </text>
                    <g id="ic_check_box_black_24px">
                        <g id="Shape">
                            <polygon points="0 0 24 0 24 24 0 24"></polygon>
                            <path d="M19,3 L5,3 C3.89,3 3,3.9 3,5 L3,19 C3,20.1 3.89,21 5,21 L19,21 C20.11,21 21,20.1 21,19 L21,5 C21,3.9 20.11,3 19,3 Z M10,17 L5,12 L6.41,10.59 L10,14.17 L17.59,6.58 L19,8 L10,17 Z" fill="#375D88" fill-rule="nonzero"></path>
                        </g>
                    </g>
                </g>
                <path d="M944,770 L1084,770" id="Line-Copy-17" stroke="#29486B" stroke-width="2" stroke-linecap="square"></path>
                <g id="ic_man-copy-16" filter="url(#filter-14)" transform="translate(1083.000000, 720.000000)" fill-rule="nonzero">
                    <g id="Group-4">
                        <circle id="Oval" fill="#FFFFFF" cx="50" cy="50" r="50"></circle>
                        <path d="M25.0838926,27.1377841 C25.0838926,28.6292614 25.3355705,30.1207386 25.8389262,31.6122159 C23.3221477,33.3522727 22.3154362,37.0809659 23.3221477,41.0582386 C24.0771812,44.2897727 26.3422819,47.0241477 28.8590604,47.7698864 C31.8791946,57.7130682 39.6812081,67.9048295 50.2516779,67.9048295 C60.8221477,67.9048295 68.6241611,57.7130682 71.6442953,47.7698864 C74.1610738,46.7755682 76.4261745,44.2897727 77.1812081,41.0582386 C78.4395973,36.5838068 76.6778523,32.3579545 73.4060403,30.8664773 C73.6577181,29.6235795 73.909396,28.3806818 73.909396,27.1377841 C73.909396,16.2002841 63.0872483,7.5 49.4966443,7.5 C35.9060403,7.5 25.0838926,16.2002841 25.0838926,27.1377841 Z M65.352349,21.9176136 C67.3657718,24.9005682 68.6241611,28.3806818 69.3791946,32.3579545 L69.6308725,34.0980114 L71.3926174,33.8494318 C71.6442953,33.8494318 71.8959732,33.8494318 72.147651,33.8494318 C72.147651,33.8494318 72.3993289,33.8494318 72.3993289,34.0980114 C73.909396,34.84375 74.6644295,37.3295455 74.1610738,40.0639205 C73.4060403,42.7982955 71.6442953,44.2897727 70.385906,44.5383523 L69.1275168,44.7869318 L68.8758389,45.78125 C66.3590604,54.9786932 59.3120805,64.4247159 50.5033557,64.4247159 C41.6946309,64.4247159 34.647651,55.2272727 32.1308725,45.78125 L31.8791946,44.7869318 L30.6208054,44.5383523 C29.1107383,44.2897727 27.3489933,42.7982955 26.8456376,40.0639205 C26.3422819,38.0752841 26.5939597,36.3352273 27.3489933,35.0923295 C27.6006711,34.5951705 28.1040268,34.0980114 28.8590604,33.8494318 C28.8590604,33.8494318 29.1107383,33.8494318 29.1107383,33.8494318 C29.1107383,33.8494318 29.3624161,33.8494318 29.3624161,33.8494318 L31.1241611,34.0980114 L31.3758389,32.3579545 C31.8791946,28.8778409 32.885906,25.8948864 34.3959732,23.1605114 C37.1644295,26.3920455 42.9530201,28.3806818 49.4966443,28.3806818 C56.795302,28.6292614 63.0872483,25.8948864 65.352349,21.9176136 Z M70.8892617,59.7017045 C78.6912752,62.9332386 84.7315436,68.8991477 87.5,75.1136364 C79.4463087,87.0454545 65.6040268,95 50,95 C34.3959732,95 20.5536913,87.2940341 12.5,75.6107955 C15.2684564,69.1477273 21.3087248,62.9332386 29.1107383,59.7017045 C31.3758389,63.4303977 33.8926174,66.6619318 37.4161074,68.4019886 C44.7147651,71.8821023 50,74.8650568 50,74.8650568 C50,74.8650568 55.5369128,72.1306818 62.5838926,68.4019886 C66.1073826,66.6619318 68.6241611,63.4303977 70.8892617,59.7017045 Z" id="Combined-Shape" fill="#9F9F9F"></path>
                    </g>
                </g>
                <text id="Пушкин-Александр-Сег" font-family="OpenSans, Open Sans" font-size="14" font-weight="normal" letter-spacing="-0.2160494" fill="#000000">
                    <tspan x="1203" y="735">Пушкин</tspan>
                    <tspan x="1203" y="754">Александр Сегргеевич</tspan>
                    <tspan x="1203" y="773">25.11.1936</tspan>
                </text>
                <g id="Group-7-Copy-18" transform="translate(1083.000000, 830.000000)">
                    <text id="23-786" font-family="OpenSans-Semibold, Open Sans" font-size="14" font-weight="500" fill="#375D88">
                        <tspan x="29" y="15">23 786</tspan>
                    </text>
                    <g id="ic_check_box_black_24px">
                        <g id="Shape">
                            <polygon points="0 0 24 0 24 24 0 24"></polygon>
                            <path d="M19,3 L5,3 C3.89,3 3,3.9 3,5 L3,19 C3,20.1 3.89,21 5,21 L19,21 C20.11,21 21,20.1 21,19 L21,5 C21,3.9 20.11,3 19,3 Z M10,17 L5,12 L6.41,10.59 L10,14.17 L17.59,6.58 L19,8 L10,17 Z" fill="#375D88" fill-rule="nonzero"></path>
                        </g>
                    </g>
                </g>
                <g id="ic_man-copy-10" filter="url(#filter-15)" transform="translate(1323.000000, 540.000000)" fill-rule="nonzero">
                    <g id="Group-4">
                        <circle id="Oval" fill="#FFFFFF" cx="50" cy="50" r="50"></circle>
                        <path d="M25.0838926,27.1377841 C25.0838926,28.6292614 25.3355705,30.1207386 25.8389262,31.6122159 C23.3221477,33.3522727 22.3154362,37.0809659 23.3221477,41.0582386 C24.0771812,44.2897727 26.3422819,47.0241477 28.8590604,47.7698864 C31.8791946,57.7130682 39.6812081,67.9048295 50.2516779,67.9048295 C60.8221477,67.9048295 68.6241611,57.7130682 71.6442953,47.7698864 C74.1610738,46.7755682 76.4261745,44.2897727 77.1812081,41.0582386 C78.4395973,36.5838068 76.6778523,32.3579545 73.4060403,30.8664773 C73.6577181,29.6235795 73.909396,28.3806818 73.909396,27.1377841 C73.909396,16.2002841 63.0872483,7.5 49.4966443,7.5 C35.9060403,7.5 25.0838926,16.2002841 25.0838926,27.1377841 Z M65.352349,21.9176136 C67.3657718,24.9005682 68.6241611,28.3806818 69.3791946,32.3579545 L69.6308725,34.0980114 L71.3926174,33.8494318 C71.6442953,33.8494318 71.8959732,33.8494318 72.147651,33.8494318 C72.147651,33.8494318 72.3993289,33.8494318 72.3993289,34.0980114 C73.909396,34.84375 74.6644295,37.3295455 74.1610738,40.0639205 C73.4060403,42.7982955 71.6442953,44.2897727 70.385906,44.5383523 L69.1275168,44.7869318 L68.8758389,45.78125 C66.3590604,54.9786932 59.3120805,64.4247159 50.5033557,64.4247159 C41.6946309,64.4247159 34.647651,55.2272727 32.1308725,45.78125 L31.8791946,44.7869318 L30.6208054,44.5383523 C29.1107383,44.2897727 27.3489933,42.7982955 26.8456376,40.0639205 C26.3422819,38.0752841 26.5939597,36.3352273 27.3489933,35.0923295 C27.6006711,34.5951705 28.1040268,34.0980114 28.8590604,33.8494318 C28.8590604,33.8494318 29.1107383,33.8494318 29.1107383,33.8494318 C29.1107383,33.8494318 29.3624161,33.8494318 29.3624161,33.8494318 L31.1241611,34.0980114 L31.3758389,32.3579545 C31.8791946,28.8778409 32.885906,25.8948864 34.3959732,23.1605114 C37.1644295,26.3920455 42.9530201,28.3806818 49.4966443,28.3806818 C56.795302,28.6292614 63.0872483,25.8948864 65.352349,21.9176136 Z M70.8892617,59.7017045 C78.6912752,62.9332386 84.7315436,68.8991477 87.5,75.1136364 C79.4463087,87.0454545 65.6040268,95 50,95 C34.3959732,95 20.5536913,87.2940341 12.5,75.6107955 C15.2684564,69.1477273 21.3087248,62.9332386 29.1107383,59.7017045 C31.3758389,63.4303977 33.8926174,66.6619318 37.4161074,68.4019886 C44.7147651,71.8821023 50,74.8650568 50,74.8650568 C50,74.8650568 55.5369128,72.1306818 62.5838926,68.4019886 C66.1073826,66.6619318 68.6241611,63.4303977 70.8892617,59.7017045 Z" id="Combined-Shape" fill="#9F9F9F"></path>
                    </g>
                </g>
                <g id="Group-7-Copy-12" transform="translate(1323.000000, 650.000000)">
                    <text id="23-786" font-family="OpenSans-Semibold, Open Sans" font-size="14" font-weight="500" fill="#375D88">
                        <tspan x="29" y="15">23 786</tspan>
                    </text>
                    <g id="ic_check_box_black_24px">
                        <g id="Shape">
                            <polygon points="0 0 24 0 24 24 0 24"></polygon>
                            <path d="M19,3 L5,3 C3.89,3 3,3.9 3,5 L3,19 C3,20.1 3.89,21 5,21 L19,21 C20.11,21 21,20.1 21,19 L21,5 C21,3.9 20.11,3 19,3 Z M10,17 L5,12 L6.41,10.59 L10,14.17 L17.59,6.58 L19,8 L10,17 Z" fill="#375D88" fill-rule="nonzero"></path>
                        </g>
                    </g>
                </g>
                <g id="Group-7-Copy-2" transform="translate(603.000000, 470.000000)">
                    <text id="23-786" font-family="OpenSans-Semibold, Open Sans" font-size="14" font-weight="500" fill="#375D88">
                        <tspan x="29" y="15">23 786</tspan>
                    </text>
                    <g id="ic_check_box_black_24px">
                        <g id="Shape">
                            <polygon points="0 0 24 0 24 24 0 24"></polygon>
                            <path d="M19,3 L5,3 C3.89,3 3,3.9 3,5 L3,19 C3,20.1 3.89,21 5,21 L19,21 C20.11,21 21,20.1 21,19 L21,5 C21,3.9 20.11,3 19,3 Z M10,17 L5,12 L6.41,10.59 L10,14.17 L17.59,6.58 L19,8 L10,17 Z" fill="#375D88" fill-rule="nonzero"></path>
                        </g>
                    </g>
                </g>
                <text id="Чехова-Антонина-Павл" font-family="OpenSans, Open Sans" font-size="14" font-weight="normal" letter-spacing="-0.2160494" fill="#000000">
                    <tspan x="296.453523" y="375">Чехова</tspan>
                    <tspan x="278.736208" y="394">Антонина </tspan>
                    <tspan x="278.702028" y="413">Павловна</tspan>
                    <tspan x="274.67026" y="432">25.11.1936</tspan>
                </text>
                <g id="Group-7-Copy-9" transform="translate(363.000000, 470.000000)">
                    <text id="23-786" font-family="OpenSans-Semibold, Open Sans" font-size="14" font-weight="500" fill="#375D88">
                        <tspan x="29" y="15">23 786</tspan>
                    </text>
                    <g id="ic_check_box_black_24px">
                        <g id="Shape">
                            <polygon points="0 0 24 0 24 24 0 24"></polygon>
                            <path d="M19,3 L5,3 C3.89,3 3,3.9 3,5 L3,19 C3,20.1 3.89,21 5,21 L19,21 C20.11,21 21,20.1 21,19 L21,5 C21,3.9 20.11,3 19,3 Z M10,17 L5,12 L6.41,10.59 L10,14.17 L17.59,6.58 L19,8 L10,17 Z" fill="#375D88" fill-rule="nonzero"></path>
                        </g>
                    </g>
                </g>
                <text id="Чехова-Антонина-Павл" font-family="OpenSans, Open Sans" font-size="14" font-weight="normal" letter-spacing="-0.2160494" fill="#000000">
                    <tspan x="56.453523" y="375">Чехова</tspan>
                    <tspan x="38.7362077" y="394">Антонина </tspan>
                    <tspan x="38.702028" y="413">Павловна</tspan>
                    <tspan x="34.6702596" y="432">25.11.1936</tspan>
                </text>
                <g id="Group-7-Copy-10" transform="translate(123.000000, 470.000000)">
                    <text id="23-786" font-family="OpenSans-Semibold, Open Sans" font-size="14" font-weight="500" fill="#375D88">
                        <tspan x="29" y="15">23 786</tspan>
                    </text>
                    <g id="ic_check_box_black_24px">
                        <g id="Shape">
                            <polygon points="0 0 24 0 24 24 0 24"></polygon>
                            <path d="M19,3 L5,3 C3.89,3 3,3.9 3,5 L3,19 C3,20.1 3.89,21 5,21 L19,21 C20.11,21 21,20.1 21,19 L21,5 C21,3.9 20.11,3 19,3 Z M10,17 L5,12 L6.41,10.59 L10,14.17 L17.59,6.58 L19,8 L10,17 Z" fill="#375D88" fill-rule="nonzero"></path>
                        </g>
                    </g>
                </g>
                <g id="Group-7-Copy-4" transform="translate(594.000000, 110.000000)">
                    <text id="23-786" font-family="OpenSans-Semibold, Open Sans" font-size="14" font-weight="500" fill="#375D88">
                        <tspan x="29" y="15">23 786</tspan>
                    </text>
                    <g id="ic_check_box_black_24px">
                        <g id="Shape">
                            <polygon points="0 0 24 0 24 24 0 24"></polygon>
                            <path d="M19,3 L5,3 C3.89,3 3,3.9 3,5 L3,19 C3,20.1 3.89,21 5,21 L19,21 C20.11,21 21,20.1 21,19 L21,5 C21,3.9 20.11,3 19,3 Z M10,17 L5,12 L6.41,10.59 L10,14.17 L17.59,6.58 L19,8 L10,17 Z" fill="#375D88" fill-rule="nonzero"></path>
                        </g>
                    </g>
                </g>
                <g id="ic_man-copy-17" filter="url(#filter-16)" transform="translate(352.000000, 180.000000)" fill-rule="nonzero">
                    <circle id="Oval" fill="#FFFFFF" cx="50" cy="50" r="50"></circle>
                    <path d="M74.0545455,66.0805085 C74.3090909,65.5861582 74.3090909,65.0918079 74.5636364,64.3502825 C74.5636364,63.8559322 74.8181818,63.3615819 74.8181818,62.6200565 C75.5818182,57.9237288 76.0909091,50.5084746 76.0909091,39.1384181 C76.0909091,21.5889831 64.3818182,7.5 49.8727273,7.5 C44.5272727,7.5 39.6909091,9.47740113 35.6181818,12.690678 C34.8545455,13.1850282 34.3454545,13.6793785 33.8363636,14.420904 C27.7272727,20.1059322 23.9090909,29.2514124 23.9090909,39.3855932 C23.9090909,51.25 24.4181818,58.9124294 25.1818182,63.6087571 C25.1818182,64.1031073 25.4363636,64.8446328 25.4363636,65.3389831 C25.6909091,65.8333333 25.6909091,66.5748588 25.9454545,67.069209 C20.8545455,70.2824859 16.7818182,74.7316384 15,79.180791 C23.4,88.8206215 35.8727273,95 49.8727273,95 C63.8727273,95 76.6,88.8206215 85,79.180791 C83.2181818,73.990113 79.1454545,69.2937853 74.0545455,66.0805085 Z M61.0727273,71.7655367 C54.9636364,74.9788136 50.6363636,77.450565 50.1272727,77.450565 C48.0909091,77.2033898 38.6727273,71.7655367 38.6727273,71.7655367 C36.3818182,70.529661 34.8545455,69.7881356 32.0545455,67.3163842 C32.3090909,66.8220339 33.5818182,65.0918079 34.0909091,64.5974576 C34.3454545,64.1031073 34.8545455,63.8559322 35.1090909,63.3615819 C36.6363636,61.3841808 38.4181818,59.1596045 39.9454545,57.4293785 C42.7454545,59.6539548 46.0545455,61.1370056 49.6181818,61.1370056 C53.1818182,61.1370056 56.2363636,59.6539548 59.2909091,57.4293785 C61.5818182,59.9011299 63.6181818,62.6200565 65.4,64.8446328 C65.6545455,65.3389831 66.1636364,65.8333333 66.4181818,66.0805085 C66.6727273,66.5748588 67.1818182,66.8220339 67.4363636,67.3163842 C66.1636364,69.2937853 62.8545455,70.7768362 61.0727273,71.7655367 Z M71.5090909,34.9364407 C71,37.4081921 69.2181818,38.6440678 67.9454545,38.8912429 L66.9272727,39.1384181 L66.6727273,40.1271186 C64.8909091,46.059322 61.5818182,51.9915254 57,55.4519774 C54.7090909,57.1822034 52.1636364,58.4180791 49.6181818,58.4180791 C47.0727273,58.4180791 44.5272727,57.4293785 42.2363636,55.4519774 C37.9090909,51.9915254 34.3454545,46.059322 32.5636364,40.1271186 L32.3090909,39.1384181 L31.2909091,38.8912429 C30.0181818,38.6440678 28.2363636,37.4081921 27.7272727,34.9364407 C27.2181818,33.4533898 27.4727273,31.7231638 28.2363636,30.4872881 C28.4909091,29.9929379 29,29.4985876 29.5090909,29.4985876 C29.5090909,29.4985876 29.7636364,29.4985876 29.7636364,29.4985876 C29.7636364,29.4985876 30.0181818,29.4985876 30.0181818,29.4985876 L31.5454545,29.7457627 L31.8,28.2627119 C32.0545455,27.0268362 32.3090909,25.7909605 32.5636364,24.8022599 C34.3454545,30.7344633 39.6909091,30.240113 47.3272727,30.9816384 C49.6181818,31.2288136 52.6727273,31.4759887 54.2,31.4759887 C54.4545455,26.779661 48.8545455,21.5889831 48.8545455,21.5889831 C48.8545455,21.5889831 48.8545455,21.5889831 49.6181818,21.5889831 C50.3818182,21.5889831 52.1636364,22.3305085 52.6727273,22.5776836 C58.7818182,25.7909605 59.8,30.7344633 60.0545455,30.7344633 C63.1090909,29.9929379 65.4,28.2627119 66.4181818,25.5437853 C66.6727273,26.5324859 66.9272727,27.2740113 66.9272727,28.2627119 L67.1818182,29.7457627 L68.7090909,29.4985876 C68.9636364,29.4985876 69.2181818,29.4985876 69.2181818,29.4985876 C69.9818182,29.7457627 70.2363636,30.240113 70.4909091,30.4872881 C71.7636364,31.7231638 72.0181818,33.2062147 71.5090909,34.9364407 Z" id="Shape" fill="#9F9F9F"></path>
                </g>
                <g id="Group-10-Copy" filter="url(#filter-17)" transform="translate(362.000000, 361.000000)">
                    <g id="Rectangle-7-Copy-2">
                        <mask id="mask-19" fill="white">
                            <use xlink:href="#path-18"></use>
                        </mask>
                        <use id="Mask" fill="#FFFFFF" fill-rule="nonzero" xlink:href="#path-18"></use>
                    </g>
                    <g id="Group-6" transform="translate(15.000000, 10.000000)" fill="#9F9F9F" fill-rule="nonzero">
                        <path d="M30.7524909,0.038961039 C29.7564626,0.038961039 28.7604343,1.25274725 27.764406,1.4955045 C26.7683777,1.73826174 25.5233423,1.00999001 24.527314,1.25274725 C23.5312857,1.4955045 22.7842645,2.95204795 22.0372432,3.43756244 C21.0412149,3.92307692 19.5471725,3.43756244 18.8001513,4.16583417 C17.804123,4.65134865 17.5551159,6.10789211 16.8080947,6.83616384 C16.0610734,7.56443556 14.567031,7.56443556 13.8200098,8.29270729 C13.0729885,9.02097902 13.3219956,10.4775225 12.8239815,11.4485514 C12.3259673,12.4195804 10.8319249,12.6623377 10.5829178,13.6333666 C10.0849037,14.6043956 10.8319249,15.8181818 10.5829178,16.7892108 C10.3339107,17.7602398 9.33788243,18.7312687 9.33788243,19.7022977 C9.33788243,20.6733267 10.5829178,21.6443556 10.5829178,22.6153846 C10.5829178,23.1008991 10.5829178,23.5864136 10.5829178,24.0719281 C8.09284705,25.7712288 6.84781168,29.4125874 7.84383998,33.2967033 C8.5908612,36.6953047 10.8319249,39.1228771 13.5710027,40.0939061 C16.5590876,49.8041958 24.527314,60 34.9856111,60 C45.6929154,60 53.4121347,49.8041958 56.4002196,40.0939061 C58.8902903,39.1228771 61.131354,36.6953047 62.1273823,33.2967033 C63.3724177,28.6843157 61.3803611,24.3146853 57.894262,23.1008991 C57.894262,22.8581419 57.894262,22.6153846 57.894262,22.6153846 C58.1432691,21.6443556 59.1392974,20.6733267 59.1392974,19.7022977 C59.1392974,18.7312687 57.894262,17.7602398 57.894262,16.7892108 C57.645255,15.8181818 58.3922762,14.6043956 57.894262,13.6333666 C57.3962479,12.6623377 56.1512125,12.1768232 55.6531984,11.4485514 C55.1551842,10.4775225 55.4041913,9.26373626 54.6571701,8.29270729 C53.9101488,7.56443556 52.4161064,7.56443556 51.6690852,6.83616384 C50.9220639,6.10789211 50.6730569,4.65134865 49.6770286,4.16583417 C48.6810003,3.68031968 47.4359649,3.92307692 46.4399366,3.43756244 C45.4439083,2.95204795 44.9458941,1.73826174 43.9498658,1.25274725 C42.9538375,1.00999001 41.7088022,1.4955045 40.7127739,1.4955045 C39.7167456,1.25274725 38.7207173,0.038961039 37.724689,0.038961039 C36.7286607,0.038961039 35.4836253,0.767232767 34.487597,0.767232767 C32.9935545,0.767232767 31.7485192,-0.203796204 30.7524909,0.038961039 Z M53.9101488,25.042957 L54.1591559,26.7422577 L55.9022054,26.4995005 C56.1512125,26.4995005 56.4002196,26.4995005 56.6492267,26.4995005 C56.8982337,26.4995005 56.8982337,26.7422577 57.1472408,26.7422577 C58.6412833,27.4705295 59.1392974,30.1408591 58.6412833,32.5684316 C57.894262,35.2387612 56.1512125,36.6953047 54.9061771,36.9380619 L53.6611418,37.1808192 L53.4121347,38.3946054 C50.9220639,47.6193806 43.7008588,56.8441558 34.9856111,56.8441558 C26.2703635,56.8441558 19.2981654,47.6193806 16.5590876,38.3946054 L16.3100805,37.1808192 L15.0650451,36.9380619 C13.5710027,36.6953047 11.8279532,35.2387612 11.329939,32.5684316 C10.8319249,30.6263736 11.080932,28.6843157 12.0769602,27.4705295 C12.3259673,26.985015 12.8239815,26.7422577 13.3219956,26.4995005 C13.3219956,26.4995005 13.5710027,26.4995005 13.8200098,26.4995005 C13.8200098,26.4995005 14.0690168,26.4995005 14.0690168,26.4995005 L15.8120664,26.7422577 L16.0610734,25.042957 C17.804123,13.8761239 25.5233423,6.59340659 35.2346182,6.59340659 C44.44788,6.59340659 52.1670993,13.8761239 53.9101488,25.042957 Z" id="Shape"></path>
                        <path d="M32.25,46 C35,43.25 34.75,38.25 34.75,38.25 C34.75,38.25 29.75,38 27,40.75 C24.25,43.5 24.5,48.5 24.5,48.5 C24.5,48.5 29.5,49 32.25,46 Z" id="Shape"></path>
                        <path d="M45,48.5 C45,48.5 45.25,43.5 42.5,40.75 C39.75,38 34.75,38.25 34.75,38.25 C34.75,38.25 34.5,43.25 37.25,46 C40.25,49 45,48.5 45,48.5 Z" id="Shape"></path>
                        <path d="M54.6575342,52.5 C52.5,56.1380597 50.1027397,59.2910448 46.7465753,60.988806 C40.0342466,64.3843284 35,67.2947761 35,67.2947761 C35,67.2947761 29.9657534,64.3843284 23.2534247,60.988806 C19.8972603,59.2910448 17.5,56.1380597 15.3424658,52.5 C8.39041096,55.4104478 2.87671233,60.988806 0,66.8097015 C7.9109589,77.7238806 20.6164384,85 35,85 C49.3835616,85 62.3287671,77.7238806 70,66.8097015 C67.1232877,60.7462687 61.609589,55.4104478 54.6575342,52.5 Z" id="Shape"></path>
                    </g>
                </g>
                <g id="Group-10-Copy-2" filter="url(#filter-20)" transform="translate(843.000000, 541.000000)">
                    <g id="Rectangle-7-Copy-2">
                        <mask id="mask-22" fill="white">
                            <use xlink:href="#path-21"></use>
                        </mask>
                        <use id="Mask" fill="#FFFFFF" fill-rule="nonzero" xlink:href="#path-21"></use>
                    </g>
                    <g id="Group-6" transform="translate(15.000000, 10.000000)" fill="#9F9F9F" fill-rule="nonzero">
                        <path d="M30.7524909,0.038961039 C29.7564626,0.038961039 28.7604343,1.25274725 27.764406,1.4955045 C26.7683777,1.73826174 25.5233423,1.00999001 24.527314,1.25274725 C23.5312857,1.4955045 22.7842645,2.95204795 22.0372432,3.43756244 C21.0412149,3.92307692 19.5471725,3.43756244 18.8001513,4.16583417 C17.804123,4.65134865 17.5551159,6.10789211 16.8080947,6.83616384 C16.0610734,7.56443556 14.567031,7.56443556 13.8200098,8.29270729 C13.0729885,9.02097902 13.3219956,10.4775225 12.8239815,11.4485514 C12.3259673,12.4195804 10.8319249,12.6623377 10.5829178,13.6333666 C10.0849037,14.6043956 10.8319249,15.8181818 10.5829178,16.7892108 C10.3339107,17.7602398 9.33788243,18.7312687 9.33788243,19.7022977 C9.33788243,20.6733267 10.5829178,21.6443556 10.5829178,22.6153846 C10.5829178,23.1008991 10.5829178,23.5864136 10.5829178,24.0719281 C8.09284705,25.7712288 6.84781168,29.4125874 7.84383998,33.2967033 C8.5908612,36.6953047 10.8319249,39.1228771 13.5710027,40.0939061 C16.5590876,49.8041958 24.527314,60 34.9856111,60 C45.6929154,60 53.4121347,49.8041958 56.4002196,40.0939061 C58.8902903,39.1228771 61.131354,36.6953047 62.1273823,33.2967033 C63.3724177,28.6843157 61.3803611,24.3146853 57.894262,23.1008991 C57.894262,22.8581419 57.894262,22.6153846 57.894262,22.6153846 C58.1432691,21.6443556 59.1392974,20.6733267 59.1392974,19.7022977 C59.1392974,18.7312687 57.894262,17.7602398 57.894262,16.7892108 C57.645255,15.8181818 58.3922762,14.6043956 57.894262,13.6333666 C57.3962479,12.6623377 56.1512125,12.1768232 55.6531984,11.4485514 C55.1551842,10.4775225 55.4041913,9.26373626 54.6571701,8.29270729 C53.9101488,7.56443556 52.4161064,7.56443556 51.6690852,6.83616384 C50.9220639,6.10789211 50.6730569,4.65134865 49.6770286,4.16583417 C48.6810003,3.68031968 47.4359649,3.92307692 46.4399366,3.43756244 C45.4439083,2.95204795 44.9458941,1.73826174 43.9498658,1.25274725 C42.9538375,1.00999001 41.7088022,1.4955045 40.7127739,1.4955045 C39.7167456,1.25274725 38.7207173,0.038961039 37.724689,0.038961039 C36.7286607,0.038961039 35.4836253,0.767232767 34.487597,0.767232767 C32.9935545,0.767232767 31.7485192,-0.203796204 30.7524909,0.038961039 Z M53.9101488,25.042957 L54.1591559,26.7422577 L55.9022054,26.4995005 C56.1512125,26.4995005 56.4002196,26.4995005 56.6492267,26.4995005 C56.8982337,26.4995005 56.8982337,26.7422577 57.1472408,26.7422577 C58.6412833,27.4705295 59.1392974,30.1408591 58.6412833,32.5684316 C57.894262,35.2387612 56.1512125,36.6953047 54.9061771,36.9380619 L53.6611418,37.1808192 L53.4121347,38.3946054 C50.9220639,47.6193806 43.7008588,56.8441558 34.9856111,56.8441558 C26.2703635,56.8441558 19.2981654,47.6193806 16.5590876,38.3946054 L16.3100805,37.1808192 L15.0650451,36.9380619 C13.5710027,36.6953047 11.8279532,35.2387612 11.329939,32.5684316 C10.8319249,30.6263736 11.080932,28.6843157 12.0769602,27.4705295 C12.3259673,26.985015 12.8239815,26.7422577 13.3219956,26.4995005 C13.3219956,26.4995005 13.5710027,26.4995005 13.8200098,26.4995005 C13.8200098,26.4995005 14.0690168,26.4995005 14.0690168,26.4995005 L15.8120664,26.7422577 L16.0610734,25.042957 C17.804123,13.8761239 25.5233423,6.59340659 35.2346182,6.59340659 C44.44788,6.59340659 52.1670993,13.8761239 53.9101488,25.042957 Z" id="Shape"></path>
                        <path d="M32.25,46 C35,43.25 34.75,38.25 34.75,38.25 C34.75,38.25 29.75,38 27,40.75 C24.25,43.5 24.5,48.5 24.5,48.5 C24.5,48.5 29.5,49 32.25,46 Z" id="Shape"></path>
                        <path d="M45,48.5 C45,48.5 45.25,43.5 42.5,40.75 C39.75,38 34.75,38.25 34.75,38.25 C34.75,38.25 34.5,43.25 37.25,46 C40.25,49 45,48.5 45,48.5 Z" id="Shape"></path>
                        <path d="M54.6575342,52.5 C52.5,56.1380597 50.1027397,59.2910448 46.7465753,60.988806 C40.0342466,64.3843284 35,67.2947761 35,67.2947761 C35,67.2947761 29.9657534,64.3843284 23.2534247,60.988806 C19.8972603,59.2910448 17.5,56.1380597 15.3424658,52.5 C8.39041096,55.4104478 2.87671233,60.988806 0,66.8097015 C7.9109589,77.7238806 20.6164384,85 35,85 C49.3835616,85 62.3287671,77.7238806 70,66.8097015 C67.1232877,60.7462687 61.609589,55.4104478 54.6575342,52.5 Z" id="Shape"></path>
                    </g>
                </g>
            </g>
        </g>
    </g>
</svg>