<svg xmlns="http://www.w3.org/2000/svg" xmlns:xlink="http://www.w3.org/1999/xlink" width="1342" height="379" viewBox="0 0 1342 379">
    <defs>
        <filter id="a" width="170%" height="170%" x="-31%" y="-31%" filterUnits="objectBoundingBox">
            <feOffset dx="4" dy="4" in="SourceAlpha" result="shadowOffsetOuter1"/>
            <feGaussianBlur in="shadowOffsetOuter1" result="shadowBlurOuter1" stdDeviation="11"/>
            <feColorMatrix in="shadowBlurOuter1" result="shadowMatrixOuter1" values="0 0 0 0 0.160784314 0 0 0 0 0.282352941 0 0 0 0 0.419607843 0 0 0 0.5 0"/>
            <feMerge>
                <feMergeNode in="shadowMatrixOuter1"/>
                <feMergeNode in="SourceGraphic"/>
            </feMerge>
        </filter>
        <circle id="b" cx="50" cy="50" r="50"/>
        <filter id="c" width="170%" height="170%" x="-31%" y="-31%" filterUnits="objectBoundingBox">
            <feOffset dx="4" dy="4" in="SourceAlpha" result="shadowOffsetOuter1"/>
            <feGaussianBlur in="shadowOffsetOuter1" result="shadowBlurOuter1" stdDeviation="11"/>
            <feColorMatrix in="shadowBlurOuter1" result="shadowMatrixOuter1" values="0 0 0 0 0.160784314 0 0 0 0 0.282352941 0 0 0 0 0.419607843 0 0 0 0.5 0"/>
            <feMerge>
                <feMergeNode in="shadowMatrixOuter1"/>
                <feMergeNode in="SourceGraphic"/>
            </feMerge>
        </filter>
        <filter id="d" width="170%" height="170%" x="-31%" y="-31%" filterUnits="objectBoundingBox">
            <feOffset dx="4" dy="4" in="SourceAlpha" result="shadowOffsetOuter1"/>
            <feGaussianBlur in="shadowOffsetOuter1" result="shadowBlurOuter1" stdDeviation="11"/>
            <feColorMatrix in="shadowBlurOuter1" result="shadowMatrixOuter1" values="0 0 0 0 0.160784314 0 0 0 0 0.282352941 0 0 0 0 0.419607843 0 0 0 0.5 0"/>
            <feMerge>
                <feMergeNode in="shadowMatrixOuter1"/>
                <feMergeNode in="SourceGraphic"/>
            </feMerge>
        </filter>
        <circle id="e" cx="50" cy="50" r="50"/>
        <filter id="g" width="170%" height="170%" x="-31%" y="-31%" filterUnits="objectBoundingBox">
            <feOffset dx="4" dy="4" in="SourceAlpha" result="shadowOffsetOuter1"/>
            <feGaussianBlur in="shadowOffsetOuter1" result="shadowBlurOuter1" stdDeviation="11"/>
            <feColorMatrix in="shadowBlurOuter1" result="shadowMatrixOuter1" values="0 0 0 0 0.160784314 0 0 0 0 0.282352941 0 0 0 0 0.419607843 0 0 0 0.5 0"/>
            <feMerge>
                <feMergeNode in="shadowMatrixOuter1"/>
                <feMergeNode in="SourceGraphic"/>
            </feMerge>
        </filter>
        <filter id="h" width="170%" height="170%" x="-31%" y="-31%" filterUnits="objectBoundingBox">
            <feOffset dx="4" dy="4" in="SourceAlpha" result="shadowOffsetOuter1"/>
            <feGaussianBlur in="shadowOffsetOuter1" result="shadowBlurOuter1" stdDeviation="11"/>
            <feColorMatrix in="shadowBlurOuter1" result="shadowMatrixOuter1" values="0 0 0 0 0.160784314 0 0 0 0 0.282352941 0 0 0 0 0.419607843 0 0 0 0.5 0"/>
            <feMerge>
                <feMergeNode in="shadowMatrixOuter1"/>
                <feMergeNode in="SourceGraphic"/>
            </feMerge>
        </filter>
        <filter id="i" width="153.8%" height="153.8%" x="-23.8%" y="-23.8%" filterUnits="objectBoundingBox">
            <feOffset dx="4" dy="4" in="SourceAlpha" result="shadowOffsetOuter1"/>
            <feGaussianBlur in="shadowOffsetOuter1" result="shadowBlurOuter1" stdDeviation="11"/>
            <feColorMatrix in="shadowBlurOuter1" result="shadowMatrixOuter1" values="0 0 0 0 0.160784314 0 0 0 0 0.282352941 0 0 0 0 0.419607843 0 0 0 0.5 0"/>
            <feMerge>
                <feMergeNode in="shadowMatrixOuter1"/>
                <feMergeNode in="SourceGraphic"/>
            </feMerge>
        </filter>
    </defs>
    <g fill="none" fill-rule="evenodd">
        <g filter="url(#a)" transform="translate(737 253)">
            <use fill="#FFF" fill-rule="nonzero" xlink:href="#b"/>
            <g fill="#9F9F9F" fill-rule="nonzero">
                <path d="M45.752 10.039c-.996 0-1.992 1.214-2.988 1.457-.996.242-2.24-.486-3.237-.243-.996.243-1.743 1.699-2.49 2.185-.996.485-2.49 0-3.237.728-.996.485-1.245 1.942-1.992 2.67-.747.728-2.241.728-2.988 1.457-.747.728-.498 2.185-.996 3.156-.498.97-1.992 1.213-2.241 2.184-.498.971.249 2.185 0 3.156-.25.971-1.245 1.942-1.245 2.913 0 .971 1.245 1.942 1.245 2.913v1.457c-2.49 1.7-3.735 5.34-2.74 9.225.748 3.398 2.989 5.826 5.728 6.797C31.559 59.804 39.527 70 49.986 70 60.693 70 68.412 59.804 71.4 50.094c2.49-.971 4.731-3.399 5.727-6.797 1.245-4.613-.747-8.982-4.233-10.196v-.486c.25-.97 1.245-1.942 1.245-2.913 0-.97-1.245-1.942-1.245-2.913-.249-.97.498-2.185 0-3.156-.498-.97-1.743-1.456-2.24-2.184-.499-.971-.25-2.185-.997-3.156-.747-.729-2.24-.729-2.988-1.457-.747-.728-.996-2.185-1.992-2.67-.996-.486-2.241-.243-3.237-.728-.996-.486-1.494-1.7-2.49-2.185-.996-.243-2.241.243-3.237.243-.996-.243-1.992-1.457-2.988-1.457s-2.241.728-3.237.728c-1.494 0-2.74-.97-3.736-.728zM68.91 35.043l.25 1.7 1.742-.243h.747c.25 0 .25.242.498.242 1.494.729 1.992 3.399 1.494 5.826-.747 2.67-2.49 4.127-3.735 4.37l-1.245.243-.249 1.214c-2.49 9.224-9.711 18.45-18.426 18.45-8.716 0-15.688-9.226-18.427-18.45l-.249-1.214-1.245-.243c-1.494-.243-3.237-1.7-3.735-4.37-.498-1.942-.25-3.884.747-5.097.249-.486.747-.729 1.245-.971h.747l1.743.242.25-1.699c1.742-11.167 9.461-18.45 19.173-18.45 9.213 0 16.932 7.283 18.675 18.45z"/>
                <path d="M47.25 56c2.75-2.75 2.5-7.75 2.5-7.75s-5-.25-7.75 2.5-2.5 7.75-2.5 7.75 5 .5 7.75-2.5z"/>
                <path d="M60 58.5s.25-5-2.5-7.75-7.75-2.5-7.75-2.5-.25 5 2.5 7.75c3 3 7.75 2.5 7.75 2.5zM69.658 62.5c-2.158 3.638-4.555 6.791-7.911 8.489C55.034 74.384 50 77.295 50 77.295s-5.034-2.91-11.747-6.306c-3.356-1.698-5.753-4.85-7.91-8.489C23.39 65.41 17.876 70.989 15 76.81 22.911 87.724 35.616 95 50 95s27.329-7.276 35-18.19c-2.877-6.064-8.39-11.4-15.342-14.31z"/>
            </g>
        </g>
        <g fill-rule="nonzero" filter="url(#c)" transform="translate(977 253)">
            <circle cx="50" cy="50" r="50" fill="#FFF"/>
            <path fill="#9F9F9F" d="M74.055 66.08c.254-.494.254-.988.509-1.73 0-.494.254-.988.254-1.73.764-4.696 1.273-12.112 1.273-23.482C76.09 21.59 64.38 7.5 49.873 7.5c-5.346 0-10.182 1.977-14.255 5.19a5.864 5.864 0 0 0-1.782 1.73c-6.109 5.686-9.927 14.831-9.927 24.966 0 11.864.51 19.526 1.273 24.223 0 .494.254 1.236.254 1.73.255.494.255 1.236.51 1.73-5.091 3.213-9.164 7.663-10.946 12.112C23.4 88.82 35.873 95 49.873 95c14 0 26.727-6.18 35.127-15.82-1.782-5.19-5.855-9.886-10.945-13.1zm-12.982 5.686c-6.11 3.213-10.437 5.685-10.946 5.685-2.036-.248-11.454-5.685-11.454-5.685-2.291-1.236-3.818-1.978-6.618-4.45.254-.494 1.527-2.224 2.036-2.719.254-.494.764-.741 1.018-1.235 1.527-1.978 3.31-4.202 4.836-5.933 2.8 2.225 6.11 3.708 9.673 3.708 3.564 0 6.618-1.483 9.673-3.708 2.29 2.472 4.327 5.191 6.109 7.416.255.494.764.988 1.018 1.236.255.494.764.741 1.018 1.235-1.272 1.978-4.581 3.46-6.363 4.45zm10.436-36.83c-.509 2.472-2.29 3.708-3.564 3.955l-1.018.247-.254.99C64.89 46.058 61.582 51.991 57 55.451c-2.29 1.73-4.836 2.966-7.382 2.966-2.545 0-5.09-.989-7.382-2.966-4.327-3.46-7.89-9.393-9.672-15.325l-.255-.989-1.018-.247c-1.273-.247-3.055-1.483-3.564-3.955-.509-1.483-.254-3.213.51-4.449.254-.494.763-.988 1.272-.988h.509l1.527.247.255-1.483c.255-1.236.51-2.472.764-3.46 1.781 5.931 7.127 5.437 14.763 6.179 2.291.247 5.346.494 6.873.494.255-4.696-5.345-9.887-5.345-9.887h.763c.764 0 2.546.742 3.055.989 6.109 3.213 7.127 8.156 7.382 8.156 3.054-.741 5.345-2.471 6.363-5.19.255.988.51 1.73.51 2.719l.254 1.483 1.527-.247h.51c.763.247 1.017.741 1.272.988 1.273 1.236 1.527 2.72 1.018 4.45z"/>
        </g>
        <g fill-rule="nonzero" filter="url(#d)" transform="translate(1217 253)">
            <circle cx="50" cy="50" r="50" fill="#FFF"/>
            <path fill="#9F9F9F" d="M25.084 27.138c0 1.491.252 2.983.755 4.474-2.517 1.74-3.524 5.469-2.517 9.446.755 3.232 3.02 5.966 5.537 6.712 3.02 9.943 10.822 20.135 21.393 20.135 10.57 0 18.372-10.192 21.392-20.135 2.517-.994 4.782-3.48 5.537-6.712 1.259-4.474-.503-8.7-3.775-10.192.252-1.242.503-2.485.503-3.728C73.91 16.2 63.087 7.5 49.497 7.5c-13.591 0-24.413 8.7-24.413 19.638zm40.268-5.22c2.014 2.983 3.272 6.463 4.027 10.44l.252 1.74 1.762-.249h.755s.251 0 .251.249c1.51.746 2.265 3.232 1.762 5.966-.755 2.734-2.517 4.226-3.775 4.474l-1.258.249-.252.994c-2.517 9.198-9.564 18.644-18.373 18.644-8.808 0-15.855-9.198-18.372-18.644l-.252-.994-1.258-.249c-1.51-.248-3.272-1.74-3.775-4.474-.504-1.989-.252-3.729.503-4.972.252-.497.755-.994 1.51-1.243h.503l1.762.249.252-1.74c.503-3.48 1.51-6.463 3.02-9.197 2.768 3.231 8.557 5.22 15.1 5.22 7.3.248 13.591-2.486 15.856-6.463zm5.537 37.784c7.802 3.231 13.843 9.197 16.611 15.412C79.446 87.045 65.604 95 50 95s-29.446-7.706-37.5-19.39c2.768-6.462 8.809-12.677 16.61-15.908 2.266 3.728 4.783 6.96 8.306 8.7C44.715 71.882 50 74.865 50 74.865s5.537-2.734 12.584-6.463c3.523-1.74 6.04-4.972 8.305-8.7z"/>
        </g>
        <g transform="translate(497 253)">
            <mask id="f" fill="#fff">
                <use xlink:href="#e"/>
            </mask>
            <use fill="#FFF" fill-rule="nonzero" xlink:href="#e"/>
            <path fill="#9F9F9F" d="M-28.88 64.078l112.76.38v5l-112.76-.38z" mask="url(#f)" transform="rotate(45 27.5 66.768)"/>
        </g>
        <g fill="#9F9F9F" fill-rule="nonzero" opacity=".3">
            <path d="M542.752 263.039c-.996 0-1.992 1.214-2.988 1.457-.996.242-2.24-.486-3.237-.243-.996.243-1.743 1.699-2.49 2.185-.996.485-2.49 0-3.237.728-.996.485-1.245 1.942-1.992 2.67-.747.728-2.241.728-2.988 1.457-.747.728-.498 2.185-.996 3.156-.498.97-1.992 1.213-2.241 2.184-.498.971.249 2.185 0 3.156-.25.971-1.245 1.942-1.245 2.913 0 .971 1.245 1.942 1.245 2.913v1.457c-2.49 1.7-3.735 5.34-2.74 9.225.748 3.398 2.989 5.826 5.728 6.797 2.988 9.71 10.956 19.906 21.415 19.906 10.707 0 18.426-10.196 21.414-19.906 2.49-.971 4.731-3.399 5.727-6.797 1.245-4.613-.747-8.982-4.233-10.196v-.486c.25-.97 1.245-1.942 1.245-2.913 0-.97-1.245-1.942-1.245-2.913-.249-.97.498-2.185 0-3.156-.498-.97-1.743-1.456-2.24-2.184-.499-.971-.25-2.185-.997-3.156-.747-.729-2.24-.729-2.988-1.457-.747-.728-.996-2.185-1.992-2.67-.996-.486-2.241-.243-3.237-.728-.996-.486-1.494-1.7-2.49-2.185-.996-.243-2.241.243-3.237.243-.996-.243-1.992-1.457-2.988-1.457s-2.241.728-3.237.728c-1.494 0-2.74-.97-3.736-.728zm23.158 25.004l.25 1.7 1.742-.243h.747c.25 0 .25.242.498.242 1.494.729 1.992 3.399 1.494 5.826-.747 2.67-2.49 4.127-3.735 4.37l-1.245.243-.249 1.214c-2.49 9.224-9.711 18.45-18.426 18.45-8.716 0-15.688-9.226-18.427-18.45l-.249-1.214-1.245-.243c-1.494-.243-3.237-1.7-3.735-4.37-.498-1.942-.25-3.884.747-5.097.249-.486.747-.729 1.245-.971h.747l1.743.242.25-1.699c1.742-11.167 9.461-18.45 19.173-18.45 9.213 0 16.932 7.283 18.675 18.45z"/>
            <path d="M544.25 309c2.75-2.75 2.5-7.75 2.5-7.75s-5-.25-7.75 2.5-2.5 7.75-2.5 7.75 5 .5 7.75-2.5z"/>
            <path d="M557 311.5s.25-5-2.5-7.75-7.75-2.5-7.75-2.5-.25 5 2.5 7.75c3 3 7.75 2.5 7.75 2.5zM566.658 315.5c-2.158 3.638-4.555 6.791-7.911 8.489-6.713 3.395-11.747 6.306-11.747 6.306s-5.034-2.91-11.747-6.306c-3.356-1.698-5.753-4.85-7.91-8.489-6.953 2.91-12.466 8.489-15.343 14.31 7.911 10.914 20.616 18.19 35 18.19s27.329-7.276 35-18.19c-2.877-6.064-8.39-11.4-15.342-14.31z"/>
        </g>
        <g fill-rule="nonzero" filter="url(#g)" transform="translate(257 253)">
            <circle cx="50" cy="50" r="50" fill="#FFF"/>
            <path fill="#9F9F9F" d="M74.055 66.08c.254-.494.254-.988.509-1.73 0-.494.254-.988.254-1.73.764-4.696 1.273-12.112 1.273-23.482C76.09 21.59 64.38 7.5 49.873 7.5c-5.346 0-10.182 1.977-14.255 5.19a5.864 5.864 0 0 0-1.782 1.73c-6.109 5.686-9.927 14.831-9.927 24.966 0 11.864.51 19.526 1.273 24.223 0 .494.254 1.236.254 1.73.255.494.255 1.236.51 1.73-5.091 3.213-9.164 7.663-10.946 12.112C23.4 88.82 35.873 95 49.873 95c14 0 26.727-6.18 35.127-15.82-1.782-5.19-5.855-9.886-10.945-13.1zm-12.982 5.686c-6.11 3.213-10.437 5.685-10.946 5.685-2.036-.248-11.454-5.685-11.454-5.685-2.291-1.236-3.818-1.978-6.618-4.45.254-.494 1.527-2.224 2.036-2.719.254-.494.764-.741 1.018-1.235 1.527-1.978 3.31-4.202 4.836-5.933 2.8 2.225 6.11 3.708 9.673 3.708 3.564 0 6.618-1.483 9.673-3.708 2.29 2.472 4.327 5.191 6.109 7.416.255.494.764.988 1.018 1.236.255.494.764.741 1.018 1.235-1.272 1.978-4.581 3.46-6.363 4.45zm10.436-36.83c-.509 2.472-2.29 3.708-3.564 3.955l-1.018.247-.254.99C64.89 46.058 61.582 51.991 57 55.451c-2.29 1.73-4.836 2.966-7.382 2.966-2.545 0-5.09-.989-7.382-2.966-4.327-3.46-7.89-9.393-9.672-15.325l-.255-.989-1.018-.247c-1.273-.247-3.055-1.483-3.564-3.955-.509-1.483-.254-3.213.51-4.449.254-.494.763-.988 1.272-.988h.509l1.527.247.255-1.483c.255-1.236.51-2.472.764-3.46 1.781 5.931 7.127 5.437 14.763 6.179 2.291.247 5.346.494 6.873.494.255-4.696-5.345-9.887-5.345-9.887h.763c.764 0 2.546.742 3.055.989 6.109 3.213 7.127 8.156 7.382 8.156 3.054-.741 5.345-2.471 6.363-5.19.255.988.51 1.73.51 2.719l.254 1.483 1.527-.247h.51c.763.247 1.017.741 1.272.988 1.273 1.236 1.527 2.72 1.018 4.45z"/>
        </g>
        <g fill-rule="nonzero" filter="url(#h)" transform="translate(17 253)">
            <circle cx="50" cy="50" r="50" fill="#FFF"/>
            <path fill="#9F9F9F" d="M25.084 27.138c0 1.491.252 2.983.755 4.474-2.517 1.74-3.524 5.469-2.517 9.446.755 3.232 3.02 5.966 5.537 6.712 3.02 9.943 10.822 20.135 21.393 20.135 10.57 0 18.372-10.192 21.392-20.135 2.517-.994 4.782-3.48 5.537-6.712 1.259-4.474-.503-8.7-3.775-10.192.252-1.242.503-2.485.503-3.728C73.91 16.2 63.087 7.5 49.497 7.5c-13.591 0-24.413 8.7-24.413 19.638zm40.268-5.22c2.014 2.983 3.272 6.463 4.027 10.44l.252 1.74 1.762-.249h.755s.251 0 .251.249c1.51.746 2.265 3.232 1.762 5.966-.755 2.734-2.517 4.226-3.775 4.474l-1.258.249-.252.994c-2.517 9.198-9.564 18.644-18.373 18.644-8.808 0-15.855-9.198-18.372-18.644l-.252-.994-1.258-.249c-1.51-.248-3.272-1.74-3.775-4.474-.504-1.989-.252-3.729.503-4.972.252-.497.755-.994 1.51-1.243h.503l1.762.249.252-1.74c.503-3.48 1.51-6.463 3.02-9.197 2.768 3.231 8.557 5.22 15.1 5.22 7.3.248 13.591-2.486 15.856-6.463zm5.537 37.784c7.802 3.231 13.843 9.197 16.611 15.412C79.446 87.045 65.604 95 50 95s-29.446-7.706-37.5-19.39c2.768-6.462 8.809-12.677 16.61-15.908 2.266 3.728 4.783 6.96 8.306 8.7C44.715 71.882 50 74.865 50 74.865s5.537-2.734 12.584-6.463c3.523-1.74 6.04-4.972 8.305-8.7z"/>
        </g>
        <g transform="translate(597 13)">
            <circle cx="70" cy="70" r="69" stroke="#29486B" stroke-width="2"/>
            <g fill-rule="nonzero" filter="url(#i)" transform="translate(5 5)">
                <circle cx="65" cy="65" r="65" fill="#FFF"/>
                <path fill="#29486B" d="M95.663 86.317c.33-.644.33-1.287.66-2.252 0-.644.33-1.287.33-2.252.989-6.112 1.649-15.763 1.649-30.56 0-22.84-15.172-41.175-33.97-41.175-6.927 0-13.193 2.573-18.47 6.755-.99.643-1.65 1.287-2.309 2.252-7.915 7.398-12.862 19.3-12.862 32.49 0 15.44.66 25.413 1.649 31.525 0 .643.33 1.608.33 2.251.33.644.33 1.609.66 2.252-6.597 4.182-11.874 9.972-14.183 15.763 10.884 12.545 27.045 20.587 45.184 20.587 18.14 0 34.63-8.042 45.514-20.587-2.309-6.756-7.586-12.868-14.182-17.05zm-16.82 7.398c-7.916 4.182-13.522 7.399-14.182 7.399-2.638-.322-14.841-7.399-14.841-7.399-2.969-1.608-4.948-2.573-8.575-5.79.33-.643 1.978-2.895 2.638-3.539.33-.643.99-.965 1.32-1.608 1.978-2.573 4.287-5.469 6.266-7.72 3.628 2.895 7.915 4.825 12.532 4.825 4.618 0 8.575-1.93 12.533-4.825 2.968 3.216 5.607 6.755 7.916 9.65.33.643.989 1.287 1.319 1.609.33.643.99.965 1.32 1.608-1.65 2.573-5.937 4.504-8.246 5.79zm13.522-47.93c-.66 3.216-2.968 4.825-4.617 5.146l-1.32.322-.33 1.287c-2.308 7.72-6.596 15.44-12.532 19.944-2.968 2.252-6.266 3.86-9.565 3.86-3.298 0-6.596-1.286-9.564-3.86C48.83 67.981 44.213 60.26 41.904 52.54l-.33-1.287-1.319-.322c-1.649-.321-3.958-1.93-4.617-5.147-.66-1.93-.33-4.181.66-5.79.33-.643.989-1.287 1.648-1.287h.66l1.979.322.33-1.93c.33-1.608.66-3.217.99-4.504 2.308 7.72 9.234 7.077 19.128 8.042 2.968.322 6.926.644 8.905.644.33-6.112-6.926-12.868-6.926-12.868h.99c.989 0 3.298.966 3.957 1.287 7.916 4.182 9.235 10.616 9.565 10.616 3.957-.965 6.926-3.217 8.245-6.756.33 1.287.66 2.252.66 3.539l.33 1.93 1.978-.322h.66c.99.322 1.319.965 1.649 1.287 1.649 1.609 1.979 3.539 1.319 5.79z"/>
            </g>
        </g>
    </g>
</svg>
