<svg xmlns="http://www.w3.org/2000/svg" width="24" height="24" viewBox="0 0 24 24">
    <g fill="none" fill-rule="evenodd">
        <path d="M0 0h24v24H0z"/>
        <path fill="#375D88" fill-rule="nonzero" d="M12 21.4c-5.2 0-9.4-4.2-9.4-9.4 0-4 2.5-7.5 6.2-8.9l.6 1.8c-3 1.1-5 3.9-5 7.1 0 4.2 3.4 7.6 7.6 7.6 3.2 0 6-2 7.1-5l1.8.6c-1.4 3.7-4.9 6.2-8.9 6.2z"/>
        <path fill="#375D88" fill-rule="nonzero" d="M21.4 12.9H11.1V2.6h.9c2.5 0 4.9 1 6.7 2.8 1.8 1.8 2.8 4.2 2.8 6.7v.8h-.1zm-8.5-1.8h6.6c-.2-1.7-1-3.2-2.2-4.4-1.2-1.2-2.7-1.9-4.4-2.2v6.6z"/>
    </g>
</svg>
