<?xml version="1.0" encoding="utf-8"?>
<!-- Generator: Adobe Illustrator 21.1.0, SVG Export Plug-In . SVG Version: 6.00 Build 0)  -->
<svg version="1.1" id="Слой_1" xmlns="http://www.w3.org/2000/svg" xmlns:xlink="http://www.w3.org/1999/xlink" x="0px" y="0px"
	 viewBox="0 0 15.8 13.6" style="enable-background:new 0 0 15.8 13.6;" xml:space="preserve">
<style type="text/css">
	.st0{fill:#FFFFFF;fill-opacity:0;}
	.st1{fill:#375D88;}
</style>
<polygon class="st0" points="-0.7,-2.2 17.3,-2.2 17.3,15.8 -0.7,15.8 "/>
<path class="st1" d="M9,0C5.3,0,2.2,3,2.2,6.8H0l2.9,2.9L3,9.8l3-3H3.8c0-2.9,2.3-5.2,5.2-5.2s5.2,2.3,5.2,5.2S11.9,12,9,12
	c-1.4,0-2.8-0.6-3.7-1.5l-1.1,1.1c1.2,1.2,2.9,2,4.8,2c3.7,0,6.8-3,6.8-6.8S12.8,0,9,0z M8.3,3.8v3.8l3.2,1.9L12,8.6L9.4,7V3.8H8.3z
	"/>
</svg>
