<?xml version="1.0" encoding="UTF-8"?>
<svg width="24px" height="24px" viewBox="0 0 24 24" version="1.1" xmlns="http://www.w3.org/2000/svg" xmlns:xlink="http://www.w3.org/1999/xlink">
    <!-- Generator: Sketch 49 (51002) - http://www.bohemiancoding.com/sketch -->
    <title>ic_usb_black_24px</title>
    <desc>Created with Sketch.</desc>
    <defs></defs>
    <g id="Symbols" stroke="none" stroke-width="1" fill="none" fill-rule="evenodd">
        <g id="ic_usb_black_24px">
            <g id="Shape">
                <polygon fill="#375D88" points="0 0 24 0 24 24 0 24"></polygon>
                <path d="M17.8,12.3 L17.8,10.2 C17.8,9.1 16.9,8.2 15.8,8.2 L12.8,8.2 L12.8,5.2 C13.5,4.8 14,4.1 14,3.2 C14,2 13.1,1.1 12,1 C10.9,1.1 9.9,2 9.9,3.2 C9.9,4 10.4,4.8 11.1,5.1 L11.1,8.1 L8.1,8.1 C7,8.1 6.1,9 6.1,10.1 L6.1,12.2 C5.4,12.6 5,13.3 5,14.2 C5,15.4 6,16.4 7.2,16.4 C8.4,16.4 9.4,15.4 9.4,14.2 C9.4,13.4 8.9,12.6 8.2,12.3 L8.2,10.2 L11.2,10.2 L11.2,17.2 C10.3,17.6 9.6,18.5 9.6,19.5 C9.6,20.9 10.7,22 12.1,22 C13.5,22 14.6,20.9 14.6,19.5 C14.6,18.4 13.9,17.5 12.9,17.2 L12.9,10.2 L15.9,10.2 L15.9,12.3 C15.2,12.7 14.7,13.4 14.7,14.2 C14.7,15.4 15.7,16.4 16.9,16.4 C18.1,16.4 19.1,15.4 19.1,14.2 C19,13.3 18.5,12.6 17.8,12.3 Z" fill="#FFFFFF" fill-rule="nonzero"></path>
            </g>
        </g>
    </g>
</svg>