<svg xmlns="http://www.w3.org/2000/svg" width="24" height="24" viewBox="0 0 24 24">
    <g fill="none" fill-rule="evenodd">
        <path d="M0 0h24v24H0z"/>
        <g fill="#FFF">
            <path d="M5.5 14A1.5 1.5 0 1 1 5.5 17 1.5 1.5 0 0 1 5.5 14M9.5 14A1.5 1.5 0 1 1 9.5 17 1.5 1.5 0 0 1 9.5 14M14.5 14A1.5 1.5 0 1 1 14.5 17 1.5 1.5 0 0 1 14.5 14M18.5 14A1.5 1.5 0 1 1 18.5 17 1.5 1.5 0 0 1 18.5 14"/>
            <path d="M5.5 11h13a4.5 4.5 0 0 1 0 9h-13a4.5 4.5 0 1 1 0-9zm0 2a2.5 2.5 0 0 0 0 5h13a2.5 2.5 0 1 0 0-5h-13zM7.17 8H1V6h6.17A3.001 3.001 0 0 1 10 4h7a3 3 0 1 1 0 6h-7a3 3 0 0 1-2.83-2"/>
        </g>
    </g>
</svg>
