<?xml version="1.0" encoding="utf-8"?>
<!-- Generator: Adobe Illustrator 21.1.0, SVG Export Plug-In . SVG Version: 6.00 Build 0)  -->
<svg version="1.1" id="Слой_1" xmlns="http://www.w3.org/2000/svg" xmlns:xlink="http://www.w3.org/1999/xlink" x="0px" y="0px"
	 viewBox="0 0 24 24" style="enable-background:new 0 0 24 24;" xml:space="preserve">
<style type="text/css">
	.st0{fill:#FFFFFF;}
	.st1{fill:none;}
</style>
<title>ic_Wedding_24px</title>
<desc>Created with Sketch.</desc>
<g id="Symbols">
	<g id="ic_Wedding_24px" transform="translate(-1.000000, -4.000000)">
		<g id="Shape">
			<path class="st0" d="M16,8c-4.4,0-8,3.6-8,8c0,1.9,0.7,3.6,1.7,5c0.1,0,0.2,0,0.3,0c0.7,0,1.5-0.2,2.1-0.5
				C10.8,19.4,10,17.8,10,16c0-3.3,2.7-6,6-6s6,2.7,6,6c0,3.1-2.3,5.6-5.3,6c-0.7,0.7-1.4,1.4-2.3,1.9c0.5,0.1,1.1,0.2,1.6,0.2
				c4.4,0,8-3.6,8-8S20.4,8,16,8z"/>
			<path class="st0" d="M16,11c-0.7,0-1.4,0.2-2.1,0.5c1.3,1.1,2.1,2.7,2.1,4.5c0,3.3-2.7,6-6,6s-6-2.7-6-6c0-3.1,2.3-5.6,5.3-5.9
				c0.7-0.8,1.5-1.4,2.3-1.9C11.1,8.1,10.5,8,10,8c-4.4,0-8,3.6-8,8s3.6,8,8,8s8-3.6,8-8c0-1.9-0.7-3.6-1.7-5C16.2,11,16.1,11,16,11
				z"/>
			<polygon class="st1" points="1,4 25,4 25,28 1,28 			"/>
		</g>
	</g>
</g>
</svg>
