<?xml version="1.0" encoding="utf-8"?>
<!-- Generator: Adobe Illustrator 21.1.0, SVG Export Plug-In . SVG Version: 6.00 Build 0)  -->
<svg version="1.1" id="Слой_1" xmlns="http://www.w3.org/2000/svg" xmlns:xlink="http://www.w3.org/1999/xlink" x="0px" y="0px"
	 viewBox="0 0 24 24" style="enable-background:new 0 0 24 24;" xml:space="preserve">
<style type="text/css">
	.st0{fill:none;}
	.st1{fill:#4A90E2;}
</style>
<title>Symbol-Man Copy 5</title>
<desc>Created with Sketch.</desc>
<g id="Page-1">
	<g id="_x30_2-02-01-02-Card-Relations-Table-Copy" transform="translate(-1773.000000, -725.000000)">
		<g id="Symbol-Man" transform="translate(1770.000000, 723.000000)">
			<g id="Group-8">
				<polygon id="Shape" class="st0" points="3,26 3,2 27,2 27,26 				"/>
				<path id="Shape_1_" class="st1" d="M23,4h-5v2h3.6l-3.8,3.8l-0.7,0.7l-0.8,0.8c-1.1-0.8-2.4-1.3-3.8-1.3C8.9,10,6,12.9,6,16.5
					S8.9,23,12.5,23s6.5-2.9,6.5-6.5c0-1.4-0.5-2.7-1.3-3.8l0.8-0.8l0.7-0.7L23,7.4V11h2V6V4H23z M12.5,21C10,21,8,19,8,16.5
					s2-4.5,4.5-4.5s4.5,2,4.5,4.5S15,21,12.5,21z"/>
			</g>
		</g>
	</g>
</g>
</svg>
