<svg xmlns="http://www.w3.org/2000/svg" width="24" height="24" viewBox="0 0 24 24">
    <g fill="none" fill-rule="evenodd">
        <path d="M0 0h24v24H0z"/>
        <path fill="#FFF" fill-rule="nonzero" d="M22 19.2V13c-2.7 0-5.1.4-7.3 1.1 3.4 1.7 5.8 3.7 7.3 5.1zM2 13c12.2 0 20 9 20 9H2v-9zM12 12.9c2-.8 3.9-1.3 6-1.6-.3-3-2.9-5.3-6-5.3s-5.6 2.3-6 5.3c2.1.3 4 .8 6 1.6zM10 4.3L9.3 2H8.2L9 4.6c.4-.2.7-.3 1-.3zM12 4h.5V2h-1v2h.5zM17.1 5.8L19.9 2h-1.2l-2.4 3.2c.3.2.5.4.8.6zM14.9 4.6l.9-2.6h-1.1L14 4.3c.3 0 .6.1.9.3zM7.7 5.2L5.4 2H4.1l2.8 3.8c.3-.2.5-.4.8-.6zM18.2 6.9c.2.3.4.5.6.8L22 5.4V4.1l-3.8 2.8zM19.7 10l2.3-.7V8.2l-2.6.8c.2.4.3.7.3 1zM4.6 9.1L2 8.2v1.1l2.3.7c0-.3.1-.6.3-.9zM5.8 6.9L2 4.1v1.2l3.2 2.4c.2-.3.4-.5.6-.8z"/>
    </g>
</svg>
