<?xml version="1.0" encoding="utf-8"?>
<!-- Generator: Adobe Illustrator 21.1.0, SVG Export Plug-In . SVG Version: 6.00 Build 0)  -->
<svg version="1.1" id="Слой_1" xmlns="http://www.w3.org/2000/svg" xmlns:xlink="http://www.w3.org/1999/xlink" x="0px" y="0px"
	 viewBox="0 0 24 24" style="enable-background:new 0 0 24 24;" xml:space="preserve">
<style type="text/css">
	.st0{fill:none;}
	.st1{fill:#EF6D63;}
</style>
<title>Symbol-Man</title>
<desc>Created with Sketch.</desc>
<g id="Page-1">
	<g id="_x30_2-02-01-02-Card-Relations-Table-Copy" transform="translate(-1775.000000, -455.000000)">
		<g id="Symbol-Woman" transform="translate(1770.000000, 453.000000)">
			<g id="Group-9">
				<polygon id="Shape" class="st0" points="5,2 29,2 29,26 5,26 				"/>
				<path id="Shape_1_" class="st1" d="M18,16.9c1.3-0.2,2.6-0.8,3.6-1.8c2.5-2.5,2.5-6.7,0-9.2s-6.7-2.5-9.2,0s-2.5,6.7,0,9.2
					c1,1,2.3,1.6,3.6,1.8V18v2h-2v2h2v2h2v-2h2v-2h-2v-2V16.9z M13.8,13.6C12,11.8,12,9,13.8,7.2s4.6-1.8,6.4,0
					c1.8,1.8,1.8,4.6,0,6.4C18.4,15.4,15.6,15.4,13.8,13.6z"/>
			</g>
		</g>
	</g>
</g>
</svg>
