<?xml version="1.0" encoding="UTF-8"?>
<svg width="36px" height="36px" viewBox="0 0 36 36" version="1.1" xmlns="http://www.w3.org/2000/svg" xmlns:xlink="http://www.w3.org/1999/xlink">
    <!-- Generator: Sketch 49.1 (51147) - http://www.bohemiancoding.com/sketch -->
    <title>Symbol-Man-white</title>
    <desc>Created with Sketch.</desc>
    <defs></defs>
    <g id="Symbol-Man-white" stroke="none" stroke-width="1" fill="none" fill-rule="evenodd">
        <g id="Group-8">
            <polygon id="Shape" points="0 36 0 0 36 0 36 36"></polygon>
            <path d="M30,3 L22.5,3 L22.5,6 L27.9,6 L22.2,11.7 L21.15,12.75 L19.95,13.95 C18.3,12.75 16.35,12 14.25,12 C8.85,12 4.5,16.35 4.5,21.75 C4.5,27.15 8.85,31.5 14.25,31.5 C19.65,31.5 24,27.15 24,21.75 C24,19.65 23.25,17.7 22.05,16.05 L23.25,14.85 L24.3,13.8 L30,8.1 L30,13.5 L33,13.5 L33,6 L33,3 L30,3 Z M14.25,28.5 C10.5,28.5 7.5,25.5 7.5,21.75 C7.5,18 10.5,15 14.25,15 C18,15 21,18 21,21.75 C21,25.5 18,28.5 14.25,28.5 Z" id="Shape" fill="#FFFFFF" fill-rule="nonzero"></path>
        </g>
    </g>
</svg>