<?xml version="1.0" encoding="UTF-8"?>
<svg width="36px" height="36px" viewBox="0 0 36 36" version="1.1" xmlns="http://www.w3.org/2000/svg" xmlns:xlink="http://www.w3.org/1999/xlink">
    <!-- Generator: Sketch 49.1 (51147) - http://www.bohemiancoding.com/sketch -->
    <title>Symbol-Woman-white</title>
    <desc>Created with Sketch.</desc>
    <defs></defs>
    <g id="Symbol-Woman-white" stroke="none" stroke-width="1" fill="none" fill-rule="evenodd">
        <g id="Group-9">
            <polygon id="Shape" points="0 0 36 0 36 36 0 36"></polygon>
            <path d="M19.5,22.35 C21.45,22.05 23.4,21.15 24.9,19.65 C28.65,15.9 28.65,9.6 24.9,5.85 C21.15,2.1 14.85,2.1 11.1,5.85 C7.35,9.6 7.35,15.9 11.1,19.65 C12.6,21.15 14.55,22.05 16.5,22.35 L16.5,24 L16.5,27 L13.5,27 L13.5,30 L16.5,30 L16.5,33 L19.5,33 L19.5,30 L22.5,30 L22.5,27 L19.5,27 L19.5,24 L19.5,22.35 Z M13.2,17.4 C10.5,14.7 10.5,10.5 13.2,7.8 C15.9,5.1 20.1,5.1 22.8,7.8 C25.5,10.5 25.5,14.7 22.8,17.4 C20.1,20.1 15.9,20.1 13.2,17.4 Z" id="Shape" fill="#FFFFFF" fill-rule="nonzero"></path>
        </g>
    </g>
</svg>