<?xml version="1.0" encoding="UTF-8"?>
<svg width="18px" height="19px" viewBox="0 0 18 19" version="1.1" xmlns="http://www.w3.org/2000/svg" xmlns:xlink="http://www.w3.org/1999/xlink">
    <!-- Generator: Sketch 49 (51002) - http://www.bohemiancoding.com/sketch -->
    <title>ic_search_black_24px</title>
    <desc>Created with Sketch.</desc>
    <defs></defs>
    <g id="Page-1" stroke="none" stroke-width="1" fill="none" fill-rule="evenodd">
        <g id="02-02-02-Card-Relations-Graphic" transform="translate(-1818.000000, -328.000000)">
            <g id="Group-8" transform="translate(1613.000000, 319.000000)">
                <g id="Group">
                    <g id="ic_search_black_24px" transform="translate(202.000000, 6.000000)">
                        <g id="ic_search_black_24px-(3)">
                            <path d="M15.5,14.5833333 L14.71,14.5833333 L14.43,14.3020833 C15.41,13.1145833 16,11.5729167 16,9.89583333 C16,6.15625 13.09,3.125 9.5,3.125 C5.91,3.125 3,6.15625 3,9.89583333 C3,13.6354167 5.91,16.6666667 9.5,16.6666667 C11.11,16.6666667 12.59,16.0520833 13.73,15.03125 L14,15.3229167 L14,16.1458333 L19,21.34375 L20.49,19.7916667 L15.5,14.5833333 Z M9.5,14.5833333 C7.01,14.5833333 5,12.4895833 5,9.89583333 C5,7.30208333 7.01,5.20833333 9.5,5.20833333 C11.99,5.20833333 14,7.30208333 14,9.89583333 C14,12.4895833 11.99,14.5833333 9.5,14.5833333 Z" id="Shape" fill="#375D88" fill-rule="nonzero"></path>
                            <polygon id="Shape" points="0 0 24 0 24 25 0 25"></polygon>
                        </g>
                    </g>
                </g>
            </g>
        </g>
    </g>
</svg>